<svg id="SvgjsSvg1006" width="1610.5" height="758.921875" xmlns="http://www.w3.org/2000/svg" version="1.1" xmlns:xlink="http://www.w3.org/1999/xlink" xmlns:svgjs="http://svgjs.com/svgjs"><defs id="SvgjsDefs1007"><marker id="SvgjsMarker1030" markerWidth="14" markerHeight="10" refX="10" refY="5" viewBox="0 0 14 10" orient="auto" markerUnits="userSpaceOnUse" stroke-dasharray="0,0"><path id="SvgjsPath1031" d="M0,0 L14,5 L0,10 L0,0" fill="#323232" stroke="#323232" stroke-width="1"></path></marker><marker id="SvgjsMarker1098" markerWidth="14" markerHeight="10" refX="10" refY="5" viewBox="0 0 14 10" orient="auto" markerUnits="userSpaceOnUse" stroke-dasharray="0,0"><path id="SvgjsPath1099" d="M0,0 L14,5 L0,10 L0,0" fill="#323232" stroke="#323232" stroke-width="1"></path></marker><marker id="SvgjsMarker1102" markerWidth="14" markerHeight="10" refX="10" refY="5" viewBox="0 0 14 10" orient="auto" markerUnits="userSpaceOnUse" stroke-dasharray="0,0"><path id="SvgjsPath1103" d="M0,0 L14,5 L0,10 L0,0" fill="#323232" stroke="#323232" stroke-width="1"></path></marker><marker id="SvgjsMarker1106" markerWidth="14" markerHeight="10" refX="10" refY="5" viewBox="0 0 14 10" orient="auto" markerUnits="userSpaceOnUse" stroke-dasharray="0,0"><path id="SvgjsPath1107" d="M0,0 L14,5 L0,10 L0,0" fill="#323232" stroke="#323232" stroke-width="1"></path></marker><marker id="SvgjsMarker1110" markerWidth="14" markerHeight="10" refX="10" refY="5" viewBox="0 0 14 10" orient="auto" markerUnits="userSpaceOnUse" stroke-dasharray="0,0"><path id="SvgjsPath1111" d="M0,0 L14,5 L0,10 L0,0" fill="#323232" stroke="#323232" stroke-width="1"></path></marker><marker id="SvgjsMarker1114" markerWidth="14" markerHeight="10" refX="10" refY="5" viewBox="0 0 14 10" orient="auto" markerUnits="userSpaceOnUse" stroke-dasharray="0,0"><path id="SvgjsPath1115" d="M0,0 L14,5 L0,10 L0,0" fill="#323232" stroke="#323232" stroke-width="1"></path></marker><marker id="SvgjsMarker1140" markerWidth="14" markerHeight="10" refX="10" refY="5" viewBox="0 0 14 10" orient="auto" markerUnits="userSpaceOnUse" stroke-dasharray="0,0"><path id="SvgjsPath1141" d="M0,0 L14,5 L0,10 L0,0" fill="#323232" stroke="#323232" stroke-width="1"></path></marker><marker id="SvgjsMarker1154" markerWidth="14" markerHeight="10" refX="10" refY="5" viewBox="0 0 14 10" orient="auto" markerUnits="userSpaceOnUse" stroke-dasharray="0,0"><path id="SvgjsPath1155" d="M0,0 L14,5 L0,10 L0,0" fill="#323232" stroke="#323232" stroke-width="1"></path></marker><marker id="SvgjsMarker1174" markerWidth="14" markerHeight="10" refX="10" refY="5" viewBox="0 0 14 10" orient="auto" markerUnits="userSpaceOnUse" stroke-dasharray="0,0"><path id="SvgjsPath1175" d="M0,0 L14,5 L0,10 L0,0" fill="#323232" stroke="#323232" stroke-width="1"></path></marker><marker id="SvgjsMarker1182" markerWidth="14" markerHeight="10" refX="10" refY="5" viewBox="0 0 14 10" orient="auto" markerUnits="userSpaceOnUse" stroke-dasharray="0,0"><path id="SvgjsPath1183" d="M0,0 L14,5 L0,10 L0,0" fill="#323232" stroke="#323232" stroke-width="1"></path></marker><marker id="SvgjsMarker1196" markerWidth="14" markerHeight="10" refX="10" refY="5" viewBox="0 0 14 10" orient="auto" markerUnits="userSpaceOnUse" stroke-dasharray="0,0"><path id="SvgjsPath1197" d="M0,0 L14,5 L0,10 L0,0" fill="#323232" stroke="#323232" stroke-width="1"></path></marker><marker id="SvgjsMarker1210" markerWidth="14" markerHeight="10" refX="10" refY="5" viewBox="0 0 14 10" orient="auto" markerUnits="userSpaceOnUse" stroke-dasharray="0,0"><path id="SvgjsPath1211" d="M0,0 L14,5 L0,10 L0,0" fill="#323232" stroke="#323232" stroke-width="1"></path></marker><marker id="SvgjsMarker1236" markerWidth="14" markerHeight="10" refX="10" refY="5" viewBox="0 0 14 10" orient="auto" markerUnits="userSpaceOnUse" stroke-dasharray="0,0"><path id="SvgjsPath1237" d="M0,0 L14,5 L0,10 L0,0" fill="#323232" stroke="#323232" stroke-width="1"></path></marker><marker id="SvgjsMarker1250" markerWidth="14" markerHeight="10" refX="10" refY="5" viewBox="0 0 14 10" orient="auto" markerUnits="userSpaceOnUse" stroke-dasharray="0,0"><path id="SvgjsPath1251" d="M0,0 L14,5 L0,10 L0,0" fill="#323232" stroke="#323232" stroke-width="1"></path></marker></defs><g id="SvgjsG1008" transform="translate(25,87.21932337166118)"><path id="SvgjsPath1009" d="M 0 0L 72 0L 72 540L 0 540Z" stroke="rgba(50,50,50,1)" stroke-width="2" fill="none"></path><path id="SvgjsPath1010" d="M 0 0L 72 0L 72 40L 0 40Z" stroke="rgba(50,50,50,1)" stroke-width="2" fill-opacity="1" fill="#ffffff"></path><g id="SvgjsG1011"><text id="SvgjsText1012" font-family="微软雅黑" text-anchor="middle" font-size="16px" width="52px" fill="#323232" font-weight="400" align="middle" lineHeight="125%" anchor="middle" family="微软雅黑" size="16px" weight="400" font-style="" opacity="1" y="6" transform="rotate(0)"></text></g></g><g id="SvgjsG1013" transform="translate(25,127.21932337166118)"><path id="SvgjsPath1014" d="M 0 0L 72 0L 72 500L 0 500Z" stroke="rgba(50,50,50,1)" stroke-width="2" fill="none"></path><path id="SvgjsPath1015" d="M 0 0L 72 0L 72 30L 0 30Z" stroke="rgba(50,50,50,1)" stroke-width="2" fill-opacity="1" fill="#ffffff"></path><g id="SvgjsG1016"><text id="SvgjsText1017" font-family="微软雅黑" text-anchor="middle" font-size="13px" width="52px" fill="#323232" font-weight="400" align="middle" lineHeight="125%" anchor="middle" family="微软雅黑" size="13px" weight="400" font-style="" opacity="1" y="-4.125" transform="rotate(0)"><tspan id="SvgjsTspan1018" dy="16" x="36"><tspan id="SvgjsTspan1019" style="text-decoration:;">Angular</tspan></tspan><tspan id="SvgjsTspan1020" dy="16" x="36"><tspan id="SvgjsTspan1021" style="text-decoration:;">webapp</tspan></tspan></text></g></g><g id="SvgjsG1022" transform="translate(441.5,100.421875)"><path id="SvgjsPath1023" d="M 0 0L 100 0L 100 70L 0 70Z" stroke="rgba(50,50,50,1)" stroke-width="2" fill-opacity="1" fill="#ffffff"></path><g id="SvgjsG1024"><text id="SvgjsText1025" font-family="微软雅黑" text-anchor="middle" font-size="13px" width="80px" fill="#323232" font-weight="400" align="middle" lineHeight="125%" anchor="middle" family="微软雅黑" size="13px" weight="400" font-style="" opacity="1" y="23.875" transform="rotate(0)"><tspan id="SvgjsTspan1026" dy="16" x="50"><tspan id="SvgjsTspan1027" style="text-decoration:;">manager</tspan></tspan></text></g></g><g id="SvgjsG1028"><path id="SvgjsPath1029" d="M491.5 99.421875L491.5 83.421875L865.9 83.421875" stroke="#323232" stroke-width="2" fill="none" marker-end="url(#SvgjsMarker1030)"></path><rect id="SvgjsRect1032" width="130" height="16" x="605.7" y="75.421875" fill="#ffffff"></rect><text id="SvgjsText1033" font-family="微软雅黑" text-anchor="middle" font-size="13px" width="130px" fill="#323232" font-weight="400" align="top" lineHeight="16px" anchor="middle" family="微软雅黑" size="13px" weight="400" font-style="" opacity="1" y="72.796875" transform="rotate(0)"><tspan id="SvgjsTspan1034" dy="16" x="670.7"><tspan id="SvgjsTspan1035" style="text-decoration:;">新增删除修改采集任务</tspan></tspan></text></g><g id="SvgjsG1036" transform="translate(869.5,48.421875)"><path id="SvgjsPath1037" d="M 0 0L 100 0L 100 70L 0 70Z" stroke="rgba(50,50,50,1)" stroke-width="2" fill-opacity="1" fill="#ffffff"></path><g id="SvgjsG1038"><text id="SvgjsText1039" font-family="微软雅黑" text-anchor="middle" font-size="13px" width="80px" fill="#323232" font-weight="400" align="middle" lineHeight="125%" anchor="middle" family="微软雅黑" size="13px" weight="400" font-style="" opacity="1" y="23.875" transform="rotate(0)"><tspan id="SvgjsTspan1040" dy="16" x="50"><tspan id="SvgjsTspan1041" style="text-decoration:;">collector</tspan></tspan></text></g></g><g id="SvgjsG1042" transform="translate(1108.75,25.00641612047093)"><path id="SvgjsPath1043" d="M 0 0L 136.5 0L 136.5 34L 0 34Z" stroke="rgba(50,50,50,1)" stroke-width="2" fill-opacity="1" fill="#ffffff"></path><g id="SvgjsG1044"><text id="SvgjsText1045" font-family="微软雅黑" text-anchor="middle" font-size="13px" width="117px" fill="#323232" font-weight="400" align="middle" lineHeight="125%" anchor="middle" family="微软雅黑" size="13px" weight="400" font-style="" opacity="1" y="5.875" transform="rotate(0)"><tspan id="SvgjsTspan1046" dy="16" x="68.5"><tspan id="SvgjsTspan1047" style="text-decoration:;">http</tspan></tspan></text></g></g><g id="SvgjsG1048" transform="translate(1108.75,88.00641612047093)"><path id="SvgjsPath1049" d="M 0 0L 136.5 0L 136.5 34L 0 34Z" stroke="rgba(50,50,50,1)" stroke-width="2" fill-opacity="1" fill="#ffffff"></path><g id="SvgjsG1050"><text id="SvgjsText1051" font-family="微软雅黑" text-anchor="middle" font-size="13px" width="117px" fill="#323232" font-weight="400" align="middle" lineHeight="125%" anchor="middle" family="微软雅黑" size="13px" weight="400" font-style="" opacity="1" y="5.875" transform="rotate(0)"><tspan id="SvgjsTspan1052" dy="16" x="68.5"><tspan id="SvgjsTspan1053" style="text-decoration:;">sql</tspan></tspan></text></g></g><g id="SvgjsG1054" transform="translate(1108.75,147.00641612047093)"><path id="SvgjsPath1055" d="M 0 0L 136.5 0L 136.5 34L 0 34Z" stroke="rgba(50,50,50,1)" stroke-width="2" fill-opacity="1" fill="#ffffff"></path><g id="SvgjsG1056"><text id="SvgjsText1057" font-family="微软雅黑" text-anchor="middle" font-size="13px" width="117px" fill="#323232" font-weight="400" align="middle" lineHeight="125%" anchor="middle" family="微软雅黑" size="13px" weight="400" font-style="" opacity="1" y="5.875" transform="rotate(0)"><tspan id="SvgjsTspan1058" dy="16" x="68.5"><tspan id="SvgjsTspan1059" style="text-decoration:;">ssh</tspan></tspan></text></g></g><g id="SvgjsG1060" transform="translate(1108.75,207.50641612047093)"><path id="SvgjsPath1061" d="M 0 0L 136.5 0L 136.5 34L 0 34Z" stroke="rgba(50,50,50,1)" stroke-width="2" fill-opacity="1" fill="#ffffff"></path><g id="SvgjsG1062"><text id="SvgjsText1063" font-family="微软雅黑" text-anchor="middle" font-size="13px" width="117px" fill="#323232" font-weight="400" align="middle" lineHeight="125%" anchor="middle" family="微软雅黑" size="13px" weight="400" font-style="" opacity="1" y="5.875" transform="rotate(0)"><tspan id="SvgjsTspan1064" dy="16" x="68.5"><tspan id="SvgjsTspan1065" style="text-decoration:;">telnet</tspan></tspan></text></g></g><g id="SvgjsG1066" transform="translate(1108.75,261.00641612047093)"><path id="SvgjsPath1067" d="M 0 0L 136.5 0L 136.5 34L 0 34Z" stroke="rgba(50,50,50,1)" stroke-width="2" fill-opacity="1" fill="#ffffff"></path><g id="SvgjsG1068"><text id="SvgjsText1069" font-family="微软雅黑" text-anchor="middle" font-size="13px" width="117px" fill="#323232" font-weight="400" align="middle" lineHeight="125%" anchor="middle" family="微软雅黑" size="13px" weight="400" font-style="" opacity="1" y="5.875" transform="rotate(0)"><tspan id="SvgjsTspan1070" dy="16" x="68.5"><tspan id="SvgjsTspan1071" style="text-decoration:;">sdk</tspan></tspan></text></g></g><g id="SvgjsG1072" transform="translate(909.5,139.50641612047093)"><path id="SvgjsPath1073" d="M 0 10C 0 -3.3333333333333335 20 -3.3333333333333335 20 10C 20 23.333333333333332 0 23.333333333333332 0 10Z" stroke="rgba(50,50,50,1)" stroke-width="2" fill-opacity="1" fill="#ffffff"></path><g id="SvgjsG1074"><text id="SvgjsText1075" font-family="微软雅黑" text-anchor="middle" font-size="13px" width="0px" fill="#323232" font-weight="400" align="middle" lineHeight="125%" anchor="middle" family="微软雅黑" size="13px" weight="400" font-style="" opacity="1" y="-1.125" transform="rotate(0)"></text></g></g><g id="SvgjsG1076" transform="translate(909.5,172.00641612047093)"><path id="SvgjsPath1077" d="M 0 10C 0 -3.3333333333333335 20 -3.3333333333333335 20 10C 20 23.333333333333332 0 23.333333333333332 0 10Z" stroke="rgba(50,50,50,1)" stroke-width="2" fill-opacity="1" fill="#ffffff"></path><g id="SvgjsG1078"><text id="SvgjsText1079" font-family="微软雅黑" text-anchor="middle" font-size="13px" width="0px" fill="#323232" font-weight="400" align="middle" lineHeight="125%" anchor="middle" family="微软雅黑" size="13px" weight="400" font-style="" opacity="1" y="-1.125" transform="rotate(0)"></text></g></g><g id="SvgjsG1080" transform="translate(909.5,200.50641612047093)"><path id="SvgjsPath1081" d="M 0 10C 0 -3.3333333333333335 20 -3.3333333333333335 20 10C 20 23.333333333333332 0 23.333333333333332 0 10Z" stroke="rgba(50,50,50,1)" stroke-width="2" fill-opacity="1" fill="#ffffff"></path><g id="SvgjsG1082"><text id="SvgjsText1083" font-family="微软雅黑" text-anchor="middle" font-size="13px" width="0px" fill="#323232" font-weight="400" align="middle" lineHeight="125%" anchor="middle" family="微软雅黑" size="13px" weight="400" font-style="" opacity="1" y="-1.125" transform="rotate(0)"></text></g></g><g id="SvgjsG1084" transform="translate(1167,311.00641612047093)"><path id="SvgjsPath1085" d="M 0 10C 0 -3.3333333333333335 20 -3.3333333333333335 20 10C 20 23.333333333333332 0 23.333333333333332 0 10Z" stroke="rgba(50,50,50,1)" stroke-width="2" fill-opacity="1" fill="#ffffff"></path><g id="SvgjsG1086"><text id="SvgjsText1087" font-family="微软雅黑" text-anchor="middle" font-size="13px" width="0px" fill="#323232" font-weight="400" align="middle" lineHeight="125%" anchor="middle" family="微软雅黑" size="13px" weight="400" font-style="" opacity="1" y="-1.125" transform="rotate(0)"></text></g></g><g id="SvgjsG1088" transform="translate(1167,343.50641612047093)"><path id="SvgjsPath1089" d="M 0 10C 0 -3.3333333333333335 20 -3.3333333333333335 20 10C 20 23.333333333333332 0 23.333333333333332 0 10Z" stroke="rgba(50,50,50,1)" stroke-width="2" fill-opacity="1" fill="#ffffff"></path><g id="SvgjsG1090"><text id="SvgjsText1091" font-family="微软雅黑" text-anchor="middle" font-size="13px" width="0px" fill="#323232" font-weight="400" align="middle" lineHeight="125%" anchor="middle" family="微软雅黑" size="13px" weight="400" font-style="" opacity="1" y="-1.125" transform="rotate(0)"></text></g></g><g id="SvgjsG1092" transform="translate(1167,376.00641612047093)"><path id="SvgjsPath1093" d="M 0 10C 0 -3.3333333333333335 20 -3.3333333333333335 20 10C 20 23.333333333333332 0 23.333333333333332 0 10Z" stroke="rgba(50,50,50,1)" stroke-width="2" fill-opacity="1" fill="#ffffff"></path><g id="SvgjsG1094"><text id="SvgjsText1095" font-family="微软雅黑" text-anchor="middle" font-size="13px" width="0px" fill="#323232" font-weight="400" align="middle" lineHeight="125%" anchor="middle" family="微软雅黑" size="13px" weight="400" font-style="" opacity="1" y="-1.125" transform="rotate(0)"></text></g></g><g id="SvgjsG1096"><path id="SvgjsPath1097" d="M970.5 83.421875L1039.125 83.421875L1039.125 42.00641612047093L1105.15 42.00641612047093" stroke="#323232" stroke-width="2" fill="none" marker-end="url(#SvgjsMarker1098)"></path></g><g id="SvgjsG1100"><path id="SvgjsPath1101" d="M970.5 83.421875L1039.125 83.421875L1039.125 105.00641612047093L1105.15 105.00641612047093" stroke="#323232" stroke-width="2" fill="none" marker-end="url(#SvgjsMarker1102)"></path></g><g id="SvgjsG1104"><path id="SvgjsPath1105" d="M970.5 83.421875L1039.125 83.421875L1039.125 164.00641612047093L1105.15 164.00641612047093" stroke="#323232" stroke-width="2" fill="none" marker-end="url(#SvgjsMarker1106)"></path></g><g id="SvgjsG1108"><path id="SvgjsPath1109" d="M970.5 83.421875L1039.125 83.421875L1039.125 224.50641612047093L1105.15 224.50641612047093" stroke="#323232" stroke-width="2" fill="none" marker-end="url(#SvgjsMarker1110)"></path></g><g id="SvgjsG1112"><path id="SvgjsPath1113" d="M970.5 83.421875L1039.125 83.421875L1039.125 278.00641612047093L1105.15 278.00641612047093" stroke="#323232" stroke-width="2" fill="none" marker-end="url(#SvgjsMarker1114)"></path></g><g id="SvgjsG1116" transform="translate(1264,81.00641612047093)"><path id="SvgjsPath1117" d="M 0 0L 139.5 0L 155.5 16L 155.5 166L 0 166L 0 0Z" stroke="none" fill-opacity="1" fill="#ffffaa"></path><path id="SvgjsPath1118" d="M 139.5 0L 139.5 16L 155.5 16Z" stroke="none" fill-opacity="1" fill="#cdcdcd"></path><path id="SvgjsPath1119" d="M 0 0L 139.5 0L 155.5 16L 155.5 166L 0 166L 0 0Z" stroke="none" fill="none"></path><g id="SvgjsG1120"><text id="SvgjsText1121" font-family="微软雅黑" text-anchor="start" font-size="13px" width="136px" fill="#323232" font-weight="400" align="middle" lineHeight="125%" anchor="start" family="微软雅黑" size="13px" weight="400" font-style="" opacity="1" y="39.375" transform="rotate(0)"><tspan id="SvgjsTspan1122" dy="16" x="10"><tspan id="SvgjsTspan1123" style="text-decoration:;">WEB服务</tspan></tspan><tspan id="SvgjsTspan1124" dy="16" x="10"><tspan id="SvgjsTspan1125" style="text-decoration:;">数据库</tspan></tspan><tspan id="SvgjsTspan1126" dy="16" x="10"><tspan id="SvgjsTspan1127" style="text-decoration:;">应用服务</tspan></tspan><tspan id="SvgjsTspan1128" dy="16" x="10"><tspan id="SvgjsTspan1129" style="text-decoration:;">中间件</tspan></tspan><tspan id="SvgjsTspan1130" dy="16" x="10"><tspan id="SvgjsTspan1131" style="text-decoration:;">操作系统</tspan></tspan></text></g></g><g id="SvgjsG1132" transform="translate(667.5,310.921875)"><path id="SvgjsPath1133" d="M 0 0L 100 0L 100 70L 0 70Z" stroke="rgba(50,50,50,1)" stroke-width="2" fill-opacity="1" fill="#ffffff"></path><g id="SvgjsG1134"><text id="SvgjsText1135" font-family="微软雅黑" text-anchor="middle" font-size="13px" width="80px" fill="#323232" font-weight="400" align="middle" lineHeight="125%" anchor="middle" family="微软雅黑" size="13px" weight="400" font-style="" opacity="1" y="23.875" transform="rotate(0)"><tspan id="SvgjsTspan1136" dy="16" x="50"><tspan id="SvgjsTspan1137" style="text-decoration:;">消息管道</tspan></tspan></text></g></g><g id="SvgjsG1138"><path id="SvgjsPath1139" d="M919.5 221.50641612047093L919.5 345.921875L771.1 345.921875" stroke="#323232" stroke-width="2" fill="none" marker-end="url(#SvgjsMarker1140)"></path><rect id="SvgjsRect1142" width="81" height="16" x="867.0077294397646" y="337.921875" fill="#ffffff"></rect><text id="SvgjsText1143" font-family="微软雅黑" text-anchor="middle" font-size="13px" width="81px" fill="#323232" font-weight="400" align="top" lineHeight="16px" anchor="middle" family="微软雅黑" size="13px" weight="400" font-style="" opacity="1" y="335.296875" transform="rotate(0)"><tspan id="SvgjsTspan1144" dy="16" x="907.5077294397646"><tspan id="SvgjsTspan1145" style="text-decoration:;">push采集数据</tspan></tspan></text></g><g id="SvgjsG1146" transform="translate(436,521.921875)"><path id="SvgjsPath1147" d="M 0 0L 100 0L 100 70L 0 70Z" stroke="rgba(50,50,50,1)" stroke-width="2" fill-opacity="1" fill="#ffffff"></path><g id="SvgjsG1148"><text id="SvgjsText1149" font-family="微软雅黑" text-anchor="middle" font-size="13px" width="80px" fill="#323232" font-weight="400" align="middle" lineHeight="125%" anchor="middle" family="微软雅黑" size="13px" weight="400" font-style="" opacity="1" y="23.875" transform="rotate(0)"><tspan id="SvgjsTspan1150" dy="16" x="50"><tspan id="SvgjsTspan1151" style="text-decoration:;">warehouse</tspan></tspan></text></g></g><g id="SvgjsG1152"><path id="SvgjsPath1153" d="M717.5 381.921875L717.5 556.921875L539.6 556.921875" stroke="#323232" stroke-width="2" fill="none" marker-end="url(#SvgjsMarker1154)"></path><rect id="SvgjsRect1156" width="21" height="16" x="705.55" y="548.921875" fill="#ffffff"></rect><text id="SvgjsText1157" font-family="微软雅黑" text-anchor="middle" font-size="13px" width="21px" fill="#323232" font-weight="400" align="top" lineHeight="16px" anchor="middle" family="微软雅黑" size="13px" weight="400" font-style="" opacity="1" y="546.296875" transform="rotate(0)"><tspan id="SvgjsTspan1158" dy="16" x="716.05"><tspan id="SvgjsTspan1159" style="text-decoration:;">pull</tspan></tspan></text></g><g id="SvgjsG1160" transform="translate(281.75,699.921875)"><path id="SvgjsPath1161" d="M 0 0L 138.25 0L 138.25 33.75L 0 33.75Z" stroke="rgba(50,50,50,1)" stroke-width="2" fill-opacity="1" fill="#ffffff"></path><g id="SvgjsG1162"><text id="SvgjsText1163" font-family="微软雅黑" text-anchor="middle" font-size="13px" width="119px" fill="#323232" font-weight="400" align="middle" lineHeight="125%" anchor="middle" family="微软雅黑" size="13px" weight="400" font-style="" opacity="1" y="5.75" transform="rotate(0)"><tspan id="SvgjsTspan1164" dy="16" x="69.5"><tspan id="SvgjsTspan1165" style="text-decoration:;">TdEngine</tspan></tspan></text></g></g><g id="SvgjsG1166" transform="translate(550.75,699.921875)"><path id="SvgjsPath1167" d="M 0 0L 116.75 0L 116.75 33.75L 0 33.75Z" stroke="rgba(50,50,50,1)" stroke-width="2" fill-opacity="1" fill="#ffffff"></path><g id="SvgjsG1168"><text id="SvgjsText1169" font-family="微软雅黑" text-anchor="middle" font-size="13px" width="97px" fill="#323232" font-weight="400" align="middle" lineHeight="125%" anchor="middle" family="微软雅黑" size="13px" weight="400" font-style="" opacity="1" y="5.75" transform="rotate(0)"><tspan id="SvgjsTspan1170" dy="16" x="58.5"><tspan id="SvgjsTspan1171" style="text-decoration:;">内存</tspan></tspan></text></g></g><g id="SvgjsG1172"><path id="SvgjsPath1173" d="M486 592.921875L486 645.921875L350.875 645.921875L350.875 696.3218750000001" stroke="#323232" stroke-width="2" fill="none" marker-end="url(#SvgjsMarker1174)"></path><rect id="SvgjsRect1176" width="104" height="16" x="367.73749999999995" y="637.921875" fill="#ffffff"></rect><text id="SvgjsText1177" font-family="微软雅黑" text-anchor="middle" font-size="13px" width="104px" fill="#323232" font-weight="400" align="top" lineHeight="16px" anchor="middle" family="微软雅黑" size="13px" weight="400" font-style="" opacity="1" y="635.296875" transform="rotate(0)"><tspan id="SvgjsTspan1178" dy="16" x="419.73749999999995"><tspan id="SvgjsTspan1179" style="text-decoration:;">全量时序采集数据</tspan></tspan></text></g><g id="SvgjsG1180"><path id="SvgjsPath1181" d="M486 592.921875L486 645.921875L609.125 645.921875L609.125 696.3218750000001" stroke="#323232" stroke-width="2" fill="none" marker-end="url(#SvgjsMarker1182)"></path><rect id="SvgjsRect1184" width="104" height="16" x="494.26250000000005" y="637.921875" fill="#ffffff"></rect><text id="SvgjsText1185" font-family="微软雅黑" text-anchor="middle" font-size="13px" width="104px" fill="#323232" font-weight="400" align="top" lineHeight="16px" anchor="middle" family="微软雅黑" size="13px" weight="400" font-style="" opacity="1" y="635.296875" transform="rotate(0)"><tspan id="SvgjsTspan1186" dy="16" x="546.2625"><tspan id="SvgjsTspan1187" style="text-decoration:;">最新一次实时数据</tspan></tspan></text></g><g id="SvgjsG1188" transform="translate(679.5,145.00641612047093)"><path id="SvgjsPath1189" d="M 0 0L 100 0L 100 70L 0 70Z" stroke="rgba(50,50,50,1)" stroke-width="2" fill-opacity="1" fill="#ffffff"></path><g id="SvgjsG1190"><text id="SvgjsText1191" font-family="微软雅黑" text-anchor="middle" font-size="13px" width="80px" fill="#323232" font-weight="400" align="middle" lineHeight="125%" anchor="middle" family="微软雅黑" size="13px" weight="400" font-style="" opacity="1" y="23.875" transform="rotate(0)"><tspan id="SvgjsTspan1192" dy="16" x="50"><tspan id="SvgjsTspan1193" style="text-decoration:;">mysql</tspan></tspan></text></g></g><g id="SvgjsG1194"><path id="SvgjsPath1195" d="M542.5 135.421875L610.5 135.421875L610.5 180.00641612047093L675.9 180.00641612047093" stroke="#323232" stroke-width="2" fill="none" marker-end="url(#SvgjsMarker1196)"></path><rect id="SvgjsRect1198" width="117" height="16" x="552" y="148.41414556023545" fill="#ffffff"></rect><text id="SvgjsText1199" font-family="微软雅黑" text-anchor="middle" font-size="13px" width="117px" fill="#323232" font-weight="400" align="top" lineHeight="16px" anchor="middle" family="微软雅黑" size="13px" weight="400" font-style="" opacity="1" y="145.78914556023545" transform="rotate(0)"><tspan id="SvgjsTspan1200" dy="16" x="610.5"><tspan id="SvgjsTspan1201" style="text-decoration:;">监控信息，系统信息</tspan></tspan></text></g><g id="SvgjsG1202" transform="translate(441.5,310.921875)"><path id="SvgjsPath1203" d="M 0 0L 100 0L 100 70L 0 70Z" stroke="rgba(50,50,50,1)" stroke-width="2" fill-opacity="1" fill="#ffffff"></path><g id="SvgjsG1204"><text id="SvgjsText1205" font-family="微软雅黑" text-anchor="middle" font-size="13px" width="80px" fill="#323232" font-weight="400" align="middle" lineHeight="125%" anchor="middle" family="微软雅黑" size="13px" weight="400" font-style="" opacity="1" y="23.875" transform="rotate(0)"><tspan id="SvgjsTspan1206" dy="16" x="50"><tspan id="SvgjsTspan1207" style="text-decoration:;">alert</tspan></tspan></text></g></g><g id="SvgjsG1208"><path id="SvgjsPath1209" d="M666.5 345.921875L604.5 345.921875L604.5 345.921875L545.1 345.921875" stroke="#323232" stroke-width="2" fill="none" marker-end="url(#SvgjsMarker1210)"></path><rect id="SvgjsRect1212" width="21" height="16" x="595.3000000000001" y="337.921875" fill="#ffffff"></rect><text id="SvgjsText1213" font-family="微软雅黑" text-anchor="middle" font-size="13px" width="21px" fill="#323232" font-weight="400" align="top" lineHeight="16px" anchor="middle" family="微软雅黑" size="13px" weight="400" font-style="" opacity="1" y="335.296875" transform="rotate(0)"><tspan id="SvgjsTspan1214" dy="16" x="605.8000000000001"><tspan id="SvgjsTspan1215" style="text-decoration:;">pull</tspan></tspan></text></g><g id="SvgjsG1216" transform="matrix(0.9659258262890683,-0.2588190451025207,0.2588190451025207,0.9659258262890683,110.26876510808037,188.09095627420007)"><path id="SvgjsPath1217" d="M 0 30.20255162833871L 30.20255162833871 0L 30.20255162833871 19.93368407470355L 287.90745088603353 19.93368407470355L 287.90745088603353 40.47141918197387L 30.20255162833871 40.47141918197387L 30.20255162833871 60.40510325667742L 0 30.20255162833871Z" stroke="rgba(50,50,50,1)" stroke-width="2" fill-opacity="1" fill="#ffffff"></path><g id="SvgjsG1218"><text id="SvgjsText1219" font-family="微软雅黑" text-anchor="middle" font-size="13px" width="288px" fill="#323232" font-weight="400" align="middle" lineHeight="125%" anchor="middle" family="微软雅黑" size="13px" weight="400" font-style="" opacity="1" y="19.07755162833871" transform="rotate(0)"><tspan id="SvgjsTspan1220" dy="16" x="144"><tspan id="SvgjsTspan1221" style="text-decoration:;">提供监控管理，用户，租户，系统等API</tspan></tspan></text></g></g><g id="SvgjsG1222" transform="translate(113.1806577889414,315.7193233716612)"><path id="SvgjsPath1223" d="M 0 30.20255162833871L 30.20255162833871 0L 30.20255162833871 19.93368407470355L 287.90745088603353 19.93368407470355L 287.90745088603353 40.47141918197387L 30.20255162833871 40.47141918197387L 30.20255162833871 60.40510325667742L 0 30.20255162833871Z" stroke="rgba(50,50,50,1)" stroke-width="2" fill-opacity="1" fill="#ffffff"></path><g id="SvgjsG1224"><text id="SvgjsText1225" font-family="微软雅黑" text-anchor="middle" font-size="13px" width="288px" fill="#323232" font-weight="400" align="middle" lineHeight="125%" anchor="middle" family="微软雅黑" size="13px" weight="400" font-style="" opacity="1" y="19.07755162833871" transform="rotate(0)"><tspan id="SvgjsTspan1226" dy="16" x="144"><tspan id="SvgjsTspan1227" style="text-decoration:;">告警计算，告警转发。提供告警信息API</tspan></tspan></text></g></g><g id="SvgjsG1228" transform="matrix(0.984807753012208,0.17364817766693033,-0.17364817766693033,0.984807753012208,123.61225503600099,479.3834175324538)"><path id="SvgjsPath1229" d="M 0 30.20255162833871L 30.20255162833871 0L 30.20255162833871 19.93368407470355L 287.90745088603353 19.93368407470355L 287.90745088603353 40.47141918197387L 30.20255162833871 40.47141918197387L 30.20255162833871 60.40510325667742L 0 30.20255162833871Z" stroke="rgba(50,50,50,1)" stroke-width="2" fill-opacity="1" fill="#ffffff"></path><g id="SvgjsG1230"><text id="SvgjsText1231" font-family="微软雅黑" text-anchor="middle" font-size="13px" width="288px" fill="#323232" font-weight="400" align="middle" lineHeight="125%" anchor="middle" family="微软雅黑" size="13px" weight="400" font-style="" opacity="1" y="19.07755162833871" transform="rotate(0)"><tspan id="SvgjsTspan1232" dy="16" x="144"><tspan id="SvgjsTspan1233" style="text-decoration:;">提供指标(实时历史)数据查询等API</tspan></tspan></text></g></g><g id="SvgjsG1234"><path id="SvgjsPath1235" d="M491.5 309.921875L491.5 262.96414556023547L729.5 262.96414556023547L729.5 218.60641612047084" stroke="#323232" stroke-width="2" fill="none" marker-end="url(#SvgjsMarker1236)"></path><rect id="SvgjsRect1238" width="52" height="16" x="583.2" y="254.96414556023547" fill="#ffffff"></rect><text id="SvgjsText1239" font-family="微软雅黑" text-anchor="middle" font-size="13px" width="52px" fill="#323232" font-weight="400" align="top" lineHeight="16px" anchor="middle" family="微软雅黑" size="13px" weight="400" font-style="" opacity="1" y="252.33914556023547" transform="rotate(0)"><tspan id="SvgjsTspan1240" dy="16" x="609.2"><tspan id="SvgjsTspan1241" style="text-decoration:;">告警信息</tspan></tspan></text></g><g id="SvgjsG1242" transform="translate(1298.5,28.00641612047093)"><path id="SvgjsPath1243" d="M 0 0L 286.75 0L 286.75 28L 0 28Z" stroke="rgba(50,50,50,1)" stroke-width="2" fill-opacity="1" fill="#ffffff"></path><g id="SvgjsG1244"><text id="SvgjsText1245" font-family="微软雅黑" text-anchor="middle" font-size="13px" width="267px" fill="#323232" font-weight="400" align="middle" lineHeight="125%" anchor="middle" family="微软雅黑" size="13px" weight="400" font-style="" opacity="1" y="2.875" transform="rotate(0)"><tspan id="SvgjsTspan1246" dy="16" x="143.5"><tspan id="SvgjsTspan1247" style="text-decoration:;">默认数据格式，jsonPath，prometheus</tspan></tspan></text></g></g><g id="SvgjsG1248"><path id="SvgjsPath1249" d="M1246.25 42.00641612047093L1271.875 42.00641612047093L1271.875 42.00641612047093L1294.9 42.00641612047093" stroke="#323232" stroke-width="2" fill="none" marker-end="url(#SvgjsMarker1250)"></path><rect id="SvgjsRect1252" width="26" height="16" x="1257.575" y="34.00641612047093" fill="#ffffff"></rect><text id="SvgjsText1253" font-family="微软雅黑" text-anchor="middle" font-size="13px" width="26px" fill="#323232" font-weight="400" align="top" lineHeight="16px" anchor="middle" family="微软雅黑" size="13px" weight="400" font-style="" opacity="1" y="31.38141612047093" transform="rotate(0)"><tspan id="SvgjsTspan1254" dy="16" x="1270.575"><tspan id="SvgjsTspan1255" style="text-decoration:;">解析</tspan></tspan></text></g></svg>