<?xml version="1.0" encoding="utf-8"?>
<!-- Generator: Adobe Illustrator 16.0.0, SVG Export Plug-In . SVG Version: 6.00 Build 0)  -->
<!DOCTYPE svg PUBLIC "-//W3C//DTD SVG 1.1//EN" "http://www.w3.org/Graphics/SVG/1.1/DTD/svg11.dtd">
<svg version="1.1" id="Layer_1" xmlns="http://www.w3.org/2000/svg" xmlns:xlink="http://www.w3.org/1999/xlink" x="0px" y="0px"
	 width="395.216px" height="98.13px" viewBox="0 0 395.216 98.13" enable-background="new 0 0 395.216 98.13" xml:space="preserve">
<g>
	<path fill-rule="evenodd" clip-rule="evenodd" d="M97.095,98.13c3.21-4.2,5.99-8.72,8.34-13.55c2.34-4.84,4.13-9.83,5.36-14.99
		l7.75-44.01h-13.25c-0.25,1.41-0.56,3.24-0.92,5.49l-1.2,7.35c-0.44,2.65-0.89,5.34-1.37,8.07l-1.35,7.64l-1.07,6.06l-0.56,3.2
		c-0.64,3.63-1.32,6.92-2.03,9.88s-1.51,5.71-2.41,8.26c-0.89,2.53-1.86,4.98-2.91,7.34c-1.05,2.35-2.27,4.74-3.64,7.16
		L97.095,98.13z M119.375,15.19c1.39-1.21,2.3-3.03,2.73-5.45c0.44-2.48,0.18-4.33-0.79-5.53c-0.96-1.21-2.78-1.82-5.45-1.82
		c-2.67,0-4.7,0.59-6.09,1.77c-1.38,1.17-2.3,3.04-2.74,5.58c-0.46,2.55-0.2,4.39,0.78,5.54s2.8,1.72,5.47,1.72
		C115.956,17,117.985,16.39,119.375,15.19z"/>
	<path fill-rule="evenodd" clip-rule="evenodd" d="M135.045,61.86c0.45-2.54,1.52-4.39,3.22-5.54c1.69-1.14,4.47-1.87,8.35-2.19
		l8.24-0.77l-1.87,10.6c-1.93,1.21-4.02,2.23-6.27,3.06c-2.24,0.82-4.32,1.23-6.22,1.23C136.115,68.25,134.295,66.12,135.045,61.86z
		 M152.175,70.74h0.76l0.11,6.39h10.87l6.16-34.93c1.04-5.92-0.02-10.28-3.18-13.08c-3.17-2.8-8.6-4.2-16.29-4.2
		c-5.66,0-12.16,0.64-19.5,1.91l-0.81,9.45c2.97-0.57,5.87-1,8.72-1.29c2.84-0.28,5.38-0.43,7.61-0.43c2.35,0,4.25,0.16,5.69,0.48
		c1.43,0.32,2.51,0.86,3.24,1.62c0.72,0.77,1.13,1.77,1.23,3.01c0.1,1.24-0.02,2.82-0.35,4.72l-0.31,1.72l-12.26,0.86
		c-6.82,0.51-12.05,2.08-15.66,4.72c-3.62,2.64-5.87,6.51-6.76,11.6c-0.81,4.59-0.21,8.12,1.8,10.6c2.01,2.48,5.4,3.72,10.17,3.72
		C139.585,77.61,145.835,75.32,152.175,70.74z"/>
	<polygon fill-rule="evenodd" clip-rule="evenodd" points="190.146,77.13 206.545,77.13 234.735,27.02 234.996,25.58 221.166,25.58 
		205.266,56.32 200.885,66.54 199.835,66.54 199.065,56.32 194.275,25.58 180.155,25.58 179.905,27.02 	"/>
	<path fill-rule="evenodd" clip-rule="evenodd" d="M246.246,61.86c0.45-2.54,1.52-4.39,3.21-5.54c1.69-1.14,4.48-1.87,8.36-2.19
		l8.23-0.77l-1.86,10.6c-1.93,1.21-4.03,2.23-6.27,3.06c-2.24,0.82-4.32,1.23-6.22,1.23C247.305,68.25,245.496,66.12,246.246,61.86z
		 M263.375,70.74h0.76l0.11,6.39h10.87l6.15-34.93c1.05-5.92-0.01-10.28-3.17-13.08c-3.17-2.8-8.6-4.2-16.29-4.2
		c-5.66,0-12.16,0.64-19.5,1.91l-0.81,9.45c2.97-0.57,5.87-1,8.72-1.29c2.84-0.28,5.38-0.43,7.61-0.43c2.35,0,4.24,0.16,5.68,0.48
		c1.44,0.32,2.52,0.86,3.25,1.62c0.72,0.77,1.13,1.77,1.23,3.01c0.1,1.24-0.02,2.82-0.35,4.72l-0.31,1.72l-12.26,0.86
		c-6.83,0.51-12.05,2.08-15.66,4.72c-3.62,2.64-5.87,6.51-6.76,11.6c-0.81,4.59-0.22,8.12,1.8,10.6c2.01,2.48,5.4,3.72,10.17,3.72
		C250.775,77.61,257.036,75.32,263.375,70.74z"/>
	<polygon fill-rule="evenodd" clip-rule="evenodd" points="287.516,77.13 300.775,77.13 314.365,0 301.105,0 	"/>
	<path fill-rule="evenodd" clip-rule="evenodd" d="M313.545,77.13h13.27l9.08-51.55h-13.26L313.545,77.13z M336.905,15.19
		c1.39-1.21,2.3-3.03,2.73-5.45c0.44-2.48,0.15-4.33-0.84-5.53c-0.99-1.21-2.82-1.82-5.49-1.82c-2.68,0-4.69,0.59-6.04,1.77
		c-1.35,1.17-2.25,3.04-2.7,5.58c-0.45,2.55-0.2,4.39,0.74,5.54c0.94,1.15,2.75,1.72,5.42,1.72
		C333.456,17,335.516,16.39,336.905,15.19z"/>
	<path fill-rule="evenodd" clip-rule="evenodd" d="M339.585,76.68h13.26l6.63-37.61c3.08-1.27,6-2.31,8.78-3.1
		c2.78-0.8,5.19-1.2,7.23-1.2c2.34,0,3.95,0.63,4.81,1.86c0.87,1.25,1.04,3.33,0.53,6.25l-5.95,33.8h13.25l6.74-38.28
		c0.82-4.64,0.2-8.18-1.85-10.59c-2.06-2.42-5.31-3.63-9.76-3.63c-2.92,0-6.2,0.54-9.82,1.62c-3.62,1.08-8.09,2.84-13.41,5.25h-0.57
		l0.28-5.92h-11.07L339.585,76.68z"/>
</g>
<path fill-rule="evenodd" clip-rule="evenodd" fill="#008CBB" d="M76.266,28.51c11.28,19.57,4.58,44.58-14.97,55.87
	s-44.54,4.58-55.82-14.99c-11.28-19.57-4.57-44.58,14.97-55.87C39.996,2.23,64.985,8.94,76.266,28.51z"/>
<path fill-rule="evenodd" clip-rule="evenodd" fill="#035E7F" d="M5.476,68.47c25.26,43.81,90.24,12.71,67.79-28.69
	c-3.15,7.42-10.5,12.61-19.05,12.61c-1.38,0-2.72-0.13-4.02-0.39C55.305,68.65,18.976,91.86,5.476,68.47z"/>
<path fill-rule="evenodd" clip-rule="evenodd" fill="#035E7F" d="M39.786,32.6c0-7.98,6.46-14.45,14.43-14.45
	c7.97,0,14.43,6.47,14.43,14.45s-6.46,14.44-14.43,14.44C46.246,47.04,39.786,40.58,39.786,32.6z"/>
</svg>
