<?xml version="1.0" standalone="no"?><!DOCTYPE svg PUBLIC "-//W3C//DTD SVG 1.1//EN" "http://www.w3.org/Graphics/SVG/1.1/DTD/svg11.dtd"><svg t="1670729324635" class="icon" viewBox="0 0 1024 1024" version="1.1" xmlns="http://www.w3.org/2000/svg" p-id="3198" xmlns:xlink="http://www.w3.org/1999/xlink" width="16" height="16"><path d="M880 896c0-126.29-63.62-237.72-160.57-304a368.15 368.15 0 0 1-414.86 0C207.62 658.28 144 769.71 144 896a48 48 0 0 0 48 48h640a48 48 0 0 0 48-48z" fill="#FFFFFF" p-id="3199"></path><path d="M880 896c0-126.29-63.62-237.72-160.57-304A366.25 366.25 0 0 1 512 656c-76.95 0-144-31-160-39.94-84.7 67.5-160 167.87-160 279.94a48 48 0 0 0 48 48h592a48 48 0 0 0 48-48z" fill="#82AAFA" p-id="3200"></path><path d="M512 304m-224 0a224 224 0 1 0 448 0 224 224 0 1 0-448 0Z" fill="#FFFFFF" p-id="3201"></path><path d="M536 328m-200 0a200 200 0 1 0 400 0 200 200 0 1 0-400 0Z" fill="#FF9580" p-id="3202"></path><path d="M832 960H192a64.07 64.07 0 0 1-64-64 384.1 384.1 0 0 1 167.54-317.21 16 16 0 0 1 18.06 0 352.14 352.14 0 0 0 396.8 0 16 16 0 0 1 18.06 0A384.1 384.1 0 0 1 896 896a64.07 64.07 0 0 1-64 64zM304.85 611.38A352.11 352.11 0 0 0 160 896a32 32 0 0 0 32 32h640a32 32 0 0 0 32-32 352.11 352.11 0 0 0-144.85-284.62 384.25 384.25 0 0 1-414.3 0zM512 544a240 240 0 0 1-169.71-409.71 240 240 0 0 1 339.42 339.42A238.43 238.43 0 0 1 512 544z m0-448c-114.69 0-208 93.31-208 208s93.31 208 208 208 208-93.31 208-208S626.69 96 512 96z" fill="#333333" p-id="3203"></path><path d="M576 864H448a32 32 0 0 1 0-64h128a32 32 0 0 1 0 64z" fill="#333333" p-id="3204"></path></svg>