<?xml version="1.0" encoding="UTF-8"?>
<svg width="75px" height="73px" viewBox="0 0 75 73" version="1.1" xmlns="http://www.w3.org/2000/svg" xmlns:xlink="http://www.w3.org/1999/xlink">
    <!-- Generator: Sketch 47.1 (45422) - http://www.bohemiancoding.com/sketch -->
    <title>bells (1)</title>
    <desc>Created with Sketch.</desc>
    <defs></defs>
    <g id="Ant-Design-Pro-3.0" stroke="none" stroke-width="1" fill="none" fill-rule="evenodd">
        <g id="通知为空" transform="translate(-1161.000000, -172.000000)">
            <g id="Group-26-Copy" transform="translate(1031.000000, 44.000000)">
                <g id="bells-(1)" transform="translate(130.000000, 128.000000)">
                    <path d="M60.4865,49.018595 L58.824,49.018595 L58.824,22.6239669 C58.824,12.9262978 51.449625,4.94310111 41.9615,3.88849432 L41.9615,2.1209969 C41.9615,0.948556947 41.0055625,0 39.824,0 C38.6424375,0 37.6865,0.948556947 37.6865,2.1209969 L37.6865,3.88849432 C28.198375,4.94310111 20.824,12.9262978 20.824,22.6239669 L20.824,49.018595 L19.1615,49.018595 C17.9799375,49.018595 17.024,49.967152 17.024,51.1395919 C17.024,52.3120319 17.9799375,53.2605888 19.1615,53.2605888 L35.549,53.2605888 L35.549,56.0885847 C35.549,58.4334646 37.460875,60.3305785 39.824,60.3305785 C42.187125,60.3305785 44.099,58.4334646 44.099,56.0885847 L44.099,53.2605888 L60.4865,53.2605888 C61.6680625,53.2605888 62.624,52.3120319 62.624,51.1395919 C62.624,49.967152 61.6680625,49.018595 60.4865,49.018595 Z M54.549,49.018595 L25.099,49.018595 L25.099,22.6239669 C25.099,14.5523954 31.689625,8.01265496 39.824,8.01265496 C47.958375,8.01265496 54.549,14.5523954 54.549,22.6239669 L54.549,49.018595 Z" id="Shape" fill-opacity="0.4" fill="#A3B1BF" fill-rule="nonzero"></path>
                    <path d="M71.136,16.012278 L71.136,14.8111797 L71.136,14.8111797 C71.136,14.1396014 71.6804217,13.5951797 72.352,13.5951797 C72.5395074,13.5951797 72.7244747,13.6385426 72.892445,13.7218794 L74.1028889,14.3224285 L74.1028889,14.3224285 C74.7044928,14.6209081 74.9502237,15.3505699 74.6517442,15.9521739 C74.5336639,16.1901719 74.340887,16.3829489 74.1028889,16.5010291 L72.892445,17.1015783 L72.892445,17.1015783 C72.2908411,17.4000579 71.5611793,17.154327 71.2626997,16.552723 C71.179363,16.3847527 71.136,16.1997854 71.136,16.012278 Z" id="Triangle-36" fill-opacity="0.4" fill="#A3B1BF"></path>
                    <ellipse id="Oval-203" stroke-opacity="0.4" stroke="#A3B1BF" stroke-width="1.824" cx="16.416" cy="7.61958858" rx="2.432" ry="2.41322314"></ellipse>
                    <path d="M70.4656602,47.2590131 L68.7663398,47.2590131 C68.3961213,47.2590131 68.096,47.5591345 68.096,47.9293529 C68.096,48.2995713 68.3961213,48.5996927 68.7663398,48.5996927 L70.4656602,48.5996927 L70.4656602,50.4107364 C70.4656602,50.7809549 70.7657816,51.0810762 71.136,51.0810762 L71.136,51.0810762 C71.5062184,51.0810762 71.8063398,50.7809549 71.8063398,50.4107364 L71.8063398,48.5996927 L73.5056602,48.5996927 C73.8758787,48.5996927 74.176,48.2995713 74.176,47.9293529 L74.176,47.9293529 C74.176,47.5591345 73.8758787,47.2590131 73.5056602,47.2590131 L73.5056602,47.2590131 L71.8063398,47.2590131 L71.8063398,45.6714159 L71.8063398,45.6714159 C71.8063398,45.3011975 71.5062184,45.0010762 71.136,45.0010762 C70.7657816,45.0010762 70.4656602,45.3011975 70.4656602,45.6714159 L70.4656602,47.2590131 Z" id="Combined-Shape" fill-opacity="0.4" fill="#A3B1BF"></path>
                    <path d="M2.36966024,37.0028148 L0.670339761,37.0028148 L0.670339761,37.0028148 C0.300121334,37.0028148 -4.53386812e-17,37.3029361 0,37.6731545 C4.53386812e-17,38.043373 0.300121334,38.3434943 0.670339761,38.3434943 L2.36966024,38.3434943 L2.36966024,40.1545381 C2.36966024,40.5247565 2.66978157,40.8248778 3.04,40.8248778 L3.04,40.8248778 C3.41021843,40.8248778 3.71033976,40.5247565 3.71033976,40.1545381 L3.71033976,38.3434943 L5.40966024,38.3434943 C5.77987867,38.3434943 6.08,38.043373 6.08,37.6731545 C6.08,37.3029361 5.77987867,37.0028148 5.40966024,37.0028148 L3.71033976,37.0028148 L3.71033976,35.4152176 L3.71033976,35.4152176 C3.71033976,35.0449992 3.41021843,34.7448778 3.04,34.7448778 C2.66978157,34.7448778 2.36966024,35.0449992 2.36966024,35.4152176 L2.36966024,37.0028148 Z" id="Combined-Shape-Copy" fill-opacity="0.4" fill="#A3B1BF"></path>
                    <ellipse id="Oval-4" fill-opacity="0.25" fill="#A3B1BF" cx="40.128" cy="71.1900826" rx="19.456" ry="1.80991736"></ellipse>
                </g>
            </g>
        </g>
    </g>
</svg>