<?xml version="1.0" standalone="no"?><!DOCTYPE svg PUBLIC "-//W3C//DTD SVG 1.1//EN" "http://www.w3.org/Graphics/SVG/1.1/DTD/svg11.dtd"><svg t="1674973398656" class="icon" viewBox="0 0 1024 1024" version="1.1" xmlns="http://www.w3.org/2000/svg" p-id="3237" xmlns:xlink="http://www.w3.org/1999/xlink" width="16" height="16"><path d="M192 768v-50.752l56.384-56.384 46.144-46.144 0.096-0.096-0.416-0.416A253.984 253.984 0 0 1 256 480a256 256 0 0 1 512 0c0 49.28-14.048 95.2-38.208 134.208l-0.416 0.416 0.096 0.096 46.144 46.144L832 717.248V768H192z m320 128a64 64 0 0 1-64-64h128a64 64 0 0 1-64 64z m374.624-214.656l-79.072-79.04A317.088 317.088 0 0 0 832 480c0-165.664-126.528-302.272-288-318.368V96h-64v65.632C318.528 177.728 192 314.336 192 480c0 43.328 8.736 84.608 24.448 122.304l-79.072 79.04A32.032 32.032 0 0 0 128 704v128h256c0 70.592 57.408 128 128 128s128-57.408 128-128h256v-128c0-8.832-3.584-16.832-9.376-22.656z" fill="#ff4081" p-id="3238"></path></svg>