<?xml version="1.0" standalone="no"?><!DOCTYPE svg PUBLIC "-//W3C//DTD SVG 1.1//EN" "http://www.w3.org/Graphics/SVG/1.1/DTD/svg11.dtd"><svg t="1736479821967" class="icon" viewBox="0 0 1024 1024" version="1.1" xmlns="http://www.w3.org/2000/svg" p-id="4276" xmlns:xlink="http://www.w3.org/1999/xlink" width="128" height="128"><path d="M512 0C229.248 0 0 229.216 0 512c0 282.752 229.248 512 512 512s512-229.248 512-512C1024 229.216 794.752 0 512 0z m0 958.3c-80.416 0-145.664-53.76-145.664-120.064h291.328c0 66.276-65.184 120.036-145.664 120.064z m240.64-159.8H271.36v-87.3h481.28z m-1.7-132.16H272.7c-1.568-1.824-3.2-3.68-4.736-5.536-49.28-59.776-60.9-91.008-72.1-122.848-0.224-1.056 59.744 12.256 102.176 21.792 0 0 21.888 5.088 53.856 10.88-30.72-35.968-48.928-81.7-48.928-128.416 0-102.656 78.72-192.352 50.336-264.832 27.648 2.272 57.184 58.336 59.168 146.016 29.408-40.576 41.7-114.784 41.7-160.224 0-47.072 31.008-101.76 62.048-103.648-27.648 45.6 7.168 84.64 38.144 181.6 11.616 36.448 10.112 97.7 19.072 136.576 2.98-80.74 16.864-198.5 68.064-239.14-22.56 51.2 3.36 115.3 21.088 146.08 28.64 49.664 45.984 87.328 45.984 158.56a197.469 197.469 0 0 1-47.584 128.1l0.224-0.256c33.792-6.368 57.184-12.064 57.184-12.064l109.792-21.408s-15.968 65.632-77.184 128.8z" fill="#E6522C" p-id="4277"></path></svg>