<?xml version="1.0" encoding="UTF-8"?>
<svg id="_图层_2" data-name="图层 2" xmlns="http://www.w3.org/2000/svg" viewBox="0 0 85 75">
  <defs>
    <style>
      .cls-1 {
        fill-rule: evenodd;
      }

      .cls-1, .cls-2 {
        fill: #1c2633;
      }

      .cls-3 {
        fill: #00dcff;
      }

      .cls-4 {
        fill: #006aff;
      }
    </style>
  </defs>
  <g id="_图层_4" data-name="图层 4">
    <g>
      <g>
        <path class="cls-3" d="M34.82,28.93l-14.97,46.07h32.16l-14.97-46.07c-.35-1.08-1.88-1.08-2.23,0Z"/>
        <path class="cls-3" d="M12.83,42.36c-.35-1.08-1.88-1.08-2.23,0L0,75h9.42l7.01-21.57-3.59-11.06Z"/>
        <path class="cls-4" d="M29.52,20c-.35-1.08-1.88-1.08-2.23,0l-17.87,55h10.43l13.77-42.37-4.1-12.63Z"/>
        <path class="cls-3" d="M71.73,36.43c-.35-1.08-1.88-1.08-2.23,0l-3.55,10.94,8.98,27.63h9.34l-12.53-38.57Z"/>
        <path class="cls-4" d="M50.82.81c-.35-1.08-1.88-1.08-2.23,0l-10.34,31.82,13.77,42.37h22.9L50.82.81Z"/>
      </g>
    </g>
  </g>
</svg>