<svg xmlns="http://www.w3.org/2000/svg" xmlns:xlink="http://www.w3.org/1999/xlink" fill="none" version="1.1" width="298" height="271" viewBox="0 0 298 271"><defs><clipPath id="master_svg0_1_865"><rect x="0" y="0" width="298" height="271" rx="0"/></clipPath></defs><g clip-path="url(#master_svg0_1_865)"><g transform="matrix(0,1,-1,0,293.5938720703125,-255.5938720703125)"><g transform="matrix(0,-1,1,0,5,544.187744140625)"><path d="M274.5938720703125,401.1378720703125C274.5938720703125,328.4879720703125,329.7716720703125,269.5938720703125,397.8368720703125,269.5938720703125C465.9018720703125,269.5938720703125,521.0798720703125,328.4879720703125,521.0798720703125,401.1378720703125C521.0798720703125,401.1378720703125,521.0798720703125,401.1378720703125,521.0798720703125,401.1378720703125C521.0798720703125,409.9968720703125,514.2828720703125,417.1798720703125,505.8978720703125,417.1798720703125C505.8978720703125,417.1798720703125,476.1428720703125,417.1798720703125,476.1428720703125,417.1798720703125C467.75887207031246,417.1798720703125,460.96087207031246,409.9968720703125,460.96087207031246,401.1378720703125C460.96087207031246,401.1378720703125,460.96087207031246,401.1378720703125,460.96087207031246,401.1378720703125C460.96087207031246,363.9271720703125,432.6998720703125,333.7618720703125,397.8368720703125,333.7618720703125C362.9740720703125,333.7618720703125,334.7125720703125,363.9271720703125,334.7125720703125,401.1378720703125C334.7125720703125,401.1378720703125,334.7125720703125,401.1378720703125,334.7125720703125,401.1378720703125C334.7125720703125,409.9968720703125,327.9151720703125,417.1798720703125,319.5302720703125,417.1798720703125C319.5302720703125,417.1798720703125,289.7759720703125,417.1798720703125,289.7759720703125,417.1798720703125C281.3911020703125,417.1798720703125,274.5938720703125,409.9968720703125,274.5938720703125,401.1378720703125C274.5938720703125,401.1378720703125,274.5938720703125,401.1378720703125,274.5938720703125,401.1378720703125C274.5938720703125,401.1378720703125,274.5938720703125,401.1378720703125,274.5938720703125,401.1378720703125Z" fill-rule="evenodd" fill="#8759F2" fill-opacity="1"/></g><g transform="matrix(0,-1,1,0,174.2900390625,713.477294921875)"><path d="M461.4008669921875,334.7051279296875C451.7263669921875,334.7051279296875,443.8836669921875,326.4182279296875,443.8836669921875,316.1957279296875C443.8836669921875,316.1957279296875,443.8836669921875,288.1028279296875,443.8836669921875,288.1028279296875C443.8836669921875,277.8804879296875,451.7263669921875,269.5936279296875,461.4008669921875,269.5936279296875C461.4008669921875,269.5936279296875,487.9879669921875,269.5936279296875,487.9879669921875,269.5936279296875C497.6625669921875,269.5936279296875,505.5053669921875,277.8804879296875,505.5053669921875,288.1028279296875C505.5053669921875,288.1028279296875,505.5053669921875,316.1957279296875,505.5053669921875,316.1957279296875C505.5053669921875,326.4182279296875,497.6625669921875,334.7051279296875,487.9879669921875,334.7051279296875C487.9879669921875,334.7051279296875,461.4008669921875,334.7051279296875,461.4008669921875,334.7051279296875C461.4008669921875,334.7051279296875,461.4008669921875,334.7051279296875,461.4008669921875,334.7051279296875Z" fill-rule="evenodd" fill="#FF3E80" fill-opacity="1"/></g><g transform="matrix(0,1,-1,0,527.9947509765625,-489.9947509765625)"><path d="M656.8857509765625,65.60220000000001C656.8857509765625,75.8246,649.0437509765625,84.1115,639.3697509765625,84.1115C639.3697509765625,84.1115,526.5119509765625,84.1115,526.5119509765625,84.1115C516.8374509765625,84.1115,508.9947509765625,75.8246,508.9947509765625,65.60220000000001C508.9947509765625,65.60220000000001,508.9947509765625,37.5092,508.9947509765625,37.5092C508.9947509765625,27.28686,516.8374509765625,19.000000164645,526.5119509765625,19.000000367746C526.5119509765625,19.000000367746,639.3697509765625,19.00000273701,639.3697509765625,19.00000273701C649.0437509765625,19.00000294011,656.8857509765625,27.28686,656.8857509765625,37.5092C656.8857509765625,37.5092,656.8857509765625,65.60220000000001,656.8857509765625,65.60220000000001C656.8857509765625,65.60220000000001,656.8857509765625,65.60220000000001,656.8857509765625,65.60220000000001Z" fill-rule="evenodd" fill="#FFC300" fill-opacity="1"/></g></g></g></svg>