<?xml version="1.0" encoding="utf-8"?>
<!-- Generator: Adobe Illustrator 24.0.0, SVG Export Plug-In . SVG Version: 6.00 Build 0)  -->
<svg version="1.1" id="图层_1" xmlns="http://www.w3.org/2000/svg" xmlns:xlink="http://www.w3.org/1999/xlink" x="0px" y="0px"
	 viewBox="0 0 166.8 50.9" style="enable-background:new 0 0 166.8 50.9;" xml:space="preserve">
<style type="text/css">
	.st0{fill:#FFFFFF;}
</style>
<g>
	<g>
		<g>
			<g>
				<path class="st0" d="M32.5,1.1c0.6,2.8,1.1,5.6,1.4,8.5c5.6,1.1,10,2.8,12.5,4.8c-0.1-0.1-0.2-0.1-0.4-0.2
					c-3.8-1.6-7.7-2.5-11.7-3.1c-0.1,0-0.2,0-0.2,0c0,0.6,0.1,1.3,0.1,2c5.1,0.4,10.2,1.4,14.8,3.4C46.2,9,40.1,3.3,32.5,1.1z"/>
			</g>
			<path class="st0" d="M27.6,10.6c-1.9,0-3.7,0-5.6,0.1c-4.1,0.2-8.1,0.7-12.2,1.4c-2.3,0.4-4.7,0.9-7,1.5c-0.5,1-1,2.1-1.4,3.2
				c2.4-0.7,13.7-3.9,26.4-4C27.8,12.1,27.7,11.3,27.6,10.6z"/>
			<path class="st0" d="M20.9,8.4c2.2,0,4.4,0.1,6.4,0.3c-0.5-2.9-1.1-5.8-1.9-8.6c0,0,0,0-0.1,0C17,0,9.7,4,5.1,10.1
				C9.5,9,15,8.4,20.9,8.4z"/>
		</g>
		<path class="st0" d="M45.5,22.1c-3.2-1.4-7.3-1.9-11.6-1.8c-0.3,3.7-0.8,7.4-1.7,10.9C47.3,30.2,49.5,23.9,45.5,22.1z"/>
		<path class="st0" d="M27.2,31.4c0.3-1.8,0.5-3.5,0.7-5.3C16.8,28.3,13.3,31.5,27.2,31.4z"/>
		<path class="st0" d="M32.1,34.6c-0.1,0-0.5,0-0.7,0c-1.7,5.7-4.1,11.1-7.2,16c0.4,0,0.8,0,1.1,0c12.3,0,22.5-8.7,24.8-20.3
			C46.6,32.6,40.8,34.2,32.1,34.6z"/>
		<path class="st0" d="M21.4,50.3c1.2-2.5,2.2-5,3-7.6c0-0.1,0-0.1,0.1-0.2c0.9-2.6,1.6-5.3,2.2-8c-9.7-0.4-15.6-3-14.1-5.3
			c1.2-1.9,8.8-3.1,15.4-3.9c0.1-1.5,0.2-3.1,0.2-4.6c0,0,0,0,0,0C18.2,22,8.9,25.1,8.9,25.1l-8.7-3.4C0.1,22.9,0,24.1,0,25.3
			C0,37.9,9.3,48.4,21.4,50.3C21.4,50.3,21.4,50.3,21.4,50.3z"/>
	</g>
	<g>
		<g>
			<path class="st0" d="M62.9,42.9l4.6-5h-4.4v-1.3h6.5v1.3l-4.5,4.9h4.7l-0.2,1.3h-6.7V42.9z"/>
			<path class="st0" d="M71.9,36.6h1.8v2.9h3.4v-2.9h1.8v7.5h-1.8v-3.3h-3.4v3.3h-1.8V36.6z"/>
			<path class="st0" d="M89.5,40.3c0,2.1-1.4,3.9-4.1,3.9c-2.6,0-4-1.7-4-3.9c0-2.2,1.5-3.9,4.1-3.9C88,36.5,89.5,38,89.5,40.3z
				 M83.2,40.3c0,1.5,0.7,2.6,2.2,2.6c1.6,0,2.2-1.2,2.2-2.6c0-1.4-0.7-2.5-2.2-2.5C83.9,37.8,83.2,38.8,83.2,40.3z"/>
			<path class="st0" d="M92,44.1v-7.5h2.3c1,1.7,3,4.7,3.4,5.6h0c-0.1-0.8-0.1-2.1-0.1-3.3v-2.2h1.6v7.5H97c-0.9-1.5-3.1-5-3.5-5.9
				h0c0.1,0.7,0.1,2.2,0.1,3.6v2.3H92z"/>
			<path class="st0" d="M109.3,44.1H108c-0.1-0.2-0.1-0.5-0.1-0.7c-0.5,0.6-1.3,0.9-2.5,0.9c-2.4,0-3.8-1.7-3.8-3.8
				c0-2.3,1.5-4,4.1-4c2.2,0,3.4,1.1,3.6,2.4h-1.8c-0.2-0.5-0.6-1.1-1.8-1.1c-1.7,0-2.2,1.3-2.2,2.6c0,1.3,0.6,2.6,2.2,2.6
				c1.6,0,1.8-1,1.8-1.6v-0.1h-1.8v-1.3h3.6V44.1z"/>
			<path class="st0" d="M115,39.5v1.4h-3.4v-1.4H115z"/>
			<path class="st0" d="M116.7,42.9l4.6-5h-4.4v-1.3h6.5v1.3l-4.5,4.9h4.7l-0.2,1.3h-6.7V42.9z"/>
			<path class="st0" d="M127.5,36.6v7.5h-1.8v-7.5H127.5z"/>
			<path class="st0" d="M134.1,36.6h3.3c2.4,0,4,1.4,4,3.7c0,2.2-1.6,3.9-4.1,3.9h-3.3V36.6z M136,42.8h1.4c1.6,0,2.3-1.1,2.3-2.5
				c0-1.2-0.7-2.4-2.3-2.4H136V42.8z"/>
			<path class="st0" d="M145.4,42.4l-0.7,1.7h-1.8l2.9-7.5h2.3l3,7.5h-1.9l-0.7-1.7H145.4z M148.1,41c-0.6-1.6-1-2.6-1.2-3.3h0
				c-0.2,0.7-0.6,1.9-1.1,3.3H148.1z"/>
			<path class="st0" d="M153.8,37.9h-2.6v-1.3h6.9v1.3h-2.5v6.2h-1.8V37.9z"/>
			<path class="st0" d="M160.8,42.4l-0.7,1.7h-1.8l2.9-7.5h2.3l3,7.5h-1.9l-0.7-1.7H160.8z M163.5,41c-0.6-1.6-1-2.6-1.2-3.3h0
				c-0.2,0.7-0.6,1.9-1.1,3.3H163.5z"/>
		</g>
		<path class="st0" d="M74.6,6.4h-2.3v5h-9.4V24h9.4v5.7h2.3V24h9.4V11.4h-9.4V6.4z M72.4,21.7h-7.2v-8h7.2V21.7z M81.8,13.7v8h-7.2
			v-8H81.8z"/>
		<polygon class="st0" points="92.9,11.8 90.2,11.8 88.2,17.2 90.9,17.2 		"/>
		<path class="st0" d="M98.3,6.9l-2.7,0l-2,5.4l2.7,0l0.5-1.5h4.1v1.6c-0.2,0.3-0.9,0.9-2.4,1.5c-1.6,0.7-3.3,1-4.7,1v2.3
			c2.6,0,6.3-1.1,8.2-2.7c1.4,0.8,4.9,2.6,8.2,2.6v-2.3c-2.7,0-5.7-1.5-6.9-2.2c0-0.1,0-0.1,0-0.2v-1.7h4.7v2.1h2.3V8.5H97.7
			L98.3,6.9z"/>
		<polygon class="st0" points="92.9,10.8 91.4,6.8 88.6,6.8 90.2,10.8 		"/>
		<path class="st0" d="M100.3,20.4h6.5v4.3h2.3v-6.6H89.2v6.7h2.3v-4.4H98v2.3c-0.6,1-5.9,4.4-9.8,4.4v2.3c3.1,0,6.4-1.6,7.7-2.3
			c1.2-0.6,2.2-1.3,2.9-1.9c0.2-0.1,0.3-0.3,0.4-0.4c0.6,0.5,1.6,1.2,2.8,2c2.9,1.8,5.6,2.7,8,2.7v-2.3c-4.2,0-8.6-3.5-9.7-4.5V20.4
			z"/>
		<path class="st0" d="M160.7,19.4h5.7v-2.3h-5.7v-1.3h-2.3v1.3h-5.9v-2.2h13.9V7.8h-16.2v21.8h2.3V19.4h5.9v1.6h-5.3v8.5h13.3v-8.5
			h-5.7V19.4z M152.5,9.9h11.7v2.8h-11.7V9.9z M164.1,27.4h-8.7v-4.2h8.7V27.4z"/>
		<polygon class="st0" points="127.3,6.8 124.9,6.8 123.6,11.5 122.2,11.5 122.2,6.8 119.9,6.8 119.9,11.5 118.5,11.5 117.1,6.8 
			114.8,6.8 116.1,11.5 114.3,11.5 114.3,13.8 116.2,13.8 114.9,18.7 117.2,18.7 118.6,13.8 119.9,13.8 119.9,18.7 122.2,18.7 
			122.2,13.8 123.4,13.8 124.8,18.7 127.1,18.7 125.8,13.8 127.7,13.8 127.7,11.5 126,11.5 		"/>
		<path class="st0" d="M132.1,6.8h-2.3l-1.5,8.2h2.3l0.5-2.7h4.6v3c0,0.4-1,3.2-2.6,6.3c0,0.1-0.1,0.1-0.1,0.2
			c0-0.1-0.1-0.1-0.1-0.2c-0.8-1.6-1.5-3.5-1.8-4.7h-2.4c0.5,1.8,1.6,4.8,2.9,7.2c-0.9,1.3-2,2.5-3.2,3.2v2.5c1.8-0.6,3.3-2.3,4.6-4
			c1.3,1.7,3.2,3.4,5,4.1v-2.5c-1.3-0.7-2.7-2-3.6-3.3c2.2-3.7,3.6-8,3.6-8.8V10h-6.5L132.1,6.8z"/>
		<polygon class="st0" points="147.4,6.8 145.1,6.8 145.1,10.1 142.1,10.1 142.1,12.4 145.1,12.4 145.1,20.5 142.1,22.1 142.1,24.7 
			145.1,23.1 145.1,27.2 143.2,27.2 143.2,29.5 147.4,29.5 147.4,21.8 149.5,20.7 149.5,18.1 147.4,19.2 147.4,12.4 149.5,12.4 
			149.5,10.1 147.4,10.1 		"/>
		<path class="st0" d="M127.4,24.2l0-4.7h-7.6l0.3-0.9h-2.5l-0.3,0.9h-2.3v2.3h1.6l-0.9,2.7l3.6,1.6c-1.6,0.7-3.7,1.2-4.9,1.2v2.3
			c2.1,0,5.4-1.1,7.7-2.3l5.3,2.4v-2.5l-2.8-1.3C125.9,25.3,127.4,24.2,127.4,24.2z M118.5,23.4l0.5-1.6h6.1V23
			c-0.8,0.5-1.9,1.2-3.2,1.9L118.5,23.4z"/>
	</g>
</g>
</svg>
