<?xml version="1.0" standalone="no"?><!DOCTYPE svg PUBLIC "-//W3C//DTD SVG 1.1//EN"
        "http://www.w3.org/Graphics/SVG/1.1/DTD/svg11.dtd">
<svg t="1630638381301" class="icon" viewBox="0 0 1024 1024" version="1.1" xmlns="http://www.w3.org/2000/svg" p-id="1473"
     width="250" height="250">
    <defs>
        <style type="text/css"></style>
    </defs>
    <path d="M1019.597032 83.271346c-2.87059 94.506197-23.251778 185.344418-57.348006 273.37584-40.73048 105.318752-100.343063 197.943118-183.909123 274.524076-6.793729 6.251507-8.898829 12.853863-8.005756 21.62511 2.934381 28.386944 5.230853 56.773888 8.133338 85.03325 6.793729 66.087357-16.330467 120.213924-69.595856 158.520351-57.156633 41.177017-116.514052 79.196384-175.520621 117.726079-37.158191 24.240536-82.800569 2.16889-86.978873-41.878716a6562.997673 6562.997673 0 0 1-11.992686-152.045576c-1.754249-25.356877-1.05255-25.612041-25.643936-28.83348-65.22618-8.61177-116.32268-39.582244-151.343876-95.750119-18.052821-28.929167-26.983545-60.920296-30.109298-94.601884-0.956863-10.047064-5.007585-12.5987-14.512426-13.109027-52.818853-2.934381-105.573916-6.028239-158.265187-9.983273C10.648492 574.556851-11.582632 528.276563 11.92431 489.714973c16.521839-27.111126 34.064333-53.616239 51.128394-80.408411 18.33988-28.83348 36.584073-57.794542 54.987744-86.596127C151.753931 269.955373 200.33069 241.472742 262.463012 240.93052c35.62721-0.255164 71.254419 5.996343 106.849734 9.823796 6.729938 0.7017 11.514255-0.191373 16.107198-5.39033 82.609197-92.305411 184.865986-154.597211 300.582653-196.284555A848.514464 848.514464 0 0 1 887.741272 2.990517c34.829823-3.57229 69.85102-4.911898 104.648948 1.530981 18.913998 3.508499 19.934652 4.305885 22.837137 22.805242 2.966276 18.499357 5.294643 37.0944 4.369675 55.944606z m-199.25083 232.964314c0.7017-62.2918-50.873231-115.876144-112.208168-116.896798-63.663304-1.05255-118.874315 45.259633-120.373401 117.598498-1.243922 60.314282 53.361076 114.91928 114.313267 115.365816a117.056275 117.056275 0 0 0 118.268302-116.067516z m0 0"
          fill="#515151" p-id="1474"></path>
    <path d="M135.423464 671.901742c15.596872 0.191373 24.272432 7.080788 29.854134 23.092301 21.97596 62.546963 61.909054 110.007382 119.863074 142.157988 12.790073 7.080788 26.218054 12.853863 40.156363 17.606284 25.037923 8.547979 30.747207 32.884201 12.152163 51.670618-27.493872 27.749035-55.274802 55.179116-82.768674 83.023837-9.090201 9.153992-19.10537 13.427981-31.895442 8.739351-12.981445-4.848107-19.264847-14.480531-19.902757-27.940407-0.446536-8.516083-0.223268-17.064062-0.41464-25.612041-0.35085-15.724453-0.510327-15.852035-14.958963-11.035823-30.874789 10.174646-61.781473 20.604456-92.624366 30.779102-9.153992 3.030067-18.276089 4.305885-27.174917-0.733595-13.013341-7.463534-17.957134-20.668247-12.726282-36.966818 10.270333-31.735966 21.050992-63.280558 31.544593-94.952733 4.561048-13.746936 4.273989-14.033995-10.589287-14.225368-8.930724-0.127582-17.893343 0-26.824067-0.510327-12.981445-0.637909-22.294914-6.85752-27.111127-19.232952-4.68863-12.024582-1.722354-22.390601 7.080789-31.257534 28.674003-28.83348 57.507483-57.66696 86.309068-86.372859 5.74118-5.709284 12.534909-8.930724 20.030338-8.229024z m0 0"
          fill="#515151" p-id="1475"></path>
</svg>