<?xml version="1.0" encoding="utf-8"?>
<!-- Generator: Adobe Illustrator 25.0.0, SVG Export Plug-In . SVG Version: 6.00 Build 0)  -->
<svg version="1.1" id="图层_1" xmlns="http://www.w3.org/2000/svg" xmlns:xlink="http://www.w3.org/1999/xlink" x="0px" y="0px"
	 viewBox="0 0 1421.3 142.5" style="enable-background:new 0 0 1421.3 142.5;" xml:space="preserve">
<style type="text/css">
	.st0{fill:#FF5350;}
	.st1{fill:none;}
	.st2{fill:#FF5555;}
</style>
<g>
	<g>
		<path class="st2" d="M196.3,36.5c-9.5,0-18.3,2.8-25.7,7.6V0h-22.2l0,86c0.7,26,21.9,47,47.9,47c26.4,0,48-21.7,48-48.3
			C244.2,58.1,222.7,36.5,196.3,36.5z M196.3,110.6c-14.2,0-25.7-11.6-25.7-25.9s11.5-25.9,25.7-25.9c14.2,0,25.7,11.6,25.7,25.9
			S210.5,110.6,196.3,110.6z"/>
		<path class="st2" d="M300.3,36.4c-26.4,0-48,21.7-48,48.3c0,26.6,21.5,48.3,48,48.3c26.4,0,48-21.7,48-48.3
			C348.3,58.1,326.8,36.4,300.3,36.4z M300.3,110.6c-14.2,0-25.7-11.6-25.7-25.9c0-14.3,11.5-25.9,25.7-25.9S326,70.4,326,84.7
			C326,99,314.5,110.6,300.3,110.6z"/>
		<path class="st2" d="M43.1,36.5c-7.5,0-14.6,2-20.8,5.4V0H0.1v79.8V117v12.1h22.2V117V79.8c0-11.6,9.3-21,20.8-21
			s20.8,9.4,20.8,21v49.3h22.2V79.8C86.2,55.9,66.8,36.5,43.1,36.5z"/>
		<rect x="469.5" y="43.8" class="st2" width="22.2" height="85.2"/>
		<rect x="106.1" y="43.9" class="st2" width="22.2" height="85.2"/>
		<path class="st2" d="M406.2,36.4c-9.5,0-18.3,2.8-25.7,7.6V0h-22.2v86.6h0c1,25.7,22.1,46.3,47.9,46.3c26.4,0,48-21.7,48-48.3
			C454.1,58.1,432.6,36.4,406.2,36.4z M406.2,110.6c-14.2,0-25.7-11.6-25.7-25.9c0-14.3,11.5-25.9,25.7-25.9
			c14.2,0,25.7,11.6,25.7,25.9C431.9,99,420.4,110.6,406.2,110.6z"/>
		<path class="st2" d="M480.7,9.6L480.7,9.6c-7.4,0-13.3,6-13.3,13.4c0,7.4,6,13.4,13.3,13.4l0,0c7.4,0,13.3-6,13.3-13.4l0,0
			C494,15.6,488,9.6,480.7,9.6z"/>
		<path class="st2" d="M117.2,9.6c-7.4,0-13.3,6-13.3,13.4c0,7.4,6,13.4,13.3,13.4c7.4,0,13.3-6,13.3-13.4l0,0
			C130.6,15.6,124.6,9.6,117.2,9.6z"/>
	</g>
</g>
</svg>
