<svg width="214" height="57" viewBox="0 0 214 57" fill="none" xmlns="http://www.w3.org/2000/svg">
<path d="M67.4077 38H63.3579V21.7583H57.2549V17.6943H73.4966V21.7583H67.4077V38ZM86.9771 29.8862V25.8223C86.9771 25.2653 86.8685 24.7414 86.6514 24.2505C86.4437 23.7502 86.1558 23.3159 85.7876 22.9478C85.4194 22.5796 84.9852 22.2917 84.4849 22.084C83.994 21.8669 83.4701 21.7583 82.9131 21.7583C82.3561 21.7583 81.8275 21.8669 81.3271 22.084C80.8363 22.2917 80.4067 22.5796 80.0386 22.9478C79.6704 23.3159 79.3778 23.7502 79.1606 24.2505C78.953 24.7414 78.8491 25.2653 78.8491 25.8223V29.8862H86.9771ZM91.041 38H86.9771V33.936H78.8491V38H74.7993V25.8223C74.7993 24.6989 75.0117 23.6463 75.4365 22.6646C75.8613 21.6733 76.4372 20.8096 77.1641 20.0732C77.9004 19.3369 78.7594 18.7563 79.7412 18.3315C80.7324 17.9067 81.7897 17.6943 82.9131 17.6943C84.0365 17.6943 85.089 17.9067 86.0708 18.3315C87.062 18.7563 87.9258 19.3369 88.6621 20.0732C89.3984 20.8096 89.979 21.6733 90.4038 22.6646C90.8286 23.6463 91.041 24.6989 91.041 25.8223V38ZM110.809 38H106.461L98.6309 24.6328V38H94.5669V17.6943H98.9141L106.745 31.0757V17.6943H110.809V38ZM130.803 35.9185C129.859 36.7303 128.801 37.3534 127.631 37.7876C126.46 38.2218 125.247 38.439 123.992 38.439C123.029 38.439 122.099 38.3115 121.202 38.0566C120.315 37.8112 119.479 37.4619 118.696 37.0088C117.922 36.5462 117.214 35.994 116.572 35.3521C115.93 34.7101 115.378 34.0021 114.915 33.228C114.462 32.4445 114.108 31.609 113.853 30.7217C113.608 29.8249 113.485 28.895 113.485 27.9321C113.485 26.9692 113.608 26.0394 113.853 25.1426C114.108 24.2458 114.462 23.4103 114.915 22.6362C115.378 21.8527 115.93 21.14 116.572 20.498C117.214 19.8561 117.922 19.3086 118.696 18.8555C119.479 18.3929 120.315 18.0389 121.202 17.7935C122.099 17.5386 123.029 17.4111 123.992 17.4111C125.247 17.4111 126.46 17.6283 127.631 18.0625C128.801 18.4873 129.859 19.1104 130.803 19.9316L128.65 23.4717C128.056 22.8298 127.352 22.3389 126.541 21.999C125.729 21.6497 124.879 21.4751 123.992 21.4751C123.095 21.4751 122.255 21.645 121.471 21.9849C120.688 22.3247 120.003 22.7873 119.418 23.3726C118.833 23.9484 118.37 24.6328 118.03 25.4258C117.69 26.2093 117.521 27.0448 117.521 27.9321C117.521 28.8195 117.69 29.6549 118.03 30.4385C118.37 31.2126 118.833 31.8923 119.418 32.4775C120.003 33.0628 120.688 33.5254 121.471 33.8652C122.255 34.2051 123.095 34.375 123.992 34.375C124.879 34.375 125.729 34.2051 126.541 33.8652C127.352 33.516 128.056 33.0203 128.65 32.3784L130.803 35.9185ZM147.384 38H133.167V17.6943H137.231V33.936H147.384V38ZM168.695 27.9321C168.695 28.895 168.568 29.8249 168.313 30.7217C168.068 31.609 167.718 32.4445 167.265 33.228C166.812 34.0021 166.264 34.7101 165.623 35.3521C164.981 35.994 164.273 36.5462 163.499 37.0088C162.724 37.4619 161.889 37.8112 160.992 38.0566C160.095 38.3115 159.166 38.439 158.203 38.439C157.24 38.439 156.31 38.3115 155.413 38.0566C154.526 37.8112 153.69 37.4619 152.907 37.0088C152.133 36.5462 151.425 35.994 150.783 35.3521C150.141 34.7101 149.589 34.0021 149.126 33.228C148.673 32.4445 148.319 31.609 148.064 30.7217C147.819 29.8249 147.696 28.895 147.696 27.9321C147.696 26.9692 147.819 26.0394 148.064 25.1426C148.319 24.2458 148.673 23.4103 149.126 22.6362C149.589 21.8621 150.141 21.1541 150.783 20.5122C151.425 19.8703 152.133 19.3228 152.907 18.8696C153.69 18.4165 154.526 18.0672 155.413 17.8218C156.31 17.5669 157.24 17.4395 158.203 17.4395C159.166 17.4395 160.095 17.5669 160.992 17.8218C161.889 18.0672 162.724 18.4165 163.499 18.8696C164.273 19.3228 164.981 19.8703 165.623 20.5122C166.264 21.1541 166.812 21.8621 167.265 22.6362C167.718 23.4103 168.068 24.2458 168.313 25.1426C168.568 26.0394 168.695 26.9692 168.695 27.9321ZM164.66 27.9321C164.66 27.0448 164.49 26.2093 164.15 25.4258C163.81 24.6328 163.347 23.9484 162.762 23.3726C162.186 22.7873 161.502 22.3247 160.709 21.9849C159.925 21.645 159.09 21.4751 158.203 21.4751C157.306 21.4751 156.466 21.645 155.682 21.9849C154.899 22.3247 154.214 22.7873 153.629 23.3726C153.044 23.9484 152.581 24.6328 152.241 25.4258C151.901 26.2093 151.731 27.0448 151.731 27.9321C151.731 28.8195 151.901 29.6549 152.241 30.4385C152.581 31.2126 153.044 31.8923 153.629 32.4775C154.214 33.0628 154.899 33.5254 155.682 33.8652C156.466 34.2051 157.306 34.375 158.203 34.375C159.09 34.375 159.925 34.2051 160.709 33.8652C161.502 33.5254 162.186 33.0628 162.762 32.4775C163.347 31.8923 163.81 31.2126 164.15 30.4385C164.49 29.6549 164.66 28.8195 164.66 27.9321ZM187.387 29.8862C187.387 31.0096 187.174 32.0669 186.75 33.0581C186.325 34.0399 185.744 34.8989 185.008 35.6353C184.271 36.3621 183.408 36.938 182.417 37.3628C181.435 37.7876 180.382 38 179.259 38C178.135 38 177.078 37.7876 176.087 37.3628C175.105 36.938 174.246 36.3621 173.51 35.6353C172.783 34.8989 172.207 34.0399 171.782 33.0581C171.357 32.0669 171.145 31.0096 171.145 29.8862V17.6943H175.195V29.8862C175.195 30.4432 175.299 30.9671 175.506 31.458C175.723 31.9489 176.016 32.3784 176.384 32.7466C176.752 33.1147 177.182 33.4074 177.673 33.6245C178.173 33.8322 178.702 33.936 179.259 33.936C179.816 33.936 180.34 33.8322 180.831 33.6245C181.331 33.4074 181.765 33.1147 182.133 32.7466C182.501 32.3784 182.789 31.9489 182.997 31.458C183.214 30.9671 183.323 30.4432 183.323 29.8862V17.6943H187.387V29.8862ZM207.183 27.8472C207.183 28.7817 207.06 29.6833 206.814 30.5518C206.578 31.4108 206.239 32.2179 205.795 32.9731C205.351 33.7189 204.823 34.4033 204.209 35.0264C203.595 35.64 202.911 36.1686 202.156 36.6123C201.401 37.056 200.589 37.4006 199.72 37.646C198.861 37.882 197.964 38 197.03 38H190.913V17.6943H197.03C197.964 17.6943 198.861 17.8171 199.72 18.0625C200.589 18.2985 201.401 18.6383 202.156 19.082C202.911 19.5257 203.595 20.0591 204.209 20.6821C204.823 21.2957 205.351 21.9801 205.795 22.7354C206.239 23.4811 206.578 24.2882 206.814 25.1567C207.06 26.0158 207.183 26.9126 207.183 27.8472ZM203.119 27.8472C203.119 27.007 202.958 26.2188 202.637 25.4824C202.326 24.7461 201.891 24.1042 201.334 23.5566C200.787 22.9997 200.14 22.5607 199.395 22.2397C198.658 21.9188 197.87 21.7583 197.03 21.7583H195.005V33.936H197.03C197.87 33.936 198.658 33.7803 199.395 33.4688C200.14 33.1478 200.787 32.7135 201.334 32.166C201.891 31.609 202.326 30.9624 202.637 30.2261C202.958 29.4803 203.119 28.6873 203.119 27.8472Z" fill="white"/>
<path fill-rule="evenodd" clip-rule="evenodd" d="M25.8101 0C11.5582 0 0 11.556 0 25.8124C0 36.3789 6.35546 45.4613 15.4521 49.4523C15.379 47.652 15.4392 45.4849 15.8984 43.5243C16.3952 41.4293 18.3954 29.5755 18.3954 29.5755C18.3954 29.5755 18.3954 27.8128 18.3954 25.3758C18.3954 21.5514 20.8989 23.4657 23.6583 23.4657L27.4221 24.7359C34.4121 24.7359 45.7035 24.7359 45.7035 24.7359C45.7035 24.7359 35.4261 16.6698 28.4975 16.6698C20.6698 16.6698 19.8945 16.6698 19.8945 16.6698C19.8945 18.9219 14.5176 19.3585 14.5176 19.3585L12.3668 16.6698L9.67839 15.5943C9.67839 8.26392 14.5391 8.67798 26.8005 8.67798C36.6553 8.67798 51.6181 15.5943 45.7035 24.7359C45.7035 24.7359 35.7229 24.7359 27.4221 24.7359C24.639 24.7359 30.4719 33.4364 29.5729 31.7264C29.5729 31.7264 30.1106 35.4906 23.6583 39.7925C23.112 41.7821 19.4762 49.0146 18.4965 50.5633C20.8182 51.2495 23.2712 51.6226 25.8101 51.6226C40.0632 51.6226 51.6181 40.0667 51.6181 25.8124C51.6181 11.556 40.0632 0 25.8101 0Z" fill="white"/>
</svg>
