<svg width="216" height="53" viewBox="0 0 216 53" fill="none" xmlns="http://www.w3.org/2000/svg">
<path d="M17.9443 45H10.9619V16.9971H0.439453V9.99023H28.4424V16.9971H17.9443V45ZM52.6611 45H51.0498L48.4619 41.4111C47.8271 41.9808 47.1517 42.5179 46.4355 43.0225C45.7357 43.5107 44.9951 43.9421 44.2139 44.3164C43.4326 44.6745 42.627 44.9593 41.7969 45.1709C40.9831 45.3825 40.153 45.4883 39.3066 45.4883C37.4674 45.4883 35.734 45.179 34.1064 44.5605C32.4951 43.9421 31.0791 43.0469 29.8584 41.875C28.654 40.6868 27.7018 39.2383 27.002 37.5293C26.3021 35.8203 25.9521 33.8753 25.9521 31.6943C25.9521 29.6598 26.3021 27.7962 27.002 26.1035C27.7018 24.3945 28.654 22.9297 29.8584 21.709C31.0791 20.4883 32.4951 19.5443 34.1064 18.877C35.734 18.1934 37.4674 17.8516 39.3066 17.8516C40.153 17.8516 40.9912 17.9574 41.8213 18.1689C42.6514 18.3805 43.457 18.6735 44.2383 19.0479C45.0195 19.4222 45.7601 19.8617 46.46 20.3662C47.1761 20.8708 47.8434 21.416 48.4619 22.002L51.0498 18.9014H52.6611V45ZM45.9473 31.6943C45.9473 30.7829 45.7682 29.904 45.4102 29.0576C45.0684 28.195 44.5964 27.4382 43.9941 26.7871C43.3919 26.1198 42.6839 25.5908 41.8701 25.2002C41.0726 24.7933 40.2181 24.5898 39.3066 24.5898C38.3952 24.5898 37.5326 24.7445 36.7188 25.0537C35.9212 25.363 35.2214 25.8187 34.6191 26.4209C34.0332 27.0231 33.5693 27.7718 33.2275 28.667C32.8857 29.5459 32.7148 30.555 32.7148 31.6943C32.7148 32.8337 32.8857 33.8509 33.2275 34.7461C33.5693 35.625 34.0332 36.3656 34.6191 36.9678C35.2214 37.57 35.9212 38.0257 36.7188 38.335C37.5326 38.6442 38.3952 38.7988 39.3066 38.7988C40.2181 38.7988 41.0726 38.6035 41.8701 38.2129C42.6839 37.806 43.3919 37.277 43.9941 36.626C44.5964 35.9587 45.0684 35.2018 45.4102 34.3555C45.7682 33.4928 45.9473 32.6058 45.9473 31.6943ZM64.4287 45H57.7637V18.8525H59.375L61.5723 21.3916C62.6465 20.415 63.859 19.6663 65.21 19.1455C66.5771 18.6084 68.0013 18.3398 69.4824 18.3398C71.0775 18.3398 72.583 18.6491 73.999 19.2676C75.415 19.8698 76.652 20.708 77.71 21.7822C78.7679 22.8402 79.598 24.0853 80.2002 25.5176C80.8187 26.9336 81.1279 28.4473 81.1279 30.0586V45H74.4629V30.0586C74.4629 29.375 74.3327 28.7321 74.0723 28.1299C73.8118 27.5114 73.4538 26.9743 72.998 26.5186C72.5423 26.0628 72.0133 25.7048 71.4111 25.4443C70.8089 25.1839 70.166 25.0537 69.4824 25.0537C68.7826 25.0537 68.1234 25.1839 67.5049 25.4443C66.8864 25.7048 66.3493 26.0628 65.8936 26.5186C65.4378 26.9743 65.0798 27.5114 64.8193 28.1299C64.5589 28.7321 64.4287 29.375 64.4287 30.0586V45ZM114.551 41.4111C112.923 42.8109 111.1 43.8851 109.082 44.6338C107.064 45.3825 104.972 45.7568 102.808 45.7568C101.147 45.7568 99.5443 45.5371 97.998 45.0977C96.4681 44.6745 95.0277 44.0723 93.6768 43.291C92.3421 42.4935 91.1214 41.5413 90.0146 40.4346C88.9079 39.3278 87.9557 38.1071 87.1582 36.7725C86.377 35.4215 85.7666 33.9811 85.3271 32.4512C84.904 30.9049 84.6924 29.3018 84.6924 27.6416C84.6924 25.9814 84.904 24.3783 85.3271 22.832C85.7666 21.2858 86.377 19.8454 87.1582 18.5107C87.9557 17.1598 88.9079 15.931 90.0146 14.8242C91.1214 13.7174 92.3421 12.7734 93.6768 11.9922C95.0277 11.1947 96.4681 10.5843 97.998 10.1611C99.5443 9.72168 101.147 9.50195 102.808 9.50195C104.972 9.50195 107.064 9.8763 109.082 10.625C111.1 11.3574 112.923 12.4316 114.551 13.8477L110.84 19.9512C109.814 18.8444 108.602 17.998 107.202 17.4121C105.802 16.8099 104.338 16.5088 102.808 16.5088C101.261 16.5088 99.8128 16.8018 98.4619 17.3877C97.111 17.9736 95.931 18.7712 94.9219 19.7803C93.9128 20.7731 93.1152 21.9531 92.5293 23.3203C91.9434 24.6712 91.6504 26.1117 91.6504 27.6416C91.6504 29.1715 91.9434 30.612 92.5293 31.9629C93.1152 33.2975 93.9128 34.4694 94.9219 35.4785C95.931 36.4876 97.111 37.2852 98.4619 37.8711C99.8128 38.457 101.261 38.75 102.808 38.75C104.338 38.75 105.802 38.457 107.202 37.8711C108.602 37.2689 109.814 36.4144 110.84 35.3076L114.551 41.4111ZM124.634 45H117.92V8.45215H124.634V45ZM155.005 31.6943C155.005 33.6475 154.655 35.4704 153.955 37.1631C153.255 38.8395 152.303 40.2962 151.099 41.5332C149.894 42.7539 148.478 43.7223 146.851 44.4385C145.239 45.1383 143.506 45.4883 141.65 45.4883C139.811 45.4883 138.078 45.1383 136.45 44.4385C134.839 43.7223 133.423 42.7539 132.202 41.5332C130.998 40.2962 130.046 38.8395 129.346 37.1631C128.646 35.4704 128.296 33.6475 128.296 31.6943C128.296 29.7087 128.646 27.8695 129.346 26.1768C130.046 24.484 130.998 23.0273 132.202 21.8066C133.423 20.5697 134.839 19.6012 136.45 18.9014C138.078 18.2015 139.811 17.8516 141.65 17.8516C143.506 17.8516 145.239 18.1852 146.851 18.8525C148.478 19.5036 149.894 20.4395 151.099 21.6602C152.303 22.8646 153.255 24.3213 153.955 26.0303C154.655 27.723 155.005 29.611 155.005 31.6943ZM148.291 31.6943C148.291 30.6201 148.112 29.6517 147.754 28.7891C147.412 27.9102 146.94 27.1615 146.338 26.543C145.736 25.9082 145.028 25.4281 144.214 25.1025C143.416 24.7607 142.562 24.5898 141.65 24.5898C140.739 24.5898 139.876 24.7607 139.062 25.1025C138.265 25.4281 137.565 25.9082 136.963 26.543C136.377 27.1615 135.913 27.9102 135.571 28.7891C135.229 29.6517 135.059 30.6201 135.059 31.6943C135.059 32.7035 135.229 33.6393 135.571 34.502C135.913 35.3646 136.377 36.1133 136.963 36.748C137.565 37.3828 138.265 37.8874 139.062 38.2617C139.876 38.6198 140.739 38.7988 141.65 38.7988C142.562 38.7988 143.416 38.6279 144.214 38.2861C145.028 37.9443 145.736 37.4642 146.338 36.8457C146.94 36.2272 147.412 35.4785 147.754 34.5996C148.112 33.7207 148.291 32.7523 148.291 31.6943ZM177.905 41.9482C177.368 42.4365 176.79 42.9004 176.172 43.3398C175.57 43.763 174.935 44.1374 174.268 44.4629C173.6 44.7721 172.909 45.0163 172.192 45.1953C171.493 45.3906 170.776 45.4883 170.044 45.4883C168.433 45.4883 166.919 45.2035 165.503 44.6338C164.087 44.0641 162.842 43.2585 161.768 42.2168C160.71 41.1589 159.871 39.8812 159.253 38.3838C158.651 36.8701 158.35 35.1774 158.35 33.3057V18.8525H164.99V33.3057C164.99 34.1846 165.12 34.974 165.381 35.6738C165.658 36.3574 166.024 36.9352 166.479 37.4072C166.935 37.8792 167.464 38.2373 168.066 38.4814C168.685 38.7256 169.344 38.8477 170.044 38.8477C170.728 38.8477 171.37 38.693 171.973 38.3838C172.591 38.0583 173.128 37.6351 173.584 37.1143C174.04 36.5934 174.398 36.0075 174.658 35.3564C174.919 34.6891 175.049 34.0055 175.049 33.3057V18.8525H181.714V45H180.103L177.905 41.9482ZM212.085 45H210.474L207.886 41.4111C207.251 41.9808 206.576 42.5179 205.859 43.0225C205.16 43.5107 204.419 43.9421 203.638 44.3164C202.856 44.6745 202.051 44.9593 201.221 45.1709C200.407 45.3825 199.577 45.4883 198.73 45.4883C196.891 45.4883 195.158 45.1465 193.53 44.4629C191.919 43.763 190.503 42.8027 189.282 41.582C188.078 40.3451 187.126 38.8883 186.426 37.2119C185.726 35.5192 185.376 33.68 185.376 31.6943C185.376 29.7249 185.726 27.8939 186.426 26.2012C187.126 24.5085 188.078 23.0436 189.282 21.8066C190.503 20.5697 191.919 19.6012 193.53 18.9014C195.158 18.2015 196.891 17.8516 198.73 17.8516C199.316 17.8516 199.919 17.9004 200.537 17.998C201.172 18.0957 201.782 18.2585 202.368 18.4863C202.97 18.6979 203.532 18.9827 204.053 19.3408C204.574 19.6989 205.013 20.1383 205.371 20.6592V8.45215H212.085V45ZM205.371 31.6943C205.371 30.7829 205.192 29.904 204.834 29.0576C204.492 28.195 204.02 27.4382 203.418 26.7871C202.816 26.1198 202.108 25.5908 201.294 25.2002C200.496 24.7933 199.642 24.5898 198.73 24.5898C197.819 24.5898 196.956 24.7526 196.143 25.0781C195.345 25.4036 194.645 25.8757 194.043 26.4941C193.457 27.0964 192.993 27.8369 192.651 28.7158C192.31 29.5947 192.139 30.5876 192.139 31.6943C192.139 32.6546 192.31 33.5661 192.651 34.4287C192.993 35.2913 193.457 36.0482 194.043 36.6992C194.645 37.3503 195.345 37.863 196.143 38.2373C196.956 38.6117 197.819 38.7988 198.73 38.7988C199.642 38.7988 200.496 38.6035 201.294 38.2129C202.108 37.806 202.816 37.277 203.418 36.626C204.02 35.9587 204.492 35.2018 204.834 34.3555C205.192 33.4928 205.371 32.6058 205.371 31.6943Z" fill="#498765"/>
</svg>
