<svg width="199" height="53" viewBox="0 0 199 53" fill="none" xmlns="http://www.w3.org/2000/svg">
<path d="M60.0112 15.3828V36H57.3208V15.3828H60.0112ZM66.6382 15.3828V17.6201H50.708V15.3828H66.6382ZM76.1963 17.2095L69.3711 36H66.5815L74.4404 15.3828H76.2388L76.1963 17.2095ZM81.917 36L75.0776 17.2095L75.0352 15.3828H76.8335L84.7207 36H81.917ZM81.563 28.3677V30.605H69.98V28.3677H81.563ZM103.341 15.3828V36H100.594L90.2148 20.0981V36H87.4819V15.3828H90.2148L100.637 31.3271V15.3828H103.341ZM120.631 29.4438H123.35C123.208 30.7466 122.835 31.9124 122.231 32.9414C121.627 33.9704 120.772 34.7869 119.668 35.3911C118.563 35.9858 117.185 36.2832 115.533 36.2832C114.325 36.2832 113.225 36.0566 112.234 35.6035C111.252 35.1504 110.407 34.5085 109.699 33.6777C108.991 32.8376 108.444 31.8322 108.057 30.6616C107.679 29.4816 107.49 28.1694 107.49 26.7251V24.6719C107.49 23.2275 107.679 21.9201 108.057 20.7495C108.444 19.5695 108.996 18.5594 109.713 17.7192C110.44 16.8791 111.313 16.2324 112.333 15.7793C113.353 15.3262 114.5 15.0996 115.774 15.0996C117.332 15.0996 118.648 15.3923 119.725 15.9775C120.801 16.5628 121.636 17.3747 122.231 18.4131C122.835 19.4421 123.208 20.6362 123.35 21.9956H120.631C120.499 21.0327 120.253 20.2067 119.895 19.5176C119.536 18.819 119.026 18.2809 118.365 17.9033C117.704 17.5257 116.841 17.3369 115.774 17.3369C114.858 17.3369 114.051 17.5116 113.353 17.8608C112.663 18.2101 112.083 18.7057 111.611 19.3477C111.148 19.9896 110.799 20.759 110.563 21.6558C110.327 22.5526 110.209 23.5485 110.209 24.6436V26.7251C110.209 27.7352 110.313 28.6839 110.521 29.5713C110.738 30.4587 111.063 31.2375 111.498 31.9077C111.932 32.578 112.484 33.1066 113.154 33.4937C113.825 33.8713 114.618 34.0601 115.533 34.0601C116.694 34.0601 117.619 33.876 118.309 33.5078C118.998 33.1396 119.517 32.611 119.866 31.9219C120.225 31.2327 120.48 30.4067 120.631 29.4438ZM139.577 33.7769V36H129.269V33.7769H139.577ZM129.807 15.3828V36H127.074V15.3828H129.807ZM157.646 25.04V26.3428C157.646 27.891 157.452 29.2786 157.065 30.5059C156.678 31.7331 156.121 32.7762 155.394 33.6353C154.667 34.4943 153.794 35.1504 152.774 35.6035C151.764 36.0566 150.632 36.2832 149.376 36.2832C148.158 36.2832 147.04 36.0566 146.02 35.6035C145.01 35.1504 144.132 34.4943 143.386 33.6353C142.65 32.7762 142.079 31.7331 141.673 30.5059C141.267 29.2786 141.064 27.891 141.064 26.3428V25.04C141.064 23.4919 141.262 22.1089 141.659 20.8911C142.065 19.6639 142.636 18.6208 143.372 17.7617C144.108 16.8932 144.982 16.2324 145.992 15.7793C147.011 15.3262 148.13 15.0996 149.348 15.0996C150.603 15.0996 151.736 15.3262 152.746 15.7793C153.766 16.2324 154.639 16.8932 155.366 17.7617C156.102 18.6208 156.664 19.6639 157.051 20.8911C157.447 22.1089 157.646 23.4919 157.646 25.04ZM154.941 26.3428V25.0117C154.941 23.7845 154.813 22.6989 154.559 21.7549C154.313 20.8109 153.95 20.0179 153.468 19.376C152.987 18.734 152.397 18.2479 151.698 17.9175C151.009 17.5871 150.226 17.4219 149.348 17.4219C148.498 17.4219 147.729 17.5871 147.04 17.9175C146.36 18.2479 145.775 18.734 145.284 19.376C144.802 20.0179 144.429 20.8109 144.165 21.7549C143.901 22.6989 143.769 23.7845 143.769 25.0117V26.3428C143.769 27.5794 143.901 28.6745 144.165 29.6279C144.429 30.5719 144.807 31.3696 145.298 32.021C145.798 32.6629 146.388 33.1491 147.068 33.4795C147.757 33.8099 148.526 33.9751 149.376 33.9751C150.263 33.9751 151.052 33.8099 151.741 33.4795C152.43 33.1491 153.01 32.6629 153.482 32.021C153.964 31.3696 154.327 30.5719 154.573 29.6279C154.818 28.6745 154.941 27.5794 154.941 26.3428ZM173.533 15.3828H176.252V29.3306C176.252 30.8787 175.907 32.1673 175.218 33.1963C174.529 34.2253 173.613 34.9993 172.471 35.5186C171.338 36.0283 170.106 36.2832 168.775 36.2832C167.378 36.2832 166.113 36.0283 164.98 35.5186C163.857 34.9993 162.965 34.2253 162.304 33.1963C161.653 32.1673 161.327 30.8787 161.327 29.3306V15.3828H164.032V29.3306C164.032 30.4067 164.23 31.2941 164.626 31.9927C165.023 32.6912 165.575 33.2104 166.283 33.5503C167.001 33.8901 167.831 34.0601 168.775 34.0601C169.729 34.0601 170.56 33.8901 171.268 33.5503C171.985 33.2104 172.542 32.6912 172.938 31.9927C173.335 31.2941 173.533 30.4067 173.533 29.3306V15.3828ZM186.122 36H181.817L181.845 33.7769H186.122C187.594 33.7769 188.821 33.4701 189.803 32.8564C190.785 32.2334 191.521 31.3649 192.012 30.251C192.513 29.1276 192.763 27.8154 192.763 26.3145V25.0542C192.763 23.8742 192.621 22.8263 192.338 21.9106C192.055 20.9855 191.639 20.2067 191.092 19.5742C190.544 18.9323 189.874 18.4461 189.081 18.1157C188.298 17.7853 187.396 17.6201 186.376 17.6201H181.732V15.3828H186.376C187.726 15.3828 188.958 15.6094 190.072 16.0625C191.186 16.5062 192.144 17.1528 192.947 18.0024C193.759 18.8426 194.382 19.8621 194.816 21.061C195.25 22.2505 195.467 23.591 195.467 25.0825V26.3145C195.467 27.806 195.25 29.1512 194.816 30.3501C194.382 31.5396 193.754 32.5544 192.933 33.3945C192.121 34.2347 191.139 34.8813 189.987 35.3345C188.845 35.7782 187.556 36 186.122 36ZM183.275 15.3828V36H180.542V15.3828H183.275Z" fill="white"/>
<path fill-rule="evenodd" clip-rule="evenodd" d="M24.001 0C10.748 0 0 10.745 0 24.001C0 33.826 5.90999 42.271 14.369 45.982C14.301 44.308 14.357 42.293 14.784 40.47C15.246 38.522 17.106 27.5 17.106 27.5C17.106 27.5 17.106 25.861 17.106 23.595C17.106 20.039 19.434 21.819 22 21.819L25.5 23C32 23 42.5 23 42.5 23C42.5 23 32.943 15.5 26.5 15.5C19.221 15.5 18.5 15.5 18.5 15.5C18.5 17.594 13.5 18 13.5 18L11.5 15.5L9 14.5C9 7.684 13.52 8.069 24.922 8.069C34.086 8.069 48 14.5 42.5 23C42.5 23 33.219 23 25.5 23C22.912 23 28.336 31.09 27.5 29.5C27.5 29.5 28 33 22 37C21.492 38.85 18.111 45.575 17.2 47.015C19.359 47.653 21.64 48 24.001 48C37.255 48 48 37.255 48 24.001C48 10.745 37.255 0 24.001 0Z" fill="white"/>
</svg>
