<svg width="234" height="128" viewBox="0 0 234 128" fill="none" xmlns="http://www.w3.org/2000/svg">
<path d="M22.3262 125H15.8799V92.791H22.3262V105.684H35.1963V92.791H41.6426V125H35.1963V112.13H22.3262V125ZM56.1973 119.115C56.4368 119.19 56.6764 119.243 56.916 119.272C57.1556 119.287 57.3952 119.295 57.6348 119.295C58.2337 119.295 58.8102 119.213 59.3643 119.048C59.9183 118.883 60.4349 118.651 60.9141 118.352C61.4082 118.037 61.8424 117.663 62.2168 117.229C62.6061 116.779 62.9206 116.285 63.1602 115.746L67.6523 120.261C67.0833 121.069 66.4245 121.796 65.6758 122.439C64.9421 123.083 64.141 123.63 63.2725 124.079C62.4189 124.528 61.513 124.865 60.5547 125.09C59.6113 125.329 58.638 125.449 57.6348 125.449C55.9427 125.449 54.348 125.135 52.8506 124.506C51.3682 123.877 50.0654 123.001 48.9424 121.878C47.8343 120.755 46.9583 119.422 46.3145 117.88C45.6706 116.323 45.3486 114.616 45.3486 112.759C45.3486 110.857 45.6706 109.12 46.3145 107.548C46.9583 105.976 47.8343 104.635 48.9424 103.527C50.0654 102.419 51.3682 101.558 52.8506 100.944C54.348 100.33 55.9427 100.023 57.6348 100.023C58.638 100.023 59.6188 100.143 60.5771 100.383C61.5355 100.622 62.4414 100.967 63.2949 101.416C64.1634 101.865 64.972 102.419 65.7207 103.078C66.4694 103.722 67.1283 104.448 67.6973 105.257L56.1973 119.115ZM59.3418 106.47C59.0573 106.365 58.7728 106.298 58.4883 106.268C58.2188 106.238 57.9342 106.223 57.6348 106.223C56.7962 106.223 56.0026 106.38 55.2539 106.694C54.5202 106.994 53.8763 107.428 53.3223 107.997C52.7832 108.566 52.3564 109.255 52.042 110.063C51.7275 110.857 51.5703 111.756 51.5703 112.759C51.5703 112.983 51.5778 113.238 51.5928 113.522C51.6227 113.807 51.6602 114.099 51.7051 114.398C51.765 114.683 51.8324 114.96 51.9072 115.229C51.9821 115.499 52.0794 115.739 52.1992 115.948L59.3418 106.47ZM76.9287 125H70.7969V100.944H72.2793L74.3008 103.797C75.2891 102.898 76.4121 102.21 77.6699 101.73C78.9277 101.236 80.2305 100.989 81.5781 100.989H86.9912V107.099H81.5781C80.9342 107.099 80.3278 107.218 79.7588 107.458C79.1898 107.698 78.6956 108.027 78.2764 108.446C77.8571 108.866 77.5277 109.36 77.2881 109.929C77.0485 110.498 76.9287 111.104 76.9287 111.748V125ZM101.905 125C100.423 125 99.0303 124.723 97.7275 124.169C96.4248 123.6 95.2793 122.829 94.291 121.855C93.3177 120.867 92.5465 119.722 91.9775 118.419C91.4235 117.116 91.1465 115.724 91.1465 114.241V107.099H88.1592V100.989H91.1465V91.376H97.2559V100.989H106.555V107.099H97.2559V114.241C97.2559 114.885 97.3757 115.492 97.6152 116.061C97.8548 116.615 98.1842 117.101 98.6035 117.521C99.0228 117.94 99.5169 118.277 100.086 118.531C100.655 118.771 101.261 118.891 101.905 118.891H106.555V125H101.905ZM128.791 125H108.733L118.863 107.099H108.733V100.989H128.791L118.661 118.891H128.791V125ZM158.619 115.342C158.619 116.674 158.365 117.925 157.855 119.093C157.346 120.261 156.65 121.286 155.767 122.17C154.898 123.038 153.88 123.727 152.712 124.236C151.544 124.745 150.294 125 148.961 125H132.856V92.791H148.961C150.294 92.791 151.544 93.0456 152.712 93.5547C153.88 94.0638 154.898 94.7601 155.767 95.6436C156.65 96.512 157.346 97.5303 157.855 98.6982C158.365 99.8662 158.619 101.117 158.619 102.449C158.619 103.048 158.537 103.662 158.372 104.291C158.207 104.92 157.975 105.526 157.676 106.11C157.376 106.694 157.017 107.226 156.598 107.705C156.178 108.184 155.714 108.581 155.205 108.896C155.729 109.18 156.201 109.569 156.62 110.063C157.039 110.543 157.399 111.074 157.698 111.658C157.998 112.242 158.222 112.856 158.372 113.5C158.537 114.129 158.619 114.743 158.619 115.342ZM139.303 118.554H148.961C149.41 118.554 149.829 118.471 150.219 118.307C150.608 118.142 150.945 117.917 151.229 117.633C151.529 117.333 151.761 116.989 151.926 116.6C152.09 116.21 152.173 115.791 152.173 115.342C152.173 114.893 152.09 114.473 151.926 114.084C151.761 113.695 151.529 113.358 151.229 113.073C150.945 112.774 150.608 112.542 150.219 112.377C149.829 112.212 149.41 112.13 148.961 112.13H139.303V118.554ZM139.303 105.684H148.961C149.41 105.684 149.829 105.601 150.219 105.437C150.608 105.272 150.945 105.047 151.229 104.763C151.529 104.463 151.761 104.119 151.926 103.729C152.09 103.325 152.173 102.898 152.173 102.449C152.173 102 152.09 101.581 151.926 101.191C151.761 100.802 151.529 100.465 151.229 100.181C150.945 99.8812 150.608 99.6491 150.219 99.4844C149.829 99.3197 149.41 99.2373 148.961 99.2373H139.303V105.684ZM172.41 119.115C172.65 119.19 172.889 119.243 173.129 119.272C173.368 119.287 173.608 119.295 173.848 119.295C174.447 119.295 175.023 119.213 175.577 119.048C176.131 118.883 176.648 118.651 177.127 118.352C177.621 118.037 178.055 117.663 178.43 117.229C178.819 116.779 179.133 116.285 179.373 115.746L183.865 120.261C183.296 121.069 182.637 121.796 181.889 122.439C181.155 123.083 180.354 123.63 179.485 124.079C178.632 124.528 177.726 124.865 176.768 125.09C175.824 125.329 174.851 125.449 173.848 125.449C172.156 125.449 170.561 125.135 169.063 124.506C167.581 123.877 166.278 123.001 165.155 121.878C164.047 120.755 163.171 119.422 162.527 117.88C161.883 116.323 161.562 114.616 161.562 112.759C161.562 110.857 161.883 109.12 162.527 107.548C163.171 105.976 164.047 104.635 165.155 103.527C166.278 102.419 167.581 101.558 169.063 100.944C170.561 100.33 172.156 100.023 173.848 100.023C174.851 100.023 175.832 100.143 176.79 100.383C177.748 100.622 178.654 100.967 179.508 101.416C180.376 101.865 181.185 102.419 181.934 103.078C182.682 103.722 183.341 104.448 183.91 105.257L172.41 119.115ZM175.555 106.47C175.27 106.365 174.986 106.298 174.701 106.268C174.432 106.238 174.147 106.223 173.848 106.223C173.009 106.223 172.215 106.38 171.467 106.694C170.733 106.994 170.089 107.428 169.535 107.997C168.996 108.566 168.569 109.255 168.255 110.063C167.94 110.857 167.783 111.756 167.783 112.759C167.783 112.983 167.791 113.238 167.806 113.522C167.836 113.807 167.873 114.099 167.918 114.398C167.978 114.683 168.045 114.96 168.12 115.229C168.195 115.499 168.292 115.739 168.412 115.948L175.555 106.47ZM210.122 125H208.64L206.259 121.698C205.675 122.222 205.053 122.716 204.395 123.181C203.751 123.63 203.069 124.027 202.351 124.371C201.632 124.701 200.891 124.963 200.127 125.157C199.378 125.352 198.615 125.449 197.836 125.449C196.144 125.449 194.549 125.165 193.052 124.596C191.569 124.027 190.267 123.203 189.144 122.125C188.035 121.032 187.16 119.699 186.516 118.127C185.872 116.555 185.55 114.765 185.55 112.759C185.55 110.887 185.872 109.173 186.516 107.615C187.16 106.043 188.035 104.695 189.144 103.572C190.267 102.449 191.569 101.581 193.052 100.967C194.549 100.338 196.144 100.023 197.836 100.023C198.615 100.023 199.386 100.121 200.149 100.315C200.913 100.51 201.654 100.78 202.373 101.124C203.092 101.468 203.773 101.873 204.417 102.337C205.076 102.801 205.69 103.303 206.259 103.842L208.64 100.989H210.122V125ZM203.945 112.759C203.945 111.92 203.781 111.112 203.451 110.333C203.137 109.539 202.702 108.843 202.148 108.244C201.594 107.63 200.943 107.144 200.194 106.784C199.461 106.41 198.674 106.223 197.836 106.223C196.997 106.223 196.204 106.365 195.455 106.649C194.721 106.934 194.077 107.353 193.523 107.907C192.984 108.461 192.558 109.15 192.243 109.974C191.929 110.782 191.771 111.711 191.771 112.759C191.771 113.807 191.929 114.743 192.243 115.566C192.558 116.375 192.984 117.056 193.523 117.61C194.077 118.164 194.721 118.584 195.455 118.868C196.204 119.153 196.997 119.295 197.836 119.295C198.674 119.295 199.461 119.115 200.194 118.756C200.943 118.382 201.594 117.895 202.148 117.296C202.702 116.682 203.137 115.986 203.451 115.207C203.781 114.413 203.945 113.597 203.945 112.759ZM226.878 125C225.396 125 224.003 124.723 222.7 124.169C221.397 123.6 220.252 122.829 219.264 121.855C218.29 120.867 217.519 119.722 216.95 118.419C216.396 117.116 216.119 115.724 216.119 114.241V107.099H213.132V100.989H216.119V91.376H222.229V100.989H231.527V107.099H222.229V114.241C222.229 114.885 222.348 115.492 222.588 116.061C222.827 116.615 223.157 117.101 223.576 117.521C223.995 117.94 224.49 118.277 225.059 118.531C225.628 118.771 226.234 118.891 226.878 118.891H231.527V125H226.878Z" fill="white"/>
<rect x="75" width="85" height="84" rx="12" fill="white"/>
<path d="M91.9294 15.7307L86.8557 62.8861C86.5081 66.116 88.8345 69.0999 92.0517 69.5507C95.2689 70.0015 98.1587 67.7485 98.5062 64.5185L100.015 50.4972C100.164 49.1074 101.408 48.1379 102.792 48.3319C103.733 48.4637 104.652 48.0555 105.171 47.2747L105.524 46.744C107.582 43.6483 112.467 45.5647 112.064 49.31L111.369 55.766C110.83 60.7744 117.032 63.7068 120.335 60.0054L126.691 52.8829C127.289 52.2131 128.182 51.8895 129.085 52.016C130.613 52.2301 131.719 53.6476 131.554 55.1819L130.05 69.1574C129.715 72.2681 131.956 75.1418 135.054 75.576C138.152 76.0101 140.935 73.8403 141.27 70.7296L146.39 23.1424C146.725 20.0317 144.485 17.158 141.386 16.7238C138.288 16.2897 135.505 18.4595 135.17 21.5703L133.777 34.5193C133.612 36.0512 132.241 37.1197 130.716 36.9059C129.81 36.7791 128.915 37.1054 128.318 37.7794L127.57 38.6241C124.386 42.2216 118.37 39.3913 118.892 34.541L119.039 33.1727C119.625 27.7263 112.704 24.7282 109.395 28.9949L106.839 32.2905C106.288 33.0015 105.398 33.3586 104.494 33.2319C103.068 33.032 102.036 31.709 102.191 30.2768L103.58 17.3632C103.928 14.1332 101.601 11.1493 98.384 10.6985C95.1668 10.2478 92.277 12.5007 91.9294 15.7307Z" fill="#B421CC"/>
<path d="M174.773 89.2021V87.8008C174.773 87.6087 174.736 87.4281 174.661 87.2588C174.59 87.0863 174.49 86.9365 174.363 86.8096C174.236 86.6826 174.087 86.5833 173.914 86.5117C173.745 86.4368 173.564 86.3994 173.372 86.3994C173.18 86.3994 172.998 86.4368 172.825 86.5117C172.656 86.5833 172.508 86.6826 172.381 86.8096C172.254 86.9365 172.153 87.0863 172.078 87.2588C172.007 87.4281 171.971 87.6087 171.971 87.8008V89.2021H174.773ZM176.175 92H174.773V90.5986H171.971V92H170.574V87.8008C170.574 87.4134 170.647 87.0505 170.794 86.7119C170.94 86.3701 171.139 86.0723 171.39 85.8184C171.644 85.5645 171.94 85.3643 172.278 85.2178C172.62 85.0713 172.985 84.998 173.372 84.998C173.759 84.998 174.122 85.0713 174.461 85.2178C174.803 85.3643 175.101 85.5645 175.354 85.8184C175.608 86.0723 175.809 86.3701 175.955 86.7119C176.102 87.0505 176.175 87.4134 176.175 87.8008V92ZM178.792 86.3994V89.2021H180.193C180.385 89.2021 180.566 89.1663 180.735 89.0947C180.905 89.0199 181.053 88.9189 181.18 88.792C181.307 88.665 181.406 88.5169 181.478 88.3477C181.552 88.1751 181.59 87.9928 181.59 87.8008C181.59 87.6087 181.552 87.4281 181.478 87.2588C181.406 87.0863 181.307 86.9365 181.18 86.8096C181.053 86.6826 180.905 86.5833 180.735 86.5117C180.566 86.4368 180.385 86.3994 180.193 86.3994H178.792ZM178.792 92H177.391V84.998H180.193C180.451 84.998 180.698 85.0322 180.936 85.1006C181.173 85.1657 181.395 85.2601 181.6 85.3838C181.808 85.5042 181.997 85.6507 182.166 85.8232C182.339 85.9925 182.485 86.1813 182.605 86.3896C182.729 86.598 182.824 86.821 182.889 87.0586C182.957 87.2962 182.991 87.5436 182.991 87.8008C182.991 88.1849 182.918 88.5479 182.771 88.8896C182.625 89.2282 182.425 89.5244 182.171 89.7783C181.917 90.0322 181.619 90.2324 181.277 90.3789C180.939 90.5254 180.577 90.5986 180.193 90.5986H178.792V92ZM187.938 89.2021V87.8008C187.938 87.6087 187.9 87.4281 187.825 87.2588C187.754 87.0863 187.654 86.9365 187.527 86.8096C187.4 86.6826 187.251 86.5833 187.078 86.5117C186.909 86.4368 186.728 86.3994 186.536 86.3994C186.344 86.3994 186.162 86.4368 185.989 86.5117C185.82 86.5833 185.672 86.6826 185.545 86.8096C185.418 86.9365 185.317 87.0863 185.242 87.2588C185.171 87.4281 185.135 87.6087 185.135 87.8008V89.2021H187.938ZM189.339 92H187.938V90.5986H185.135V92H183.738V87.8008C183.738 87.4134 183.812 87.0505 183.958 86.7119C184.104 86.3701 184.303 86.0723 184.554 85.8184C184.808 85.5645 185.104 85.3643 185.442 85.2178C185.784 85.0713 186.149 84.998 186.536 84.998C186.924 84.998 187.286 85.0713 187.625 85.2178C187.967 85.3643 188.265 85.5645 188.519 85.8184C188.772 86.0723 188.973 86.3701 189.119 86.7119C189.266 87.0505 189.339 87.4134 189.339 87.8008V92ZM196.146 91.2822C195.82 91.5622 195.455 91.777 195.052 91.9268C194.648 92.0765 194.23 92.1514 193.797 92.1514C193.465 92.1514 193.144 92.1074 192.835 92.0195C192.529 91.9349 192.241 91.8145 191.971 91.6582C191.704 91.4987 191.46 91.3083 191.238 91.0869C191.017 90.8656 190.826 90.6214 190.667 90.3545C190.511 90.0843 190.389 89.7962 190.301 89.4902C190.216 89.181 190.174 88.8604 190.174 88.5283C190.174 88.1963 190.216 87.8757 190.301 87.5664C190.389 87.2572 190.511 86.9691 190.667 86.7021C190.826 86.432 191.017 86.1862 191.238 85.9648C191.46 85.7435 191.704 85.5547 191.971 85.3984C192.241 85.2389 192.529 85.1169 192.835 85.0322C193.144 84.9443 193.465 84.9004 193.797 84.9004C194.23 84.9004 194.648 84.9753 195.052 85.125C195.455 85.2715 195.82 85.4863 196.146 85.7695L195.403 86.9902C195.198 86.7689 194.956 86.5996 194.676 86.4824C194.396 86.362 194.103 86.3018 193.797 86.3018C193.488 86.3018 193.198 86.3604 192.928 86.4775C192.658 86.5947 192.422 86.7542 192.22 86.9561C192.018 87.1546 191.858 87.3906 191.741 87.6641C191.624 87.9342 191.565 88.2223 191.565 88.5283C191.565 88.8343 191.624 89.1224 191.741 89.3926C191.858 89.6595 192.018 89.8939 192.22 90.0957C192.422 90.2975 192.658 90.457 192.928 90.5742C193.198 90.6914 193.488 90.75 193.797 90.75C194.103 90.75 194.396 90.6914 194.676 90.5742C194.956 90.4538 195.198 90.2829 195.403 90.0615L196.146 91.2822ZM198.362 92H196.961V84.998H198.362V87.8008H201.16V84.998H202.562V92H201.16V89.2021H198.362V92ZM208.665 92H203.865V84.998H208.665V86.3994H205.267V87.8008H207.566V89.2021H205.267V90.5986H208.665V92Z" fill="white"/>
</svg>
