<svg width="241" height="183" viewBox="0 0 241 183" fill="none" xmlns="http://www.w3.org/2000/svg">
<path d="M10.2539 175H3.24707V139.99H10.2539V154.004H24.2432V139.99H31.25V175H24.2432V161.011H10.2539V175ZM47.0703 168.604C47.3307 168.685 47.5911 168.742 47.8516 168.774C48.112 168.791 48.3724 168.799 48.6328 168.799C49.2839 168.799 49.9105 168.709 50.5127 168.53C51.1149 168.351 51.6764 168.099 52.1973 167.773C52.7344 167.432 53.2064 167.025 53.6133 166.553C54.0365 166.064 54.3783 165.527 54.6387 164.941L59.5215 169.849C58.903 170.728 58.1868 171.517 57.373 172.217C56.5755 172.917 55.7048 173.511 54.7607 173.999C53.833 174.487 52.8483 174.854 51.8066 175.098C50.7812 175.358 49.7233 175.488 48.6328 175.488C46.7936 175.488 45.0602 175.146 43.4326 174.463C41.8213 173.779 40.4053 172.827 39.1846 171.606C37.9801 170.386 37.028 168.937 36.3281 167.261C35.6283 165.568 35.2783 163.713 35.2783 161.694C35.2783 159.627 35.6283 157.739 36.3281 156.03C37.028 154.321 37.9801 152.865 39.1846 151.66C40.4053 150.456 41.8213 149.52 43.4326 148.853C45.0602 148.185 46.7936 147.852 48.6328 147.852C49.7233 147.852 50.7894 147.982 51.8311 148.242C52.8727 148.503 53.8574 148.877 54.7852 149.365C55.7292 149.854 56.6081 150.456 57.4219 151.172C58.2357 151.872 58.9518 152.661 59.5703 153.54L47.0703 168.604ZM50.4883 154.858C50.179 154.744 49.8698 154.671 49.5605 154.639C49.2676 154.606 48.9583 154.59 48.6328 154.59C47.7214 154.59 46.8587 154.761 46.0449 155.103C45.2474 155.428 44.5475 155.9 43.9453 156.519C43.3594 157.137 42.8955 157.886 42.5537 158.765C42.2119 159.627 42.041 160.604 42.041 161.694C42.041 161.938 42.0492 162.215 42.0654 162.524C42.098 162.834 42.1387 163.151 42.1875 163.477C42.2526 163.786 42.3258 164.087 42.4072 164.38C42.4886 164.673 42.5944 164.933 42.7246 165.161L50.4883 154.858ZM69.6045 175H62.9395V148.853H64.5508L66.748 151.953C67.8223 150.977 69.043 150.228 70.4102 149.707C71.7773 149.17 73.1934 148.901 74.6582 148.901H80.542V155.542H74.6582C73.9583 155.542 73.2992 155.672 72.6807 155.933C72.0622 156.193 71.5251 156.551 71.0693 157.007C70.6136 157.463 70.2555 158 69.9951 158.618C69.7347 159.237 69.6045 159.896 69.6045 160.596V175ZM96.7529 175C95.1416 175 93.6279 174.699 92.2119 174.097C90.7959 173.478 89.5508 172.64 88.4766 171.582C87.4186 170.508 86.5804 169.263 85.9619 167.847C85.3597 166.431 85.0586 164.917 85.0586 163.306V155.542H81.8115V148.901H85.0586V138.452H91.6992V148.901H101.807V155.542H91.6992V163.306C91.6992 164.006 91.8294 164.665 92.0898 165.283C92.3503 165.885 92.7083 166.414 93.1641 166.87C93.6198 167.326 94.1569 167.692 94.7754 167.969C95.3939 168.229 96.0531 168.359 96.7529 168.359H101.807V175H96.7529ZM125.977 175H104.175L115.186 155.542H104.175V148.901H125.977L114.966 168.359H125.977V175ZM158.398 164.502C158.398 165.951 158.122 167.31 157.568 168.579C157.015 169.849 156.258 170.964 155.298 171.924C154.354 172.868 153.247 173.617 151.978 174.17C150.708 174.723 149.349 175 147.9 175H130.396V139.99H147.9C149.349 139.99 150.708 140.267 151.978 140.82C153.247 141.374 154.354 142.131 155.298 143.091C156.258 144.035 157.015 145.142 157.568 146.411C158.122 147.681 158.398 149.04 158.398 150.488C158.398 151.139 158.309 151.807 158.13 152.49C157.951 153.174 157.699 153.833 157.373 154.468C157.048 155.103 156.657 155.68 156.201 156.201C155.745 156.722 155.241 157.153 154.688 157.495C155.257 157.804 155.77 158.228 156.226 158.765C156.681 159.285 157.072 159.863 157.397 160.498C157.723 161.133 157.967 161.8 158.13 162.5C158.309 163.184 158.398 163.851 158.398 164.502ZM137.402 167.993H147.9C148.389 167.993 148.844 167.904 149.268 167.725C149.691 167.546 150.057 167.301 150.366 166.992C150.692 166.667 150.944 166.292 151.123 165.869C151.302 165.446 151.392 164.99 151.392 164.502C151.392 164.014 151.302 163.558 151.123 163.135C150.944 162.712 150.692 162.345 150.366 162.036C150.057 161.711 149.691 161.458 149.268 161.279C148.844 161.1 148.389 161.011 147.9 161.011H137.402V167.993ZM137.402 154.004H147.9C148.389 154.004 148.844 153.914 149.268 153.735C149.691 153.556 150.057 153.312 150.366 153.003C150.692 152.677 150.944 152.303 151.123 151.88C151.302 151.44 151.392 150.977 151.392 150.488C151.392 150 151.302 149.544 151.123 149.121C150.944 148.698 150.692 148.332 150.366 148.022C150.057 147.697 149.691 147.445 149.268 147.266C148.844 147.087 148.389 146.997 147.9 146.997H137.402V154.004ZM173.389 168.604C173.649 168.685 173.91 168.742 174.17 168.774C174.43 168.791 174.691 168.799 174.951 168.799C175.602 168.799 176.229 168.709 176.831 168.53C177.433 168.351 177.995 168.099 178.516 167.773C179.053 167.432 179.525 167.025 179.932 166.553C180.355 166.064 180.697 165.527 180.957 164.941L185.84 169.849C185.221 170.728 184.505 171.517 183.691 172.217C182.894 172.917 182.023 173.511 181.079 173.999C180.151 174.487 179.167 174.854 178.125 175.098C177.1 175.358 176.042 175.488 174.951 175.488C173.112 175.488 171.379 175.146 169.751 174.463C168.14 173.779 166.724 172.827 165.503 171.606C164.299 170.386 163.346 168.937 162.646 167.261C161.947 165.568 161.597 163.713 161.597 161.694C161.597 159.627 161.947 157.739 162.646 156.03C163.346 154.321 164.299 152.865 165.503 151.66C166.724 150.456 168.14 149.52 169.751 148.853C171.379 148.185 173.112 147.852 174.951 147.852C176.042 147.852 177.108 147.982 178.149 148.242C179.191 148.503 180.176 148.877 181.104 149.365C182.048 149.854 182.926 150.456 183.74 151.172C184.554 151.872 185.27 152.661 185.889 153.54L173.389 168.604ZM176.807 154.858C176.497 154.744 176.188 154.671 175.879 154.639C175.586 154.606 175.277 154.59 174.951 154.59C174.04 154.59 173.177 154.761 172.363 155.103C171.566 155.428 170.866 155.9 170.264 156.519C169.678 157.137 169.214 157.886 168.872 158.765C168.53 159.627 168.359 160.604 168.359 161.694C168.359 161.938 168.368 162.215 168.384 162.524C168.416 162.834 168.457 163.151 168.506 163.477C168.571 163.786 168.644 164.087 168.726 164.38C168.807 164.673 168.913 164.933 169.043 165.161L176.807 154.858ZM214.38 175H212.769L210.181 171.411C209.546 171.981 208.87 172.518 208.154 173.022C207.454 173.511 206.714 173.942 205.933 174.316C205.151 174.674 204.346 174.959 203.516 175.171C202.702 175.382 201.872 175.488 201.025 175.488C199.186 175.488 197.453 175.179 195.825 174.561C194.214 173.942 192.798 173.047 191.577 171.875C190.373 170.687 189.421 169.238 188.721 167.529C188.021 165.82 187.671 163.875 187.671 161.694C187.671 159.66 188.021 157.796 188.721 156.104C189.421 154.395 190.373 152.93 191.577 151.709C192.798 150.488 194.214 149.544 195.825 148.877C197.453 148.193 199.186 147.852 201.025 147.852C201.872 147.852 202.71 147.957 203.54 148.169C204.37 148.381 205.176 148.674 205.957 149.048C206.738 149.422 207.479 149.862 208.179 150.366C208.895 150.871 209.562 151.416 210.181 152.002L212.769 148.901H214.38V175ZM207.666 161.694C207.666 160.783 207.487 159.904 207.129 159.058C206.787 158.195 206.315 157.438 205.713 156.787C205.111 156.12 204.403 155.591 203.589 155.2C202.791 154.793 201.937 154.59 201.025 154.59C200.114 154.59 199.251 154.744 198.438 155.054C197.64 155.363 196.94 155.819 196.338 156.421C195.752 157.023 195.288 157.772 194.946 158.667C194.604 159.546 194.434 160.555 194.434 161.694C194.434 162.834 194.604 163.851 194.946 164.746C195.288 165.625 195.752 166.366 196.338 166.968C196.94 167.57 197.64 168.026 198.438 168.335C199.251 168.644 200.114 168.799 201.025 168.799C201.937 168.799 202.791 168.604 203.589 168.213C204.403 167.806 205.111 167.277 205.713 166.626C206.315 165.959 206.787 165.202 207.129 164.355C207.487 163.493 207.666 162.606 207.666 161.694ZM232.593 175C230.981 175 229.468 174.699 228.052 174.097C226.636 173.478 225.391 172.64 224.316 171.582C223.258 170.508 222.42 169.263 221.802 167.847C221.2 166.431 220.898 164.917 220.898 163.306V155.542H217.651V148.901H220.898V138.452H227.539V148.901H237.646V155.542H227.539V163.306C227.539 164.006 227.669 164.665 227.93 165.283C228.19 165.885 228.548 166.414 229.004 166.87C229.46 167.326 229.997 167.692 230.615 167.969C231.234 168.229 231.893 168.359 232.593 168.359H237.646V175H232.593Z" fill="white"/>
<path fill-rule="evenodd" clip-rule="evenodd" d="M121.003 0C85.1092 0 56 29.1011 56 65.0027C56 91.6121 72.0062 114.484 94.916 124.535C94.7318 120.001 94.8835 114.544 96.04 109.606C97.2912 104.33 102.329 74.4792 102.329 74.4792C102.329 74.4792 102.329 70.0402 102.329 63.9031C102.329 54.2723 108.634 59.0931 115.583 59.0931L125.062 62.2917C142.667 62.2917 171.104 62.2917 171.104 62.2917C171.104 62.2917 145.221 41.9792 127.771 41.9792C108.057 41.9792 106.104 41.9792 106.104 41.9792C106.104 47.6504 92.5625 48.75 92.5625 48.75L87.1458 41.9792L80.375 39.2708C80.375 20.8108 92.6167 21.8535 123.497 21.8535C148.316 21.8535 186 39.2708 171.104 62.2917C171.104 62.2917 145.968 62.2917 125.062 62.2917C118.053 62.2917 132.743 84.2021 130.479 79.8958C130.479 79.8958 131.833 89.375 115.583 100.208C114.207 105.219 105.051 123.432 102.583 127.332C108.431 129.06 114.608 130 121.003 130C156.899 130 186 100.899 186 65.0027C186 29.1011 156.899 0 121.003 0Z" fill="white"/>
</svg>
