<svg width="48" height="48" viewBox="0 0 48 48" fill="none" xmlns="http://www.w3.org/2000/svg">
<path fill-rule="evenodd" clip-rule="evenodd" d="M24.001 0C10.748 0 0 10.745 0 24.001C0 33.826 5.90999 42.271 14.369 45.982C14.301 44.308 14.357 42.293 14.784 40.47C15.246 38.522 17.106 27.5 17.106 27.5C17.106 27.5 17.106 25.861 17.106 23.595C17.106 20.039 19.434 21.819 22 21.819L25.5 23C32 23 42.5 23 42.5 23C42.5 23 32.943 15.5 26.5 15.5C19.221 15.5 18.5 15.5 18.5 15.5C18.5 17.594 13.5 18 13.5 18L11.5 15.5L9 14.5C9 7.684 13.52 8.069 24.922 8.069C34.086 8.069 48 14.5 42.5 23C42.5 23 33.219 23 25.5 23C22.912 23 28.336 31.09 27.5 29.5C27.5 29.5 28 33 22 37C21.492 38.85 18.111 45.575 17.2 47.015C19.359 47.653 21.64 48 24.001 48C37.255 48 48 37.255 48 24.001C48 10.745 37.255 0 24.001 0Z" fill="#B421CC"/>
</svg>
