<svg width="252" height="67" viewBox="0 0 252 67" fill="none" xmlns="http://www.w3.org/2000/svg">
<g clip-path="url(#clip0_802_8)">
<path d="M68.4014 50H61.9775V24.2373H52.2969V17.791H78.0596V24.2373H68.4014V50ZM100.341 50H98.8584L96.4775 46.6982C95.8936 47.2223 95.2721 47.7165 94.6133 48.1807C93.9694 48.6299 93.2881 49.0267 92.5693 49.3711C91.8506 49.7005 91.1094 49.9626 90.3457 50.1572C89.597 50.3519 88.8333 50.4492 88.0547 50.4492C86.3626 50.4492 84.7679 50.1647 83.2705 49.5957C81.7881 49.0267 80.4854 48.2031 79.3623 47.125C78.2542 46.0319 77.3783 44.6992 76.7344 43.127C76.0905 41.5547 75.7686 39.7653 75.7686 37.7588C75.7686 35.887 76.0905 34.1725 76.7344 32.6152C77.3783 31.043 78.2542 29.6953 79.3623 28.5723C80.4854 27.4492 81.7881 26.5807 83.2705 25.9668C84.7679 25.3379 86.3626 25.0234 88.0547 25.0234C88.8333 25.0234 89.6045 25.1208 90.3682 25.3154C91.1318 25.5101 91.873 25.7796 92.5918 26.124C93.3105 26.4684 93.9919 26.8727 94.6357 27.3369C95.2946 27.8011 95.9085 28.3027 96.4775 28.8418L98.8584 25.9893H100.341V50ZM94.1641 37.7588C94.1641 36.9202 93.9993 36.1117 93.6699 35.333C93.3555 34.5394 92.9212 33.8431 92.3672 33.2441C91.8132 32.6302 91.1618 32.1436 90.4131 31.7842C89.6794 31.4098 88.8932 31.2227 88.0547 31.2227C87.2161 31.2227 86.4225 31.3649 85.6738 31.6494C84.9401 31.9339 84.2962 32.3532 83.7422 32.9072C83.2031 33.4613 82.7764 34.1501 82.4619 34.9736C82.1475 35.7822 81.9902 36.7106 81.9902 37.7588C81.9902 38.807 82.1475 39.7428 82.4619 40.5664C82.7764 41.375 83.2031 42.0563 83.7422 42.6104C84.2962 43.1644 84.9401 43.5837 85.6738 43.8682C86.4225 44.1527 87.2161 44.2949 88.0547 44.2949C88.8932 44.2949 89.6794 44.1152 90.4131 43.7559C91.1618 43.3815 91.8132 42.8949 92.3672 42.2959C92.9212 41.682 93.3555 40.9857 93.6699 40.207C93.9993 39.4134 94.1641 38.5973 94.1641 37.7588ZM111.167 50H105.035V25.9443H106.518L108.539 28.2803C109.527 27.3818 110.643 26.693 111.886 26.2139C113.144 25.7197 114.454 25.4727 115.816 25.4727C117.284 25.4727 118.669 25.7572 119.972 26.3262C121.274 26.8802 122.412 27.6514 123.386 28.6396C124.359 29.613 125.123 30.7585 125.677 32.0762C126.246 33.3789 126.53 34.7715 126.53 36.2539V50H120.398V36.2539C120.398 35.625 120.279 35.0335 120.039 34.4795C119.799 33.9105 119.47 33.4163 119.051 32.9971C118.632 32.5778 118.145 32.2484 117.591 32.0088C117.037 31.7692 116.445 31.6494 115.816 31.6494C115.173 31.6494 114.566 31.7692 113.997 32.0088C113.428 32.2484 112.934 32.5778 112.515 32.9971C112.095 33.4163 111.766 33.9105 111.526 34.4795C111.287 35.0335 111.167 35.625 111.167 36.2539V50ZM157.279 46.6982C155.782 47.986 154.105 48.9743 152.248 49.6631C150.391 50.3519 148.467 50.6963 146.476 50.6963C144.948 50.6963 143.473 50.4941 142.051 50.0898C140.643 49.7005 139.318 49.1465 138.075 48.4277C136.847 47.694 135.724 46.818 134.706 45.7998C133.688 44.7816 132.812 43.6585 132.078 42.4307C131.359 41.1878 130.798 39.8626 130.394 38.4551C130.004 37.0326 129.81 35.5576 129.81 34.0303C129.81 32.5029 130.004 31.028 130.394 29.6055C130.798 28.1829 131.359 26.8577 132.078 25.6299C132.812 24.387 133.688 23.2565 134.706 22.2383C135.724 21.2201 136.847 20.3516 138.075 19.6328C139.318 18.8991 140.643 18.3376 142.051 17.9482C143.473 17.5439 144.948 17.3418 146.476 17.3418C148.467 17.3418 150.391 17.6862 152.248 18.375C154.105 19.0488 155.782 20.0371 157.279 21.3398L153.865 26.9551C152.922 25.9368 151.806 25.1582 150.519 24.6191C149.231 24.0651 147.883 23.7881 146.476 23.7881C145.053 23.7881 143.72 24.0576 142.478 24.5967C141.235 25.1357 140.149 25.8695 139.221 26.7979C138.292 27.7113 137.559 28.7969 137.02 30.0547C136.48 31.2975 136.211 32.6227 136.211 34.0303C136.211 35.4378 136.48 36.763 137.02 38.0059C137.559 39.2337 138.292 40.3118 139.221 41.2402C140.149 42.1686 141.235 42.9023 142.478 43.4414C143.72 43.9805 145.053 44.25 146.476 44.25C147.883 44.25 149.231 43.9805 150.519 43.4414C151.806 42.8874 152.922 42.1012 153.865 41.083L157.279 46.6982ZM166.556 50H160.379V16.376H166.556V50ZM194.497 37.7588C194.497 39.5557 194.175 41.2327 193.531 42.79C192.887 44.3324 192.011 45.6725 190.903 46.8105C189.795 47.9336 188.493 48.8245 186.995 49.4834C185.513 50.1273 183.918 50.4492 182.211 50.4492C180.519 50.4492 178.924 50.1273 177.427 49.4834C175.944 48.8245 174.642 47.9336 173.519 46.8105C172.41 45.6725 171.535 44.3324 170.891 42.79C170.247 41.2327 169.925 39.5557 169.925 37.7588C169.925 35.932 170.247 34.2399 170.891 32.6826C171.535 31.1253 172.41 29.7852 173.519 28.6621C174.642 27.5241 175.944 26.6331 177.427 25.9893C178.924 25.3454 180.519 25.0234 182.211 25.0234C183.918 25.0234 185.513 25.3304 186.995 25.9443C188.493 26.5433 189.795 27.4043 190.903 28.5273C192.011 29.6354 192.887 30.9756 193.531 32.5479C194.175 34.1051 194.497 35.8421 194.497 37.7588ZM188.32 37.7588C188.32 36.7705 188.156 35.8796 187.826 35.0859C187.512 34.2773 187.077 33.5885 186.523 33.0195C185.969 32.4355 185.318 31.9938 184.569 31.6943C183.836 31.3799 183.049 31.2227 182.211 31.2227C181.372 31.2227 180.579 31.3799 179.83 31.6943C179.096 31.9938 178.452 32.4355 177.898 33.0195C177.359 33.5885 176.933 34.2773 176.618 35.0859C176.304 35.8796 176.146 36.7705 176.146 37.7588C176.146 38.6872 176.304 39.5482 176.618 40.3418C176.933 41.1354 177.359 41.8242 177.898 42.4082C178.452 42.9922 179.096 43.4564 179.83 43.8008C180.579 44.1302 181.372 44.2949 182.211 44.2949C183.049 44.2949 183.836 44.1377 184.569 43.8232C185.318 43.5088 185.969 43.0671 186.523 42.498C187.077 41.929 187.512 41.2402 187.826 40.4316C188.156 39.623 188.32 38.7321 188.32 37.7588ZM215.565 47.1924C215.071 47.6416 214.54 48.0684 213.971 48.4727C213.417 48.862 212.833 49.2064 212.219 49.5059C211.605 49.7904 210.968 50.015 210.31 50.1797C209.666 50.3594 209.007 50.4492 208.333 50.4492C206.851 50.4492 205.458 50.1872 204.155 49.6631C202.853 49.139 201.707 48.3978 200.719 47.4395C199.745 46.4661 198.974 45.2907 198.405 43.9131C197.851 42.5205 197.574 40.9632 197.574 39.2412V25.9443H203.684V39.2412C203.684 40.0498 203.803 40.776 204.043 41.4199C204.298 42.0488 204.634 42.5804 205.054 43.0146C205.473 43.4489 205.96 43.7783 206.514 44.0029C207.083 44.2275 207.689 44.3398 208.333 44.3398C208.962 44.3398 209.553 44.1976 210.107 43.9131C210.676 43.6136 211.171 43.2243 211.59 42.7451C212.009 42.266 212.339 41.7269 212.578 41.1279C212.818 40.514 212.938 39.8851 212.938 39.2412V25.9443H219.069V50H217.587L215.565 47.1924ZM247.011 50H245.528L243.147 46.6982C242.563 47.2223 241.942 47.7165 241.283 48.1807C240.639 48.6299 239.958 49.0267 239.239 49.3711C238.521 49.7005 237.779 49.9626 237.016 50.1572C236.267 50.3519 235.503 50.4492 234.725 50.4492C233.033 50.4492 231.438 50.1348 229.94 49.5059C228.458 48.862 227.155 47.9785 226.032 46.8555C224.924 45.7174 224.048 44.3773 223.404 42.835C222.76 41.2777 222.438 39.5856 222.438 37.7588C222.438 35.9469 222.76 34.2624 223.404 32.7051C224.048 31.1478 224.924 29.8001 226.032 28.6621C227.155 27.5241 228.458 26.6331 229.94 25.9893C231.438 25.3454 233.033 25.0234 234.725 25.0234C235.264 25.0234 235.818 25.0684 236.387 25.1582C236.971 25.248 237.532 25.3978 238.071 25.6074C238.625 25.8021 239.142 26.0641 239.621 26.3936C240.1 26.723 240.505 27.1273 240.834 27.6064V16.376H247.011V50ZM240.834 37.7588C240.834 36.9202 240.669 36.1117 240.34 35.333C240.025 34.5394 239.591 33.8431 239.037 33.2441C238.483 32.6302 237.832 32.1436 237.083 31.7842C236.349 31.4098 235.563 31.2227 234.725 31.2227C233.886 31.2227 233.092 31.3724 232.344 31.6719C231.61 31.9714 230.966 32.4056 230.412 32.9746C229.873 33.5286 229.446 34.21 229.132 35.0186C228.817 35.8271 228.66 36.7406 228.66 37.7588C228.66 38.6423 228.817 39.4808 229.132 40.2744C229.446 41.068 229.873 41.7643 230.412 42.3633C230.966 42.9622 231.61 43.4339 232.344 43.7783C233.092 44.1227 233.886 44.2949 234.725 44.2949C235.563 44.2949 236.349 44.1152 237.083 43.7559C237.832 43.3815 238.483 42.8949 239.037 42.2959C239.591 41.682 240.025 40.9857 240.34 40.207C240.669 39.4134 240.834 38.5973 240.834 37.7588Z" fill="#B421CC"/>
<path fill-rule="evenodd" clip-rule="evenodd" d="M24.0539 8C10.7717 8 0 18.745 0 32.001C0 41.826 5.92302 50.271 14.4007 53.982C14.3325 52.308 14.3887 50.293 14.8166 48.47C15.2796 46.522 17.1437 35.5 17.1437 35.5C17.1437 35.5 17.1437 33.861 17.1437 31.595C17.1437 28.039 19.4769 29.819 22.0485 29.819L25.5562 31C32.0706 31 42.5937 31 42.5937 31C42.5937 31 33.0156 23.5 26.5584 23.5C19.2634 23.5 18.5408 23.5 18.5408 23.5C18.5408 25.594 13.5298 26 13.5298 26L11.5254 23.5L9.01985 22.5C9.01985 15.684 13.5498 16.069 24.9769 16.069C34.1612 16.069 48.1058 22.5 42.5937 31C42.5937 31 33.2922 31 25.5562 31C22.9625 31 28.3985 39.09 27.5606 37.5C27.5606 37.5 28.0617 41 22.0485 45C21.5394 46.85 18.1509 53.575 17.2379 55.015C19.4017 55.653 21.6877 56 24.0539 56C37.3372 56 48.1058 45.255 48.1058 32.001C48.1058 18.745 37.3372 8 24.0539 8Z" fill="#B421CC"/>
</g>
<defs>
<clipPath id="clip0_802_8">
<rect width="252" height="67" fill="white"/>
</clipPath>
</defs>
</svg>
