<svg width="216" height="183" viewBox="0 0 216 183" fill="none" xmlns="http://www.w3.org/2000/svg">
<path d="M17.9443 175H10.9619V146.997H0.439453V139.99H28.4424V146.997H17.9443V175ZM52.6611 175H51.0498L48.4619 171.411C47.8271 171.981 47.1517 172.518 46.4355 173.022C45.7357 173.511 44.9951 173.942 44.2139 174.316C43.4326 174.674 42.627 174.959 41.7969 175.171C40.9831 175.382 40.153 175.488 39.3066 175.488C37.4674 175.488 35.734 175.179 34.1064 174.561C32.4951 173.942 31.0791 173.047 29.8584 171.875C28.654 170.687 27.7018 169.238 27.002 167.529C26.3021 165.82 25.9521 163.875 25.9521 161.694C25.9521 159.66 26.3021 157.796 27.002 156.104C27.7018 154.395 28.654 152.93 29.8584 151.709C31.0791 150.488 32.4951 149.544 34.1064 148.877C35.734 148.193 37.4674 147.852 39.3066 147.852C40.153 147.852 40.9912 147.957 41.8213 148.169C42.6514 148.381 43.457 148.674 44.2383 149.048C45.0195 149.422 45.7601 149.862 46.46 150.366C47.1761 150.871 47.8434 151.416 48.4619 152.002L51.0498 148.901H52.6611V175ZM45.9473 161.694C45.9473 160.783 45.7682 159.904 45.4102 159.058C45.0684 158.195 44.5964 157.438 43.9941 156.787C43.3919 156.12 42.6839 155.591 41.8701 155.2C41.0726 154.793 40.2181 154.59 39.3066 154.59C38.3952 154.59 37.5326 154.744 36.7188 155.054C35.9212 155.363 35.2214 155.819 34.6191 156.421C34.0332 157.023 33.5693 157.772 33.2275 158.667C32.8857 159.546 32.7148 160.555 32.7148 161.694C32.7148 162.834 32.8857 163.851 33.2275 164.746C33.5693 165.625 34.0332 166.366 34.6191 166.968C35.2214 167.57 35.9212 168.026 36.7188 168.335C37.5326 168.644 38.3952 168.799 39.3066 168.799C40.2181 168.799 41.0726 168.604 41.8701 168.213C42.6839 167.806 43.3919 167.277 43.9941 166.626C44.5964 165.959 45.0684 165.202 45.4102 164.355C45.7682 163.493 45.9473 162.606 45.9473 161.694ZM64.4287 175H57.7637V148.853H59.375L61.5723 151.392C62.6465 150.415 63.859 149.666 65.21 149.146C66.5771 148.608 68.0013 148.34 69.4824 148.34C71.0775 148.34 72.583 148.649 73.999 149.268C75.415 149.87 76.652 150.708 77.71 151.782C78.7679 152.84 79.598 154.085 80.2002 155.518C80.8187 156.934 81.1279 158.447 81.1279 160.059V175H74.4629V160.059C74.4629 159.375 74.3327 158.732 74.0723 158.13C73.8118 157.511 73.4538 156.974 72.998 156.519C72.5423 156.063 72.0133 155.705 71.4111 155.444C70.8089 155.184 70.166 155.054 69.4824 155.054C68.7826 155.054 68.1234 155.184 67.5049 155.444C66.8864 155.705 66.3493 156.063 65.8936 156.519C65.4378 156.974 65.0798 157.511 64.8193 158.13C64.5589 158.732 64.4287 159.375 64.4287 160.059V175ZM114.551 171.411C112.923 172.811 111.1 173.885 109.082 174.634C107.064 175.382 104.972 175.757 102.808 175.757C101.147 175.757 99.5443 175.537 97.998 175.098C96.4681 174.674 95.0277 174.072 93.6768 173.291C92.3421 172.493 91.1214 171.541 90.0146 170.435C88.9079 169.328 87.9557 168.107 87.1582 166.772C86.377 165.422 85.7666 163.981 85.3271 162.451C84.904 160.905 84.6924 159.302 84.6924 157.642C84.6924 155.981 84.904 154.378 85.3271 152.832C85.7666 151.286 86.377 149.845 87.1582 148.511C87.9557 147.16 88.9079 145.931 90.0146 144.824C91.1214 143.717 92.3421 142.773 93.6768 141.992C95.0277 141.195 96.4681 140.584 97.998 140.161C99.5443 139.722 101.147 139.502 102.808 139.502C104.972 139.502 107.064 139.876 109.082 140.625C111.1 141.357 112.923 142.432 114.551 143.848L110.84 149.951C109.814 148.844 108.602 147.998 107.202 147.412C105.802 146.81 104.338 146.509 102.808 146.509C101.261 146.509 99.8128 146.802 98.4619 147.388C97.111 147.974 95.931 148.771 94.9219 149.78C93.9128 150.773 93.1152 151.953 92.5293 153.32C91.9434 154.671 91.6504 156.112 91.6504 157.642C91.6504 159.172 91.9434 160.612 92.5293 161.963C93.1152 163.298 93.9128 164.469 94.9219 165.479C95.931 166.488 97.111 167.285 98.4619 167.871C99.8128 168.457 101.261 168.75 102.808 168.75C104.338 168.75 105.802 168.457 107.202 167.871C108.602 167.269 109.814 166.414 110.84 165.308L114.551 171.411ZM124.634 175H117.92V138.452H124.634V175ZM155.005 161.694C155.005 163.647 154.655 165.47 153.955 167.163C153.255 168.84 152.303 170.296 151.099 171.533C149.894 172.754 148.478 173.722 146.851 174.438C145.239 175.138 143.506 175.488 141.65 175.488C139.811 175.488 138.078 175.138 136.45 174.438C134.839 173.722 133.423 172.754 132.202 171.533C130.998 170.296 130.046 168.84 129.346 167.163C128.646 165.47 128.296 163.647 128.296 161.694C128.296 159.709 128.646 157.869 129.346 156.177C130.046 154.484 130.998 153.027 132.202 151.807C133.423 150.57 134.839 149.601 136.45 148.901C138.078 148.201 139.811 147.852 141.65 147.852C143.506 147.852 145.239 148.185 146.851 148.853C148.478 149.504 149.894 150.439 151.099 151.66C152.303 152.865 153.255 154.321 153.955 156.03C154.655 157.723 155.005 159.611 155.005 161.694ZM148.291 161.694C148.291 160.62 148.112 159.652 147.754 158.789C147.412 157.91 146.94 157.161 146.338 156.543C145.736 155.908 145.028 155.428 144.214 155.103C143.416 154.761 142.562 154.59 141.65 154.59C140.739 154.59 139.876 154.761 139.062 155.103C138.265 155.428 137.565 155.908 136.963 156.543C136.377 157.161 135.913 157.91 135.571 158.789C135.229 159.652 135.059 160.62 135.059 161.694C135.059 162.703 135.229 163.639 135.571 164.502C135.913 165.365 136.377 166.113 136.963 166.748C137.565 167.383 138.265 167.887 139.062 168.262C139.876 168.62 140.739 168.799 141.65 168.799C142.562 168.799 143.416 168.628 144.214 168.286C145.028 167.944 145.736 167.464 146.338 166.846C146.94 166.227 147.412 165.479 147.754 164.6C148.112 163.721 148.291 162.752 148.291 161.694ZM177.905 171.948C177.368 172.437 176.79 172.9 176.172 173.34C175.57 173.763 174.935 174.137 174.268 174.463C173.6 174.772 172.909 175.016 172.192 175.195C171.493 175.391 170.776 175.488 170.044 175.488C168.433 175.488 166.919 175.203 165.503 174.634C164.087 174.064 162.842 173.258 161.768 172.217C160.71 171.159 159.871 169.881 159.253 168.384C158.651 166.87 158.35 165.177 158.35 163.306V148.853H164.99V163.306C164.99 164.185 165.12 164.974 165.381 165.674C165.658 166.357 166.024 166.935 166.479 167.407C166.935 167.879 167.464 168.237 168.066 168.481C168.685 168.726 169.344 168.848 170.044 168.848C170.728 168.848 171.37 168.693 171.973 168.384C172.591 168.058 173.128 167.635 173.584 167.114C174.04 166.593 174.398 166.007 174.658 165.356C174.919 164.689 175.049 164.006 175.049 163.306V148.853H181.714V175H180.103L177.905 171.948ZM212.085 175H210.474L207.886 171.411C207.251 171.981 206.576 172.518 205.859 173.022C205.16 173.511 204.419 173.942 203.638 174.316C202.856 174.674 202.051 174.959 201.221 175.171C200.407 175.382 199.577 175.488 198.73 175.488C196.891 175.488 195.158 175.146 193.53 174.463C191.919 173.763 190.503 172.803 189.282 171.582C188.078 170.345 187.126 168.888 186.426 167.212C185.726 165.519 185.376 163.68 185.376 161.694C185.376 159.725 185.726 157.894 186.426 156.201C187.126 154.508 188.078 153.044 189.282 151.807C190.503 150.57 191.919 149.601 193.53 148.901C195.158 148.201 196.891 147.852 198.73 147.852C199.316 147.852 199.919 147.9 200.537 147.998C201.172 148.096 201.782 148.258 202.368 148.486C202.97 148.698 203.532 148.983 204.053 149.341C204.574 149.699 205.013 150.138 205.371 150.659V138.452H212.085V175ZM205.371 161.694C205.371 160.783 205.192 159.904 204.834 159.058C204.492 158.195 204.02 157.438 203.418 156.787C202.816 156.12 202.108 155.591 201.294 155.2C200.496 154.793 199.642 154.59 198.73 154.59C197.819 154.59 196.956 154.753 196.143 155.078C195.345 155.404 194.645 155.876 194.043 156.494C193.457 157.096 192.993 157.837 192.651 158.716C192.31 159.595 192.139 160.588 192.139 161.694C192.139 162.655 192.31 163.566 192.651 164.429C192.993 165.291 193.457 166.048 194.043 166.699C194.645 167.35 195.345 167.863 196.143 168.237C196.956 168.612 197.819 168.799 198.73 168.799C199.642 168.799 200.496 168.604 201.294 168.213C202.108 167.806 202.816 167.277 203.418 166.626C204.02 165.959 204.492 165.202 204.834 164.355C205.192 163.493 205.371 162.606 205.371 161.694Z" fill="white"/>
<path fill-rule="evenodd" clip-rule="evenodd" d="M108.003 0C72.1092 0 43 29.1011 43 65.0027C43 91.6121 59.0062 114.484 81.916 124.535C81.7318 120.001 81.8835 114.544 83.04 109.606C84.2912 104.33 89.3287 74.4792 89.3287 74.4792C89.3287 74.4792 89.3287 70.0402 89.3287 63.9031C89.3287 54.2723 95.6337 59.0931 102.583 59.0931L112.062 62.2917C129.667 62.2917 158.104 62.2917 158.104 62.2917C158.104 62.2917 132.221 41.9792 114.771 41.9792C95.0569 41.9792 93.1042 41.9792 93.1042 41.9792C93.1042 47.6504 79.5625 48.75 79.5625 48.75L74.1458 41.9792L67.375 39.2708C67.375 20.8108 79.6167 21.8535 110.497 21.8535C135.316 21.8535 173 39.2708 158.104 62.2917C158.104 62.2917 132.968 62.2917 112.062 62.2917C105.053 62.2917 119.743 84.2021 117.479 79.8958C117.479 79.8958 118.833 89.375 102.583 100.208C101.207 105.219 92.0507 123.432 89.5834 127.332C95.4307 129.06 101.608 130 108.003 130C143.899 130 173 100.899 173 65.0027C173 29.1011 143.899 0 108.003 0Z" fill="white"/>
</svg>
