<svg width="48" height="48" viewBox="0 0 48 48" fill="none" xmlns="http://www.w3.org/2000/svg">
<path fill-rule="evenodd" clip-rule="evenodd" d="M24.001 0C10.748 0 0 10.745 0 24.001C0 33.826 5.90999 42.271 14.369 45.982C14.301 44.308 14.357 42.293 14.784 40.47C15.246 38.522 17.871 27.394 17.871 27.394C17.871 27.394 17.106 25.861 17.106 23.595C17.106 20.039 18.737 16 21.303 16C23.483 16 23 26 23 26L24.922 30.5C24.922 30.5 33 32 29.5 26.5C31.5 23.936 34 26.255 36 21.819C36 16.561 30.707 12.17 24.264 12.17C16.985 12.17 14.5 18 14.5 18C14.5 20.094 13 21.819 13 21.819L9 19.5V14.5C9 7.684 13.52 8.069 24.922 8.069C34.086 8.069 40.117 14.705 40.117 21.819C40.117 31.235 34.884 38.269 27.165 38.269C24.577 38.269 22.139 36.869 21.303 35.279C21.303 35.279 19.909 40.809 19.615 41.875C19.107 43.725 18.111 45.575 17.2 47.015C19.359 47.653 21.64 48 24.001 48C37.255 48 48 37.255 48 24.001C48 10.745 37.255 0 24.001 0Z" fill="#B421CC"/>
</svg>
