<svg width="199" height="53" viewBox="0 0 199 53" fill="none" xmlns="http://www.w3.org/2000/svg">
<path fill-rule="evenodd" clip-rule="evenodd" d="M25.001 3C11.1958 3 0 14.1927 0 28.001C0 38.2354 6.15624 47.0323 14.9677 50.8979C14.8969 49.1542 14.9552 47.0552 15.4 45.1562C15.8812 43.1271 18.6156 31.5354 18.6156 31.5354C18.6156 31.5354 17.8187 29.9385 17.8187 27.5781C17.8187 23.874 19.5177 19.6667 22.1906 19.6667C24.4615 19.6667 23.9583 30.0833 23.9583 30.0833L25.9604 34.7708C25.9604 34.7708 34.375 36.3333 30.7292 30.6042C32.8125 27.9333 35.4167 30.349 37.5 25.7281C37.5 20.251 31.9865 15.6771 25.275 15.6771C17.6927 15.6771 15.1042 21.75 15.1042 21.75C15.1042 23.9312 13.5417 25.7281 13.5417 25.7281L9.375 23.3125V18.1042C9.375 11.0042 14.0833 11.4052 25.9604 11.4052C35.5062 11.4052 41.7885 18.3177 41.7885 25.7281C41.7885 35.5365 36.3375 42.8636 28.2969 42.8636C25.6011 42.8636 23.0615 41.4052 22.1906 39.7489C22.1906 39.7489 20.7385 45.5094 20.4323 46.6198C19.9031 48.5469 18.8656 50.474 17.9167 51.974C20.1656 52.6386 22.5417 53 25.001 53C38.8073 53 50 41.8073 50 28.001C50 14.1927 38.8073 3 25.001 3Z" fill="#B421CC"/>
<path d="M66.6382 17.6201H60.0112V36H57.3066V17.6201H50.6938V15.3828H66.6382V17.6201ZM79.9487 30.6191H71.311L69.3711 36H66.5674L74.4404 15.3828H76.8193L84.7065 36H81.917L79.9487 30.6191ZM72.1323 28.3818H79.1416L75.6299 18.7388L72.1323 28.3818ZM103.327 36H100.594L90.2148 20.1123V36H87.4819V15.3828H90.2148L100.623 31.3413V15.3828H103.327V36ZM123.321 29.458C123.066 31.6387 122.259 33.3237 120.9 34.5132C119.55 35.6932 117.752 36.2832 115.505 36.2832C113.069 36.2832 111.115 35.41 109.643 33.6636C108.179 31.9172 107.448 29.5807 107.448 26.6543V24.6719C107.448 22.7555 107.788 21.0705 108.467 19.6167C109.156 18.1629 110.129 17.049 111.384 16.2749C112.64 15.4914 114.094 15.0996 115.746 15.0996C117.936 15.0996 119.692 15.7132 121.013 16.9404C122.335 18.1582 123.104 19.848 123.321 22.0098H120.588C120.352 20.3672 119.838 19.1777 119.045 18.4414C118.261 17.7051 117.162 17.3369 115.746 17.3369C114.009 17.3369 112.645 17.9788 111.653 19.2627C110.672 20.5465 110.181 22.3732 110.181 24.7427V26.7393C110.181 28.9766 110.648 30.756 111.583 32.0776C112.517 33.3993 113.825 34.0601 115.505 34.0601C117.015 34.0601 118.172 33.7202 118.974 33.0405C119.786 32.3514 120.324 31.1572 120.588 29.458H123.321ZM129.778 33.7769H139.549V36H127.045V15.3828H129.778V33.7769ZM157.575 26.3569C157.575 28.3771 157.235 30.1424 156.555 31.6528C155.875 33.1538 154.913 34.3008 153.667 35.0938C152.42 35.8867 150.967 36.2832 149.305 36.2832C147.681 36.2832 146.242 35.8867 144.986 35.0938C143.731 34.2913 142.754 33.1538 142.055 31.6812C141.366 30.1991 141.012 28.4857 140.993 26.541V25.0542C140.993 23.0718 141.338 21.3206 142.027 19.8008C142.716 18.2809 143.688 17.1198 144.944 16.3174C146.209 15.5055 147.653 15.0996 149.277 15.0996C150.929 15.0996 152.383 15.5008 153.638 16.3032C154.903 17.0962 155.875 18.2526 156.555 19.7725C157.235 21.2829 157.575 23.0435 157.575 25.0542V26.3569ZM154.87 25.0259C154.87 22.5809 154.379 20.707 153.397 19.4043C152.416 18.0921 151.042 17.436 149.277 17.436C147.559 17.436 146.204 18.0921 145.213 19.4043C144.231 20.707 143.726 22.5195 143.698 24.8418V26.3569C143.698 28.7264 144.193 30.5908 145.185 31.9502C146.185 33.3001 147.559 33.9751 149.305 33.9751C151.061 33.9751 152.42 33.3379 153.383 32.0635C154.346 30.7796 154.842 28.9435 154.87 26.5552V25.0259ZM176.167 15.3828V29.4014C176.158 31.346 175.544 32.9367 174.326 34.1733C173.118 35.41 171.475 36.1038 169.398 36.2549L168.676 36.2832C166.42 36.2832 164.622 35.6743 163.281 34.4565C161.941 33.2388 161.261 31.5632 161.242 29.4297V15.3828H163.933V29.3447C163.933 30.8363 164.343 31.9974 165.165 32.8281C165.986 33.6494 167.156 34.0601 168.676 34.0601C170.215 34.0601 171.39 33.6494 172.202 32.8281C173.023 32.0068 173.434 30.8504 173.434 29.3589V15.3828H176.167ZM180.458 36V15.3828H186.277C188.071 15.3828 189.657 15.7793 191.035 16.5723C192.413 17.3652 193.475 18.4933 194.221 19.9565C194.976 21.4198 195.359 23.1001 195.368 24.9976V26.3145C195.368 28.2591 194.991 29.9631 194.235 31.4263C193.49 32.8895 192.418 34.0129 191.021 34.7964C189.633 35.5799 188.014 35.9811 186.164 36H180.458ZM183.176 17.6201V33.7769H186.037C188.132 33.7769 189.761 33.1255 190.922 31.8228C192.092 30.52 192.678 28.665 192.678 26.2578V25.0542C192.678 22.7131 192.125 20.8958 191.021 19.6025C189.926 18.2998 188.368 17.639 186.348 17.6201H183.176Z" fill="#B421CC"/>
</svg>
