<svg id="SvgjsSvg1271" width="1589.25" height="869" xmlns="http://www.w3.org/2000/svg" version="1.1" xmlns:xlink="http://www.w3.org/1999/xlink" xmlns:svgjs="http://svgjs.com/svgjs"><defs id="SvgjsDefs1272"><marker id="SvgjsMarker1301" markerWidth="14" markerHeight="10" refX="10" refY="5" viewBox="0 0 14 10" orient="auto" markerUnits="userSpaceOnUse" stroke-dasharray="0,0"><path id="SvgjsPath1302" d="M0,0 L14,5 L0,10 L0,0" fill="#323232" stroke="#323232" stroke-width="1"></path></marker><marker id="SvgjsMarker1309" markerWidth="14" markerHeight="10" refX="10" refY="5" viewBox="0 0 14 10" orient="auto" markerUnits="userSpaceOnUse" stroke-dasharray="0,0"><path id="SvgjsPath1310" d="M0,0 L14,5 L0,10 L0,0" fill="#323232" stroke="#323232" stroke-width="1"></path></marker><marker id="SvgjsMarker1377" markerWidth="14" markerHeight="10" refX="10" refY="5" viewBox="0 0 14 10" orient="auto" markerUnits="userSpaceOnUse" stroke-dasharray="0,0"><path id="SvgjsPath1378" d="M0,0 L14,5 L0,10 L0,0" fill="#323232" stroke="#323232" stroke-width="1"></path></marker><marker id="SvgjsMarker1381" markerWidth="14" markerHeight="10" refX="10" refY="5" viewBox="0 0 14 10" orient="auto" markerUnits="userSpaceOnUse" stroke-dasharray="0,0"><path id="SvgjsPath1382" d="M0,0 L14,5 L0,10 L0,0" fill="#323232" stroke="#323232" stroke-width="1"></path></marker><marker id="SvgjsMarker1385" markerWidth="14" markerHeight="10" refX="10" refY="5" viewBox="0 0 14 10" orient="auto" markerUnits="userSpaceOnUse" stroke-dasharray="0,0"><path id="SvgjsPath1386" d="M0,0 L14,5 L0,10 L0,0" fill="#323232" stroke="#323232" stroke-width="1"></path></marker><marker id="SvgjsMarker1389" markerWidth="14" markerHeight="10" refX="10" refY="5" viewBox="0 0 14 10" orient="auto" markerUnits="userSpaceOnUse" stroke-dasharray="0,0"><path id="SvgjsPath1390" d="M0,0 L14,5 L0,10 L0,0" fill="#323232" stroke="#323232" stroke-width="1"></path></marker><marker id="SvgjsMarker1393" markerWidth="14" markerHeight="10" refX="10" refY="5" viewBox="0 0 14 10" orient="auto" markerUnits="userSpaceOnUse" stroke-dasharray="0,0"><path id="SvgjsPath1394" d="M0,0 L14,5 L0,10 L0,0" fill="#323232" stroke="#323232" stroke-width="1"></path></marker><marker id="SvgjsMarker1419" markerWidth="14" markerHeight="10" refX="10" refY="5" viewBox="0 0 14 10" orient="auto" markerUnits="userSpaceOnUse" stroke-dasharray="0,0"><path id="SvgjsPath1420" d="M0,0 L14,5 L0,10 L0,0" fill="#323232" stroke="#323232" stroke-width="1"></path></marker><marker id="SvgjsMarker1433" markerWidth="14" markerHeight="10" refX="10" refY="5" viewBox="0 0 14 10" orient="auto" markerUnits="userSpaceOnUse" stroke-dasharray="0,0"><path id="SvgjsPath1434" d="M0,0 L14,5 L0,10 L0,0" fill="#323232" stroke="#323232" stroke-width="1"></path></marker><marker id="SvgjsMarker1453" markerWidth="14" markerHeight="10" refX="10" refY="5" viewBox="0 0 14 10" orient="auto" markerUnits="userSpaceOnUse" stroke-dasharray="0,0"><path id="SvgjsPath1454" d="M0,0 L14,5 L0,10 L0,0" fill="#323232" stroke="#323232" stroke-width="1"></path></marker><marker id="SvgjsMarker1461" markerWidth="14" markerHeight="10" refX="10" refY="5" viewBox="0 0 14 10" orient="auto" markerUnits="userSpaceOnUse" stroke-dasharray="0,0"><path id="SvgjsPath1462" d="M0,0 L14,5 L0,10 L0,0" fill="#323232" stroke="#323232" stroke-width="1"></path></marker><marker id="SvgjsMarker1475" markerWidth="14" markerHeight="10" refX="10" refY="5" viewBox="0 0 14 10" orient="auto" markerUnits="userSpaceOnUse" stroke-dasharray="0,0"><path id="SvgjsPath1476" d="M0,0 L14,5 L0,10 L0,0" fill="#323232" stroke="#323232" stroke-width="1"></path></marker><marker id="SvgjsMarker1489" markerWidth="14" markerHeight="10" refX="10" refY="5" viewBox="0 0 14 10" orient="auto" markerUnits="userSpaceOnUse" stroke-dasharray="0,0"><path id="SvgjsPath1490" d="M0,0 L14,5 L0,10 L0,0" fill="#323232" stroke="#323232" stroke-width="1"></path></marker><marker id="SvgjsMarker1515" markerWidth="14" markerHeight="10" refX="10" refY="5" viewBox="0 0 14 10" orient="auto" markerUnits="userSpaceOnUse" stroke-dasharray="0,0"><path id="SvgjsPath1516" d="M0,0 L14,5 L0,10 L0,0" fill="#323232" stroke="#323232" stroke-width="1"></path></marker><marker id="SvgjsMarker1530" markerWidth="14" markerHeight="10" refX="10" refY="5" viewBox="0 0 14 10" orient="auto" markerUnits="userSpaceOnUse" stroke-dasharray="0,0"><path id="SvgjsPath1531" d="M0,0 L14,5 L0,10 L0,0" fill="#323232" stroke="#323232" stroke-width="1"></path></marker></defs><g id="SvgjsG1273" transform="translate(25,183.29744837166118)"><path id="SvgjsPath1274" d="M 0 0L 72 0L 72 540L 0 540Z" stroke="rgba(50,50,50,1)" stroke-width="2" fill="none"></path><path id="SvgjsPath1275" d="M 0 0L 72 0L 72 40L 0 40Z" stroke="rgba(50,50,50,1)" stroke-width="2" fill-opacity="1" fill="#ffffff"></path><g id="SvgjsG1276"><text id="SvgjsText1277" font-family="微软雅黑" text-anchor="middle" font-size="16px" width="52px" fill="#323232" font-weight="400" align="middle" lineHeight="125%" anchor="middle" family="微软雅黑" size="16px" weight="400" font-style="" opacity="1" y="6" transform="rotate(0)"></text></g></g><g id="SvgjsG1278" transform="translate(25,223.29744837166118)"><path id="SvgjsPath1279" d="M 0 0L 72 0L 72 500L 0 500Z" stroke="rgba(50,50,50,1)" stroke-width="2" fill="none"></path><path id="SvgjsPath1280" d="M 0 0L 72 0L 72 30L 0 30Z" stroke="rgba(50,50,50,1)" stroke-width="2" fill-opacity="1" fill="#ffffff"></path><g id="SvgjsG1281"><text id="SvgjsText1282" font-family="微软雅黑" text-anchor="middle" font-size="13px" width="52px" fill="#323232" font-weight="400" align="middle" lineHeight="125%" anchor="middle" family="微软雅黑" size="13px" weight="400" font-style="" opacity="1" y="-4.125" transform="rotate(0)"><tspan id="SvgjsTspan1283" dy="16" x="36"><tspan id="SvgjsTspan1284" style="text-decoration:;">Angular</tspan></tspan><tspan id="SvgjsTspan1285" dy="16" x="36"><tspan id="SvgjsTspan1286" style="text-decoration:;">webapp</tspan></tspan></text></g></g><g id="SvgjsG1287" transform="translate(441.5,196.5)"><path id="SvgjsPath1288" d="M 0 0L 100 0L 100 70L 0 70Z" stroke="rgba(50,50,50,1)" stroke-width="2" fill-opacity="1" fill="#ffffff"></path><g id="SvgjsG1289"><text id="SvgjsText1290" font-family="微软雅黑" text-anchor="middle" font-size="13px" width="80px" fill="#323232" font-weight="400" align="middle" lineHeight="125%" anchor="middle" family="微软雅黑" size="13px" weight="400" font-style="" opacity="1" y="23.875" transform="rotate(0)"><tspan id="SvgjsTspan1291" dy="16" x="50"><tspan id="SvgjsTspan1292" style="text-decoration:;">manager</tspan></tspan></text></g></g><g id="SvgjsG1293" transform="translate(441.5,25)"><path id="SvgjsPath1294" d="M 0 0L 100 0L 100 70L 0 70Z" stroke="rgba(50,50,50,1)" stroke-width="2" fill-opacity="1" fill="#ffffff"></path><g id="SvgjsG1295"><text id="SvgjsText1296" font-family="微软雅黑" text-anchor="middle" font-size="13px" width="80px" fill="#323232" font-weight="400" align="middle" lineHeight="125%" anchor="middle" family="微软雅黑" size="13px" weight="400" font-style="" opacity="1" y="23.875" transform="rotate(0)"><tspan id="SvgjsTspan1297" dy="16" x="50"><tspan id="SvgjsTspan1298" style="text-decoration:;">scheduler</tspan></tspan></text></g></g><g id="SvgjsG1299"><path id="SvgjsPath1300" d="M491.5 195.5L491.5 145.75L491.5 145.75L491.5 98.59999999999991" stroke="#323232" stroke-width="2" fill="none" marker-end="url(#SvgjsMarker1301)"></path><rect id="SvgjsRect1303" width="120" height="16" x="431.5" y="139.04999999999995" fill="#ffffff"></rect><text id="SvgjsText1304" font-family="微软雅黑" text-anchor="middle" font-size="13px" width="120px" fill="#323232" font-weight="400" align="top" lineHeight="16px" anchor="middle" family="微软雅黑" size="13px" weight="400" font-style="" opacity="1" y="136.42499999999995" transform="rotate(0)"><tspan id="SvgjsTspan1305" dy="16" x="491.5"><tspan id="SvgjsTspan1306" style="text-decoration:;">manager collect job</tspan></tspan></text></g><g id="SvgjsG1307"><path id="SvgjsPath1308" d="M542.5 60L705.5 60L705.5 179.5L865.9 179.5" stroke="#323232" stroke-width="2" fill="none" marker-end="url(#SvgjsMarker1309)"></path><rect id="SvgjsRect1311" width="88" height="16" x="661.5" y="110.44999999999999" fill="#ffffff"></rect><text id="SvgjsText1312" font-family="微软雅黑" text-anchor="middle" font-size="13px" width="88px" fill="#323232" font-weight="400" align="top" lineHeight="16px" anchor="middle" family="微软雅黑" size="13px" weight="400" font-style="" opacity="1" y="107.82499999999999" transform="rotate(0)"><tspan id="SvgjsTspan1313" dy="16" x="705.5"><tspan id="SvgjsTspan1314" style="text-decoration:;">Schedule Jobs</tspan></tspan></text></g><g id="SvgjsG1315" transform="translate(869.5,144.5)"><path id="SvgjsPath1316" d="M 0 0L 100 0L 100 70L 0 70Z" stroke="rgba(50,50,50,1)" stroke-width="2" fill-opacity="1" fill="#ffffff"></path><g id="SvgjsG1317"><text id="SvgjsText1318" font-family="微软雅黑" text-anchor="middle" font-size="13px" width="80px" fill="#323232" font-weight="400" align="middle" lineHeight="125%" anchor="middle" family="微软雅黑" size="13px" weight="400" font-style="" opacity="1" y="23.875" transform="rotate(0)"><tspan id="SvgjsTspan1319" dy="16" x="50"><tspan id="SvgjsTspan1320" style="text-decoration:;">collector</tspan></tspan></text></g></g><g id="SvgjsG1321" transform="translate(1087.5,40.797448371661176)"><path id="SvgjsPath1322" d="M 0 0L 136.5 0L 136.5 34L 0 34Z" stroke="rgba(50,50,50,1)" stroke-width="2" fill-opacity="1" fill="#ffffff"></path><g id="SvgjsG1323"><text id="SvgjsText1324" font-family="微软雅黑" text-anchor="middle" font-size="13px" width="117px" fill="#323232" font-weight="400" align="middle" lineHeight="125%" anchor="middle" family="微软雅黑" size="13px" weight="400" font-style="" opacity="1" y="5.875" transform="rotate(0)"><tspan id="SvgjsTspan1325" dy="16" x="68.5"><tspan id="SvgjsTspan1326" style="text-decoration:;">http</tspan></tspan></text></g></g><g id="SvgjsG1327" transform="translate(1087.5,103.79744837166118)"><path id="SvgjsPath1328" d="M 0 0L 136.5 0L 136.5 34L 0 34Z" stroke="rgba(50,50,50,1)" stroke-width="2" fill-opacity="1" fill="#ffffff"></path><g id="SvgjsG1329"><text id="SvgjsText1330" font-family="微软雅黑" text-anchor="middle" font-size="13px" width="117px" fill="#323232" font-weight="400" align="middle" lineHeight="125%" anchor="middle" family="微软雅黑" size="13px" weight="400" font-style="" opacity="1" y="5.875" transform="rotate(0)"><tspan id="SvgjsTspan1331" dy="16" x="68.5"><tspan id="SvgjsTspan1332" style="text-decoration:;">sql</tspan></tspan></text></g></g><g id="SvgjsG1333" transform="translate(1087.5,162.79744837166118)"><path id="SvgjsPath1334" d="M 0 0L 136.5 0L 136.5 34L 0 34Z" stroke="rgba(50,50,50,1)" stroke-width="2" fill-opacity="1" fill="#ffffff"></path><g id="SvgjsG1335"><text id="SvgjsText1336" font-family="微软雅黑" text-anchor="middle" font-size="13px" width="117px" fill="#323232" font-weight="400" align="middle" lineHeight="125%" anchor="middle" family="微软雅黑" size="13px" weight="400" font-style="" opacity="1" y="5.875" transform="rotate(0)"><tspan id="SvgjsTspan1337" dy="16" x="68.5"><tspan id="SvgjsTspan1338" style="text-decoration:;">ssh</tspan></tspan></text></g></g><g id="SvgjsG1339" transform="translate(1087.5,223.29744837166118)"><path id="SvgjsPath1340" d="M 0 0L 136.5 0L 136.5 34L 0 34Z" stroke="rgba(50,50,50,1)" stroke-width="2" fill-opacity="1" fill="#ffffff"></path><g id="SvgjsG1341"><text id="SvgjsText1342" font-family="微软雅黑" text-anchor="middle" font-size="13px" width="117px" fill="#323232" font-weight="400" align="middle" lineHeight="125%" anchor="middle" family="微软雅黑" size="13px" weight="400" font-style="" opacity="1" y="5.875" transform="rotate(0)"><tspan id="SvgjsTspan1343" dy="16" x="68.5"><tspan id="SvgjsTspan1344" style="text-decoration:;">telnet</tspan></tspan></text></g></g><g id="SvgjsG1345" transform="translate(1087.5,276.7974483716612)"><path id="SvgjsPath1346" d="M 0 0L 136.5 0L 136.5 34L 0 34Z" stroke="rgba(50,50,50,1)" stroke-width="2" fill-opacity="1" fill="#ffffff"></path><g id="SvgjsG1347"><text id="SvgjsText1348" font-family="微软雅黑" text-anchor="middle" font-size="13px" width="117px" fill="#323232" font-weight="400" align="middle" lineHeight="125%" anchor="middle" family="微软雅黑" size="13px" weight="400" font-style="" opacity="1" y="5.875" transform="rotate(0)"><tspan id="SvgjsTspan1349" dy="16" x="68.5"><tspan id="SvgjsTspan1350" style="text-decoration:;">sdk</tspan></tspan></text></g></g><g id="SvgjsG1351" transform="translate(909.5,235.58454112047093)"><path id="SvgjsPath1352" d="M 0 10C 0 -3.3333333333333335 20 -3.3333333333333335 20 10C 20 23.333333333333332 0 23.333333333333332 0 10Z" stroke="rgba(50,50,50,1)" stroke-width="2" fill-opacity="1" fill="#ffffff"></path><g id="SvgjsG1353"><text id="SvgjsText1354" font-family="微软雅黑" text-anchor="middle" font-size="13px" width="0px" fill="#323232" font-weight="400" align="middle" lineHeight="125%" anchor="middle" family="微软雅黑" size="13px" weight="400" font-style="" opacity="1" y="-1.125" transform="rotate(0)"></text></g></g><g id="SvgjsG1355" transform="translate(909.5,268.08454112047093)"><path id="SvgjsPath1356" d="M 0 10C 0 -3.3333333333333335 20 -3.3333333333333335 20 10C 20 23.333333333333332 0 23.333333333333332 0 10Z" stroke="rgba(50,50,50,1)" stroke-width="2" fill-opacity="1" fill="#ffffff"></path><g id="SvgjsG1357"><text id="SvgjsText1358" font-family="微软雅黑" text-anchor="middle" font-size="13px" width="0px" fill="#323232" font-weight="400" align="middle" lineHeight="125%" anchor="middle" family="微软雅黑" size="13px" weight="400" font-style="" opacity="1" y="-1.125" transform="rotate(0)"></text></g></g><g id="SvgjsG1359" transform="translate(909.5,296.58454112047093)"><path id="SvgjsPath1360" d="M 0 10C 0 -3.3333333333333335 20 -3.3333333333333335 20 10C 20 23.333333333333332 0 23.333333333333332 0 10Z" stroke="rgba(50,50,50,1)" stroke-width="2" fill-opacity="1" fill="#ffffff"></path><g id="SvgjsG1361"><text id="SvgjsText1362" font-family="微软雅黑" text-anchor="middle" font-size="13px" width="0px" fill="#323232" font-weight="400" align="middle" lineHeight="125%" anchor="middle" family="微软雅黑" size="13px" weight="400" font-style="" opacity="1" y="-1.125" transform="rotate(0)"></text></g></g><g id="SvgjsG1363" transform="translate(1145.75,326.7974483716612)"><path id="SvgjsPath1364" d="M 0 10C 0 -3.3333333333333335 20 -3.3333333333333335 20 10C 20 23.333333333333332 0 23.333333333333332 0 10Z" stroke="rgba(50,50,50,1)" stroke-width="2" fill-opacity="1" fill="#ffffff"></path><g id="SvgjsG1365"><text id="SvgjsText1366" font-family="微软雅黑" text-anchor="middle" font-size="13px" width="0px" fill="#323232" font-weight="400" align="middle" lineHeight="125%" anchor="middle" family="微软雅黑" size="13px" weight="400" font-style="" opacity="1" y="-1.125" transform="rotate(0)"></text></g></g><g id="SvgjsG1367" transform="translate(1145.75,359.2974483716612)"><path id="SvgjsPath1368" d="M 0 10C 0 -3.3333333333333335 20 -3.3333333333333335 20 10C 20 23.333333333333332 0 23.333333333333332 0 10Z" stroke="rgba(50,50,50,1)" stroke-width="2" fill-opacity="1" fill="#ffffff"></path><g id="SvgjsG1369"><text id="SvgjsText1370" font-family="微软雅黑" text-anchor="middle" font-size="13px" width="0px" fill="#323232" font-weight="400" align="middle" lineHeight="125%" anchor="middle" family="微软雅黑" size="13px" weight="400" font-style="" opacity="1" y="-1.125" transform="rotate(0)"></text></g></g><g id="SvgjsG1371" transform="translate(1145.75,391.7974483716612)"><path id="SvgjsPath1372" d="M 0 10C 0 -3.3333333333333335 20 -3.3333333333333335 20 10C 20 23.333333333333332 0 23.333333333333332 0 10Z" stroke="rgba(50,50,50,1)" stroke-width="2" fill-opacity="1" fill="#ffffff"></path><g id="SvgjsG1373"><text id="SvgjsText1374" font-family="微软雅黑" text-anchor="middle" font-size="13px" width="0px" fill="#323232" font-weight="400" align="middle" lineHeight="125%" anchor="middle" family="微软雅黑" size="13px" weight="400" font-style="" opacity="1" y="-1.125" transform="rotate(0)"></text></g></g><g id="SvgjsG1375"><path id="SvgjsPath1376" d="M970.5 179.5L1028.5 179.5L1028.5 57.797448371661176L1083.9 57.797448371661176" stroke="#323232" stroke-width="2" fill="none" marker-end="url(#SvgjsMarker1377)"></path></g><g id="SvgjsG1379"><path id="SvgjsPath1380" d="M970.5 179.5L1028.5 179.5L1028.5 120.79744837166118L1083.9 120.79744837166118" stroke="#323232" stroke-width="2" fill="none" marker-end="url(#SvgjsMarker1381)"></path></g><g id="SvgjsG1383"><path id="SvgjsPath1384" d="M970.5 179.5L1028.5 179.5L1028.5 179.79744837166118L1083.9 179.79744837166118" stroke="#323232" stroke-width="2" fill="none" marker-end="url(#SvgjsMarker1385)"></path></g><g id="SvgjsG1387"><path id="SvgjsPath1388" d="M970.5 179.5L1028.5 179.5L1028.5 240.29744837166118L1083.9 240.29744837166118" stroke="#323232" stroke-width="2" fill="none" marker-end="url(#SvgjsMarker1389)"></path></g><g id="SvgjsG1391"><path id="SvgjsPath1392" d="M970.5 179.5L1028.5 179.5L1028.5 293.7974483716612L1083.9 293.7974483716612" stroke="#323232" stroke-width="2" fill="none" marker-end="url(#SvgjsMarker1393)"></path></g><g id="SvgjsG1395" transform="translate(1242.75,96.79744837166118)"><path id="SvgjsPath1396" d="M 0 0L 139.5 0L 155.5 16L 155.5 166L 0 166L 0 0Z" stroke="none" fill-opacity="1" fill="#ffffaa"></path><path id="SvgjsPath1397" d="M 139.5 0L 139.5 16L 155.5 16Z" stroke="none" fill-opacity="1" fill="#cdcdcd"></path><path id="SvgjsPath1398" d="M 0 0L 139.5 0L 155.5 16L 155.5 166L 0 166L 0 0Z" stroke="none" fill="none"></path><g id="SvgjsG1399"><text id="SvgjsText1400" font-family="微软雅黑" text-anchor="start" font-size="13px" width="136px" fill="#323232" font-weight="400" align="middle" lineHeight="125%" anchor="start" family="微软雅黑" size="13px" weight="400" font-style="" opacity="1" y="39.375" transform="rotate(0)"><tspan id="SvgjsTspan1401" dy="16" x="10"><tspan id="SvgjsTspan1402" style="text-decoration:;">Web</tspan></tspan><tspan id="SvgjsTspan1403" dy="16" x="10"><tspan id="SvgjsTspan1404" style="text-decoration:;">Database</tspan></tspan><tspan id="SvgjsTspan1405" dy="16" x="10"><tspan id="SvgjsTspan1406" style="text-decoration:;">App Service</tspan></tspan><tspan id="SvgjsTspan1407" dy="16" x="10"><tspan id="SvgjsTspan1408" style="text-decoration:;">Middleware</tspan></tspan><tspan id="SvgjsTspan1409" dy="16" x="10"><tspan id="SvgjsTspan1410" style="text-decoration:;">OS</tspan></tspan></text></g></g><g id="SvgjsG1411" transform="translate(667.5,407)"><path id="SvgjsPath1412" d="M 0 0L 100 0L 100 70L 0 70Z" stroke="rgba(50,50,50,1)" stroke-width="2" fill-opacity="1" fill="#ffffff"></path><g id="SvgjsG1413"><text id="SvgjsText1414" font-family="微软雅黑" text-anchor="middle" font-size="13px" width="80px" fill="#323232" font-weight="400" align="middle" lineHeight="125%" anchor="middle" family="微软雅黑" size="13px" weight="400" font-style="" opacity="1" y="23.875" transform="rotate(0)"><tspan id="SvgjsTspan1415" dy="16" x="50"><tspan id="SvgjsTspan1416" style="text-decoration:;">queue</tspan></tspan></text></g></g><g id="SvgjsG1417"><path id="SvgjsPath1418" d="M919.5 317.58454112047093L919.5 442L771.1 442" stroke="#323232" stroke-width="2" fill="none" marker-end="url(#SvgjsMarker1419)"></path><rect id="SvgjsRect1421" width="109" height="16" x="853.0077294397646" y="434" fill="#ffffff"></rect><text id="SvgjsText1422" font-family="微软雅黑" text-anchor="middle" font-size="13px" width="109px" fill="#323232" font-weight="400" align="top" lineHeight="16px" anchor="middle" family="微软雅黑" size="13px" weight="400" font-style="" opacity="1" y="431.375" transform="rotate(0)"><tspan id="SvgjsTspan1423" dy="16" x="907.5077294397646"><tspan id="SvgjsTspan1424" style="text-decoration:;">push metrics data</tspan></tspan></text></g><g id="SvgjsG1425" transform="translate(436,618)"><path id="SvgjsPath1426" d="M 0 0L 100 0L 100 70L 0 70Z" stroke="rgba(50,50,50,1)" stroke-width="2" fill-opacity="1" fill="#ffffff"></path><g id="SvgjsG1427"><text id="SvgjsText1428" font-family="微软雅黑" text-anchor="middle" font-size="13px" width="80px" fill="#323232" font-weight="400" align="middle" lineHeight="125%" anchor="middle" family="微软雅黑" size="13px" weight="400" font-style="" opacity="1" y="23.875" transform="rotate(0)"><tspan id="SvgjsTspan1429" dy="16" x="50"><tspan id="SvgjsTspan1430" style="text-decoration:;">warehouse</tspan></tspan></text></g></g><g id="SvgjsG1431"><path id="SvgjsPath1432" d="M717.5 478L717.5 653L539.6 653" stroke="#323232" stroke-width="2" fill="none" marker-end="url(#SvgjsMarker1433)"></path><rect id="SvgjsRect1435" width="21" height="16" x="705.55" y="645" fill="#ffffff"></rect><text id="SvgjsText1436" font-family="微软雅黑" text-anchor="middle" font-size="13px" width="21px" fill="#323232" font-weight="400" align="top" lineHeight="16px" anchor="middle" family="微软雅黑" size="13px" weight="400" font-style="" opacity="1" y="642.375" transform="rotate(0)"><tspan id="SvgjsTspan1437" dy="16" x="716.05"><tspan id="SvgjsTspan1438" style="text-decoration:;">pull</tspan></tspan></text></g><g id="SvgjsG1439" transform="translate(248,796)"><path id="SvgjsPath1440" d="M 0 0L 172 0L 172 48L 0 48Z" stroke="rgba(50,50,50,1)" stroke-width="2" fill-opacity="1" fill="#ffffff"></path><g id="SvgjsG1441"><text id="SvgjsText1442" font-family="微软雅黑" text-anchor="middle" font-size="13px" width="152px" fill="#323232" font-weight="400" align="middle" lineHeight="125%" anchor="middle" family="微软雅黑" size="13px" weight="400" font-style="" opacity="1" y="12.875" transform="rotate(0)"><tspan id="SvgjsTspan1443" dy="16" x="86"><tspan id="SvgjsTspan1444" style="text-decoration:;">TdEngine/Influxdb</tspan></tspan></text></g></g><g id="SvgjsG1445" transform="translate(573.5,796)"><path id="SvgjsPath1446" d="M 0 0L 116 0L 116 48L 0 48Z" stroke="rgba(50,50,50,1)" stroke-width="2" fill-opacity="1" fill="#ffffff"></path><g id="SvgjsG1447"><text id="SvgjsText1448" font-family="微软雅黑" text-anchor="middle" font-size="13px" width="96px" fill="#323232" font-weight="400" align="middle" lineHeight="125%" anchor="middle" family="微软雅黑" size="13px" weight="400" font-style="" opacity="1" y="12.875" transform="rotate(0)"><tspan id="SvgjsTspan1449" dy="16" x="58"><tspan id="SvgjsTspan1450" style="text-decoration:;">Memory/Redis</tspan></tspan></text></g></g><g id="SvgjsG1451"><path id="SvgjsPath1452" d="M486 689L486 742L334 742L334 792.4000000000001" stroke="#323232" stroke-width="2" fill="none" marker-end="url(#SvgjsMarker1453)"></path><rect id="SvgjsRect1455" width="74" height="16" x="374.29999999999995" y="734" fill="#ffffff"></rect><text id="SvgjsText1456" font-family="微软雅黑" text-anchor="middle" font-size="13px" width="74px" fill="#323232" font-weight="400" align="top" lineHeight="16px" anchor="middle" family="微软雅黑" size="13px" weight="400" font-style="" opacity="1" y="731.375" transform="rotate(0)"><tspan id="SvgjsTspan1457" dy="16" x="411.29999999999995"><tspan id="SvgjsTspan1458" style="text-decoration:;">History data</tspan></tspan></text></g><g id="SvgjsG1459"><path id="SvgjsPath1460" d="M486 689L486 742L631.5 742L631.5 792.4000000000001" stroke="#323232" stroke-width="2" fill="none" marker-end="url(#SvgjsMarker1461)"></path><rect id="SvgjsRect1463" width="92" height="16" x="511.45000000000005" y="734" fill="#ffffff"></rect><text id="SvgjsText1464" font-family="微软雅黑" text-anchor="middle" font-size="13px" width="92px" fill="#323232" font-weight="400" align="top" lineHeight="16px" anchor="middle" family="微软雅黑" size="13px" weight="400" font-style="" opacity="1" y="731.375" transform="rotate(0)"><tspan id="SvgjsTspan1465" dy="16" x="557.45"><tspan id="SvgjsTspan1466" style="text-decoration:;">Real-time data</tspan></tspan></text></g><g id="SvgjsG1467" transform="translate(679.5,241.08454112047093)"><path id="SvgjsPath1468" d="M 0 0L 100 0L 100 70L 0 70Z" stroke="rgba(50,50,50,1)" stroke-width="2" fill-opacity="1" fill="#ffffff"></path><g id="SvgjsG1469"><text id="SvgjsText1470" font-family="微软雅黑" text-anchor="middle" font-size="13px" width="80px" fill="#323232" font-weight="400" align="middle" lineHeight="125%" anchor="middle" family="微软雅黑" size="13px" weight="400" font-style="" opacity="1" y="23.875" transform="rotate(0)"><tspan id="SvgjsTspan1471" dy="16" x="50"><tspan id="SvgjsTspan1472" style="text-decoration:;">mysql</tspan></tspan></text></g></g><g id="SvgjsG1473"><path id="SvgjsPath1474" d="M542.5 231.5L610.5 231.5L610.5 276.08454112047093L675.9 276.08454112047093" stroke="#323232" stroke-width="2" fill="none" marker-end="url(#SvgjsMarker1475)"></path><rect id="SvgjsRect1477" width="124" height="16" x="548.5" y="244.49227056023545" fill="#ffffff"></rect><text id="SvgjsText1478" font-family="微软雅黑" text-anchor="middle" font-size="13px" width="124px" fill="#323232" font-weight="400" align="top" lineHeight="16px" anchor="middle" family="微软雅黑" size="13px" weight="400" font-style="" opacity="1" y="241.86727056023545" transform="rotate(0)"><tspan id="SvgjsTspan1479" dy="16" x="610.5"><tspan id="SvgjsTspan1480" style="text-decoration:;">monitor,system data</tspan></tspan></text></g><g id="SvgjsG1481" transform="translate(441.5,407)"><path id="SvgjsPath1482" d="M 0 0L 100 0L 100 70L 0 70Z" stroke="rgba(50,50,50,1)" stroke-width="2" fill-opacity="1" fill="#ffffff"></path><g id="SvgjsG1483"><text id="SvgjsText1484" font-family="微软雅黑" text-anchor="middle" font-size="13px" width="80px" fill="#323232" font-weight="400" align="middle" lineHeight="125%" anchor="middle" family="微软雅黑" size="13px" weight="400" font-style="" opacity="1" y="23.875" transform="rotate(0)"><tspan id="SvgjsTspan1485" dy="16" x="50"><tspan id="SvgjsTspan1486" style="text-decoration:;">alert</tspan></tspan></text></g></g><g id="SvgjsG1487"><path id="SvgjsPath1488" d="M666.5 442L604.5 442L604.5 442L545.1 442" stroke="#323232" stroke-width="2" fill="none" marker-end="url(#SvgjsMarker1489)"></path><rect id="SvgjsRect1491" width="21" height="16" x="595.3000000000001" y="434" fill="#ffffff"></rect><text id="SvgjsText1492" font-family="微软雅黑" text-anchor="middle" font-size="13px" width="21px" fill="#323232" font-weight="400" align="top" lineHeight="16px" anchor="middle" family="微软雅黑" size="13px" weight="400" font-style="" opacity="1" y="431.375" transform="rotate(0)"><tspan id="SvgjsTspan1493" dy="16" x="605.8000000000001"><tspan id="SvgjsTspan1494" style="text-decoration:;">pull</tspan></tspan></text></g><g id="SvgjsG1495" transform="matrix(0.9659258262890683,-0.2588190451025207,0.2588190451025207,0.9659258262890683,110.26876510808037,284.16908127420004)"><path id="SvgjsPath1496" d="M 0 30.20255162833871L 30.20255162833871 0L 30.20255162833871 19.93368407470355L 287.90745088603353 19.93368407470355L 287.90745088603353 40.47141918197387L 30.20255162833871 40.47141918197387L 30.20255162833871 60.40510325667742L 0 30.20255162833871Z" stroke="rgba(50,50,50,1)" stroke-width="2" fill-opacity="1" fill="#ffffff"></path><g id="SvgjsG1497"><text id="SvgjsText1498" font-family="微软雅黑" text-anchor="middle" font-size="13px" width="288px" fill="#323232" font-weight="400" align="middle" lineHeight="125%" anchor="middle" family="微软雅黑" size="13px" weight="400" font-style="" opacity="1" y="19.07755162833871" transform="rotate(0)"><tspan id="SvgjsTspan1499" dy="16" x="144"><tspan id="SvgjsTspan1500" style="text-decoration:;">Monitor，User，System API</tspan></tspan></text></g></g><g id="SvgjsG1501" transform="translate(113.1806577889414,411.7974483716612)"><path id="SvgjsPath1502" d="M 0 30.20255162833871L 30.20255162833871 0L 30.20255162833871 19.93368407470355L 287.90745088603353 19.93368407470355L 287.90745088603353 40.47141918197387L 30.20255162833871 40.47141918197387L 30.20255162833871 60.40510325667742L 0 30.20255162833871Z" stroke="rgba(50,50,50,1)" stroke-width="2" fill-opacity="1" fill="#ffffff"></path><g id="SvgjsG1503"><text id="SvgjsText1504" font-family="微软雅黑" text-anchor="middle" font-size="13px" width="288px" fill="#323232" font-weight="400" align="middle" lineHeight="125%" anchor="middle" family="微软雅黑" size="13px" weight="400" font-style="" opacity="1" y="19.07755162833871" transform="rotate(0)"><tspan id="SvgjsTspan1505" dy="16" x="144"><tspan id="SvgjsTspan1506" style="text-decoration:;">Alarm trigger and notify.Alert API</tspan></tspan></text></g></g><g id="SvgjsG1507" transform="matrix(0.984807753012208,0.17364817766693033,-0.17364817766693033,0.984807753012208,123.61225503600099,575.4615425324538)"><path id="SvgjsPath1508" d="M 0 30.20255162833871L 30.20255162833871 0L 30.20255162833871 19.93368407470355L 287.90745088603353 19.93368407470355L 287.90745088603353 40.47141918197387L 30.20255162833871 40.47141918197387L 30.20255162833871 60.40510325667742L 0 30.20255162833871Z" stroke="rgba(50,50,50,1)" stroke-width="2" fill-opacity="1" fill="#ffffff"></path><g id="SvgjsG1509"><text id="SvgjsText1510" font-family="微软雅黑" text-anchor="middle" font-size="13px" width="288px" fill="#323232" font-weight="400" align="middle" lineHeight="125%" anchor="middle" family="微软雅黑" size="13px" weight="400" font-style="" opacity="1" y="19.07755162833871" transform="rotate(0)"><tspan id="SvgjsTspan1511" dy="16" x="144"><tspan id="SvgjsTspan1512" style="text-decoration:;">Metrics Data API</tspan></tspan></text></g></g><g id="SvgjsG1513"><path id="SvgjsPath1514" d="M491.5 406L491.5 359.04227056023547L729.5 359.04227056023547L729.5 314.68454112047084" stroke="#323232" stroke-width="2" fill="none" marker-end="url(#SvgjsMarker1515)"></path><rect id="SvgjsRect1517" width="58" height="16" x="580.2" y="351.04227056023547" fill="#ffffff"></rect><text id="SvgjsText1518" font-family="微软雅黑" text-anchor="middle" font-size="13px" width="58px" fill="#323232" font-weight="400" align="top" lineHeight="16px" anchor="middle" family="微软雅黑" size="13px" weight="400" font-style="" opacity="1" y="348.41727056023547" transform="rotate(0)"><tspan id="SvgjsTspan1519" dy="16" x="609.2"><tspan id="SvgjsTspan1520" style="text-decoration:;">alert data</tspan></tspan></text></g><g id="SvgjsG1521" transform="translate(1277.25,43.797448371661176)"><path id="SvgjsPath1522" d="M 0 0L 286.75 0L 286.75 28L 0 28Z" stroke="rgba(50,50,50,1)" stroke-width="2" fill-opacity="1" fill="#ffffff"></path><g id="SvgjsG1523"><text id="SvgjsText1524" font-family="微软雅黑" text-anchor="middle" font-size="13px" width="267px" fill="#323232" font-weight="400" align="middle" lineHeight="125%" anchor="middle" family="微软雅黑" size="13px" weight="400" font-style="" opacity="1" y="2.875" transform="rotate(0)"><tspan id="SvgjsTspan1525" dy="16" x="143.5"><tspan id="SvgjsTspan1526" style="text-decoration:;">Default</tspan><tspan id="SvgjsTspan1527" style="text-decoration:;font-size: inherit;">，jsonPath，prometheus</tspan></tspan></text></g></g><g id="SvgjsG1528"><path id="SvgjsPath1529" d="M1225 57.797448371661176L1250.625 57.797448371661176L1250.625 57.797448371661176L1273.65 57.797448371661176" stroke="#323232" stroke-width="2" fill="none" marker-end="url(#SvgjsMarker1530)"></path><rect id="SvgjsRect1532" width="34" height="16" x="1232.325" y="49.797448371661176" fill="#ffffff"></rect><text id="SvgjsText1533" font-family="微软雅黑" text-anchor="middle" font-size="13px" width="34px" fill="#323232" font-weight="400" align="top" lineHeight="16px" anchor="middle" family="微软雅黑" size="13px" weight="400" font-style="" opacity="1" y="47.172448371661176" transform="rotate(0)"><tspan id="SvgjsTspan1534" dy="16" x="1249.325"><tspan id="SvgjsTspan1535" style="text-decoration:;">Parse</tspan></tspan></text></g></svg>