<svg version="1.1" xmlns="http://www.w3.org/2000/svg" viewBox="0 0 1233.16015625 430.1015625" width="2466.3203125" height="860.203125">
  <!-- svg-source:excalidraw -->
  
  <defs>
    <style>
      @font-face {
        font-family: "Virgil";
        src: url("https://excalidraw.com/Virgil.woff2");
      }
      @font-face {
        font-family: "Cascadia";
        src: url("https://excalidraw.com/Cascadia.woff2");
      }
    </style>
  </defs>
  <g stroke-linecap="round" transform="translate(85.89453125 121.41796875) rotate(0 226.126953125 41.5)"><path d="M-0.01 -0.1 C180.94 0.82, 360.35 0.95, 451.89 0.35 M-0.41 -0.29 C105.74 -1.28, 211.02 -0.89, 452.4 0.44 M452.68 0.67 C454.13 22.74, 450.88 43.75, 451.29 81.08 M452.7 0.29 C453.27 19.35, 451.55 38.85, 451.73 82.43 M453.04 83.79 C304.97 83.46, 159.13 83.08, -0.84 82.66 M452.09 82.67 C319.18 84.85, 184.78 84.15, -0.19 83.18 M-0.87 82.7 C-1.13 50.36, 0.88 18.43, 1.22 0.23 M-0.74 82.85 C-1.44 56.99, -0.77 30.07, -0.62 -0.95" stroke="#000000" stroke-width="1" fill="none"></path></g><g stroke-linecap="round" transform="translate(87.40234375 210.6171875) rotate(0 224.5 18.5)"><path d="M0.76 0.48 C117.03 -0.24, 234.92 -1.33, 448.64 -0.97 M-0.05 0.28 C141.05 -2.1, 282.14 -1.56, 449.32 -0.08 M450.12 -0.61 C447.47 12.59, 449.38 26.42, 447.68 35.02 M449.44 -0.17 C448.26 10, 448.3 19.73, 449.3 37.6 M448.72 37.2 C269.59 36.6, 91.62 36.22, -0.59 36.25 M449.46 36.96 C276.47 39.06, 104.06 38.45, -0.37 36.72 M0.77 37.47 C0.05 30.31, -0.68 21.18, -1.76 1.57 M0.24 37.59 C0.12 27.31, 0.84 17.29, 0.5 -0.25" stroke="#000000" stroke-width="1" fill="none"></path></g><g transform="translate(281.40234375 217.1171875) rotate(0 30.5 12)"><text x="30.5" y="20" font-family="Cascadia, Segoe UI Emoji" font-size="20px" fill="#000000" text-anchor="middle" style="white-space: pre;" direction="ltr">queue</text></g><g stroke-linecap="round" transform="translate(89.41796875 251.484375) rotate(0 73 17.5)"><path d="M-1.29 0.71 C43.22 -0.41, 87.11 -0.12, 144.68 1.02 M0.85 -0.93 C41.17 -0.44, 81.58 0.42, 145.53 -0.16 M146.83 -0.52 C144.97 8.38, 145.09 12.66, 147.09 33.11 M146.15 0.92 C145.29 13.79, 147.11 26.66, 145.21 34.88 M145.11 35.67 C100.54 34.55, 55.63 35.57, 1.97 33.82 M145.05 34.4 C94.41 35.22, 43.71 35.22, 0.28 34.48 M-0.18 35.46 C1.46 28.2, 1.09 16.98, -0.56 -0.33 M-0.98 35.78 C-0.69 27.17, -0.29 20.36, -0.36 -0.67" stroke="#000000" stroke-width="1" fill="none"></path></g><g transform="translate(120.41796875 256.984375) rotate(0 42 12)"><text x="42" y="20" font-family="Cascadia, Segoe UI Emoji" font-size="20px" fill="#000000" text-anchor="middle" style="white-space: pre;" direction="ltr">alerter</text></g><g stroke-linecap="round" transform="translate(240.73046875 251.421875) rotate(0 70.5 17)"><path d="M-1.24 -0.56 C53.11 -2.79, 108.1 -1.52, 139.04 1.56 M-0.43 -0.36 C34.88 0.09, 70.35 0.44, 141.74 0.49 M142.34 -1.56 C141.94 9.06, 140.42 18.45, 140.51 33.93 M141.31 -0.84 C141.02 10.49, 141.39 20.6, 141.68 33.93 M142.42 35.14 C98.9 36.09, 60.45 35.49, -0.09 33.48 M140.03 34.47 C101.04 32.08, 62.11 33.5, -0.98 33.86 M-1.98 35.48 C1.41 28.32, 0.65 19.84, 0.12 0.04 M-0.81 33.69 C-0.35 26.54, -0.51 17.96, 0.91 0.82" stroke="#000000" stroke-width="1" fill="none"></path></g><g transform="translate(275.23046875 256.421875) rotate(0 36 12)"><text x="36" y="20" font-family="Cascadia, Segoe UI Emoji" font-size="20px" fill="#000000" text-anchor="middle" style="white-space: pre;" direction="ltr">notify</text></g><g stroke-linecap="round" transform="translate(387.205078125 251.384765625) rotate(0 76 17)"><path d="M1.24 -1.96 C35.19 -1.31, 71.19 1.75, 150.02 1.48 M0.15 0.06 C56.68 -1.1, 112.38 -0.91, 151.19 -0.31 M152.9 1.82 C153.9 5.91, 154.07 15.62, 153.66 33.67 M152.95 1 C151.28 11.24, 151.92 21.48, 152.13 34.18 M153.81 35.29 C108.71 34.2, 66.78 34.62, -0.19 34.68 M152.27 34.94 C107.81 36.23, 62.6 35.89, 0.33 33.29 M1.07 35.81 C1.34 27.47, 0.49 16.98, -1.56 0.76 M0.77 34.05 C0.39 23.78, 0.63 10.65, 0.67 -0.89" stroke="#000000" stroke-width="1" fill="none"></path></g><g transform="translate(409.705078125 256.384765625) rotate(0 53.5 12)"><text x="53.5" y="20" font-family="Cascadia, Segoe UI Emoji" font-size="20px" fill="#000000" text-anchor="middle" style="white-space: pre;" direction="ltr">warehouse</text></g><g stroke-linecap="round" transform="translate(89.61328125 298.578125) rotate(0 52.5 35)"><path d="M1.35 1.11 C26.75 -0.73, 51.23 0.68, 104.49 -0.56 M-0.78 -0.22 C24.73 1.64, 49.25 0.41, 104.21 0.73 M103.71 -0.36 C106.31 21.97, 106.19 42.48, 104.8 68.07 M104.65 -0.69 C105.8 21.29, 105.91 40.88, 104.16 69.86 M105.28 71.33 C68.06 70.67, 27.16 69.89, 0.63 70.92 M104.61 69.39 C74.9 71.21, 45.23 71.32, -0.65 70.68 M-0.28 69.95 C1.79 49.03, 1.02 28.4, -1.48 -1.32 M0.98 70.46 C-0.45 53.27, 0.48 36.89, 0.87 0.57" stroke="#000000" stroke-width="1" fill="none"></path></g><g transform="translate(94.11328125 321.578125) rotate(0 48 12)"><text x="48" y="20" font-family="Cascadia, Segoe UI Emoji" font-size="20px" fill="#000000" text-anchor="middle" style="white-space: pre;" direction="ltr">h2/mysql</text></g><g stroke-linecap="round" transform="translate(88.6640625 126.1328125) rotate(0 78 37)"><path d="M-1.74 -1.94 C60.27 -1.09, 122.19 0.42, 155.01 1.91 M-0.47 0.63 C40.4 0.03, 78.52 1.48, 155.21 0.25 M154.61 -1.64 C154.84 25.79, 154.91 52.22, 156.54 73.8 M156.94 -0.18 C155.51 24.31, 155.75 46.72, 155.42 73.5 M155.5 73.83 C119.42 75.76, 85.68 75.21, 1.04 73.33 M155.56 73.31 C116.81 71.76, 78.23 71.87, 0.77 74.25 M0.95 73.4 C0.15 49.24, -1.84 25.98, -1.64 -0.65 M0.35 73.74 C1.28 46.93, 0.9 18.83, -0.09 -0.45" stroke="#000000" stroke-width="1" fill="none"></path></g><g transform="translate(130.6640625 151.1328125) rotate(0 36 12)"><text x="36" y="20" font-family="Cascadia, Segoe UI Emoji" font-size="20px" fill="#000000" text-anchor="middle" style="white-space: pre;" direction="ltr">server</text></g><g stroke-linecap="round" transform="translate(374.4296875 127.447265625) rotate(0 78.5 37)"><path d="M-1.75 -0.79 C37.42 -0.57, 80.12 -1.88, 158.48 0.01 M-0.24 0.1 C56.95 0.29, 114.37 1.81, 157.25 0.95 M155.82 1.34 C156.85 24.12, 155.72 53.27, 157.56 73.77 M157.07 -0.28 C157.54 21.05, 156.87 41.3, 157.29 73.03 M158.54 74.81 C102.23 74.46, 49.5 72.78, -1.51 72.15 M156 73.86 C101.76 74.42, 47.21 72.98, -0.7 74.76 M-1.17 72.12 C-1.3 44.71, -2.04 19.54, 0.58 -0.99 M0.71 74.89 C1.41 51.91, 0.27 28.55, 0.34 -0.58" stroke="#000000" stroke-width="1" fill="none"></path></g><g transform="translate(399.4296875 152.447265625) rotate(0 53.5 12)"><text x="53.5" y="20" font-family="Cascadia, Segoe UI Emoji" font-size="20px" fill="#000000" text-anchor="middle" style="white-space: pre;" direction="ltr">collector</text></g><g stroke-linecap="round" transform="translate(250.1796875 147.125) rotate(0 58.5 17)"><path d="M-0.99 -0.1 C27.47 -0.96, 55.91 -1.28, 116.19 0.74 M0.71 -0.61 C46.28 -0.24, 93.27 -0.76, 116.22 -0.56 M117.2 1.69 C117.8 8.56, 118.71 22.16, 116.23 32.06 M116.07 -0.34 C116.11 12.18, 117.23 23.06, 116.2 33.61 M118.98 35.55 C73.56 32.14, 30.48 32.66, -0.06 33.58 M116.56 34.32 C70.13 31.89, 24.2 32.27, -0.67 33.48 M0.51 32.48 C-1.21 25.93, -1.79 15.19, 0.89 1.16 M0.81 34.09 C0.25 21.58, -0.75 10.77, -0.09 -0.03" stroke="#000000" stroke-width="1" fill="none"></path></g><g transform="translate(260.6796875 152.125) rotate(0 48 12)"><text x="48" y="20" font-family="Cascadia, Segoe UI Emoji" font-size="20px" fill="#000000" text-anchor="middle" style="white-space: pre;" direction="ltr">dispatch</text></g><g transform="translate(105.78710937500011 299.83203125) rotate(0 38.86230468749994 7.40234375)"><text x="0" y="11.804687499999966" font-family="Cascadia, Segoe UI Emoji" font-size="11.843749999999977px" fill="#000000" text-anchor="start" style="white-space: pre;" direction="ltr">manage data</text></g><g stroke-linecap="round" transform="translate(203.19921875 298.40625) rotate(0 77 34)"><path d="M1.35 -0.88 C35.89 1.8, 75.17 -1.46, 154.02 -0.97 M0.03 -0.31 C45.11 -1.11, 89.97 -1.47, 154.88 0.05 M153 -0.09 C152.91 26.46, 155.03 48.88, 155.96 67.94 M153.87 -0.83 C153.8 18.15, 154.87 37, 154.02 68.48 M152.5 66.89 C102.39 67.8, 52.83 67.6, -1.89 66.82 M153.59 67.81 C119.07 68.07, 84.29 69.62, 0.87 68.72 M-0.32 68.42 C0.49 54.03, 1.07 41.52, -1.33 1.42 M0.13 68.64 C-0.33 41.48, -0.58 15.18, -0.21 0.52" stroke="#000000" stroke-width="1" fill="none"></path></g><g transform="translate(208.69921875 320.40625) rotate(0 71.5 12)"><text x="71.5" y="20" font-family="Cascadia, Segoe UI Emoji" font-size="20px" fill="#000000" text-anchor="middle" style="white-space: pre;" direction="ltr">memory/redis</text></g><g transform="translate(220.064453125 299.43359375) rotate(0 64.5 7.5)"><text x="0" y="12" font-family="Cascadia, Segoe UI Emoji" font-size="11.843749999999977px" fill="#000000" text-anchor="start" style="white-space: pre;" direction="ltr">latest metric data</text></g><g stroke-linecap="round" transform="translate(363.9140625 296.91796875) rotate(0 88 35)"><path d="M1.1 1.66 C40.83 -2.77, 78.8 0.39, 174.81 1.53 M-0.74 0.65 C41.01 -0.28, 79.92 -0.64, 176.61 -0.47 M176.4 -0.49 C176.74 23.87, 177.12 46.59, 175.65 71.79 M175.87 -0.22 C176.32 26.49, 174.48 53.23, 175.67 70.62 M176.86 70.21 C117.7 69.93, 55.14 72.25, -0.46 71.4 M176.38 70.51 C114.25 70.13, 50.73 70.27, 0.07 69.23 M-0.79 69.48 C-2.13 55.98, 1.56 39.82, 0.08 -1.02 M0.66 70.79 C1.04 46.4, -0.31 23.8, -0.14 -0.73" stroke="#000000" stroke-width="1" fill="none"></path></g><g transform="translate(368.9140625 319.91796875) rotate(0 83 12)"><text x="83" y="20" font-family="Cascadia, Segoe UI Emoji" font-size="20px" fill="#000000" text-anchor="middle" style="white-space: pre;" direction="ltr">iotdb/tdengine</text></g><g transform="translate(380.779296875 297.9453125) rotate(0 68 7.5)"><text x="0" y="12" font-family="Cascadia, Segoe UI Emoji" font-size="11.843749999999977px" fill="#000000" text-anchor="start" style="white-space: pre;" direction="ltr">history metric data</text></g><g stroke-linecap="round" transform="translate(10 121.6484375) rotate(0 35.96875 124.716796875)"><path d="M1.77 -0.08 C20.68 -0.29, 43.03 -1.76, 69.97 1.54 M-0.7 0.21 C24.76 0.28, 48.52 -0.92, 72.05 -0.24 M71.97 -0.79 C73.33 93.94, 72.88 187.36, 71.04 250.51 M72.02 -0.45 C72.41 97.02, 73.59 191.88, 71.58 249.93 M71.43 249.22 C55.2 251.86, 41.01 249.69, 0.96 248.55 M72.72 249.84 C48.92 249.89, 24.74 249.31, 0.25 249.61 M1.62 248.43 C2 190.77, -1.05 127.46, -0.87 -1.28 M-0.32 249.12 C-2.07 196.53, -2.07 144.49, 0.55 0.75" stroke="#000000" stroke-width="1" fill="none"></path></g><g transform="translate(16.96875 236.365234375) rotate(0 29 10)"><text x="29" y="16" font-family="Cascadia, Segoe UI Emoji" font-size="16px" fill="#000000" text-anchor="middle" style="white-space: pre;" direction="ltr">WEB UI</text></g><g stroke-linecap="round" transform="translate(617.55859375 61.01171875) rotate(0 93.22265625 23.51953125)"><path d="M-1.53 1.03 C63.8 0.4, 123.52 -2.61, 185.99 1.01 M0.73 0.83 C47 1.58, 95.67 0.81, 186.94 -0.24 M186.24 -0.9 C185.25 17.68, 186.29 33.23, 187.96 48.57 M187.29 -0.11 C186.6 14.1, 185.94 28.77, 185.7 48.01 M185.55 48.22 C137.31 45.54, 87.01 45.12, 1.66 48.65 M186.19 46.67 C141.84 46.93, 98.86 46.57, -0.99 46.25 M0.92 46.49 C2.13 35.69, 0.64 18.75, -1.11 -0.73 M0.13 47.01 C1.12 35.33, -0.28 23.04, 0.65 0.1" stroke="#000000" stroke-width="1" fill="none"></path></g><g transform="translate(662.78125 74.53125) rotate(0 48 10)"><text x="48" y="16" font-family="Cascadia, Segoe UI Emoji" font-size="16px" fill="#000000" text-anchor="middle" style="white-space: pre;" direction="ltr">HTTP/HTTPS</text></g><g stroke-linecap="round" transform="translate(915.02734375 57.8203125) rotate(0 152 26)"><path d="M-0.06 -0.02 C67.6 3.48, 136.57 1.52, 303.9 0.59 M-0.08 0.72 C84.86 -0.72, 169.5 -1.23, 303.86 -0.59 M302.98 1.15 C304.54 18.18, 302.52 37.8, 305.63 50.81 M304.11 0.17 C303.95 18.05, 302.98 38.16, 303.54 51.92 M303.09 50.97 C196.9 53.85, 90.79 52.66, -0.25 51.44 M303.57 52.55 C220.15 52.75, 136.12 53.14, -0.09 52.08 M0.11 50.02 C0.17 39.36, -0.97 29.43, 1.24 1.71 M-0.69 52.86 C-0.16 37.4, -0.63 24.49, 0.54 -0.46" stroke="#000000" stroke-width="1" fill="none"></path></g><g transform="translate(939.52734375 73.8203125) rotate(0 127.5 10)"><text x="127.5" y="16" font-family="Cascadia, Segoe UI Emoji" font-size="16px" fill="#000000" text-anchor="middle" style="white-space: pre;" direction="ltr">default,jsonpath,prometheus</text></g><g stroke-linecap="round"><g transform="translate(811.921875 87.0613876778358) rotate(0 47.098710263450585 1.226223963919864)"><path d="M0.67 0.33 C16.51 0.61, 78.86 1.18, 94.64 1.36 M-0.44 -0.54 C15.29 -0.01, 77.88 2.43, 93.8 3" stroke="#000000" stroke-width="1" fill="none"></path></g><g transform="translate(811.921875 87.0613876778358) rotate(0 47.098710263450585 1.226223963919864)"><path d="M65.8 12.55 C73.19 11.14, 80.9 5.83, 93.07 1.79 M64.26 11.32 C74.43 9.27, 84.24 5.18, 94.5 3.56" stroke="#000000" stroke-width="1" fill="none"></path></g><g transform="translate(811.921875 87.0613876778358) rotate(0 47.098710263450585 1.226223963919864)"><path d="M66.56 -7.96 C73.7 -3.9, 81.2 -3.75, 93.07 1.79 M65.03 -9.19 C75.09 -4.51, 84.65 -1.88, 94.5 3.56" stroke="#000000" stroke-width="1" fill="none"></path></g></g><g transform="translate(829.83203125 63.68359375) rotate(0 24.5 10)"><text x="0" y="16" font-family="Cascadia, Segoe UI Emoji" font-size="16px" fill="#000000" text-anchor="start" style="white-space: pre;" direction="ltr">parse</text></g><g stroke-linecap="round" transform="translate(618.39453125 129.39453125) rotate(0 93.22265625 23.51953125)"><path d="M-0.25 1.01 C43.69 -0.59, 89.23 2.86, 187.69 -0.89 M0.1 0.49 C43.64 0.15, 87.7 0.93, 186.69 -0.85 M187.87 1.46 C184.56 18.37, 184.15 36.6, 185.38 47.7 M186.52 0.23 C187.03 10.59, 187.48 21.97, 185.9 47 M184.96 47.22 C122.6 47.81, 61.96 46.59, 0.82 47.16 M186.05 46.6 C134.69 44.69, 84.43 45.21, -0.78 46.78 M-0.36 46.05 C0.47 38.7, -1.42 25.91, 0.36 -1.77 M-0.4 47.44 C0.19 31.13, 1.23 14.47, 0.65 0.31" stroke="#000000" stroke-width="1" fill="none"></path></g><g transform="translate(691.6171875 142.9140625) rotate(0 20 10)"><text x="20" y="16" font-family="Cascadia, Segoe UI Emoji" font-size="16px" fill="#000000" text-anchor="middle" style="white-space: pre;" direction="ltr">JDBC</text></g><g stroke-linecap="round" transform="translate(918.0078125 117.421875) rotate(0 150.5 34)"><path d="M-1.41 -1.17 C72.6 0.24, 149.01 -1.77, 300.03 -1.13 M0.06 -0.61 C75 -1.1, 149.35 -1.7, 301.58 -0.63 M299.53 0.56 C299.6 25.69, 300.42 50.09, 299.5 68.56 M301.45 0 C301.96 26.36, 300.5 51.07, 301.36 67.67 M300.12 68.71 C214.47 68.01, 127.4 68.29, -0.38 67.44 M300.52 67.6 C239.92 67.01, 177.99 66.84, -0.7 68.72 M0.94 69.28 C-0.84 48.98, 0.48 32.01, 1.05 -1.5 M-0.16 68.66 C1.15 49.93, 0.92 31, -0.15 0.39" stroke="#000000" stroke-width="1" fill="none"></path></g><g transform="translate(960.0078125 131.421875) rotate(0 108.5 20)"><text x="108.5" y="16" font-family="Cascadia, Segoe UI Emoji" font-size="16px" fill="#000000" text-anchor="middle" style="white-space: pre;" direction="ltr">mysql,oracle,sqlserver,</text><text x="108.5" y="36" font-family="Cascadia, Segoe UI Emoji" font-size="16px" fill="#000000" text-anchor="middle" style="white-space: pre;" direction="ltr">postgreSQL,mariadb</text></g><g stroke-linecap="round"><g transform="translate(815.1941105769231 155.891963943259) rotate(0 45.80912872988438 0.48084313971071424)"><path d="M-0.96 -1.19 C14.37 -0.64, 77.26 1.85, 92.57 2.15 M0.74 0.8 C15.96 1.11, 77.35 0.3, 92.21 0.42" stroke="#000000" stroke-width="1" fill="none"></path></g><g transform="translate(815.1941105769231 155.891963943259) rotate(0 45.80912872988438 0.48084313971071424)"><path d="M62.07 12.64 C75.27 6.48, 82.58 2.2, 91.16 0.63 M64.62 10.75 C74.11 6.55, 84.47 2.93, 92.84 1.13" stroke="#000000" stroke-width="1" fill="none"></path></g><g transform="translate(815.1941105769231 155.891963943259) rotate(0 45.80912872988438 0.48084313971071424)"><path d="M62 -7.88 C75.02 -6.84, 82.36 -3.93, 91.16 0.63 M64.55 -9.77 C74.07 -6.81, 84.46 -3.28, 92.84 1.13" stroke="#000000" stroke-width="1" fill="none"></path></g></g><g stroke-linecap="round" transform="translate(618.9296875 196.78125) rotate(0 93.22265625 23.51953125)"><path d="M-0.11 1.22 C54.77 3.15, 111.04 1.11, 186 0.11 M-0.26 -0.37 C62.91 -0.28, 124.97 -0.29, 186.91 0.86 M186.5 1.94 C187.45 15.27, 185.03 30.58, 185.82 47.32 M187.13 -0.89 C185.66 16.01, 185.48 30.86, 186.99 47.03 M187.66 46.73 C123.38 47.44, 56.03 45.99, 0.36 48.06 M187.36 47.82 C121.68 49.06, 57.86 48.46, 0.13 46.7 M-0.13 45.64 C0.04 31.3, 1.09 19.81, 1.43 0.34 M-0.87 47.58 C0.87 36.83, 0.95 26.98, 0.1 -0.53" stroke="#000000" stroke-width="1" fill="none"></path></g><g transform="translate(669.15234375 210.30078125) rotate(0 43 10)"><text x="43" y="16" font-family="Cascadia, Segoe UI Emoji" font-size="16px" fill="#000000" text-anchor="middle" style="white-space: pre;" direction="ltr">SSH SHELL</text></g><g stroke-linecap="round" transform="translate(918.26171875 190.91796875) rotate(0 151 26)"><path d="M-0.67 1.36 C69.4 -1.48, 138.95 -1.27, 302.48 -1.46 M0.65 0.07 C97.37 0.88, 193.71 1.44, 302.33 0.12 M302.92 -0.95 C300.52 16.16, 301.39 36.34, 302.63 50.34 M301.6 0.42 C301.78 18.85, 302.91 38.31, 302.48 52.18 M303.28 52.19 C208.47 50.78, 116.33 52.4, 0.69 53.32 M301.99 52.63 C193.23 53.91, 83.23 53.48, -0.05 52.54 M0.39 50.07 C1.47 32.98, 1.47 13.51, -1.68 -0.61 M0.72 51.95 C1.26 33.95, 0.55 14.85, -0.06 -0.15" stroke="#000000" stroke-width="1" fill="none"></path></g><g transform="translate(927.76171875 206.91796875) rotate(0 141.5 10)"><text x="141.5" y="16" font-family="Cascadia, Segoe UI Emoji" font-size="16px" fill="#000000" text-anchor="middle" style="white-space: pre;" direction="ltr">linux, zookeeper,ubuntu,centos</text></g><g stroke-linecap="round"><g transform="translate(813.29296875 221.98138941155833) rotate(0 48.20968101993674 0.0945842070073013)"><path d="M1.12 -0.2 C17.02 -0.08, 80.3 -0.03, 96.18 0.14 M0.24 -1.34 C15.92 -1, 79.27 1.53, 95.17 1.53" stroke="#000000" stroke-width="1" fill="none"></path></g><g transform="translate(813.29296875 221.98138941155833) rotate(0 48.20968101993674 0.0945842070073013)"><path d="M66.43 10.97 C76.61 7.52, 87.97 1.94, 95.57 1.02 M67.69 11.24 C74.61 9.46, 82.06 6.24, 95.64 1.56" stroke="#000000" stroke-width="1" fill="none"></path></g><g transform="translate(813.29296875 221.98138941155833) rotate(0 48.20968101993674 0.0945842070073013)"><path d="M66.89 -9.55 C76.82 -5.58, 88.01 -3.75, 95.57 1.02 M68.16 -9.28 C75.13 -5.67, 82.47 -3.49, 95.64 1.56" stroke="#000000" stroke-width="1" fill="none"></path></g></g><g stroke-linecap="round" transform="translate(621.82421875 251.890625) rotate(0 93.22265625 23.51953125)"><path d="M1.35 -1.73 C48.4 -2.82, 96.28 -0.55, 184.84 1.66 M-0.59 0.48 C60.73 -0.27, 119.53 0.11, 186.3 0.95 M186.09 0.72 C186.35 11.32, 185.1 18.04, 185.57 47.28 M186.31 0.07 C185.81 18.68, 185.45 36.92, 187.42 46.39 M188.12 46.89 C122.39 46.24, 60.29 45.34, -0.32 46.46 M187.25 47.41 C127.66 45.67, 69.64 46.55, 0.24 46.3 M0.24 48.84 C1.84 34.55, 1.64 21.49, 1.72 0.67 M-0.82 46.94 C-0.57 35.59, 1.2 23.95, -0.48 0.15" stroke="#000000" stroke-width="1" fill="none"></path></g><g transform="translate(695.046875 265.41015625) rotate(0 20 10)"><text x="20" y="16" font-family="Cascadia, Segoe UI Emoji" font-size="16px" fill="#000000" text-anchor="middle" style="white-space: pre;" direction="ltr">SNMP</text></g><g stroke-linecap="round" transform="translate(920.3125 250.29296875) rotate(0 151 26)"><path d="M0.87 -0.79 C120.07 2.77, 236.27 3.12, 302.32 0.5 M0.51 -0.48 C83.95 -1.25, 168.57 -0.36, 301.35 0.08 M301.85 1.38 C300.5 13.08, 301.03 30.09, 303.7 50.05 M301.82 0.56 C301.4 13.97, 302.9 25.94, 302.39 52.51 M301.32 51.6 C215.69 50.79, 129.01 51.41, 0.19 51.29 M301.68 51.49 C222.02 52.94, 142.38 52.27, -0.21 51.32 M1.4 52.25 C1.14 35.08, 1.66 18.98, -0.92 -1.45 M-0.92 52.49 C1.29 40.07, -0.05 26.7, -0.57 -0.59" stroke="#000000" stroke-width="1" fill="none"></path></g><g transform="translate(981.3125 266.29296875) rotate(0 90 10)"><text x="90" y="16" font-family="Cascadia, Segoe UI Emoji" font-size="16px" fill="#000000" text-anchor="middle" style="white-space: pre;" direction="ltr">windows, network...</text></g><g stroke-linecap="round"><g transform="translate(816.1875 278.5237845936472) rotate(0 47.753409090638115 1.167073882325269)"><path d="M-0.65 1.1 C15.55 1.1, 79.97 0.53, 96.15 0.66 M1.21 0.64 C17.41 0.69, 79.75 1.24, 95.58 1.7" stroke="#000000" stroke-width="1" fill="none"></path></g><g transform="translate(816.1875 278.5237845936472) rotate(0 47.753409090638115 1.167073882325269)"><path d="M69.06 12.65 C71.61 11.19, 79.71 8.13, 95.16 0.52 M66.68 11.2 C76.87 9.21, 85.99 4.97, 95.45 1.52" stroke="#000000" stroke-width="1" fill="none"></path></g><g transform="translate(816.1875 278.5237845936472) rotate(0 47.753409090638115 1.167073882325269)"><path d="M69.41 -7.87 C72.01 -4.95, 80.03 -3.63, 95.16 0.52 M67.03 -9.32 C77.24 -4.18, 86.24 -1.28, 95.45 1.52" stroke="#000000" stroke-width="1" fill="none"></path></g></g><g stroke-linecap="round" transform="translate(623.27734375 308.86328125) rotate(0 93.22265625 23.51953125)"><path d="M1.08 0.69 C61.29 0.43, 119.37 -0.41, 186.93 1.54 M-0.83 0.25 C70.23 1.88, 142.25 2.3, 186.52 0.65 M184.71 0.23 C186.49 10.38, 186.99 22.92, 188.1 48.64 M186.23 0.17 C186.89 11.45, 185.5 21.33, 185.84 47.34 M184.58 48.5 C135.43 48.92, 86.85 46.92, -1.67 48.71 M186.94 46.16 C138.88 44.93, 89.33 44.53, 0.92 46.9 M-0.52 47.83 C1.56 34.93, 1.43 21.54, 1.64 1.59 M-0.74 46.62 C-0.25 35.99, -0.06 24.39, -0.95 -0.48" stroke="#000000" stroke-width="1" fill="none"></path></g><g transform="translate(701.5 322.3828125) rotate(0 15 10)"><text x="15" y="16" font-family="Cascadia, Segoe UI Emoji" font-size="16px" fill="#000000" text-anchor="middle" style="white-space: pre;" direction="ltr">JMX</text></g><g stroke-linecap="round" transform="translate(923.16015625 307.6953125) rotate(0 150 26)"><path d="M0.66 -0.04 C81.21 -1.42, 164.83 0.37, 301.18 -0.25 M-0.54 0.2 C64.41 -0.04, 128.41 -0.08, 299.63 -0.67 M300.47 -1.38 C300.52 18.11, 301.2 39.02, 298.66 51.8 M300.5 0.48 C298.98 12.03, 299.28 25.57, 299.72 51.23 M299.74 52.52 C192.3 52.65, 80.86 54.83, -0.59 53.36 M300.67 51.63 C235.74 49.4, 172.38 49.96, -0.33 51.34 M1.14 51.92 C1.14 31.54, 1.77 15.56, -1.18 -1.56 M-0.61 52.29 C-0.04 41.43, -0.56 30.32, 0.07 -0.39" stroke="#000000" stroke-width="1" fill="none"></path></g><g transform="translate(983.16015625 323.6953125) rotate(0 90 10)"><text x="90" y="16" font-family="Cascadia, Segoe UI Emoji" font-size="16px" fill="#000000" text-anchor="middle" style="white-space: pre;" direction="ltr">tomcat,jvm,kafka...</text></g><g stroke-linecap="round"><g transform="translate(817.640625 335.51472071418925) rotate(0 47.39692442365458 0.6373172029776129)"><path d="M-0.03 -0.84 C15.95 -0.58, 80 1.51, 96.3 2.12 M-1.51 1.33 C14.23 1.17, 78.57 0.21, 95.07 0.15" stroke="#000000" stroke-width="1" fill="none"></path></g><g transform="translate(817.640625 335.51472071418925) rotate(0 47.39692442365458 0.6373172029776129)"><path d="M65.58 9.79 C76.82 8.71, 87.34 3.3, 93.35 -1.51 M67.31 11.39 C76.27 7.83, 84.83 2.84, 95.67 -0.72" stroke="#000000" stroke-width="1" fill="none"></path></g><g transform="translate(817.640625 335.51472071418925) rotate(0 47.39692442365458 0.6373172029776129)"><path d="M65.38 -10.73 C76.77 -4.94, 87.37 -3.49, 93.35 -1.51 M67.1 -9.13 C75.98 -6.02, 84.61 -4.33, 95.67 -0.72" stroke="#000000" stroke-width="1" fill="none"></path></g></g><g stroke-linecap="round" transform="translate(622.35546875 366.1015625) rotate(0 208 27)"><path d="M-0.77 0.55 C166.39 -2.87, 332.57 -1.41, 416.6 0.52 M0.48 -0.34 C89.85 0.31, 180.75 -0.18, 416.03 -0.38 M415.33 1.96 C416.23 11.78, 417.32 23.13, 416.91 54.25 M416.17 0.61 C416.12 20.3, 415.25 38.46, 415.36 54.52 M416.73 53.62 C260.21 54.84, 103.97 54.53, 0.03 54.03 M415.86 54.31 C320.44 54.06, 223.89 53.55, -0.01 54.43 M-1.17 52 C-0.51 35.83, 1.21 14.27, 0.13 -1.76 M-0.77 53.01 C-0.02 36.4, -1.06 17.6, -0.8 0.03" stroke="#000000" stroke-width="1" fill="none"></path></g><g transform="translate(627.35546875 383.1015625) rotate(0 198 10)"><text x="0" y="16" font-family="Cascadia, Segoe UI Emoji" font-size="16px" fill="#000000" text-anchor="start" style="white-space: pre;" direction="ltr">Ping,Port,Site-map,Ssl-cert,Api,Website...</text></g><g stroke-linecap="round" transform="translate(617.7109375 10) rotate(0 300.5 20)"><path d="M0.56 -0.79 C143.64 -1.46, 286.01 -0.48, 601.21 0.7 M-0.39 -0.21 C156.66 -0.58, 313.64 -0.12, 600.62 0.1 M601.42 1.19 C600.75 9.56, 600.57 19.19, 600.25 38.13 M600.05 0.73 C600.93 8.04, 601.54 15.12, 600.21 40.99 M600.97 40.41 C443.47 40, 286.87 41.14, 0.16 39.53 M601.25 39.82 C451.64 42.03, 302.1 42.43, 0.07 39.91 M1.58 41.52 C-1.35 31.62, -0.2 21.79, -0.95 -1.7 M-0.03 40.9 C-1.1 27.68, -0.62 14.3, 0.17 -0.29" stroke="#000000" stroke-width="1" fill="none"></path></g><g transform="translate(647.7109375 18) rotate(0 270.5 12)"><text x="270.5" y="20" font-family="Cascadia, Segoe UI Emoji" font-size="20px" fill="#000000" text-anchor="middle" style="white-space: pre;" direction="ltr">OS,Database,Middleware,Service,Cloud-Native...</text></g><g stroke-opacity="0.6" fill-opacity="0.6" transform="translate(610.83984375 28.80078125) rotate(0 -9.10546875 186.240234375)" stroke="none"><path fill="#000000" d="M 2.20,1.47 Q 2.20,1.47 1.49,2.54 0.78,3.60 -0.04,5.00 -0.87,6.40 -1.29,7.39 -1.70,8.38 -2.14,9.60 -2.58,10.83 -2.96,12.15 -3.34,13.46 -3.64,14.49 -3.94,15.52 -4.25,17.25 -4.55,18.98 -4.76,20.23 -4.97,21.47 -5.34,23.03 -5.71,24.59 -5.94,27.10 -6.16,29.61 -6.53,32.40 -6.90,35.20 -6.96,36.37 -7.02,37.54 -7.23,39.24 -7.44,40.94 -7.54,42.48 -7.63,44.02 -7.96,46.53 -8.29,49.05 -8.66,51.67 -9.02,54.30 -9.07,55.65 -9.11,57.00 -9.41,59.59 -9.70,62.17 -10.01,65.29 -10.32,68.41 -10.47,70.82 -10.62,73.24 -10.70,75.38 -10.78,77.52 -10.99,80.07 -11.20,82.61 -11.30,84.76 -11.39,86.92 -11.44,89.63 -11.49,92.34 -11.38,93.63 -11.28,94.92 -11.33,97.05 -11.38,99.18 -11.27,100.33 -11.17,101.49 -11.23,104.22 -11.29,106.94 -11.21,108.36 -11.12,109.77 -11.19,112.60 -11.26,115.44 -11.18,116.90 -11.11,118.36 -11.07,120.01 -11.04,121.66 -11.01,123.26 -10.97,124.86 -10.99,126.69 -11.00,128.52 -11.01,129.63 -11.01,130.75 -10.99,131.95 -10.97,133.14 -10.89,135.36 -10.81,137.57 -10.72,139.22 -10.63,140.88 -10.61,141.98 -10.58,143.09 -10.50,144.38 -10.43,145.68 -10.35,147.54 -10.27,149.39 -10.22,150.49 -10.17,151.58 -10.10,152.86 -10.03,154.14 -10.50,155.46 -10.96,156.79 -12.02,157.73 -13.08,158.66 -14.15,159.55 -15.21,160.44 -15.49,161.55 -15.76,162.67 -15.18,163.75 -14.60,164.84 -14.02,166.29 -13.45,167.74 -13.21,169.49 -12.96,171.23 -12.71,172.93 -12.46,174.63 -12.35,175.78 -12.25,176.93 -12.11,178.19 -11.98,179.44 -12.04,180.97 -12.10,182.50 -12.12,183.59 -12.14,184.68 -12.02,186.22 -11.90,187.76 -11.87,189.41 -11.84,191.07 -11.89,192.36 -11.93,193.64 -12.07,196.45 -12.21,199.26 -12.25,200.70 -12.30,202.15 -12.45,204.13 -12.60,206.12 -12.66,207.86 -12.72,209.60 -12.86,212.14 -13.01,214.68 -13.12,217.10 -13.23,219.52 -13.14,223.40 -13.06,227.29 -12.88,230.27 -12.70,233.25 -12.64,236.81 -12.58,240.37 -12.42,242.73 -12.27,245.08 -12.03,248.79 -11.79,252.49 -11.70,254.98 -11.60,257.47 -11.45,259.65 -11.30,261.83 -11.11,263.02 -10.92,264.21 -10.69,265.60 -10.47,267.00 -10.20,268.24 -9.93,269.48 -9.76,270.56 -9.58,271.63 -9.57,273.50 -9.56,275.37 -9.54,277.08 -9.53,278.79 -9.35,280.10 -9.17,281.40 -9.06,282.74 -8.94,284.08 -8.88,286.85 -8.82,289.62 -8.65,292.57 -8.49,295.52 -8.31,297.92 -8.13,300.32 -8.08,302.51 -8.02,304.70 -7.87,306.53 -7.71,308.36 -7.44,310.19 -7.17,312.03 -6.97,313.44 -6.77,314.84 -6.63,316.03 -6.49,317.21 -6.28,318.29 -6.08,319.36 -5.70,321.05 -5.33,322.74 -5.25,324.29 -5.17,325.84 -5.10,327.20 -5.02,328.56 -5.06,330.69 -5.10,332.83 -5.13,335.30 -5.16,337.77 -5.30,339.77 -5.44,341.76 -5.40,342.86 -5.37,343.96 -5.28,345.48 -5.19,347.01 -5.08,348.16 -4.97,349.31 -4.92,351.64 -4.87,353.97 -4.66,356.06 -4.46,358.14 -4.26,359.57 -4.06,360.99 -3.66,362.48 -3.27,363.96 -2.84,365.03 -2.41,366.10 -1.64,367.36 -0.88,368.61 0.02,369.03 0.92,369.44 1.39,369.61 1.86,369.78 2.26,370.08 2.65,370.39 2.92,370.81 3.19,371.23 3.32,371.71 3.44,372.19 3.41,372.69 3.37,373.19 3.18,373.65 2.99,374.11 2.66,374.48 2.33,374.86 1.90,375.11 1.47,375.36 0.98,375.46 0.49,375.56 -0.00,375.49 -0.49,375.43 -0.94,375.22 -1.39,375.00 -1.75,374.65 -2.10,374.30 -2.33,373.86 -2.55,373.41 -2.63,372.92 -2.70,372.42 -2.61,371.93 -2.52,371.44 -2.28,371.01 -2.04,370.57 -1.67,370.23 -1.30,369.89 -0.85,369.69 -0.39,369.49 0.10,369.45 0.59,369.40 1.08,369.51 1.56,369.63 1.99,369.89 2.41,370.16 2.73,370.54 3.04,370.93 3.22,371.40 3.40,371.86 3.41,372.36 3.43,372.86 3.29,373.34 3.15,373.82 2.86,374.23 2.58,374.63 2.17,374.93 1.77,375.22 1.30,375.38 0.82,375.53 0.32,375.52 -0.17,375.51 -0.17,375.51 -0.17,375.51 -2.46,374.06 -4.76,372.62 -5.65,371.31 -6.53,369.99 -7.06,368.76 -7.59,367.53 -7.79,366.27 -7.99,365.00 -8.18,363.23 -8.37,361.46 -8.47,360.14 -8.56,358.81 -9.06,356.62 -9.55,354.43 -9.95,352.12 -10.36,349.81 -10.48,348.41 -10.60,347.01 -10.51,345.48 -10.43,343.96 -10.39,342.86 -10.35,341.76 -10.50,339.77 -10.64,337.77 -10.67,335.30 -10.69,332.83 -10.73,330.70 -10.77,328.57 -10.71,327.22 -10.64,325.86 -10.55,324.03 -10.47,322.19 -10.57,321.10 -10.66,320.01 -10.79,318.75 -10.91,317.49 -10.92,316.40 -10.92,315.31 -11.06,313.72 -11.21,312.13 -11.09,310.36 -10.97,308.58 -11.07,306.72 -11.17,304.86 -11.32,302.76 -11.47,300.66 -11.78,298.24 -12.10,295.83 -12.44,292.86 -12.79,289.88 -13.10,287.09 -13.41,284.29 -13.41,283.06 -13.42,281.83 -13.53,280.33 -13.63,278.83 -13.65,277.14 -13.66,275.45 -13.72,272.76 -13.77,270.07 -13.90,268.71 -14.02,267.36 -14.09,265.88 -14.16,264.40 -14.11,263.22 -14.05,262.04 -14.23,259.81 -14.41,257.59 -14.53,255.14 -14.66,252.69 -14.94,249.01 -15.22,245.32 -15.45,242.89 -15.68,240.46 -15.82,236.98 -15.96,233.51 -16.26,230.47 -16.56,227.44 -16.81,223.48 -17.06,219.52 -17.17,217.10 -17.28,214.68 -17.42,212.14 -17.57,209.60 -17.63,207.86 -17.69,206.12 -17.84,204.14 -17.99,202.15 -18.03,200.71 -18.08,199.26 -18.22,196.46 -18.37,193.65 -18.42,191.61 -18.47,189.57 -18.51,188.24 -18.54,186.92 -18.64,185.82 -18.75,184.72 -18.78,183.65 -18.81,182.58 -18.93,180.72 -19.05,178.87 -19.23,177.25 -19.41,175.62 -19.74,173.93 -20.06,172.23 -20.24,171.03 -20.42,169.84 -20.75,168.81 -21.09,167.79 -21.53,166.39 -21.97,165.00 -22.04,163.59 -22.11,162.18 -21.85,160.86 -21.59,159.53 -21.16,158.36 -20.73,157.18 -19.96,156.21 -19.20,155.24 -17.81,154.69 -16.41,154.14 -16.35,152.86 -16.28,151.58 -16.23,150.49 -16.18,149.39 -16.10,147.54 -16.02,145.68 -15.94,144.38 -15.86,143.09 -15.83,141.98 -15.81,140.87 -15.71,139.21 -15.61,137.55 -15.49,135.28 -15.37,133.02 -15.11,130.77 -14.86,128.52 -14.87,126.69 -14.89,124.86 -14.85,123.26 -14.82,121.66 -14.78,120.01 -14.75,118.36 -14.68,116.90 -14.60,115.44 -14.67,112.60 -14.73,109.76 -14.65,108.35 -14.57,106.94 -14.63,104.21 -14.68,101.48 -14.57,100.32 -14.46,99.17 -14.50,97.03 -14.53,94.89 -14.41,93.60 -14.28,92.31 -14.26,89.57 -14.24,86.82 -14.18,84.61 -14.13,82.40 -13.98,79.93 -13.83,77.46 -13.83,75.29 -13.83,73.11 -13.78,70.63 -13.73,68.15 -13.57,65.02 -13.41,61.89 -13.32,59.29 -13.22,56.68 -13.05,55.31 -12.89,53.93 -12.75,51.33 -12.62,48.74 -12.59,46.28 -12.56,43.83 -12.53,42.15 -12.50,40.48 -12.41,38.84 -12.32,37.20 -12.22,35.93 -12.13,34.66 -11.92,32.04 -11.71,29.42 -11.72,27.68 -11.73,25.94 -11.59,24.71 -11.45,23.49 -11.23,22.01 -11.02,20.52 -10.86,19.46 -10.71,18.40 -10.32,16.11 -9.93,13.82 -9.39,11.94 -8.85,10.06 -8.37,8.87 -7.89,7.67 -7.41,6.71 -6.93,5.76 -6.26,4.57 -5.59,3.38 -4.61,2.01 -3.63,0.64 -2.92,-0.41 -2.20,-1.47 -1.99,-1.71 -1.78,-1.96 -1.52,-2.14 -1.26,-2.33 -0.97,-2.45 -0.67,-2.56 -0.35,-2.61 -0.03,-2.65 0.27,-2.62 0.59,-2.58 0.89,-2.47 1.19,-2.36 1.46,-2.19 1.73,-2.01 1.94,-1.77 2.16,-1.54 2.31,-1.25 2.46,-0.97 2.55,-0.66 2.63,-0.35 2.63,-0.03 2.64,0.28 2.56,0.59 2.49,0.90 2.35,1.19 2.20,1.47 2.20,1.47 L 2.20,1.47 Z"></path></g><g stroke-opacity="0.6" fill-opacity="0.6" transform="translate(542.3671875 162.3359375) rotate(0 16.6796875 9.599609375)" stroke="none"><path fill="#000000" d="M 1.36,-1.83 Q 1.36,-1.83 2.28,-1.21 3.19,-0.59 4.26,-0.07 5.33,0.44 7.19,1.54 9.06,2.65 11.40,3.89 13.74,5.13 15.43,5.76 17.12,6.39 18.30,6.74 19.48,7.10 21.20,7.54 22.93,7.97 24.20,8.18 25.46,8.40 26.75,8.95 28.03,9.50 29.27,10.27 30.51,11.04 31.50,11.93 32.49,12.82 33.24,13.89 33.99,14.95 34.76,15.86 35.53,16.77 35.86,17.18 36.19,17.59 36.37,18.09 36.56,18.58 36.57,19.11 36.58,19.64 36.43,20.14 36.27,20.64 35.97,21.07 35.66,21.50 35.23,21.81 34.80,22.12 34.30,22.27 33.79,22.43 33.27,22.41 32.74,22.40 32.24,22.21 31.75,22.03 31.34,21.70 30.93,21.37 30.64,20.93 30.36,20.48 30.23,19.97 30.10,19.46 30.15,18.93 30.19,18.41 30.40,17.92 30.61,17.44 30.96,17.04 31.31,16.65 31.77,16.39 32.23,16.13 32.75,16.03 33.27,15.93 33.79,16.01 34.31,16.08 34.79,16.31 35.26,16.55 35.63,16.92 36.00,17.29 36.24,17.77 36.47,18.24 36.54,18.76 36.61,19.28 36.51,19.80 36.41,20.32 36.15,20.78 35.89,21.24 35.50,21.59 35.11,21.94 34.62,22.15 34.14,22.36 33.61,22.40 33.09,22.44 32.58,22.32 32.06,22.19 31.62,21.90 31.18,21.62 31.18,21.62 31.18,21.62 29.50,19.32 27.83,17.02 27.13,16.20 26.44,15.39 25.47,14.41 24.51,13.43 23.47,13.14 22.44,12.86 21.25,12.26 20.06,11.67 19.06,11.28 18.06,10.89 16.96,10.39 15.86,9.90 13.98,9.24 12.09,8.58 9.61,7.52 7.12,6.45 5.12,5.59 3.12,4.73 1.73,3.98 0.34,3.23 -0.51,2.53 -1.36,1.83 -1.56,1.64 -1.76,1.45 -1.91,1.22 -2.06,0.98 -2.15,0.72 -2.23,0.46 -2.26,0.19 -2.28,-0.08 -2.24,-0.35 -2.19,-0.62 -2.09,-0.88 -1.98,-1.13 -1.82,-1.35 -1.65,-1.57 -1.44,-1.75 -1.22,-1.92 -0.98,-2.04 -0.73,-2.16 -0.46,-2.22 -0.19,-2.27 0.08,-2.26 0.35,-2.25 0.62,-2.18 0.88,-2.10 1.12,-1.97 1.36,-1.83 1.36,-1.83 L 1.36,-1.83 Z"></path></g><g stroke-opacity="0.6" fill-opacity="0.6" transform="translate(579.12109375 167.09375) rotate(0 -8.537109375 11.7578125)" stroke="none"><path fill="#000000" d="M 2.28,-0.70 Q 2.28,-0.70 3.04,2.23 3.80,5.17 4.37,6.84 4.94,8.50 5.46,9.51 5.98,10.51 6.57,11.43 7.15,12.34 7.69,13.76 8.23,15.18 8.14,16.57 8.05,17.96 7.42,19.53 6.79,21.11 5.96,22.06 5.13,23.02 4.16,23.59 3.19,24.16 1.96,24.50 0.73,24.84 -0.84,24.96 -2.43,25.08 -4.50,24.99 -6.58,24.90 -8.69,24.91 -10.80,24.92 -13.10,24.98 -15.41,25.04 -17.11,25.13 -18.81,25.21 -20.64,25.47 -22.48,25.72 -22.84,25.70 -23.20,25.68 -23.53,25.54 -23.86,25.40 -24.13,25.17 -24.40,24.94 -24.59,24.63 -24.77,24.32 -24.85,23.97 -24.92,23.61 -24.88,23.26 -24.84,22.90 -24.68,22.58 -24.53,22.25 -24.28,21.99 -24.03,21.73 -23.71,21.57 -23.40,21.40 -23.04,21.35 -22.69,21.29 -22.33,21.35 -21.98,21.41 -21.66,21.58 -21.35,21.75 -21.10,22.02 -20.86,22.28 -20.71,22.61 -20.56,22.93 -20.52,23.29 -20.49,23.65 -20.57,24.00 -20.65,24.35 -20.83,24.65 -21.02,24.96 -21.30,25.19 -21.57,25.42 -21.91,25.55 -22.24,25.68 -22.60,25.70 -22.96,25.72 -23.30,25.62 -23.65,25.52 -23.95,25.31 -24.24,25.11 -24.46,24.82 -24.67,24.54 -24.78,24.19 -24.90,23.85 -24.89,23.49 -24.89,23.13 -24.77,22.80 -24.66,22.46 -24.44,22.17 -24.22,21.89 -23.92,21.69 -23.62,21.49 -23.27,21.40 -22.92,21.30 -22.93,21.30 -22.93,21.30 -20.97,21.14 -19.02,20.98 -17.40,20.89 -15.78,20.81 -13.51,20.47 -11.23,20.13 -9.00,19.74 -6.78,19.36 -4.95,19.13 -3.13,18.91 -1.16,18.64 0.79,18.37 1.62,17.58 2.45,16.79 2.68,15.73 2.91,14.67 2.46,13.48 2.00,12.29 1.53,11.09 1.07,9.89 0.42,8.15 -0.23,6.41 -1.25,3.56 -2.28,0.70 -2.33,0.41 -2.38,0.13 -2.36,-0.15 -2.35,-0.43 -2.26,-0.71 -2.17,-0.98 -2.02,-1.23 -1.87,-1.48 -1.67,-1.68 -1.46,-1.88 -1.22,-2.03 -0.97,-2.18 -0.69,-2.26 -0.42,-2.35 -0.13,-2.37 0.15,-2.38 0.43,-2.33 0.72,-2.28 0.98,-2.16 1.24,-2.04 1.47,-1.86 1.69,-1.68 1.87,-1.45 2.05,-1.22 2.16,-0.96 2.28,-0.70 2.28,-0.70 L 2.28,-0.70 Z"></path></g><g stroke-linecap="round" transform="translate(10.78515625 73.40234375) rotate(0 261.900390625 21.123046875)"><path d="M0.32 -0.18 C168.39 -1.99, 337.64 -1.46, 523.44 -0.42 M0.38 0.23 C198.94 1.66, 397.77 2.25, 523.47 0.36 M525.48 -0.2 C522.06 13.82, 523.17 32.89, 525.18 40.41 M523.3 -0.04 C522.48 13.09, 522.78 24.83, 524.03 41.87 M523.8 41.94 C387.55 39.99, 250.09 40.76, -0.77 42.75 M523.94 42.41 C333.44 40.98, 142.96 40.89, -0.25 42 M0.43 41.12 C-0.36 24.35, 0.89 9.44, -0.78 -0.36 M0.26 42.61 C0.66 31.24, 0.93 19.57, -0.69 0.81" stroke="#000000" stroke-width="1" fill="none"></path></g><g transform="translate(223.55859375 84.734375) rotate(0 53.5 12)"><text x="0" y="20" font-family="Cascadia, Segoe UI Emoji" font-size="20px" fill="#000000" text-anchor="start" style="white-space: pre;" direction="ltr">HertzBeat</text></g></svg>