<svg id="SvgjsSvg1006" width="1014.9000396728516" height="572.9625244140625" xmlns="http://www.w3.org/2000/svg" version="1.1" xmlns:xlink="http://www.w3.org/1999/xlink" xmlns:svgjs="http://svgjs.com/svgjs"><defs id="SvgjsDefs1007"><marker id="SvgjsMarker1052" markerWidth="16" markerHeight="12" refX="16" refY="6" viewBox="0 0 16 12" orient="auto" markerUnits="userSpaceOnUse"><path id="SvgjsPath1053" d="M0,2 L14,6 L0,11 L0,2" fill="#323232" stroke="#323232" stroke-width="2"></path></marker><marker id="SvgjsMarker1056" markerWidth="16" markerHeight="12" refX="16" refY="6" viewBox="0 0 16 12" orient="auto" markerUnits="userSpaceOnUse"><path id="SvgjsPath1057" d="M0,2 L14,6 L0,11 L0,2" fill="#323232" stroke="#323232" stroke-width="2"></path></marker><marker id="SvgjsMarker1060" markerWidth="16" markerHeight="12" refX="16" refY="6" viewBox="0 0 16 12" orient="auto" markerUnits="userSpaceOnUse"><path id="SvgjsPath1061" d="M0,2 L14,6 L0,11 L0,2" fill="#323232" stroke="#323232" stroke-width="2"></path></marker><marker id="SvgjsMarker1064" markerWidth="16" markerHeight="12" refX="16" refY="6" viewBox="0 0 16 12" orient="auto" markerUnits="userSpaceOnUse"><path id="SvgjsPath1065" d="M0,2 L14,6 L0,11 L0,2" fill="#323232" stroke="#323232" stroke-width="2"></path></marker><marker id="SvgjsMarker1068" markerWidth="16" markerHeight="12" refX="16" refY="6" viewBox="0 0 16 12" orient="auto" markerUnits="userSpaceOnUse"><path id="SvgjsPath1069" d="M0,2 L14,6 L0,11 L0,2" fill="#323232" stroke="#323232" stroke-width="2"></path></marker><marker id="SvgjsMarker1132" markerWidth="16" markerHeight="12" refX="16" refY="6" viewBox="0 0 16 12" orient="auto" markerUnits="userSpaceOnUse"><path id="SvgjsPath1133" d="M0,2 L14,6 L0,11 L0,2" fill="#323232" stroke="#323232" stroke-width="2"></path></marker><marker id="SvgjsMarker1136" markerWidth="16" markerHeight="12" refX="16" refY="6" viewBox="0 0 16 12" orient="auto" markerUnits="userSpaceOnUse"><path id="SvgjsPath1137" d="M0,2 L14,6 L0,11 L0,2" fill="#323232" stroke="#323232" stroke-width="2"></path></marker><marker id="SvgjsMarker1140" markerWidth="16" markerHeight="12" refX="16" refY="6" viewBox="0 0 16 12" orient="auto" markerUnits="userSpaceOnUse"><path id="SvgjsPath1141" d="M0,2 L14,6 L0,11 L0,2" fill="#323232" stroke="#323232" stroke-width="2"></path></marker><marker id="SvgjsMarker1144" markerWidth="16" markerHeight="12" refX="16" refY="6" viewBox="0 0 16 12" orient="auto" markerUnits="userSpaceOnUse"><path id="SvgjsPath1145" d="M0,2 L14,6 L0,11 L0,2" fill="#323232" stroke="#323232" stroke-width="2"></path></marker><marker id="SvgjsMarker1148" markerWidth="16" markerHeight="12" refX="16" refY="6" viewBox="0 0 16 12" orient="auto" markerUnits="userSpaceOnUse"><path id="SvgjsPath1149" d="M0,2 L14,6 L0,11 L0,2" fill="#323232" stroke="#323232" stroke-width="2"></path></marker><marker id="SvgjsMarker1152" markerWidth="16" markerHeight="12" refX="16" refY="6" viewBox="0 0 16 12" orient="auto" markerUnits="userSpaceOnUse"><path id="SvgjsPath1153" d="M0,2 L14,6 L0,11 L0,2" fill="#323232" stroke="#323232" stroke-width="2"></path></marker><marker id="SvgjsMarker1156" markerWidth="16" markerHeight="12" refX="16" refY="6" viewBox="0 0 16 12" orient="auto" markerUnits="userSpaceOnUse"><path id="SvgjsPath1157" d="M0,2 L14,6 L0,11 L0,2" fill="#323232" stroke="#323232" stroke-width="2"></path></marker><marker id="SvgjsMarker1160" markerWidth="16" markerHeight="12" refX="16" refY="6" viewBox="0 0 16 12" orient="auto" markerUnits="userSpaceOnUse"><path id="SvgjsPath1161" d="M0,2 L14,6 L0,11 L0,2" fill="#323232" stroke="#323232" stroke-width="2"></path></marker><marker id="SvgjsMarker1218" markerWidth="16" markerHeight="12" refX="16" refY="6" viewBox="0 0 16 12" orient="auto" markerUnits="userSpaceOnUse"><path id="SvgjsPath1219" d="M0,2 L14,6 L0,11 L0,2" fill="#323232" stroke="#323232" stroke-width="2"></path></marker><marker id="SvgjsMarker1222" markerWidth="16" markerHeight="12" refX="16" refY="6" viewBox="0 0 16 12" orient="auto" markerUnits="userSpaceOnUse"><path id="SvgjsPath1223" d="M0,2 L14,6 L0,11 L0,2" fill="#323232" stroke="#323232" stroke-width="2"></path></marker><marker id="SvgjsMarker1226" markerWidth="16" markerHeight="12" refX="16" refY="6" viewBox="0 0 16 12" orient="auto" markerUnits="userSpaceOnUse"><path id="SvgjsPath1227" d="M0,2 L14,6 L0,11 L0,2" fill="#323232" stroke="#323232" stroke-width="2"></path></marker><marker id="SvgjsMarker1230" markerWidth="16" markerHeight="12" refX="16" refY="6" viewBox="0 0 16 12" orient="auto" markerUnits="userSpaceOnUse"><path id="SvgjsPath1231" d="M0,2 L14,6 L0,11 L0,2" fill="#323232" stroke="#323232" stroke-width="2"></path></marker><marker id="SvgjsMarker1234" markerWidth="16" markerHeight="12" refX="16" refY="6" viewBox="0 0 16 12" orient="auto" markerUnits="userSpaceOnUse"><path id="SvgjsPath1235" d="M0,2 L14,6 L0,11 L0,2" fill="#323232" stroke="#323232" stroke-width="2"></path></marker><marker id="SvgjsMarker1238" markerWidth="16" markerHeight="12" refX="16" refY="6" viewBox="0 0 16 12" orient="auto" markerUnits="userSpaceOnUse"><path id="SvgjsPath1239" d="M0,2 L14,6 L0,11 L0,2" fill="#323232" stroke="#323232" stroke-width="2"></path></marker><marker id="SvgjsMarker1242" markerWidth="16" markerHeight="12" refX="16" refY="6" viewBox="0 0 16 12" orient="auto" markerUnits="userSpaceOnUse"><path id="SvgjsPath1243" d="M0,2 L14,6 L0,11 L0,2" fill="#323232" stroke="#323232" stroke-width="2"></path></marker><marker id="SvgjsMarker1246" markerWidth="16" markerHeight="12" refX="16" refY="6" viewBox="0 0 16 12" orient="auto" markerUnits="userSpaceOnUse"><path id="SvgjsPath1247" d="M0,2 L14,6 L0,11 L0,2" fill="#323232" stroke="#323232" stroke-width="2"></path></marker><marker id="SvgjsMarker1250" markerWidth="16" markerHeight="12" refX="16" refY="6" viewBox="0 0 16 12" orient="auto" markerUnits="userSpaceOnUse"><path id="SvgjsPath1251" d="M0,2 L14,6 L0,11 L0,2" fill="#323232" stroke="#323232" stroke-width="2"></path></marker><marker id="SvgjsMarker1254" markerWidth="16" markerHeight="12" refX="16" refY="6" viewBox="0 0 16 12" orient="auto" markerUnits="userSpaceOnUse"><path id="SvgjsPath1255" d="M0,2 L14,6 L0,11 L0,2" fill="#323232" stroke="#323232" stroke-width="2"></path></marker><marker id="SvgjsMarker1258" markerWidth="16" markerHeight="12" refX="16" refY="6" viewBox="0 0 16 12" orient="auto" markerUnits="userSpaceOnUse"><path id="SvgjsPath1259" d="M0,2 L14,6 L0,11 L0,2" fill="#323232" stroke="#323232" stroke-width="2"></path></marker><marker id="SvgjsMarker1262" markerWidth="16" markerHeight="12" refX="16" refY="6" viewBox="0 0 16 12" orient="auto" markerUnits="userSpaceOnUse"><path id="SvgjsPath1263" d="M0,2 L14,6 L0,11 L0,2" fill="#323232" stroke="#323232" stroke-width="2"></path></marker><marker id="SvgjsMarker1292" markerWidth="16" markerHeight="12" refX="16" refY="6" viewBox="0 0 16 12" orient="auto" markerUnits="userSpaceOnUse"><path id="SvgjsPath1293" d="M0,2 L14,6 L0,11 L0,2" fill="#323232" stroke="#323232" stroke-width="2"></path></marker></defs><g id="SvgjsG1008" transform="translate(313.6797260907087,25.004168192545535)"><path id="SvgjsPath1009" d="M 12.734082397003746 0L 67.7849920245097 0C 84.76376855384804 0 84.76376855384804 38.20224719101124 67.7849920245097 38.20224719101124L 12.734082397003746 38.20224719101124C -4.244694132334582 38.20224719101124 -4.244694132334582 0 12.734082397003746 0Z" stroke="#323232" stroke-width="2" fill-opacity="1" fill="#ffffff"></path><g id="SvgjsG1010"><text id="SvgjsText1011" font-family="微软雅黑" text-anchor="middle" font-size="13px" width="28" fill="#323232" font-weight="700" align="middle" anchor="middle" family="微软雅黑" size="13px" weight="700" font-style="" y="9.15112359550562" transform="rotate(0)"><tspan id="SvgjsTspan1012" dy="16" x="40.5"><tspan id="SvgjsTspan1013" style="text-decoration:;">root</tspan></tspan></text></g></g><g id="SvgjsG1014" transform="translate(187.26477924893237,110.57720190041096)"><path id="SvgjsPath1015" d="M 12.734082397003746 0L 67.7849920245097 0C 84.76376855384804 0 84.76376855384804 38.20224719101124 67.7849920245097 38.20224719101124L 12.734082397003746 38.20224719101124C -4.244694132334582 38.20224719101124 -4.244694132334582 0 12.734082397003746 0Z" stroke="#323232" stroke-width="2" fill-opacity="1" fill="#ffffff"></path><g id="SvgjsG1016"><text id="SvgjsText1017" font-family="微软雅黑" text-anchor="middle" font-size="13px" width="25" fill="#323232" font-weight="700" align="middle" anchor="middle" family="微软雅黑" size="13px" weight="700" font-style="" y="9.15112359550562" transform="rotate(0)"><tspan id="SvgjsTspan1018" dy="16" x="40.5"><tspan id="SvgjsTspan1019" style="text-decoration:;">rest</tspan></tspan></text></g></g><g id="SvgjsG1020" transform="translate(412.6775372226664,110.57720190041096)"><path id="SvgjsPath1021" d="M 12.734082397003746 0L 67.7849920245097 0C 84.76376855384804 0 84.76376855384804 38.20224719101124 67.7849920245097 38.20224719101124L 12.734082397003746 38.20224719101124C -4.244694132334582 38.20224719101124 -4.244694132334582 0 12.734082397003746 0Z" stroke="#323232" stroke-width="2" fill-opacity="1" fill="#ffffff"></path><g id="SvgjsG1022"><text id="SvgjsText1023" font-family="微软雅黑" text-anchor="middle" font-size="13px" width="20" fill="#323232" font-weight="700" align="middle" anchor="middle" family="微软雅黑" size="13px" weight="700" font-style="" y="9.15112359550562" transform="rotate(0)"><tspan id="SvgjsTspan1024" dy="16" x="40.5"><tspan id="SvgjsTspan1025" style="text-decoration:;">api</tspan></tspan></text></g></g><g id="SvgjsG1026" transform="translate(344.6685059704946,190.80192100153454)"><path id="SvgjsPath1027" d="M 12.734082397003746 0L 67.7849920245097 0C 84.76376855384804 0 84.76376855384804 38.20224719101124 67.7849920245097 38.20224719101124L 12.734082397003746 38.20224719101124C -4.244694132334582 38.20224719101124 -4.244694132334582 0 12.734082397003746 0Z" stroke="#323232" stroke-width="2" fill-opacity="1" fill="#ffffff"></path><g id="SvgjsG1028"><text id="SvgjsText1029" font-family="微软雅黑" text-anchor="middle" font-size="13px" width="38" fill="#323232" font-weight="700" align="middle" anchor="middle" family="微软雅黑" size="13px" weight="700" font-style="" y="9.15112359550562" transform="rotate(0)"><tspan id="SvgjsTspan1030" dy="16" x="40.5"><tspan id="SvgjsTspan1031" style="text-decoration:;">home</tspan></tspan></text></g></g><g id="SvgjsG1032" transform="translate(216.25164604067723,190.80192100153454)"><path id="SvgjsPath1033" d="M 12.734082397003746 0L 67.7849920245097 0C 84.76376855384804 0 84.76376855384804 38.20224719101124 67.7849920245097 38.20224719101124L 12.734082397003746 38.20224719101124C -4.244694132334582 38.20224719101124 -4.244694132334582 0 12.734082397003746 0Z" stroke="#323232" stroke-width="2" fill-opacity="1" fill="#ffffff"></path><g id="SvgjsG1034"><text id="SvgjsText1035" font-family="微软雅黑" text-anchor="middle" font-size="13px" width="16" fill="#323232" font-weight="700" align="middle" anchor="middle" family="微软雅黑" size="13px" weight="700" font-style="" y="9.15112359550562" transform="rotate(0)"><tspan id="SvgjsTspan1036" dy="16" x="40.5"><tspan id="SvgjsTspan1037" style="text-decoration:;">v2</tspan></tspan></text></g></g><g id="SvgjsG1038" transform="translate(100.30417887369796,190.80192100153454)"><path id="SvgjsPath1039" d="M 12.734082397003746 0L 67.7849920245097 0C 84.76376855384804 0 84.76376855384804 38.20224719101124 67.7849920245097 38.20224719101124L 12.734082397003746 38.20224719101124C -4.244694132334582 38.20224719101124 -4.244694132334582 0 12.734082397003746 0Z" stroke="#323232" stroke-width="2" fill-opacity="1" fill="#ffffff"></path><g id="SvgjsG1040"><text id="SvgjsText1041" font-family="微软雅黑" text-anchor="middle" font-size="13px" width="16" fill="#323232" font-weight="700" align="middle" anchor="middle" family="微软雅黑" size="13px" weight="700" font-style="" y="9.15112359550562" transform="rotate(0)"><tspan id="SvgjsTspan1042" dy="16" x="40.5"><tspan id="SvgjsTspan1043" style="text-decoration:;">v1</tspan></tspan></text></g></g><g id="SvgjsG1044" transform="translate(448.9517711188513,190.80192100153454)"><path id="SvgjsPath1045" d="M 12.734082397003746 0L 67.7849920245097 0C 84.76376855384804 0 84.76376855384804 38.20224719101124 67.7849920245097 38.20224719101124L 12.734082397003746 38.20224719101124C -4.244694132334582 38.20224719101124 -4.244694132334582 0 12.734082397003746 0Z" stroke="#323232" stroke-width="2" fill-opacity="1" fill="#ffffff"></path><g id="SvgjsG1046"><text id="SvgjsText1047" font-family="微软雅黑" text-anchor="middle" font-size="13px" width="16" fill="#323232" font-weight="700" align="middle" anchor="middle" family="微软雅黑" size="13px" weight="700" font-style="" y="9.15112359550562" transform="rotate(0)"><tspan id="SvgjsTspan1048" dy="16" x="40.5"><tspan id="SvgjsTspan1049" style="text-decoration:;">v2</tspan></tspan></text></g></g><g id="SvgjsG1050"><path id="SvgjsPath1051" d="M353.9392633014654 63.20641538355687L227.5243164596891 110.57720190041096" stroke="#323232" stroke-width="2" fill="none" marker-end="url(#SvgjsMarker1052)"></path></g><g id="SvgjsG1054"><path id="SvgjsPath1055" d="M353.9392633014654 63.20641538355687L452.93707443342316 110.57720190041096" stroke="#323232" stroke-width="2" fill="none" marker-end="url(#SvgjsMarker1056)"></path></g><g id="SvgjsG1058"><path id="SvgjsPath1059" d="M227.5243164596891 148.77944909142218L140.56371608445465 190.80192100153454" stroke="#323232" stroke-width="2" fill="none" marker-end="url(#SvgjsMarker1060)"></path></g><g id="SvgjsG1062"><path id="SvgjsPath1063" d="M227.5243164596891 148.77944909142218L256.511183251434 190.80192100153454" stroke="#323232" stroke-width="2" fill="none" marker-end="url(#SvgjsMarker1064)"></path></g><g id="SvgjsG1066"><path id="SvgjsPath1067" d="M452.93707443342316 148.77944909142218L384.9280431812513 190.80192100153454" stroke="#323232" stroke-width="2" fill="none" marker-end="url(#SvgjsMarker1068)"></path></g><g id="SvgjsG1070" transform="translate(142.0091507311087,271.6352543348677)"><path id="SvgjsPath1071" d="M 12.734082397003746 0L 67.7849920245097 0C 84.76376855384804 0 84.76376855384804 38.20224719101124 67.7849920245097 38.20224719101124L 12.734082397003746 38.20224719101124C -4.244694132334582 38.20224719101124 -4.244694132334582 0 12.734082397003746 0Z" stroke="#323232" stroke-width="2" fill-opacity="1" fill="#ffffff"></path><g id="SvgjsG1072"><text id="SvgjsText1073" font-family="微软雅黑" text-anchor="middle" font-size="13px" width="34" fill="#323232" font-weight="700" align="middle" anchor="middle" family="微软雅黑" size="13px" weight="700" font-style="" y="9.15112359550562" transform="rotate(0)"><tspan id="SvgjsTspan1074" dy="16" x="40.5"><tspan id="SvgjsTspan1075" style="text-decoration:;">book</tspan></tspan></text></g></g><g id="SvgjsG1076" transform="translate(264.14943154898117,272.47630371758373)"><path id="SvgjsPath1077" d="M 12.734082397003746 0L 67.7849920245097 0C 84.76376855384804 0 84.76376855384804 38.20224719101124 67.7849920245097 38.20224719101124L 12.734082397003746 38.20224719101124C -4.244694132334582 38.20224719101124 -4.244694132334582 0 12.734082397003746 0Z" stroke="#323232" stroke-width="2" fill-opacity="1" fill="#ffffff"></path><g id="SvgjsG1078"><text id="SvgjsText1079" font-family="微软雅黑" text-anchor="middle" font-size="13px" width="50" fill="#323232" font-weight="700" align="middle" anchor="middle" family="微软雅黑" size="13px" weight="700" font-style="" y="9.15112359550562" transform="rotate(0)"><tspan id="SvgjsTspan1080" dy="16" x="40.5"><tspan id="SvgjsTspan1081" style="text-decoration:;">student</tspan></tspan></text></g></g><g id="SvgjsG1082" transform="translate(370.8343279251877,272.47630371758373)"><path id="SvgjsPath1083" d="M 12.734082397003746 0L 67.7849920245097 0C 84.76376855384804 0 84.76376855384804 38.20224719101124 67.7849920245097 38.20224719101124L 12.734082397003746 38.20224719101124C -4.244694132334582 38.20224719101124 -4.244694132334582 0 12.734082397003746 0Z" stroke="#323232" stroke-width="2" fill-opacity="1" fill="#ffffff"></path><g id="SvgjsG1084"><text id="SvgjsText1085" font-family="微软雅黑" text-anchor="middle" font-size="13px" width="22" fill="#323232" font-weight="700" align="middle" anchor="middle" family="微软雅黑" size="13px" weight="700" font-style="" y="9.15112359550562" transform="rotate(0)"><tspan id="SvgjsTspan1086" dy="16" x="40.5"><tspan id="SvgjsTspan1087" style="text-decoration:;">get</tspan></tspan></text></g></g><g id="SvgjsG1088" transform="translate(25.000994591855033,271.9130321126454)"><path id="SvgjsPath1089" d="M 12.734082397003746 0L 67.7849920245097 0C 84.76376855384804 0 84.76376855384804 38.20224719101124 67.7849920245097 38.20224719101124L 12.734082397003746 38.20224719101124C -4.244694132334582 38.20224719101124 -4.244694132334582 0 12.734082397003746 0Z" stroke="#323232" stroke-width="2" fill-opacity="1" fill="#ffffff"></path><g id="SvgjsG1090"><text id="SvgjsText1091" font-family="微软雅黑" text-anchor="middle" font-size="13px" width="6" fill="#323232" font-weight="700" align="middle" anchor="middle" family="微软雅黑" size="13px" weight="700" font-style="" y="9.15112359550562" transform="rotate(0)"><tspan id="SvgjsTspan1092" dy="16" x="40.5"><tspan id="SvgjsTspan1093" style="text-decoration:;">*</tspan></tspan></text></g></g><g id="SvgjsG1094" transform="translate(480.83432792518806,271.9130321126454)"><path id="SvgjsPath1095" d="M 12.734082397003746 0L 67.7849920245097 0C 84.76376855384804 0 84.76376855384804 38.20224719101124 67.7849920245097 38.20224719101124L 12.734082397003746 38.20224719101124C -4.244694132334582 38.20224719101124 -4.244694132334582 0 12.734082397003746 0Z" stroke="#323232" stroke-width="2" fill-opacity="1" fill="#ffffff"></path><g id="SvgjsG1096"><text id="SvgjsText1097" font-family="微软雅黑" text-anchor="middle" font-size="13px" width="13" fill="#323232" font-weight="700" align="middle" anchor="middle" family="微软雅黑" size="13px" weight="700" font-style="" y="9.15112359550562" transform="rotate(0)"><tspan id="SvgjsTspan1098" dy="16" x="40.5"><tspan id="SvgjsTspan1099" style="text-decoration:;">**</tspan></tspan></text></g></g><g id="SvgjsG1100" transform="translate(143.31609821564757,352.74636544597865)"><path id="SvgjsPath1101" d="M 12.734082397003746 0L 67.7849920245097 0C 84.76376855384804 0 84.76376855384804 38.20224719101124 67.7849920245097 38.20224719101124L 12.734082397003746 38.20224719101124C -4.244694132334582 38.20224719101124 -4.244694132334582 0 12.734082397003746 0Z" stroke="#323232" stroke-width="2" fill-opacity="1" fill="#ffffff"></path><g id="SvgjsG1102"><text id="SvgjsText1103" font-family="微软雅黑" text-anchor="middle" font-size="13px" width="22" fill="#323232" font-weight="700" align="middle" anchor="middle" family="微软雅黑" size="13px" weight="700" font-style="" y="9.15112359550562" transform="rotate(0)"><tspan id="SvgjsTspan1104" dy="16" x="40.5"><tspan id="SvgjsTspan1105" style="text-decoration:;">get</tspan></tspan></text></g></g><g id="SvgjsG1106" transform="translate(264.14943154898117,352.74636544597865)"><path id="SvgjsPath1107" d="M 12.734082397003746 0L 67.7849920245097 0C 84.76376855384804 0 84.76376855384804 38.20224719101124 67.7849920245097 38.20224719101124L 12.734082397003746 38.20224719101124C -4.244694132334582 38.20224719101124 -4.244694132334582 0 12.734082397003746 0Z" stroke="#323232" stroke-width="2" fill-opacity="1" fill="#ffffff"></path><g id="SvgjsG1108"><text id="SvgjsText1109" font-family="微软雅黑" text-anchor="middle" font-size="13px" width="30" fill="#323232" font-weight="700" align="middle" anchor="middle" family="微软雅黑" size="13px" weight="700" font-style="" y="9.15112359550562" transform="rotate(0)"><tspan id="SvgjsTspan1110" dy="16" x="40.5"><tspan id="SvgjsTspan1111" style="text-decoration:;">post</tspan></tspan></text></g></g><g id="SvgjsG1112" transform="translate(442.7970237941341,352.74636544597865)"><path id="SvgjsPath1113" d="M 12.734082397003746 0L 67.7849920245097 0C 84.76376855384804 0 84.76376855384804 38.20224719101124 67.7849920245097 38.20224719101124L 12.734082397003746 38.20224719101124C -4.244694132334582 38.20224719101124 -4.244694132334582 0 12.734082397003746 0Z" stroke="#323232" stroke-width="2" fill-opacity="1" fill="#ffffff"></path><g id="SvgjsG1114"><text id="SvgjsText1115" font-family="微软雅黑" text-anchor="middle" font-size="13px" width="32" fill="#323232" font-weight="700" align="middle" anchor="middle" family="微软雅黑" size="13px" weight="700" font-style="" y="9.15112359550562" transform="rotate(0)"><tspan id="SvgjsTspan1116" dy="16" x="40.5"><tspan id="SvgjsTspan1117" style="text-decoration:;">chair</tspan></tspan></text></g></g><g id="SvgjsG1118" transform="translate(26.307942076393857,352.74636544597865)"><path id="SvgjsPath1119" d="M 12.734082397003746 0L 67.7849920245097 0C 84.76376855384804 0 84.76376855384804 38.20224719101124 67.7849920245097 38.20224719101124L 12.734082397003746 38.20224719101124C -4.244694132334582 38.20224719101124 -4.244694132334582 0 12.734082397003746 0Z" stroke="#323232" stroke-width="2" fill-opacity="1" fill="#ffffff"></path><g id="SvgjsG1120"><text id="SvgjsText1121" font-family="微软雅黑" text-anchor="middle" font-size="13px" width="22" fill="#323232" font-weight="700" align="middle" anchor="middle" family="微软雅黑" size="13px" weight="700" font-style="" y="9.15112359550562" transform="rotate(0)"><tspan id="SvgjsTspan1122" dy="16" x="40.5"><tspan id="SvgjsTspan1123" style="text-decoration:;">get</tspan></tspan></text></g></g><g id="SvgjsG1124" transform="translate(553.7350992405934,354.9763037175836)"><path id="SvgjsPath1125" d="M 12.734082397003746 0L 67.7849920245097 0C 84.76376855384804 0 84.76376855384804 38.20224719101124 67.7849920245097 38.20224719101124L 12.734082397003746 38.20224719101124C -4.244694132334582 38.20224719101124 -4.244694132334582 0 12.734082397003746 0Z" stroke="#323232" stroke-width="2" fill-opacity="1" fill="#ffffff"></path><g id="SvgjsG1126"><text id="SvgjsText1127" font-family="微软雅黑" text-anchor="middle" font-size="13px" width="34" fill="#323232" font-weight="700" align="middle" anchor="middle" family="微软雅黑" size="13px" weight="700" font-style="" y="9.15112359550562" transform="rotate(0)"><tspan id="SvgjsTspan1128" dy="16" x="40.5"><tspan id="SvgjsTspan1129" style="text-decoration:;">book</tspan></tspan></text></g></g><g id="SvgjsG1130"><path id="SvgjsPath1131" d="M452.9370744334231 148.77944909142218L489.211308329608 190.80192100153454" stroke="#323232" stroke-width="2" fill="none" marker-end="url(#SvgjsMarker1132)"></path></g><g id="SvgjsG1134"><path id="SvgjsPath1135" d="M140.56371608445468 229.00416819254576L65.26053180261177 271.9130321126454" stroke="#323232" stroke-width="2" fill="none" marker-end="url(#SvgjsMarker1136)"></path></g><g id="SvgjsG1138"><path id="SvgjsPath1139" d="M140.56371608445468 229.00416819254576L182.2686879418654 271.6352543348677" stroke="#323232" stroke-width="2" fill="none" marker-end="url(#SvgjsMarker1140)"></path></g><g id="SvgjsG1142"><path id="SvgjsPath1143" d="M256.511183251434 229.00416819254576L304.4089687597379 272.47630371758373" stroke="#323232" stroke-width="2" fill="none" marker-end="url(#SvgjsMarker1144)"></path></g><g id="SvgjsG1146"><path id="SvgjsPath1147" d="M384.9280431812513 229.00416819254576L411.09386513594444 272.47630371758373" stroke="#323232" stroke-width="2" fill="none" marker-end="url(#SvgjsMarker1148)"></path></g><g id="SvgjsG1150"><path id="SvgjsPath1151" d="M489.211308329608 229.00416819254576L521.0938651359447 272.47630371758373" stroke="#323232" stroke-width="2" fill="none" marker-end="url(#SvgjsMarker1152)"></path></g><g id="SvgjsG1154"><path id="SvgjsPath1155" d="M521.0938651359447 310.67855090859496L483.0565610048908 352.74636544597865" stroke="#323232" stroke-width="2" fill="none" marker-end="url(#SvgjsMarker1156)"></path></g><g id="SvgjsG1158"><path id="SvgjsPath1159" d="M521.0938651359447 310.67855090859496L593.9946364513502 354.9763037175836" stroke="#323232" stroke-width="2" fill="none" marker-end="url(#SvgjsMarker1160)"></path></g><g id="SvgjsG1162" transform="translate(143.31609821564757,429.4130321126454)"><path id="SvgjsPath1163" d="M 12.734082397003746 0L 67.7849920245097 0C 84.76376855384804 0 84.76376855384804 38.20224719101124 67.7849920245097 38.20224719101124L 12.734082397003746 38.20224719101124C -4.244694132334582 38.20224719101124 -4.244694132334582 0 12.734082397003746 0Z" stroke="#323232" stroke-width="2" fill-opacity="1" fill="#ffffff"></path><g id="SvgjsG1164"><text id="SvgjsText1165" font-family="微软雅黑" text-anchor="middle" font-size="13px" width="44" fill="#323232" font-weight="700" align="middle" anchor="middle" family="微软雅黑" size="13px" weight="700" font-style="" y="9.15112359550562" transform="rotate(0)"><tspan id="SvgjsTspan1166" dy="16" x="40.5"><tspan id="SvgjsTspan1167" style="text-decoration:;">[role2]</tspan></tspan></text></g></g><g id="SvgjsG1168" transform="translate(264.14943154898117,429.4130321126454)"><path id="SvgjsPath1169" d="M 12.734082397003746 0L 67.7849920245097 0C 84.76376855384804 0 84.76376855384804 38.20224719101124 67.7849920245097 38.20224719101124L 12.734082397003746 38.20224719101124C -4.244694132334582 38.20224719101124 -4.244694132334582 0 12.734082397003746 0Z" stroke="#323232" stroke-width="2" fill-opacity="1" fill="#ffffff"></path><g id="SvgjsG1170"><text id="SvgjsText1171" font-family="微软雅黑" text-anchor="middle" font-size="13px" width="44" fill="#323232" font-weight="700" align="middle" anchor="middle" family="微软雅黑" size="13px" weight="700" font-style="" y="9.15112359550562" transform="rotate(0)"><tspan id="SvgjsTspan1172" dy="16" x="40.5"><tspan id="SvgjsTspan1173" style="text-decoration:;">[role1]</tspan></tspan></text></g></g><g id="SvgjsG1174" transform="translate(26.307942076393857,429.4130321126454)"><path id="SvgjsPath1175" d="M 12.734082397003746 0L 67.7849920245097 0C 84.76376855384804 0 84.76376855384804 38.20224719101124 67.7849920245097 38.20224719101124L 12.734082397003746 38.20224719101124C -4.244694132334582 38.20224719101124 -4.244694132334582 0 12.734082397003746 0Z" stroke="#323232" stroke-width="2" fill-opacity="1" fill="#ffffff"></path><g id="SvgjsG1176"><text id="SvgjsText1177" font-family="微软雅黑" text-anchor="middle" font-size="13px" width="44" fill="#323232" font-weight="700" align="middle" anchor="middle" family="微软雅黑" size="13px" weight="700" font-style="" y="9.15112359550562" transform="rotate(0)"><tspan id="SvgjsTspan1178" dy="16" x="40.5"><tspan id="SvgjsTspan1179" style="text-decoration:;">[role1]</tspan></tspan></text></g></g><g id="SvgjsG1180" transform="translate(519.9827648823141,429.4130321126454)"><path id="SvgjsPath1181" d="M 12.734082397003746 0L 67.7849920245097 0C 84.76376855384804 0 84.76376855384804 38.20224719101124 67.7849920245097 38.20224719101124L 12.734082397003746 38.20224719101124C -4.244694132334582 38.20224719101124 -4.244694132334582 0 12.734082397003746 0Z" stroke="#323232" stroke-width="2" fill-opacity="1" fill="#ffffff"></path><g id="SvgjsG1182"><text id="SvgjsText1183" font-family="微软雅黑" text-anchor="middle" font-size="13px" width="22" fill="#323232" font-weight="700" align="middle" anchor="middle" family="微软雅黑" size="13px" weight="700" font-style="" y="9.15112359550562" transform="rotate(0)"><tspan id="SvgjsTspan1184" dy="16" x="40.5"><tspan id="SvgjsTspan1185" style="text-decoration:;">get</tspan></tspan></text></g></g><g id="SvgjsG1186" transform="translate(640.8160982156476,429.4130321126454)"><path id="SvgjsPath1187" d="M 12.734082397003746 0L 67.7849920245097 0C 84.76376855384804 0 84.76376855384804 38.20224719101124 67.7849920245097 38.20224719101124L 12.734082397003746 38.20224719101124C -4.244694132334582 38.20224719101124 -4.244694132334582 0 12.734082397003746 0Z" stroke="#323232" stroke-width="2" fill-opacity="1" fill="#ffffff"></path><g id="SvgjsG1188"><text id="SvgjsText1189" font-family="微软雅黑" text-anchor="middle" font-size="13px" width="22" fill="#323232" font-weight="700" align="middle" anchor="middle" family="微软雅黑" size="13px" weight="700" font-style="" y="9.15112359550562" transform="rotate(0)"><tspan id="SvgjsTspan1190" dy="16" x="40.5"><tspan id="SvgjsTspan1191" style="text-decoration:;">put</tspan></tspan></text></g></g><g id="SvgjsG1192" transform="translate(402.97460874306046,429.4130321126453)"><path id="SvgjsPath1193" d="M 12.734082397003746 0L 67.7849920245097 0C 84.76376855384804 0 84.76376855384804 38.20224719101124 67.7849920245097 38.20224719101124L 12.734082397003746 38.20224719101124C -4.244694132334582 38.20224719101124 -4.244694132334582 0 12.734082397003746 0Z" stroke="#323232" stroke-width="2" fill-opacity="1" fill="#ffffff"></path><g id="SvgjsG1194"><text id="SvgjsText1195" font-family="微软雅黑" text-anchor="middle" font-size="13px" width="41" fill="#323232" font-weight="700" align="middle" anchor="middle" family="微软雅黑" size="13px" weight="700" font-style="" y="9.15112359550562" transform="rotate(0)"><tspan id="SvgjsTspan1196" dy="16" x="40.5"><tspan id="SvgjsTspan1197" style="text-decoration:;">delete</tspan></tspan></text></g></g><g id="SvgjsG1198" transform="translate(509.581595097379,509.96858766820105)"><path id="SvgjsPath1199" d="M 12.73408239700378 0L 88.58733159437996 0C 105.56610812371832 0 105.56610812371832 38.20224719101134 88.58733159437996 38.20224719101134L 12.73408239700378 38.20224719101134C -4.244694132334593 38.20224719101134 -4.244694132334593 0 12.73408239700378 0Z" stroke="#323232" stroke-width="2" fill-opacity="1" fill="#ffffff"></path><g id="SvgjsG1200"><text id="SvgjsText1201" font-family="微软雅黑" text-anchor="middle" font-size="13px" width="81" fill="#323232" font-weight="700" align="middle" anchor="middle" family="微软雅黑" size="13px" weight="700" font-style="" y="9.15112359550567" transform="rotate(0)"><tspan id="SvgjsTspan1202" dy="16" x="51"><tspan id="SvgjsTspan1203" style="text-decoration:;">[role2,role4]</tspan></tspan></text></g></g><g id="SvgjsG1204" transform="translate(644.1494315489809,509.96858766820105)"><path id="SvgjsPath1205" d="M 12.734082397003746 0L 67.7849920245097 0C 84.76376855384804 0 84.76376855384804 38.20224719101124 67.7849920245097 38.20224719101124L 12.734082397003746 38.20224719101124C -4.244694132334582 38.20224719101124 -4.244694132334582 0 12.734082397003746 0Z" stroke="#323232" stroke-width="2" fill-opacity="1" fill="#ffffff"></path><g id="SvgjsG1206"><text id="SvgjsText1207" font-family="微软雅黑" text-anchor="middle" font-size="13px" width="44" fill="#323232" font-weight="700" align="middle" anchor="middle" family="微软雅黑" size="13px" weight="700" font-style="" y="9.15112359550562" transform="rotate(0)"><tspan id="SvgjsTspan1208" dy="16" x="40.5"><tspan id="SvgjsTspan1209" style="text-decoration:;">[role4]</tspan></tspan></text></g></g><g id="SvgjsG1210" transform="translate(406.30794207639383,509.96858766820105)"><path id="SvgjsPath1211" d="M 12.734082397003746 0L 67.7849920245097 0C 84.76376855384804 0 84.76376855384804 38.20224719101124 67.7849920245097 38.20224719101124L 12.734082397003746 38.20224719101124C -4.244694132334582 38.20224719101124 -4.244694132334582 0 12.734082397003746 0Z" stroke="#323232" stroke-width="2" fill-opacity="1" fill="#ffffff"></path><g id="SvgjsG1212"><text id="SvgjsText1213" font-family="微软雅黑" text-anchor="middle" font-size="13px" width="44" fill="#323232" font-weight="700" align="middle" anchor="middle" family="微软雅黑" size="13px" weight="700" font-style="" y="9.15112359550562" transform="rotate(0)"><tspan id="SvgjsTspan1214" dy="16" x="40.5"><tspan id="SvgjsTspan1215" style="text-decoration:;">[role4]</tspan></tspan></text></g></g><g id="SvgjsG1216"><path id="SvgjsPath1217" d="M65.26053180261177 310.1152793036566L66.56747928715058 352.74636544597865" stroke="#323232" stroke-width="2" fill="none" marker-end="url(#SvgjsMarker1218)"></path></g><g id="SvgjsG1220"><path id="SvgjsPath1221" d="M182.2686879418654 309.8375015258789L183.5756354264043 352.74636544597865" stroke="#323232" stroke-width="2" fill="none" marker-end="url(#SvgjsMarker1222)"></path></g><g id="SvgjsG1224"><path id="SvgjsPath1225" d="M304.4089687597379 310.67855090859496L304.4089687597379 352.74636544597865" stroke="#323232" stroke-width="2" fill="none" marker-end="url(#SvgjsMarker1226)"></path></g><g id="SvgjsG1228"><path id="SvgjsPath1229" d="M66.56747928715058 390.9486126369899L66.56747928715058 429.4130321126454" stroke="#323232" stroke-width="2" fill="none" marker-end="url(#SvgjsMarker1230)"></path></g><g id="SvgjsG1232"><path id="SvgjsPath1233" d="M183.5756354264043 390.9486126369899L183.5756354264043 429.4130321126454" stroke="#323232" stroke-width="2" fill="none" marker-end="url(#SvgjsMarker1234)"></path></g><g id="SvgjsG1236"><path id="SvgjsPath1237" d="M304.4089687597379 390.9486126369899L304.40896875973795 429.4130321126454" stroke="#323232" stroke-width="2" fill="none" marker-end="url(#SvgjsMarker1238)"></path></g><g id="SvgjsG1240"><path id="SvgjsPath1241" d="M483.0565610048908 390.9486126369899L443.2341459538172 429.4130321126453" stroke="#323232" stroke-width="2" fill="none" marker-end="url(#SvgjsMarker1242)"></path></g><g id="SvgjsG1244"><path id="SvgjsPath1245" d="M593.9946364513502 393.17855090859484L560.2423020930709 429.4130321126454" stroke="#323232" stroke-width="2" fill="none" marker-end="url(#SvgjsMarker1246)"></path></g><g id="SvgjsG1248"><path id="SvgjsPath1249" d="M593.9946364513502 393.17855090859484L681.0756354264043 429.4130321126454" stroke="#323232" stroke-width="2" fill="none" marker-end="url(#SvgjsMarker1250)"></path></g><g id="SvgjsG1252"><path id="SvgjsPath1253" d="M443.2341459538172 467.6152793036565L446.56747928715055 509.96858766820105" stroke="#323232" stroke-width="2" fill="none" marker-end="url(#SvgjsMarker1254)"></path></g><g id="SvgjsG1256"><path id="SvgjsPath1257" d="M560.2423020930709 467.6152793036566L560.242302093071 509.96858766820105" stroke="#323232" stroke-width="2" fill="none" marker-end="url(#SvgjsMarker1258)"></path></g><g id="SvgjsG1260"><path id="SvgjsPath1261" d="M681.0756354264043 467.6152793036566L684.4089687597377 509.96858766820105" stroke="#323232" stroke-width="2" fill="none" marker-end="url(#SvgjsMarker1262)"></path></g><g id="SvgjsG1264" transform="translate(610.9030090887627,96.8375015258789)"><path id="SvgjsPath1265" d="M 0 4Q 0 0 4 0L 375.8214139913837 0Q 379.8214139913837 0 379.8214139913837 4L 379.8214139913837 184.80898876404478Q 379.8214139913837 188.80898876404478 375.8214139913837 188.80898876404478L 4 188.80898876404478Q 0 188.80898876404478 0 184.80898876404478Z" stroke="#323232" stroke-width="2" fill-opacity="1" fill="#ffffff"></path><g id="SvgjsG1266"><text id="SvgjsText1267" font-family="微软雅黑" text-anchor="start" font-size="13px" width="299" fill="#323232" font-weight="700" align="middle" anchor="start" family="微软雅黑" size="13px" weight="700" font-style="" y="28.454494382022393" transform="rotate(0)"><tspan id="SvgjsTspan1268" dy="16" x="10"><tspan id="SvgjsTspan1269" style="text-decoration:;">        /rest/v1/*===get===[role1]</tspan></tspan><tspan id="SvgjsTspan1270" dy="16" x="10"><tspan id="SvgjsTspan1271" style="text-decoration:;">        /rest/v1/book===get===[role2]</tspan></tspan><tspan id="SvgjsTspan1272" dy="16" x="10"><tspan id="SvgjsTspan1273" style="text-decoration:;">        /rest/v2/student===post===[role1]</tspan></tspan><tspan id="SvgjsTspan1274" dy="16" x="10"><tspan id="SvgjsTspan1275" style="text-decoration:;">        /api/home===get===[]</tspan></tspan><tspan id="SvgjsTspan1276" dy="16" x="10"><tspan id="SvgjsTspan1277" style="text-decoration:;">        /api/v2/**/chair===delete===[role4]</tspan></tspan><tspan id="SvgjsTspan1278" dy="16" x="10"><tspan id="SvgjsTspan1279" style="text-decoration:;">        /api/v2/**/book===get===[role2,role4]</tspan></tspan><tspan id="SvgjsTspan1280" dy="16" x="10"><tspan id="SvgjsTspan1281" style="text-decoration:;">        /api/v2/**/book===put===[role4]</tspan></tspan><tspan id="SvgjsTspan1282" dy="16" x="10"><tspan id="SvgjsTspan1283" style="text-decoration:;">        </tspan></tspan></text></g></g><g id="SvgjsG1284" transform="translate(358.8343279251877,352.74636544597865)"><path id="SvgjsPath1285" d="M 12.734082397003746 0L 67.7849920245097 0C 84.76376855384804 0 84.76376855384804 38.20224719101124 67.7849920245097 38.20224719101124L 12.734082397003746 38.20224719101124C -4.244694132334582 38.20224719101124 -4.244694132334582 0 12.734082397003746 0Z" stroke="#323232" stroke-width="2" fill-opacity="1" fill="#ffffff"></path><g id="SvgjsG1286"><text id="SvgjsText1287" font-family="微软雅黑" text-anchor="middle" font-size="13px" width="10" fill="#323232" font-weight="700" align="middle" anchor="middle" family="微软雅黑" size="13px" weight="700" font-style="" y="9.15112359550562" transform="rotate(0)"><tspan id="SvgjsTspan1288" dy="16" x="40.5"><tspan id="SvgjsTspan1289" style="text-decoration:;">[]</tspan></tspan></text></g></g><g id="SvgjsG1290"><path id="SvgjsPath1291" d="M411.09386513594444 310.67855090859496L399.09386513594444 352.74636544597865" stroke="#323232" stroke-width="2" fill="none" marker-end="url(#SvgjsMarker1292)"></path></g><g id="SvgjsG1294" transform="translate(750.3079420763938,517.0697112637067)"><path id="SvgjsPath1295" d="M 0 0L 218 0L 218 24L 0 24Z" stroke="none" fill="none"></path><g id="SvgjsG1296"><text id="SvgjsText1297" font-family="微软雅黑" text-anchor="middle" font-size="13px" width="198" fill="#323232" font-weight="400" align="middle" anchor="middle" family="微软雅黑" size="13px" weight="400" font-style="" y="2.05" transform="rotate(0)"><tspan id="SvgjsTspan1298" dy="16" x="109"><tspan id="SvgjsTspan1299" style="text-decoration:;">power by tomsun28(usthe.com)</tspan></tspan></text></g></g></svg>