<?xml version="1.0" standalone="no"?><!DOCTYPE svg PUBLIC "-//W3C//DTD SVG 1.1//EN" "http://www.w3.org/Graphics/SVG/1.1/DTD/svg11.dtd"><svg t="1730129352728" class="icon" viewBox="0 0 1024 1024" version="1.1" xmlns="http://www.w3.org/2000/svg" p-id="18799" xmlns:xlink="http://www.w3.org/1999/xlink" width="200" height="200"><path d="M872.849901 179.967274l0.004105-0.114932c0-73.536031-161.824419-124.434539-361.461504-124.434539C311.763626 55.413699 149.926893 106.316312 149.926893 179.852342v212.049754c0 10.898027 3.608047 21.484096 10.315157 31.622751H149.926893v212.045649c0 11.374175 3.883064 22.419972 11.164834 32.956784H149.922788v212.045649c0 73.548345 161.836733 133.152961 361.465609 133.152961 199.63298 0 361.461504-59.604616 361.461504-133.152961v-212.045649h-11.189462c7.28177-10.540917 11.189462-21.586714 11.189462-32.956784V423.524847h-10.278215c6.6989-10.13455 10.278215-20.724723 10.278215-31.618646V179.967274z" fill="#FFEEBA" p-id="18800"></path><path d="M152.837138 167.205705a360.008434 129.29863 0 1 0 720.016868 0 360.008434 129.29863 0 1 0-720.016868 0Z" fill="#FFF7E0" p-id="18801"></path><path d="M618.115181 88.251446c86.621873 0 166.10564 9.584518 228.3578 26.438491C792.787368 68.359981 663.008486 38.994825 511.392502 38.994825 311.763626 38.994825 149.926893 89.897438 149.926893 163.433469v212.049753c0 10.898027 3.608047 21.484096 10.315157 31.622751H149.926893v212.045649c0 11.374175 3.883064 22.419972 11.164834 32.956784H149.922788v212.045649c0 42.845051 54.925237 80.949152 140.2336 105.302447-21.492306-17.034581-33.510921-36.018904-33.510921-56.045826v-140.763109s225.595324 60.544597 271.773407 14.366515-16.418874-34.713604-75.937291-34.713604c-46.149349 0-151.024905-28.277405-195.836116-40.981509v-9.953942h11.168939c-7.28177-10.536812-11.164834-21.586714-11.164834-32.956784V456.362594h10.315157c-6.703005-10.138655-10.315157-20.724723-10.315157-31.622751v-212.049753c0-73.536031 161.836733-124.438644 361.465609-124.438644z" fill="#FFFFFF" opacity=".35" p-id="18802"></path><path d="M511.388397 1013.729995c-98.439357 0-191.226517-14.210535-261.269432-40.008691-75.202546-27.69864-116.61505-66.611371-116.615051-109.563144v-236.67396a16.418874 16.418874 0 0 1 32.837748 0v236.67396c0 55.212567 141.703089 116.734087 345.046735 116.734087 203.339541 0 345.042631-61.52152 345.042631-116.734087v-236.67396a16.418874 16.418874 0 0 1 32.837747 0v236.67396c0 42.955878-41.412504 81.864504-116.610946 109.563144-70.042915 25.798155-162.82597 40.00869-261.269432 40.008691z" fill="#6E6E96" p-id="18803"></path><path d="M760.216428 732.166834a16.418874 16.418874 0 0 1-5.418229-31.922395c63.639554-22.263993 101.636933-52.581443 101.636933-81.096922V386.582381a16.418874 16.418874 0 0 1 32.837748 0v232.569241c0 44.39253-43.904068 84.204194-123.630015 112.091651a16.443502 16.443502 0 0 1-5.426437 0.923561zM511.392502 768.719352c-98.439357 0-191.226517-14.20643-261.269433-40.004586C174.920523 701.016126 133.508019 662.1075 133.508019 619.155727V386.582381a16.418874 16.418874 0 0 1 32.837747 0v232.573346c0 55.208463 141.703089 116.729982 345.046736 116.729982a16.418874 16.418874 0 0 1 0 32.833643z" fill="#6E6E96" p-id="18804"></path><path d="M511.388397 525.063266c-65.556458 0-130.004642-6.448513-186.37474-18.65184a16.418874 16.418874 0 0 1 6.949288-32.094793c54.124817 11.718971 116.171741 17.912991 179.429557 17.912991 203.339541 0 345.042631-61.52152 345.04263-116.738192V163.433469a16.418874 16.418874 0 0 1 32.837748 0v212.053858c0 42.951774-41.412504 81.860399-116.610946 109.563144-70.04702 25.80226-162.83418 40.012795-261.273537 40.012795zM210.422233 465.68441a16.336779 16.336779 0 0 1-7.926211-2.05236C145.477378 432.128337 133.508019 398.309562 133.508019 375.483222v-212.049753a16.418874 16.418874 0 0 1 32.837747 0v212.049753c0 19.768324 18.475338 40.870681 52.031411 59.40759a16.418874 16.418874 0 0 1-7.954944 30.793598z" fill="#6E6E96" p-id="18805"></path><path d="M511.392502 313.001199c-98.439357 0-191.226517-14.210535-261.269433-40.012796C174.920523 245.289763 133.508019 206.381138 133.508019 163.433469c0-30.16968 20.310147-72.940846 117.074779-105.364017C318.893522 35.181542 411.516493 22.575951 511.392502 22.575951c99.880113 0 192.503085 12.60559 260.813808 35.493501 96.756423 32.423171 117.070674 75.194337 117.070674 105.364017 0 42.947669-41.412504 81.856295-116.610945 109.554934-70.04702 25.80226-162.830075 40.012795-261.273537 40.012796z m0-257.5875C298.267312 55.413699 166.345766 111.484152 166.345766 163.433469c0 55.212567 141.703089 116.729982 345.046736 116.729982 203.339541 0 345.042631-61.517415 345.04263-116.729982 0-51.949316-131.921545-108.01977-345.04263-108.01977z" fill="#6E6E96" p-id="18806"></path><path d="M156.079866 599.137015h10.027827C159.568876 589.675639 156.08397 579.762744 156.08397 569.550205V407.105973H149.926893v212.045649c0 8.38594 2.126244 16.591272 6.152973 24.542111v-44.556718zM511.392502 38.994825C311.763626 38.994825 149.926893 89.897438 149.926893 163.433469v212.049753c0 8.361311 2.142663 16.533806 6.157077 24.464122v-20.77398h9.260245C159.326698 370.073203 156.08397 360.57078 156.08397 350.785132v-190.376841c0-66.020291 145.294718-111.718121 324.523144-111.718121 179.236635 0 324.519038 45.69783 324.519038 111.718121l-0.004105 0.102618V350.789236c0 9.781544-3.213995 19.288072-9.227407 28.388233h9.227407v76.589941c-49.983156 14.879604-269.171015 73.811047-496.305609 37.763409 0 0-16.418874 45.151903 56.439878 56.439879 66.9849 10.380833 323.91154 33.761309 439.865731-37.500708v57.084319c0 10.212539-3.501325 20.12133-10.044246 29.586811h10.044246v79.393463l-75.571971 34.602777c0 67.727854 75.571971 41.047184 75.571971 41.047184v35.333416c0 66.032605-110.462077 140.073516-324.519038 140.073516-179.228425 0-324.523143-74.040911-324.523143-140.073516v-137.405449h-6.157078v212.045649c0 73.548345 161.836733 133.152961 361.465609 133.152961 199.63298 0 361.461504-59.604616 361.461504-133.152961v-212.045649h-11.189462c7.28177-10.540917 11.189462-21.586714 11.189462-32.956784V407.105973h-10.278215c6.6989-10.13455 10.278215-20.724723 10.278215-31.618646V163.548401l0.004105-0.114932c0-73.536031-161.824419-124.438644-361.461504-124.438644z" fill="#966E6E" opacity=".15" p-id="18807"></path></svg>
