<?xml version="1.0" standalone="no"?><!DOCTYPE svg PUBLIC "-//W3C//DTD SVG 1.1//EN" "http://www.w3.org/Graphics/SVG/1.1/DTD/svg11.dtd"><svg t="1730129285495" class="icon" viewBox="0 0 1024 1024" version="1.1" xmlns="http://www.w3.org/2000/svg" p-id="15074" xmlns:xlink="http://www.w3.org/1999/xlink" width="200" height="200"><path d="M614.318657 0H411.286337L309.924677 176.10441l101.36166 176.10341H614.319657L715.679318 176.10441z m-34.811883 292.312021H445.688222L378.830446 176.10441l66.857776-116.208611h133.819552l66.856776 116.208611z m340.023861 207.537305H716.704314l-101.25966 175.899411 101.25966 176.308409h200.26733l76.174744-127.879572 27.746907-48.429837z m22.422925 193.714351l-58.769803 98.49467H751.209199l-66.755777-116.30961 66.755777-116.209611h133.819551l67.164776 116.209611z m-564.148111 30.715897l27.542908-48.531837-101.259661-176.001411H101.261376L0.001715 675.747737l101.259661 176.10441h200.267329z m-242.039189 67.779773L69.008484 675.747737l66.755776-116.207611H269.380813l66.857776 116.207611-10.238966 17.71294-58.666803 98.49567zM615.136655 802.297313a18.121939 18.121939 0 0 0-21.296929-8.599972 282.790053 282.790053 0 0 1-84.263718 12.592958 287.295038 287.295038 0 0 1-83.034722-12.081959 18.121939 18.121939 0 0 0-10.238965 34.709883 322.720919 322.720919 0 0 0 93.683686 13.821954 317.396937 317.396937 0 0 0 95.116681-14.436951 18.224939 18.224939 0 0 0 10.033967-26.517912z m106.788642 149.1765a18.429938 18.429938 0 0 0-24.469918-6.654978 435.550541 435.550541 0 0 1-376.576739 0 17.81494 17.81494 0 0 0-24.981916 6.347979v0.716998a17.81494 17.81494 0 0 0 6.347979 24.059919l6.449978 3.173989a472.921416 472.921416 0 0 0 399.305662 1.330996l7.780974-3.582988a18.633938 18.633938 0 0 0 6.14398-25.391915z m-0.921997-672.061749a18.224939 18.224939 0 0 0 2.96999 22.421925 289.957029 289.957029 0 0 1 81.089728 146.821508 18.121939 18.121939 0 1 0 35.424882-7.371975 324.256914 324.256914 0 0 0-33.06989-88.972702 320.365927 320.365927 0 0 0-58.462804-76.687743 18.121939 18.121939 0 0 0-27.951906 3.788987z m79.144735-165.968444a18.429938 18.429938 0 0 0 5.93798 24.572918 437.700534 437.700534 0 0 1 181.223393 331.013891 18.01994 18.01994 0 0 0 17.712941 18.941936h0.819997a17.91794 17.91794 0 0 0 18.019939-16.995943v-7.167976a476.095405 476.095405 0 0 0-192.077356-352.20782c-2.251992-1.739994-4.504985-3.275989-6.859977-4.913983a18.224939 18.224939 0 0 0-24.776917 6.756977zM199.245048 460.738457a18.224939 18.224939 0 0 0 15.766947-15.971947 289.44503 289.44503 0 0 1 66.653777-153.579485 18.326939 18.326939 0 0 0 1.023996-22.319926 18.01994 18.01994 0 0 0-28.360905-1.330995 327.635903 327.635903 0 0 0-49.554834 80.57773 321.389923 321.389923 0 0 0-24.879917 93.170688 17.91794 17.91794 0 0 0 19.350936 19.453935zM22.42464 499.028328a18.633938 18.633938 0 0 0 15.869947-19.657934 437.598534 437.598534 0 0 1 151.223493-346.26884 18.01994 18.01994 0 0 0 4.197986-25.596914v-0.716998a17.81494 17.81494 0 0 0-24.572918-3.787987l-5.527981 4.606985A476.300405 476.300405 0 0 0 1.844709 474.76441v8.599971a17.91794 17.91794 0 0 0 20.579931 15.664947z" fill="#0091FF" p-id="15075"></path></svg>
