<?xml version="1.0" standalone="no"?><!DOCTYPE svg PUBLIC "-//W3C//DTD SVG 1.1//EN" "http://www.w3.org/Graphics/SVG/1.1/DTD/svg11.dtd"><svg t="1730129120871" class="icon" viewBox="0 0 1024 1024" version="1.1" xmlns="http://www.w3.org/2000/svg" p-id="26355" xmlns:xlink="http://www.w3.org/1999/xlink" width="200" height="200"><path d="M734.55 958.642c-8.92 7.075-17.596 9.65-26.331 11.97-29.26 7.77-59.262 11.006-89.31 12.8-36.894 2.206-73.877 3.857-110.828 3.979-52.548 0.17-105.076-2.068-157.183-9.542-14.54-2.086-28.854-5.96-43.121-9.608-4.68-1.197-8.879-4.263-13.297-6.475l0.039-1.995c3.269-1.666 6.37-3.934 9.835-4.896 16.514-4.584 33.14-8.764 49.7-13.183 7.797-2.081 15.703-3.917 23.272-6.657 25.706-9.31 39.178-28.68 42.117-55.065 2.053-18.432 2.273-37.082 2.939-55.647 0.411-11.5 0.098-11.51-11.558-11.51-90.01 0.001-180.022 0.052-270.033-0.041-18.044-0.02-35.893-1.801-53.185-7.532-29.098-9.648-45.89-30.241-51.496-59.69-2.778-14.601-4.365-29.664-4.388-44.522-0.286-187.912-0.218-375.824-0.137-563.736 0.008-18.217 1.314-36.326 7.147-53.849 9.396-28.227 29.064-45.242 57.587-51.658 12.126-2.726 24.786-3.095 37.214-4.443 2.199-0.24 4.446-0.03 6.671-0.035 214.147-0.446 428.294-0.992 642.441-1.25 40.394-0.05 80.81 0.43 121.176 1.863 23.697 0.84 45.85 7.633 63.176 25.38 14.369 14.717 21.044 33.029 23.097 52.888 1.697 16.415 2.284 33.009 2.297 49.525 0.153 174.359 0.161 348.718 0.006 523.077-0.02 20.964 0.83 41.966-3.716 62.8-8.5 38.966-33.794 63.296-73.402 68.702-11.179 1.525-22.541 2.39-33.82 2.414-89.202 0.191-178.404 0.169-267.607-0.034-6.032-0.016-8.468 1.756-9.785 7.641-3.78 16.865-6.653 33.743-4.377 51.067 3.798 28.888 20.722 47.906 45.959 60.541 20.776 10.405 43.144 15.928 65.582 21.219l23.32 5.502zM903.574 636.58v-6.17c0-169.508-0.033-339.016 0.136-508.523 0.006-6.19-2.18-7.162-7.686-7.16-255.679 0.124-511.356 0.108-767.034 0.11-8.224 0-8.23 0.007-8.23 8.19l-0.002 506.703v6.85h782.816z" p-id="26356" fill="#1296db"></path><path d="M265.493 387.607c0.792-32.67 8.11-63.154 27.95-89.562 24.382-32.451 57.926-47.38 97.853-49.024 26.832-1.106 52.396 3.726 75.453 18.203 29.132 18.291 45.493 45.49 52.192 78.518 7.359 36.294 5.524 72.107-10.345 106.174-17.094 36.695-45.623 59.478-85.428 67.648-31.731 6.51-62.44 3.522-91.246-11.82-35.49-18.903-55.009-49.605-62.67-88.307-2.066-10.45-2.548-21.212-3.76-31.83z m198.846-1.825c0.346-16.533-1.834-32.656-8.117-48.05-9.59-23.498-26.106-38.864-51.97-41.687-27.17-2.966-49.449 6.956-63.405 30.469-21.474 36.18-21.773 74.334-4.228 112.011 11.557 24.814 33.178 35.697 60.083 35.383 27.186-0.32 47.046-12.97 58.422-37.905 7.259-15.904 9.636-32.84 9.215-50.221z m152.31-70.271c12.084 22.908 27.609 41.113 51.98 51.006 13.38 5.433 26.174 12.685 38.442 20.378 10.524 6.6 18.518 16.18 24.053 27.564 6.253 12.863 7.644 26.488 2.277 39.455-13.172 31.815-34.913 55.935-69.363 64.046-16.035 3.776-33.31 2.902-50.026 2.964-11.23 0.041-22.724-0.835-33.644-3.309-19.672-4.449-28.233-18.613-25.024-38.58 2.26-14.065 2.33-13.767 16.273-11.287 20.268 3.605 40.586 7.066 61.002 9.652 16.137 2.045 28.356-5.98 38.17-18.087 4.694-5.79 3.007-11.746-0.115-17.563-8.191-15.263-20.959-25.334-36.455-32.465-13.568-6.244-27.41-12.067-40.371-19.414-17.24-9.776-30.599-23.801-35.318-43.601-9.413-39.495 4.868-80.21 56.205-90.848 14.941-3.097 30.414-4.097 45.705-4.903 13.47-0.707 27.12-0.728 40.517 0.63 16.615 1.683 25.14 12.239 24.663 28.85-0.178 6.187-0.032 13.702-3.342 18.15-4.127 5.548-11.303 0.123-17.097-0.602-10.013-1.254-19.918-3.349-29.92-4.728-11.81-1.63-22.964 0.737-33.187 6.873-8.626 5.18-17.095 10.621-25.426 15.819z" p-id="26357" fill="#1296db"></path></svg>
