<?xml version="1.0" standalone="no"?><!DOCTYPE svg PUBLIC "-//W3C//DTD SVG 1.1//EN" "http://www.w3.org/Graphics/SVG/1.1/DTD/svg11.dtd"><svg t="1730128991635" class="icon" viewBox="0 0 1042 1024" version="1.1" xmlns="http://www.w3.org/2000/svg" p-id="19230" xmlns:xlink="http://www.w3.org/1999/xlink" width="203.515625" height="200"><path d="M271.725714 0L18.285714 146.322286v292.662857l253.44 146.322286 253.44-146.322286V146.322286z" fill="#FFA552" p-id="19231"></path><path d="M778.605714 0L525.165714 146.322286v292.662857l253.44 146.322286 253.476572-146.322286V146.322286z" fill="#C3C5C6" p-id="19232"></path><path d="M271.725714 584.905143v292.662857l253.44 146.322286 253.44-146.322286V584.905143l-253.44-146.340572z" fill="#FA6400" p-id="19233"></path><path d="M778.276571 584.685714L525.165714 730.806857 272.091429 584.685714V292.461714l253.074285-146.139428 253.110857 146.139428z" fill="#181818" p-id="19234"></path><path d="M488.594286 501.924571a73.142857 73.142857 0 1 0 73.142857-126.72 73.142857 73.142857 0 0 0-73.142857 126.72M235.154286 229.302857a73.142857 73.142857 0 0 1 73.142857 126.665143 73.142857 73.142857 0 0 1-73.142857-126.665143m616.612571 63.323429a73.142857 73.142857 0 1 1-146.285714 0 73.142857 73.142857 0 0 1 146.285714 0m-363.154286 501.906285a73.142857 73.142857 0 0 0 73.142858-126.646857 73.142857 73.142857 0 0 0-73.142858 126.646857" fill="#FFFFFF" p-id="19235"></path></svg>
