<?xml version="1.0" standalone="no"?><!DOCTYPE svg PUBLIC "-//W3C//DTD SVG 1.1//EN" "http://www.w3.org/Graphics/SVG/1.1/DTD/svg11.dtd"><svg t="1730128825641" class="icon" viewBox="0 0 1024 1024" version="1.1" xmlns="http://www.w3.org/2000/svg" p-id="9495" xmlns:xlink="http://www.w3.org/1999/xlink" width="200" height="200"><path d="M622.250667 128c9.258667 0 12.629333 0.981333 16 2.773333 3.413333 1.792 6.016 4.437333 7.850666 7.850667 1.792 3.370667 2.773333 6.698667 2.773334 15.957333v160.170667c0 2.048-0.085333 3.797333-0.170667 5.290667l79.914667-0.042667c9.258667 0 12.586667 0.981333 15.957333 2.773333 3.413333 1.792 6.058667 4.437333 7.850667 7.850667 1.792 3.370667 2.773333 6.698667 2.773333 15.957333v74.837334c0 9.258667-0.981333 12.586667-2.773333 15.957333a18.858667 18.858667 0 0 1-7.850667 7.850667c-3.370667 1.792-6.698667 2.773333-15.957333 2.773333H227.114667c-9.258667 0-12.586667-0.981333-15.957334-2.773333a18.858667 18.858667 0 0 1-7.850666-7.850667c-1.792-3.370667-2.773333-6.698667-2.773334-15.957333V346.581333c0-9.258667 0.981333-12.586667 2.773334-15.957333a18.858667 18.858667 0 0 1 7.850666-7.850667c3.370667-1.792 6.698667-2.773333 15.957334-2.773333H307.2V231.381333c0-9.258667 0.981333-12.586667 2.773333-15.957333a18.858667 18.858667 0 0 1 7.850667-7.850667c3.370667-1.792 6.698667-2.773333 15.957333-2.773333h187.050667V154.581333c0-9.258667 0.981333-12.586667 2.773333-15.957333a18.858667 18.858667 0 0 1 7.850667-7.850667c3.413333-1.792 6.741333-2.773333 16-2.773333h74.794667z" fill="#496AAC" p-id="9496"></path><path d="M800 320a106.666667 106.666667 0 0 1 85.333333 170.709333l117.333334-0.042666a106.666667 106.666667 0 0 1-160.512 92.117333A384.042667 384.042667 0 0 1 85.333333 490.666667h714.666667z" fill="#4B95F9" p-id="9497"></path><path d="M85.376 494.592l1.28 0.341333c166.997333 44.757333 274.602667 198.741333 262.058667 360.32A384 384 0 0 1 85.333333 490.666667l0.042667 3.925333z" fill="#C2DBFC" p-id="9498"></path></svg>
