<?xml version="1.0" standalone="no"?><!DOCTYPE svg PUBLIC "-//W3C//DTD SVG 1.1//EN" "http://www.w3.org/Graphics/SVG/1.1/DTD/svg11.dtd"><svg t="1730128689890" class="icon" viewBox="0 0 1033 1024" version="1.1" xmlns="http://www.w3.org/2000/svg" p-id="6172" xmlns:xlink="http://www.w3.org/1999/xlink" width="201.7578125" height="200"><path d="M0 375.168658a375.168658 375.168658 0 0 0 375.168658 375.168657V0A375.168658 375.168658 0 0 0 0 375.168658z" fill="#39BDBD" p-id="6173"></path><path d="M750.337315 375.168658A375.168658 375.168658 0 0 0 384.560784 0.225927c-3.227535 0-6.261418-0.225927-9.392126-0.225927v750.337315c3.227535 0 6.261418 0 9.392126-0.225927a375.168658 375.168658 0 0 0 365.776531-374.94273z" fill="#00537D" p-id="6174"></path><path d="M685.62524 584.474296a286.024143 286.024143 0 0 1-148.692533 94.276295 349.509755 349.509755 0 0 0 69.908406-177.99855 393.081476 393.081476 0 0 0 85.400574-48.413024c5.389983-4.098969 10.166735-7.939736 14.620733-11.780502a236.610584 236.610584 0 0 0 43.02304-48.02572c0.258203-5.745012 0.451855-11.554575 0.451855-17.396413a378.428468 378.428468 0 0 0-2.904781-46.121474 168.70325 168.70325 0 0 1-57.676049 89.822297 280.956914 280.956914 0 0 1-13.910675 11.393198 351.801305 351.801305 0 0 1-66.745422 39.311375c0.258203-6.45507 0.451855-12.716488 0.451855-19.365209a552.844454 552.844454 0 0 0-37.116652-211.209884 167.831815 167.831815 0 0 0 89.725471-105.088537 371.973398 371.973398 0 0 0-26.046207-27.982728c0 2.065622 0.258203 4.098969 0.258203 6.132317a122.904529 122.904529 0 0 1-75.040187 101.957827 336.728717 336.728717 0 0 0-66.196741-92.694802 287.637911 287.637911 0 0 0-88.27308-59.580295 247.971507 247.971507 0 0 1 112.963722-32.436725 371.650645 371.650645 0 0 0-60.677656-19.558862 272.371671 272.371671 0 0 0-70.618464 29.661046v45.572793a239.48309 239.48309 0 0 1 87.821225 57.38557 307.4227 307.4227 0 0 1 58.967063 83.915908 400.633908 400.633908 0 0 1-146.917389 30.112901v28.111829a406.346645 406.346645 0 0 0 158.375138-32.888581 533.414694 533.414694 0 0 1 34.470072 198.622498c0 10.650865-0.806884 21.043528-1.549216 31.307089a576.566836 576.566836 0 0 1-191.295994 33.985942v28.240931a617.13695 617.13695 0 0 0 188.100734-31.791219 307.874555 307.874555 0 0 1-88.854036 178.934535 551.037035 551.037035 0 0 1-99.278974 10.586315v28.499133a542.225864 542.225864 0 0 0 56.449586-3.67939 294.706212 294.706212 0 0 1-39.730955 22.592745 373.587166 373.587166 0 0 0 75.976172-14.039777c6.874649-5.486809 13.910675-11.425474 20.978977-18.009645a500.913418 500.913418 0 0 0 62.549626-18.138746 376.976077 376.976077 0 0 0 122.839979-115.868503l-1.161913 0.48413z" fill="#48D7D9" p-id="6175"></path><path d="M388.401551 728.260976V0.451855h-3.840767c-3.227535 0-6.261418-0.225927-9.392126-0.225928-4.421723 0-8.843446 0-13.232894 0.355029v35.147855A187.616604 187.616604 0 0 0 300.128471 7.35878a376.040092 376.040092 0 0 0-72.199956 22.592744 178.90226 178.90226 0 0 1 119.160589 30.112901 285.249535 285.249535 0 0 0-91.95247 61.097235 335.437703 335.437703 0 0 0-63.969741 88.27308 116.384909 116.384909 0 0 1-67.390929-97.536105 79.816938 79.816938 0 0 1 1.839695-16.976833 387.723768 387.723768 0 0 0-29.306017 29.047814A153.243357 153.243357 0 0 0 179.676868 234.319034a548.680934 548.680934 0 0 0-39.020897 215.88981c0 5.777287 0 11.490024 0.322754 17.07366a345.346235 345.346235 0 0 1-60.645381-36.180666 282.732058 282.732058 0 0 1-14.072052-11.296373A160.569862 160.569862 0 0 1 5.228607 312.941785 375.491411 375.491411 0 0 0 0 375.168658c0 3.227535 0 6.45507 0.225927 9.682604A233.479875 233.479875 0 0 0 49.381284 441.526775c4.421723 3.937593 9.488953 7.84291 14.620733 11.683677a388.982507 388.982507 0 0 0 79.46191 45.37914 350.671668 350.671668 0 0 0 68.100986 177.51442 297.191414 297.191414 0 0 1-129.940555-79.04233l-0.710058-0.613231a673.683361 673.683361 0 0 1-18.332398-14.136603 376.298295 376.298295 0 0 0 112.963722 110.349418 481.483657 481.483657 0 0 0 70.844391 22.592745c7.713808 7.294229 15.395342 13.910675 22.947773 19.849339a372.231601 372.231601 0 0 0 75.685694 13.942951 299.57979 299.57979 0 0 1-40.376462-23.270526 545.259747 545.259747 0 0 0 57.385571 4.421722v20.042992c4.421723 0 8.843446 0.355029 13.232893 0.355029 3.227535 0 6.261418 0 9.392126-0.225927h3.840767z m-26.498062-26.885365a554.425946 554.425946 0 0 1-100.860466-11.974155 311.069814 311.069814 0 0 1-87.337094-179.063636 614.909951 614.909951 0 0 0 188.19756 33.37271z m0-185.906011a572.403316 572.403316 0 0 1-191.683298-35.922463c-0.613232-9.488953-1.194188-19.365209-1.194188-29.338293A529.315725 529.315725 0 0 1 205.27122 247.487377a411.058846 411.058846 0 0 0 156.632269 36.600246z m0-259.493807a411.898005 411.898005 0 0 1-145.239071-33.37271 306.615816 306.615816 0 0 1 57.385571-80.010591 241.032307 241.032307 0 0 1 87.885775-57.676049z" fill="#ECFFD7" p-id="6176"></path><path d="M648.863618 803.301163l-44.152678 26.465786-39.730954 13.232893 48.413023-26.465786z" fill="#00537D" p-id="6177"></path><path d="M587.024049 900.417688l44.152677 4.421723 30.88751 39.730955 48.413023-26.498062 8.81117 57.385571 39.730955 26.498062 4.421723-48.413024 35.309232-4.421723 39.730955 44.152678 22.076338-35.309232-35.309232-48.413024v-48.413023l35.309232-13.232894-22.076338-61.807293h-44.120403l-26.498061-39.730955-8.811171-57.38557-44.023576-22.495919-4.421722 44.152678-30.88751 4.421723-44.152677-39.730955-22.076339 30.887509 35.309232 52.963848v44.120402l-35.309232 13.232893 22.076339 57.385571z m110.349418-91.436064c0-19.84934 9.682605-31.468465 23.657831-31.468465 27.627699 0 58.999338 42.506635 58.999338 78.655026 0 19.84934-9.682605 31.468465-23.657831 31.468465-27.659974-0.032275-58.999338-42.53891-58.999338-78.687301z" fill="#00537D" p-id="6178"></path><path d="M860.686734 957.770984l-48.413024 26.465786-17.654616 35.309232 44.120402-26.465786z m-145.658651 66.196741l44.120403-22.076339 4.421722-48.413024-44.152677 22.076339z" fill="#00537D" p-id="6179"></path><path d="M825.377502 909.228859l-39.730955 22.076338 26.465786 52.963848 48.413024-26.465786z" fill="#39BDBD" p-id="6180"></path><path d="M825.377502 860.84811l-39.730955 26.530337v43.92675l39.730955-22.076338z" fill="#00537D" p-id="6181"></path><path d="M860.686734 847.421565l-44.120402 26.465786-30.88751 13.232894 39.730955-26.465787z" fill="#7AB2BC" p-id="6182"></path><path d="M838.57812 785.646547l-44.120403 26.465786 22.076339 61.807294 44.120402-26.465786z" fill="#39BDBD" p-id="6183"></path><path d="M794.489993 785.646547l-44.152678 26.465786h44.152678l44.120402-26.465786z m-26.465786-39.730955l-48.413024 26.465787-4.421723-57.385571 44.120402-26.465786z m-132.328932-70.618463l-44.120402 26.465786 39.730955 39.730955 48.413023-26.465787z" fill="#39BDBD" p-id="6184"></path><path d="M767.991931 745.915592l-48.413023 26.465787 30.887509 39.730954 44.152677-26.465786z m-57.38557-35.309231l-48.413024 30.887509h-31.016611l48.413024-26.465787z" fill="#00537D" p-id="6185"></path><path d="M750.337315 812.112333h44.152678l22.076339 61.807294-30.88751 13.45882v43.92675l26.465787 52.963848-17.654616 35.309232-44.152678-52.963848-30.887509 8.811171-4.421723 48.413023-44.152677-22.076339-8.81117-57.38557-30.88751-39.730955-44.152677-4.421723-22.076339-57.191918 35.309232-13.232893v-44.120403l-35.309232-52.996123 26.498062-30.887509 39.730954 39.730955h30.88751l8.81117-48.413024 44.152677 22.076339 4.421723 57.385571z m-76.718505-8.262489c-13.942951 0-23.657831 11.651401-23.65783 31.500741 0 36.148391 31.43619 78.655026 59.063888 78.655025 13.975226 0 23.657831-11.619126 23.657831-31.468465 0.096826-36.116116-31.43619-78.655026-59.063889-78.655026z" fill="#48D7D9" p-id="6186"></path><path d="M715.028083 666.485958l-44.152677 26.465787 44.152677 22.076338 44.120403-26.465786z" fill="#39BDBD" p-id="6187"></path><path d="M745.947868 498.750969l-114.771142 52.963848 66.196741-39.730955z" fill="#FF9C1A" p-id="6188"></path><path d="M657.642513 631.176726l57.38557 4.421723 44.120403 57.385571 66.325842-35.438333 13.232893 75.040186 57.385571 30.887509 8.81117-61.807293 44.152677-4.421723 57.385571 57.385571 26.465786-44.152678-44.120402-75.040186v-61.807294l44.120402-17.654616-26.465786-79.461909h-61.807293l-39.730955-61.807294-8.81117-75.040186-61.90412-30.693857-8.262489 62.969206-43.92675 5.486809-58.095629-59.644845-26.465786 48.413024 48.413024 67.132726v65.293031l-48.413024 13.232893 26.465786 83.915908z m150.080373-127.035773c0-27.466322 13.232893-43.507171 32.694928-43.507171 38.181738 0 81.624358 58.741135 81.624358 108.703376 0 27.401771-13.232893 43.474895-32.694928 43.474895-38.052637 0-81.624358-58.741135-81.624358-108.6711z" fill="#85273D" p-id="6189"></path><path d="M1032.81117 710.606361l-61.775018 35.309231-30.919784 44.120403 66.196741-35.309232z" fill="#9E1E23" p-id="6190"></path><path d="M829.766949 803.301163l66.196741-39.730955 8.811171-61.807293-66.196741 30.887509z" fill="#85273D" p-id="6191"></path><path d="M988.690768 635.566174l-61.807293 35.309232 44.152677 75.040186L1032.81117 710.606361z" fill="#E64E17" p-id="6192"></path><path d="M988.690768 573.791156l-61.807293 39.730955v57.38557l61.807293-35.309232z" fill="#85273D" p-id="6193"></path><path d="M1032.81117 556.13654l-61.775018 35.309232-44.152677 22.076339 61.807293-39.730955z" fill="#7AB2BC" p-id="6194"></path><path d="M1006.313109 476.67463L940.116368 516.405585l30.887509 75.040187 61.775018-35.309232z" fill="#FFCC00" p-id="6195"></path><path d="M944.538091 476.67463l-61.775019 30.88751 57.385571 8.81117 66.196741-39.730955z m-39.730955-61.807293l-66.196741 35.244681-8.81117-75.040186 66.196741-35.309232z m-180.935607-97.08425l-61.807293 39.730955 53.351152 55.610426 66.61632-35.696536z" fill="#E64E17" p-id="6196"></path><path d="M904.807136 414.899612l-66.196741 35.309232 44.152677 57.385571 61.775019-30.887509z m-78.880953-42.958489l-65.422133 36.50342-45.185489 4.679925 66.616321-35.696536z" fill="#85273D" p-id="6197"></path><path d="M882.763072 507.594415l57.385571 8.81117 30.887509 75.040187-44.152677 22.076339v57.38557l44.152677 75.040187-30.887509 44.152677-57.385571-66.196741-44.152677 8.843446-8.81117 70.618464-57.385571-35.309232-13.232893-75.040187-44.120402-57.38557-57.385571-4.421723-26.465786-79.46191 48.413023-22.076338v-61.807294l-48.413023-66.196741 30.887509-44.152677 53.480253 55.610426 45.024112-4.679925 7.423331-64.163394 61.807293 30.887509 8.81117 75.040186z m-107.606013-10.457213c-19.365209 0-32.694929 16.137675-32.694929 43.474895 0 49.96224 43.44262 108.703376 81.624358 108.703376 19.365209 0 32.694929-16.137675 32.694928-43.474896-0.032275-49.96224-43.44262-108.703376-81.624357-108.703375z" fill="#FF9C1A" p-id="6198"></path><path d="M834.188672 308.971917l-66.196741 35.309232 61.807294 30.887509 66.196741-35.309232z" fill="#FFCC00" p-id="6199"></path></svg>
