<!--
  ~ Licensed to the Apache Software Foundation (ASF) under one
  ~ or more contributor license agreements.  See the NOTICE file
  ~ distributed with this work for additional information
  ~ regarding copyright ownership.  The ASF licenses this file
  ~ to you under the Apache License, Version 2.0 (the
  ~ "License"); you may not use this file except in compliance
  ~ with the License.  You may obtain a copy of the License at
  ~
  ~   http://www.apache.org/licenses/LICENSE-2.0
  ~
  ~ Unless required by applicable law or agreed to in writing,
  ~ software distributed under the License is distributed on an
  ~ "AS IS" BASIS, WITHOUT WARRANTIES OR CONDITIONS OF ANY
  ~ KIND, either express or implied.  See the License for the
  ~ specific language governing permissions and limitations
  ~ under the License.
-->
<svg width="280" height="70" viewBox="0 0 280 70" fill="none" xmlns="http://www.w3.org/2000/svg">
<rect y="9" width="53" height="51" rx="12" fill="#B421CC"/>
<path d="M10.5457 18.6437L7.40261 47.088C7.18024 49.1003 8.62618 50.9535 10.6322 51.2272C12.6382 51.5009 14.4447 50.0914 14.6671 48.0791L15.5923 39.7061C15.6884 38.8363 16.4692 38.2271 17.3363 38.3453C17.9196 38.4249 18.4907 38.1735 18.8193 37.6925L19.0397 37.3697C20.3441 35.4597 23.363 36.6512 23.1063 38.9747L22.6783 42.8475C22.337 45.9365 26.1433 47.7502 28.2174 45.487L32.2265 41.1123C32.6026 40.7019 33.1566 40.5038 33.7149 40.5799C34.6727 40.7106 35.3631 41.5955 35.2569 42.5563L34.335 50.899C34.1209 52.8371 35.5134 54.6219 37.4454 54.8854C39.3774 55.149 41.1171 53.7916 41.3313 51.8535L44.5041 23.1402C44.7183 21.2021 43.3257 19.4174 41.3938 19.1538C39.4618 18.8902 37.722 20.2476 37.5079 22.1857L36.6549 29.9053C36.5489 30.8646 35.6877 31.5364 34.7315 31.406C34.1717 31.3296 33.6164 31.5294 33.241 31.9424L32.7735 32.4567C30.7601 34.6714 27.0433 32.909 27.3761 29.8975L27.4603 29.1356C27.8314 25.7768 23.5818 23.923 21.5007 26.5358L19.8583 28.5979C19.5104 29.0347 18.9583 29.254 18.3985 29.1776C17.5047 29.0557 16.8604 28.2299 16.9595 27.3333L17.8102 19.6348C18.0326 17.6225 16.5866 15.7692 14.5806 15.4956C12.5746 15.2219 10.7681 16.6313 10.5457 18.6437Z" fill="white"/>
<path d="M68.3262 52H61.8799V19.791H68.3262V32.6836H81.1963V19.791H87.6426V52H81.1963V39.1299H68.3262V52ZM102.197 46.1152C102.437 46.1901 102.676 46.2425 102.916 46.2725C103.156 46.2874 103.395 46.2949 103.635 46.2949C104.234 46.2949 104.81 46.2126 105.364 46.0479C105.918 45.8831 106.435 45.651 106.914 45.3516C107.408 45.0371 107.842 44.6628 108.217 44.2285C108.606 43.7793 108.921 43.2852 109.16 42.7461L113.652 47.2607C113.083 48.0693 112.424 48.7956 111.676 49.4395C110.942 50.0833 110.141 50.6299 109.272 51.0791C108.419 51.5283 107.513 51.8652 106.555 52.0898C105.611 52.3294 104.638 52.4492 103.635 52.4492C101.943 52.4492 100.348 52.1348 98.8506 51.5059C97.3682 50.877 96.0654 50.001 94.9424 48.8779C93.8343 47.7549 92.9583 46.4222 92.3145 44.8799C91.6706 43.3226 91.3486 41.6156 91.3486 39.7588C91.3486 37.8571 91.6706 36.1201 92.3145 34.5479C92.9583 32.9756 93.8343 31.6354 94.9424 30.5273C96.0654 29.4193 97.3682 28.5583 98.8506 27.9443C100.348 27.3304 101.943 27.0234 103.635 27.0234C104.638 27.0234 105.619 27.1432 106.577 27.3828C107.535 27.6224 108.441 27.9668 109.295 28.416C110.163 28.8652 110.972 29.4193 111.721 30.0781C112.469 30.722 113.128 31.4482 113.697 32.2568L102.197 46.1152ZM105.342 33.4697C105.057 33.3649 104.773 33.2975 104.488 33.2676C104.219 33.2376 103.934 33.2227 103.635 33.2227C102.796 33.2227 102.003 33.3799 101.254 33.6943C100.52 33.9938 99.8763 34.4281 99.3223 34.9971C98.7832 35.5661 98.3564 36.2549 98.042 37.0635C97.7275 37.8571 97.5703 38.7555 97.5703 39.7588C97.5703 39.9834 97.5778 40.238 97.5928 40.5225C97.6227 40.807 97.6602 41.099 97.7051 41.3984C97.765 41.6829 97.8324 41.96 97.9072 42.2295C97.9821 42.499 98.0794 42.7386 98.1992 42.9482L105.342 33.4697ZM122.929 52H116.797V27.9443H118.279L120.301 30.7969C121.289 29.8984 122.412 29.2096 123.67 28.7305C124.928 28.2363 126.23 27.9893 127.578 27.9893H132.991V34.0986H127.578C126.934 34.0986 126.328 34.2184 125.759 34.458C125.19 34.6976 124.696 35.027 124.276 35.4463C123.857 35.8656 123.528 36.3597 123.288 36.9287C123.049 37.4977 122.929 38.1042 122.929 38.748V52ZM147.905 52C146.423 52 145.03 51.723 143.728 51.1689C142.425 50.5999 141.279 49.8288 140.291 48.8555C139.318 47.8672 138.547 46.7217 137.978 45.4189C137.424 44.1162 137.146 42.7236 137.146 41.2412V34.0986H134.159V27.9893H137.146V18.376H143.256V27.9893H152.555V34.0986H143.256V41.2412C143.256 41.8851 143.376 42.4915 143.615 43.0605C143.855 43.6146 144.184 44.1012 144.604 44.5205C145.023 44.9398 145.517 45.2767 146.086 45.5312C146.655 45.7708 147.261 45.8906 147.905 45.8906H152.555V52H147.905ZM174.791 52H154.733L164.863 34.0986H154.733V27.9893H174.791L164.661 45.8906H174.791V52ZM204.619 42.3418C204.619 43.6745 204.365 44.9248 203.855 46.0928C203.346 47.2607 202.65 48.2865 201.767 49.1699C200.898 50.0384 199.88 50.7272 198.712 51.2363C197.544 51.7454 196.294 52 194.961 52H178.856V19.791H194.961C196.294 19.791 197.544 20.0456 198.712 20.5547C199.88 21.0638 200.898 21.7601 201.767 22.6436C202.65 23.512 203.346 24.5303 203.855 25.6982C204.365 26.8662 204.619 28.1165 204.619 29.4492C204.619 30.0482 204.537 30.6621 204.372 31.291C204.207 31.9199 203.975 32.5264 203.676 33.1104C203.376 33.6943 203.017 34.2259 202.598 34.7051C202.178 35.1842 201.714 35.5811 201.205 35.8955C201.729 36.18 202.201 36.5693 202.62 37.0635C203.039 37.5426 203.399 38.0742 203.698 38.6582C203.998 39.2422 204.222 39.8561 204.372 40.5C204.537 41.1289 204.619 41.7428 204.619 42.3418ZM185.303 45.5537H194.961C195.41 45.5537 195.829 45.4714 196.219 45.3066C196.608 45.1419 196.945 44.9173 197.229 44.6328C197.529 44.3333 197.761 43.9889 197.926 43.5996C198.09 43.2103 198.173 42.791 198.173 42.3418C198.173 41.8926 198.09 41.4733 197.926 41.084C197.761 40.6947 197.529 40.3577 197.229 40.0732C196.945 39.7738 196.608 39.5417 196.219 39.377C195.829 39.2122 195.41 39.1299 194.961 39.1299H185.303V45.5537ZM185.303 32.6836H194.961C195.41 32.6836 195.829 32.6012 196.219 32.4365C196.608 32.2718 196.945 32.0472 197.229 31.7627C197.529 31.4632 197.761 31.1188 197.926 30.7295C198.09 30.3252 198.173 29.8984 198.173 29.4492C198.173 29 198.09 28.5807 197.926 28.1914C197.761 27.8021 197.529 27.4652 197.229 27.1807C196.945 26.8812 196.608 26.6491 196.219 26.4844C195.829 26.3197 195.41 26.2373 194.961 26.2373H185.303V32.6836ZM218.41 46.1152C218.65 46.1901 218.889 46.2425 219.129 46.2725C219.368 46.2874 219.608 46.2949 219.848 46.2949C220.447 46.2949 221.023 46.2126 221.577 46.0479C222.131 45.8831 222.648 45.651 223.127 45.3516C223.621 45.0371 224.055 44.6628 224.43 44.2285C224.819 43.7793 225.133 43.2852 225.373 42.7461L229.865 47.2607C229.296 48.0693 228.637 48.7956 227.889 49.4395C227.155 50.0833 226.354 50.6299 225.485 51.0791C224.632 51.5283 223.726 51.8652 222.768 52.0898C221.824 52.3294 220.851 52.4492 219.848 52.4492C218.156 52.4492 216.561 52.1348 215.063 51.5059C213.581 50.877 212.278 50.001 211.155 48.8779C210.047 47.7549 209.171 46.4222 208.527 44.8799C207.883 43.3226 207.562 41.6156 207.562 39.7588C207.562 37.8571 207.883 36.1201 208.527 34.5479C209.171 32.9756 210.047 31.6354 211.155 30.5273C212.278 29.4193 213.581 28.5583 215.063 27.9443C216.561 27.3304 218.156 27.0234 219.848 27.0234C220.851 27.0234 221.832 27.1432 222.79 27.3828C223.748 27.6224 224.654 27.9668 225.508 28.416C226.376 28.8652 227.185 29.4193 227.934 30.0781C228.682 30.722 229.341 31.4482 229.91 32.2568L218.41 46.1152ZM221.555 33.4697C221.27 33.3649 220.986 33.2975 220.701 33.2676C220.432 33.2376 220.147 33.2227 219.848 33.2227C219.009 33.2227 218.215 33.3799 217.467 33.6943C216.733 33.9938 216.089 34.4281 215.535 34.9971C214.996 35.5661 214.569 36.2549 214.255 37.0635C213.94 37.8571 213.783 38.7555 213.783 39.7588C213.783 39.9834 213.791 40.238 213.806 40.5225C213.836 40.807 213.873 41.099 213.918 41.3984C213.978 41.6829 214.045 41.96 214.12 42.2295C214.195 42.499 214.292 42.7386 214.412 42.9482L221.555 33.4697ZM256.122 52H254.64L252.259 48.6982C251.675 49.2223 251.053 49.7165 250.395 50.1807C249.751 50.6299 249.069 51.0267 248.351 51.3711C247.632 51.7005 246.891 51.9626 246.127 52.1572C245.378 52.3519 244.615 52.4492 243.836 52.4492C242.144 52.4492 240.549 52.1647 239.052 51.5957C237.569 51.0267 236.267 50.2031 235.144 49.125C234.035 48.0319 233.16 46.6992 232.516 45.127C231.872 43.5547 231.55 41.7653 231.55 39.7588C231.55 37.887 231.872 36.1725 232.516 34.6152C233.16 33.043 234.035 31.6953 235.144 30.5723C236.267 29.4492 237.569 28.5807 239.052 27.9668C240.549 27.3379 242.144 27.0234 243.836 27.0234C244.615 27.0234 245.386 27.1208 246.149 27.3154C246.913 27.5101 247.654 27.7796 248.373 28.124C249.092 28.4684 249.773 28.8727 250.417 29.3369C251.076 29.8011 251.69 30.3027 252.259 30.8418L254.64 27.9893H256.122V52ZM249.945 39.7588C249.945 38.9202 249.781 38.1117 249.451 37.333C249.137 36.5394 248.702 35.8431 248.148 35.2441C247.594 34.6302 246.943 34.1436 246.194 33.7842C245.461 33.4098 244.674 33.2227 243.836 33.2227C242.997 33.2227 242.204 33.3649 241.455 33.6494C240.721 33.9339 240.077 34.3532 239.523 34.9072C238.984 35.4613 238.558 36.1501 238.243 36.9736C237.929 37.7822 237.771 38.7106 237.771 39.7588C237.771 40.807 237.929 41.7428 238.243 42.5664C238.558 43.375 238.984 44.0563 239.523 44.6104C240.077 45.1644 240.721 45.5837 241.455 45.8682C242.204 46.1527 242.997 46.2949 243.836 46.2949C244.674 46.2949 245.461 46.1152 246.194 45.7559C246.943 45.3815 247.594 44.8949 248.148 44.2959C248.702 43.682 249.137 42.9857 249.451 42.207C249.781 41.4134 249.945 40.5973 249.945 39.7588ZM272.878 52C271.396 52 270.003 51.723 268.7 51.1689C267.397 50.5999 266.252 49.8288 265.264 48.8555C264.29 47.8672 263.519 46.7217 262.95 45.4189C262.396 44.1162 262.119 42.7236 262.119 41.2412V34.0986H259.132V27.9893H262.119V18.376H268.229V27.9893H277.527V34.0986H268.229V41.2412C268.229 41.8851 268.348 42.4915 268.588 43.0605C268.827 43.6146 269.157 44.1012 269.576 44.5205C269.995 44.9398 270.49 45.2767 271.059 45.5312C271.628 45.7708 272.234 45.8906 272.878 45.8906H277.527V52H272.878Z" fill="#B421CC"/>
<path d="M217.773 11.2021V9.80078C217.773 9.60872 217.736 9.42806 217.661 9.25879C217.59 9.08626 217.49 8.93652 217.363 8.80957C217.236 8.68262 217.087 8.58333 216.914 8.51172C216.745 8.43685 216.564 8.39941 216.372 8.39941C216.18 8.39941 215.998 8.43685 215.825 8.51172C215.656 8.58333 215.508 8.68262 215.381 8.80957C215.254 8.93652 215.153 9.08626 215.078 9.25879C215.007 9.42806 214.971 9.60872 214.971 9.80078V11.2021H217.773ZM219.175 14H217.773V12.5986H214.971V14H213.574V9.80078C213.574 9.41341 213.647 9.05046 213.794 8.71191C213.94 8.37012 214.139 8.07227 214.39 7.81836C214.644 7.56445 214.94 7.36426 215.278 7.21777C215.62 7.07129 215.985 6.99805 216.372 6.99805C216.759 6.99805 217.122 7.07129 217.461 7.21777C217.803 7.36426 218.101 7.56445 218.354 7.81836C218.608 8.07227 218.809 8.37012 218.955 8.71191C219.102 9.05046 219.175 9.41341 219.175 9.80078V14ZM221.792 8.39941V11.2021H223.193C223.385 11.2021 223.566 11.1663 223.735 11.0947C223.905 11.0199 224.053 10.9189 224.18 10.792C224.307 10.665 224.406 10.5169 224.478 10.3477C224.552 10.1751 224.59 9.99284 224.59 9.80078C224.59 9.60872 224.552 9.42806 224.478 9.25879C224.406 9.08626 224.307 8.93652 224.18 8.80957C224.053 8.68262 223.905 8.58333 223.735 8.51172C223.566 8.43685 223.385 8.39941 223.193 8.39941H221.792ZM221.792 14H220.391V6.99805H223.193C223.451 6.99805 223.698 7.03223 223.936 7.10059C224.173 7.16569 224.395 7.26009 224.6 7.38379C224.808 7.50423 224.997 7.65072 225.166 7.82324C225.339 7.99251 225.485 8.18132 225.605 8.38965C225.729 8.59798 225.824 8.82096 225.889 9.05859C225.957 9.29622 225.991 9.54362 225.991 9.80078C225.991 10.1849 225.918 10.5479 225.771 10.8896C225.625 11.2282 225.425 11.5244 225.171 11.7783C224.917 12.0322 224.619 12.2324 224.277 12.3789C223.939 12.5254 223.577 12.5986 223.193 12.5986H221.792V14ZM230.938 11.2021V9.80078C230.938 9.60872 230.9 9.42806 230.825 9.25879C230.754 9.08626 230.654 8.93652 230.527 8.80957C230.4 8.68262 230.251 8.58333 230.078 8.51172C229.909 8.43685 229.728 8.39941 229.536 8.39941C229.344 8.39941 229.162 8.43685 228.989 8.51172C228.82 8.58333 228.672 8.68262 228.545 8.80957C228.418 8.93652 228.317 9.08626 228.242 9.25879C228.171 9.42806 228.135 9.60872 228.135 9.80078V11.2021H230.938ZM232.339 14H230.938V12.5986H228.135V14H226.738V9.80078C226.738 9.41341 226.812 9.05046 226.958 8.71191C227.104 8.37012 227.303 8.07227 227.554 7.81836C227.808 7.56445 228.104 7.36426 228.442 7.21777C228.784 7.07129 229.149 6.99805 229.536 6.99805C229.924 6.99805 230.286 7.07129 230.625 7.21777C230.967 7.36426 231.265 7.56445 231.519 7.81836C231.772 8.07227 231.973 8.37012 232.119 8.71191C232.266 9.05046 232.339 9.41341 232.339 9.80078V14ZM239.146 13.2822C238.82 13.5622 238.455 13.777 238.052 13.9268C237.648 14.0765 237.23 14.1514 236.797 14.1514C236.465 14.1514 236.144 14.1074 235.835 14.0195C235.529 13.9349 235.241 13.8145 234.971 13.6582C234.704 13.4987 234.46 13.3083 234.238 13.0869C234.017 12.8656 233.826 12.6214 233.667 12.3545C233.511 12.0843 233.389 11.7962 233.301 11.4902C233.216 11.181 233.174 10.8604 233.174 10.5283C233.174 10.1963 233.216 9.87565 233.301 9.56641C233.389 9.25716 233.511 8.96908 233.667 8.70215C233.826 8.43197 234.017 8.1862 234.238 7.96484C234.46 7.74349 234.704 7.55469 234.971 7.39844C235.241 7.23893 235.529 7.11686 235.835 7.03223C236.144 6.94434 236.465 6.90039 236.797 6.90039C237.23 6.90039 237.648 6.97526 238.052 7.125C238.455 7.27148 238.82 7.48633 239.146 7.76953L238.403 8.99023C238.198 8.76888 237.956 8.59961 237.676 8.48242C237.396 8.36198 237.103 8.30176 236.797 8.30176C236.488 8.30176 236.198 8.36035 235.928 8.47754C235.658 8.59473 235.422 8.75423 235.22 8.95605C235.018 9.15462 234.858 9.39062 234.741 9.66406C234.624 9.93424 234.565 10.2223 234.565 10.5283C234.565 10.8343 234.624 11.1224 234.741 11.3926C234.858 11.6595 235.018 11.8939 235.22 12.0957C235.422 12.2975 235.658 12.457 235.928 12.5742C236.198 12.6914 236.488 12.75 236.797 12.75C237.103 12.75 237.396 12.6914 237.676 12.5742C237.956 12.4538 238.198 12.2829 238.403 12.0615L239.146 13.2822ZM241.362 14H239.961V6.99805H241.362V9.80078H244.16V6.99805H245.562V14H244.16V11.2021H241.362V14ZM251.665 14H246.865V6.99805H251.665V8.39941H248.267V9.80078H250.566V11.2021H248.267V12.5986H251.665V14ZM214.422 18.6797C214.422 18.7786 214.402 18.8711 214.363 18.957C214.327 19.043 214.276 19.1185 214.211 19.1836C214.146 19.2461 214.069 19.2969 213.98 19.3359C213.895 19.3724 213.802 19.3906 213.703 19.3906C213.604 19.3906 213.51 19.3724 213.422 19.3359C213.336 19.2969 213.26 19.2461 213.195 19.1836C213.133 19.1185 213.082 19.043 213.043 18.957C213.007 18.8711 212.988 18.7786 212.988 18.6797C212.988 18.5833 213.007 18.4922 213.043 18.4062C213.082 18.3177 213.133 18.2422 213.195 18.1797C213.26 18.1146 213.336 18.0638 213.422 18.0273C213.51 17.9883 213.604 17.9688 213.703 17.9688C213.802 17.9688 213.895 17.9883 213.98 18.0273C214.069 18.0638 214.146 18.1146 214.211 18.1797C214.276 18.2422 214.327 18.3177 214.363 18.4062C214.402 18.4922 214.422 18.5833 214.422 18.6797ZM214.238 24H213.164V19.8164H214.238V24ZM216.121 24H215.055V19.8164H215.312L215.664 20.2227C215.836 20.0664 216.03 19.9466 216.246 19.8633C216.465 19.7773 216.693 19.7344 216.93 19.7344C217.185 19.7344 217.426 19.7839 217.652 19.8828C217.879 19.9792 218.077 20.1133 218.246 20.2852C218.415 20.4544 218.548 20.6536 218.645 20.8828C218.743 21.1094 218.793 21.3516 218.793 21.6094V24H217.727V21.6094C217.727 21.5 217.706 21.3971 217.664 21.3008C217.622 21.2018 217.565 21.1159 217.492 21.043C217.419 20.9701 217.335 20.9128 217.238 20.8711C217.142 20.8294 217.039 20.8086 216.93 20.8086C216.818 20.8086 216.712 20.8294 216.613 20.8711C216.514 20.9128 216.428 20.9701 216.355 21.043C216.283 21.1159 216.225 21.2018 216.184 21.3008C216.142 21.3971 216.121 21.5 216.121 21.6094V24ZM223.211 20.6484L222.43 21.4336C222.391 21.3242 222.337 21.2266 222.27 21.1406C222.202 21.0521 222.125 20.9779 222.039 20.918C221.956 20.8581 221.865 20.8125 221.766 20.7812C221.667 20.75 221.565 20.7344 221.461 20.7344C221.315 20.7344 221.177 20.7643 221.047 20.8242C220.919 20.8841 220.807 20.9688 220.711 21.0781C220.617 21.1849 220.543 21.3125 220.488 21.4609C220.434 21.6094 220.406 21.7734 220.406 21.9531C220.406 22.099 220.434 22.2357 220.488 22.3633C220.543 22.4909 220.617 22.6029 220.711 22.6992C220.807 22.7956 220.919 22.8711 221.047 22.9258C221.177 22.9805 221.315 23.0078 221.461 23.0078C221.565 23.0078 221.665 22.9935 221.762 22.9648C221.858 22.9362 221.948 22.8958 222.031 22.8438C222.117 22.7891 222.193 22.724 222.258 22.6484C222.326 22.5703 222.38 22.4844 222.422 22.3906L223.203 23.1758C223.104 23.3164 222.99 23.4427 222.859 23.5547C222.732 23.6667 222.592 23.7617 222.441 23.8398C222.293 23.918 222.135 23.9766 221.969 24.0156C221.805 24.0573 221.635 24.0781 221.461 24.0781C221.167 24.0781 220.889 24.0234 220.629 23.9141C220.371 23.8021 220.145 23.6497 219.949 23.457C219.757 23.2643 219.604 23.0391 219.492 22.7812C219.38 22.5234 219.324 22.2474 219.324 21.9531C219.324 21.6328 219.38 21.3333 219.492 21.0547C219.604 20.776 219.757 20.5339 219.949 20.3281C220.145 20.1198 220.371 19.9557 220.629 19.8359C220.889 19.7161 221.167 19.6562 221.461 19.6562C221.635 19.6562 221.806 19.6784 221.973 19.7227C222.142 19.7669 222.302 19.832 222.453 19.918C222.607 20.0013 222.747 20.1042 222.875 20.2266C223.005 20.349 223.117 20.4896 223.211 20.6484ZM226.809 23.5117C226.723 23.5898 226.63 23.6641 226.531 23.7344C226.435 23.8021 226.333 23.862 226.227 23.9141C226.12 23.9635 226.009 24.0026 225.895 24.0312C225.783 24.0625 225.668 24.0781 225.551 24.0781C225.293 24.0781 225.051 24.0326 224.824 23.9414C224.598 23.8503 224.398 23.7214 224.227 23.5547C224.057 23.3854 223.923 23.181 223.824 22.9414C223.728 22.6992 223.68 22.4284 223.68 22.1289V19.8164H224.742V22.1289C224.742 22.2695 224.763 22.3958 224.805 22.5078C224.849 22.6172 224.908 22.7096 224.98 22.7852C225.053 22.8607 225.138 22.918 225.234 22.957C225.333 22.9961 225.439 23.0156 225.551 23.0156C225.66 23.0156 225.763 22.9909 225.859 22.9414C225.958 22.8893 226.044 22.8216 226.117 22.7383C226.19 22.6549 226.247 22.5612 226.289 22.457C226.331 22.3503 226.352 22.2409 226.352 22.1289V19.8164H227.418V24H227.16L226.809 23.5117ZM232.422 21.8711C232.422 22.1992 232.366 22.4987 232.254 22.7695C232.142 23.0404 231.99 23.2734 231.797 23.4688C231.604 23.6615 231.378 23.8112 231.117 23.918C230.859 24.0247 230.582 24.0781 230.285 24.0781C229.991 24.0781 229.714 24.0234 229.453 23.9141C229.195 23.8047 228.969 23.6523 228.773 23.457C228.581 23.2617 228.428 23.0299 228.316 22.7617C228.204 22.4909 228.148 22.194 228.148 21.8711V18.1523H229.219V20.1055C229.276 20.0326 229.345 19.9674 229.426 19.9102C229.509 19.8529 229.598 19.806 229.691 19.7695C229.788 19.7331 229.887 19.7057 229.988 19.6875C230.09 19.6667 230.189 19.6562 230.285 19.6562C230.582 19.6562 230.859 19.7122 231.117 19.8242C231.378 19.9336 231.604 20.0872 231.797 20.2852C231.99 20.4831 232.142 20.7174 232.254 20.9883C232.366 21.2565 232.422 21.5508 232.422 21.8711ZM231.348 21.8711C231.348 21.7096 231.319 21.5599 231.262 21.4219C231.207 21.2812 231.132 21.1602 231.035 21.0586C230.939 20.957 230.826 20.8776 230.695 20.8203C230.568 20.763 230.431 20.7344 230.285 20.7344C230.139 20.7344 230.001 20.7669 229.871 20.832C229.743 20.8945 229.632 20.9792 229.535 21.0859C229.439 21.1901 229.363 21.3112 229.309 21.4492C229.254 21.5846 229.227 21.7253 229.227 21.8711C229.227 22.0326 229.254 22.1823 229.309 22.3203C229.363 22.4583 229.439 22.5781 229.535 22.6797C229.632 22.7812 229.743 22.862 229.871 22.9219C230.001 22.9792 230.139 23.0078 230.285 23.0078C230.431 23.0078 230.568 22.9792 230.695 22.9219C230.826 22.862 230.939 22.7812 231.035 22.6797C231.132 22.5781 231.207 22.4583 231.262 22.3203C231.319 22.1823 231.348 22.0326 231.348 21.8711ZM237.066 24H236.809L236.395 23.4258C236.293 23.5169 236.185 23.6029 236.07 23.6836C235.958 23.7617 235.84 23.8307 235.715 23.8906C235.59 23.9479 235.461 23.9935 235.328 24.0273C235.198 24.0612 235.065 24.0781 234.93 24.0781C234.635 24.0781 234.358 24.0286 234.098 23.9297C233.84 23.8307 233.613 23.6875 233.418 23.5C233.225 23.3099 233.073 23.0781 232.961 22.8047C232.849 22.5312 232.793 22.2201 232.793 21.8711C232.793 21.5456 232.849 21.2474 232.961 20.9766C233.073 20.7031 233.225 20.4688 233.418 20.2734C233.613 20.0781 233.84 19.9271 234.098 19.8203C234.358 19.7109 234.635 19.6562 234.93 19.6562C235.065 19.6562 235.199 19.6732 235.332 19.707C235.465 19.7409 235.594 19.7878 235.719 19.8477C235.844 19.9076 235.962 19.9779 236.074 20.0586C236.189 20.1393 236.296 20.2266 236.395 20.3203L236.809 19.8242H237.066V24ZM235.992 21.8711C235.992 21.7253 235.964 21.5846 235.906 21.4492C235.852 21.3112 235.776 21.1901 235.68 21.0859C235.583 20.9792 235.47 20.8945 235.34 20.832C235.212 20.7669 235.076 20.7344 234.93 20.7344C234.784 20.7344 234.646 20.7591 234.516 20.8086C234.388 20.8581 234.276 20.931 234.18 21.0273C234.086 21.1237 234.012 21.2435 233.957 21.3867C233.902 21.5273 233.875 21.6888 233.875 21.8711C233.875 22.0534 233.902 22.2161 233.957 22.3594C234.012 22.5 234.086 22.6185 234.18 22.7148C234.276 22.8112 234.388 22.8841 234.516 22.9336C234.646 22.9831 234.784 23.0078 234.93 23.0078C235.076 23.0078 235.212 22.9766 235.34 22.9141C235.47 22.849 235.583 22.7643 235.68 22.6602C235.776 22.5534 235.852 22.4323 235.906 22.2969C235.964 22.1589 235.992 22.0169 235.992 21.8711ZM239.98 24C239.723 24 239.48 23.9518 239.254 23.8555C239.027 23.7565 238.828 23.6224 238.656 23.4531C238.487 23.2812 238.353 23.082 238.254 22.8555C238.158 22.6289 238.109 22.3867 238.109 22.1289V20.8867H237.59V19.8242H238.109V18.1523H239.172V19.8242H240.789V20.8867H239.172V22.1289C239.172 22.2409 239.193 22.3464 239.234 22.4453C239.276 22.5417 239.333 22.6263 239.406 22.6992C239.479 22.7721 239.565 22.8307 239.664 22.875C239.763 22.9167 239.868 22.9375 239.98 22.9375H240.789V24H239.98ZM242.648 18.6797C242.648 18.7786 242.629 18.8711 242.59 18.957C242.553 19.043 242.503 19.1185 242.438 19.1836C242.372 19.2461 242.296 19.2969 242.207 19.3359C242.121 19.3724 242.029 19.3906 241.93 19.3906C241.831 19.3906 241.737 19.3724 241.648 19.3359C241.562 19.2969 241.487 19.2461 241.422 19.1836C241.359 19.1185 241.309 19.043 241.27 18.957C241.233 18.8711 241.215 18.7786 241.215 18.6797C241.215 18.5833 241.233 18.4922 241.27 18.4062C241.309 18.3177 241.359 18.2422 241.422 18.1797C241.487 18.1146 241.562 18.0638 241.648 18.0273C241.737 17.9883 241.831 17.9688 241.93 17.9688C242.029 17.9688 242.121 17.9883 242.207 18.0273C242.296 18.0638 242.372 18.1146 242.438 18.1797C242.503 18.2422 242.553 18.3177 242.59 18.4062C242.629 18.4922 242.648 18.5833 242.648 18.6797ZM242.465 24H241.391V19.8164H242.465V24ZM244.348 24H243.281V19.8164H243.539L243.891 20.2227C244.062 20.0664 244.257 19.9466 244.473 19.8633C244.691 19.7773 244.919 19.7344 245.156 19.7344C245.411 19.7344 245.652 19.7839 245.879 19.8828C246.105 19.9792 246.303 20.1133 246.473 20.2852C246.642 20.4544 246.775 20.6536 246.871 20.8828C246.97 21.1094 247.02 21.3516 247.02 21.6094V24H245.953V21.6094C245.953 21.5 245.932 21.3971 245.891 21.3008C245.849 21.2018 245.792 21.1159 245.719 21.043C245.646 20.9701 245.561 20.9128 245.465 20.8711C245.368 20.8294 245.266 20.8086 245.156 20.8086C245.044 20.8086 244.939 20.8294 244.84 20.8711C244.741 20.9128 244.655 20.9701 244.582 21.043C244.509 21.1159 244.452 21.2018 244.41 21.3008C244.368 21.3971 244.348 21.5 244.348 21.6094V24ZM250.758 21.8711C250.758 21.7253 250.729 21.5846 250.672 21.4492C250.617 21.3112 250.542 21.1901 250.445 21.0859C250.349 20.9792 250.236 20.8945 250.105 20.832C249.978 20.7669 249.841 20.7344 249.695 20.7344C249.549 20.7344 249.411 20.7591 249.281 20.8086C249.154 20.8581 249.042 20.931 248.945 21.0273C248.852 21.1237 248.777 21.2435 248.723 21.3867C248.668 21.5273 248.641 21.6888 248.641 21.8711C248.641 22.0456 248.668 22.2031 248.723 22.3438C248.777 22.4818 248.852 22.6003 248.945 22.6992C249.042 22.7982 249.154 22.875 249.281 22.9297C249.411 22.9818 249.549 23.0078 249.695 23.0078C249.841 23.0078 249.978 22.9766 250.105 22.9141C250.236 22.849 250.349 22.7643 250.445 22.6602C250.542 22.5534 250.617 22.4323 250.672 22.2969C250.729 22.1589 250.758 22.0169 250.758 21.8711ZM251.832 23.4727C251.832 23.7669 251.776 24.043 251.664 24.3008C251.552 24.5586 251.398 24.7839 251.203 24.9766C251.01 25.1693 250.784 25.3216 250.523 25.4336C250.266 25.5456 249.99 25.6016 249.695 25.6016L249.16 25.5938V24.5273L249.688 24.5352C249.854 24.5352 249.996 24.513 250.113 24.4688C250.23 24.4271 250.329 24.3685 250.41 24.293C250.491 24.2201 250.555 24.1354 250.602 24.0391C250.651 23.9427 250.69 23.8411 250.719 23.7344C250.677 23.8021 250.617 23.8581 250.539 23.9023C250.461 23.944 250.374 23.9779 250.277 24.0039C250.184 24.0326 250.085 24.0521 249.98 24.0625C249.879 24.0729 249.784 24.0781 249.695 24.0781C249.401 24.0781 249.124 24.0273 248.863 23.9258C248.605 23.8242 248.379 23.6797 248.184 23.4922C247.991 23.3021 247.839 23.0703 247.727 22.7969C247.615 22.5234 247.559 22.2148 247.559 21.8711C247.559 21.556 247.615 21.263 247.727 20.9922C247.839 20.7214 247.991 20.487 248.184 20.2891C248.379 20.0911 248.605 19.9362 248.863 19.8242C249.124 19.7122 249.401 19.6562 249.695 19.6562C249.831 19.6562 249.965 19.6732 250.098 19.707C250.23 19.7409 250.359 19.7878 250.484 19.8477C250.609 19.9076 250.728 19.9779 250.84 20.0586C250.954 20.1393 251.061 20.2266 251.16 20.3203L251.574 19.8242H251.832V23.4727Z" fill="black"/>
</svg>
