<!--
  ~ Licensed to the Apache Software Foundation (ASF) under one
  ~ or more contributor license agreements.  See the NOTICE file
  ~ distributed with this work for additional information
  ~ regarding copyright ownership.  The ASF licenses this file
  ~ to you under the Apache License, Version 2.0 (the
  ~ "License"); you may not use this file except in compliance
  ~ with the License.  You may obtain a copy of the License at
  ~
  ~   http://www.apache.org/licenses/LICENSE-2.0
  ~
  ~ Unless required by applicable law or agreed to in writing,
  ~ software distributed under the License is distributed on an
  ~ "AS IS" BASIS, WITHOUT WARRANTIES OR CONDITIONS OF ANY
  ~ KIND, either express or implied.  See the License for the
  ~ specific language governing permissions and limitations
  ~ under the License.
-->
<svg
  t="1720551677718"
  class="icon"
  viewBox="0 0 1024 1024"
  version="1.1"
  xmlns="http://www.w3.org/2000/svg"
  p-id="1510"
  width="18"
  height="18"
>
  <path
    d="M511.985404 988.20397L354.645856 830.863205l31.692198-31.692197 125.64735 125.646134 125.647351-125.646134 31.693414 31.692197z"
    fill="currentcolor"
    p-id="1511"
  ></path>
  <path d="M489.574876 549.16438h44.821057v390.984362h-44.821057z" fill="currentcolor" p-id="1512"></path>
  <path
    d="M802.862512 498.506247a292.347627 292.347627 0 0 0 3.606362-45.781943c0-160.264776-129.920251-290.18381-290.183811-290.183811-156.325145 0-283.755607 123.617328-289.927168 278.428166-98.420231 18.360213-172.926572 104.690313-172.926573 208.435553 0 117.112497 94.937933 212.051646 212.051646 212.051646l0.254209-0.002433v0.002433h50.690974v-44.821058H265.760287v-0.003649c-0.09244 0-0.184879 0.003649-0.278535 0.003649-44.669019 0-86.664586-17.394462-118.249748-48.98084-31.585162-31.585162-48.980841-73.580729-48.980841-118.249748s17.394462-86.664586 48.980841-118.249748c22.566216-22.566216 50.447712-37.88322 80.820212-44.794298a168.56853 168.56853 0 0 1 37.429536-4.186542c2.410728 0 4.811726 0.060816 7.205426 0.161769a249.539565 249.539565 0 0 1-1.764867-29.609873c0-5.121885 0.173932-10.217012 0.484091-15.286596 3.651365-59.787763 28.659934-115.491154 71.381639-158.211643 46.342662-46.342662 107.959757-71.865731 173.498239-71.86573 65.539698 0 127.155576 25.521852 173.498238 71.86573 46.342662 46.342662 71.865731 107.959757 71.865731 173.498239 0 16.313162-1.583637 32.383062-4.674283 48.035767a242.757415 242.757415 0 0 1-12.339474 42.018677h43.569473v0.029192c0.211638-0.001216 0.420844-0.013379 0.632482-0.01338 1.11779 0 2.233147 0.014596 3.346071 0.041355 35.320453 0.841687 68.400461 14.992248 93.471062 40.062849 25.861203 25.861203 40.102987 60.24388 40.102987 96.817133 0 36.573253-14.241785 70.95593-40.102987 96.817133-25.861203 25.861203-60.245096 40.102987-96.817133 40.102987l-0.063248-0.001216v0.001216h-72.483617v44.821057h76.492577v-0.049868c98.550376-2.099353 177.796681-82.63738 177.796682-181.691309-0.002433-95.656772-73.899403-174.050444-167.718329-181.210866z"
    fill="currentcolor"
    p-id="1513"
  ></path>
</svg>
