<!--
  ~ Licensed to the Apache Software Foundation (ASF) under one
  ~ or more contributor license agreements.  See the NOTICE file
  ~ distributed with this work for additional information
  ~ regarding copyright ownership.  The ASF licenses this file
  ~ to you under the Apache License, Version 2.0 (the
  ~ "License"); you may not use this file except in compliance
  ~ with the License.  You may obtain a copy of the License at
  ~
  ~   http://www.apache.org/licenses/LICENSE-2.0
  ~
  ~ Unless required by applicable law or agreed to in writing,
  ~ software distributed under the License is distributed on an
  ~ "AS IS" BASIS, WITHOUT WARRANTIES OR CONDITIONS OF ANY
  ~ KIND, either express or implied.  See the License for the
  ~ specific language governing permissions and limitations
  ~ under the License.
-->
<svg width="22" height="22" viewBox="0 0 22 22" fill="none" xmlns="http://www.w3.org/2000/svg">
  <path
    d="M11 21C16.5228 21 21 16.5228 21 11C21 5.47715 16.5228 1 11 1C5.47715 1 1 5.47715 1 11C1 12.5997 1.37562 14.1116 2.04346 15.4525C2.22094 15.8088 2.28001 16.2161 2.17712 16.6006L1.58151 18.8267C1.32295 19.793 2.20701 20.677 3.17335 20.4185L5.39939 19.8229C5.78393 19.72 6.19121 19.7791 6.54753 19.9565C7.88836 20.6244 9.40032 21 11 21Z"
    stroke="#735CFC"
    stroke-width="1.5"
    stroke-linecap="round"
  />
  <path
    d="M6.825 11.8495C6.36937 11.8495 6 12.2189 6 12.6745C6 13.1301 6.36937 13.4995 6.825 13.4995H12.875C13.3306 13.4995 13.7 13.1301 13.7 12.6745C13.7 12.2189 13.3306 11.8495 12.875 11.8495H6.825Z"
    fill="#735CFC"
  />
  <path
    d="M6.825 7.99951C6.36937 7.99951 6 8.36888 6 8.82451C6 9.28015 6.36937 9.64951 6.825 9.64951H15.625C16.0806 9.64951 16.45 9.28015 16.45 8.82451C16.45 8.36888 16.0806 7.99951 15.625 7.99951H6.825Z"
    fill="#735CFC"
  />
</svg>
