<!--
  ~ Licensed to the Apache Software Foundation (ASF) under one
  ~ or more contributor license agreements.  See the NOTICE file
  ~ distributed with this work for additional information
  ~ regarding copyright ownership.  The ASF licenses this file
  ~ to you under the Apache License, Version 2.0 (the
  ~ "License"); you may not use this file except in compliance
  ~ with the License.  You may obtain a copy of the License at
  ~
  ~   http://www.apache.org/licenses/LICENSE-2.0
  ~
  ~ Unless required by applicable law or agreed to in writing,
  ~ software distributed under the License is distributed on an
  ~ "AS IS" BASIS, WITHOUT WARRANTIES OR CONDITIONS OF ANY
  ~ KIND, either express or implied.  See the License for the
  ~ specific language governing permissions and limitations
  ~ under the License.
-->
<svg
  t="1720470046453"
  class="icon"
  viewBox="0 0 1024 1024"
  version="1.1"
  xmlns="http://www.w3.org/2000/svg"
  p-id="1451"
  width="24"
  height="24"
>
  <path
    d="M64 512c0 195.2 124.8 361.6 300.8 422.4 22.4 6.4 19.2-9.6 19.2-22.4v-76.8c-134.4 16-140.8-73.6-150.4-89.6-19.2-32-60.8-38.4-48-54.4 32-16 64 3.2 99.2 57.6 25.6 38.4 76.8 32 105.6 25.6 6.4-22.4 19.2-44.8 35.2-60.8-144-22.4-201.6-108.8-201.6-211.2 0-48 16-96 48-131.2-22.4-60.8 0-115.2 3.2-121.6 57.6-6.4 118.4 41.6 124.8 44.8 32-9.6 70.4-12.8 112-12.8 41.6 0 80 6.4 112 12.8 12.8-9.6 67.2-48 121.6-44.8 3.2 6.4 25.6 57.6 6.4 118.4 32 38.4 48 83.2 48 131.2 0 102.4-57.6 188.8-201.6 214.4 22.4 22.4 38.4 54.4 38.4 92.8v112c0 9.6 0 19.2 16 19.2C832 876.8 960 710.4 960 512c0-246.4-201.6-448-448-448S64 265.6 64 512z"
    fill="#735CFC"
    p-id="1452"
  ></path>
</svg>
