<!--
  ~ Licensed to the Apache Software Foundation (ASF) under one
  ~ or more contributor license agreements.  See the NOTICE file
  ~ distributed with this work for additional information
  ~ regarding copyright ownership.  The ASF licenses this file
  ~ to you under the Apache License, Version 2.0 (the
  ~ "License"); you may not use this file except in compliance
  ~ with the License.  You may obtain a copy of the License at
  ~
  ~   http://www.apache.org/licenses/LICENSE-2.0
  ~
  ~ Unless required by applicable law or agreed to in writing,
  ~ software distributed under the License is distributed on an
  ~ "AS IS" BASIS, WITHOUT WARRANTIES OR CONDITIONS OF ANY
  ~ KIND, either express or implied.  See the License for the
  ~ specific language governing permissions and limitations
  ~ under the License.
-->
<svg width="17" height="18" viewBox="0 0 17 18" fill="none" xmlns="http://www.w3.org/2000/svg">
  <path
    d="M1.5247 9.13256L5.7097 11.2701C5.83345 11.3319 6.10345 11.4838 6.25532 11.2363C6.39595 11.0057 6.1597 10.8201 6.0472 10.7357L1.17595 7.00631C0.821572 6.72506 0.742822 6.17944 1.01282 5.80819C1.28282 5.42006 1.84532 5.30756 2.22782 5.57194L7.17782 9.12131C7.26782 9.18881 7.51532 9.36881 7.69532 9.16068C7.87532 8.96381 7.67845 8.73881 7.5997 8.65443L3.00407 3.80569C2.6722 3.44006 2.6947 2.83256 3.13907 2.42194C3.49345 2.09569 4.11782 2.08444 4.45532 2.43319L8.9722 7.13568C9.0397 7.20318 9.24782 7.41693 9.46157 7.25943C9.68095 7.09068 9.52344 6.84318 9.48407 6.74756L6.6772 2.09006C6.48595 1.79194 6.48032 1.17881 6.99782 0.869437C7.5322 0.554437 8.04407 0.869437 8.24095 1.20131L11.3628 6.21881C11.8072 6.96131 12.5047 7.58568 13.1234 7.87818C13.6016 8.10318 13.9728 7.81631 14.0347 7.31568C14.1303 6.53944 14.2822 5.57756 14.5522 4.76756C14.8334 3.91819 15.8234 3.49631 16.6672 3.92381L16.3803 5.05444C16.0934 6.20193 16.0597 7.40568 16.2566 8.57568C16.4253 9.55443 16.5941 10.8144 16.5716 11.9338C16.5434 13.6213 15.4072 14.3582 14.3891 15.2751C9.99595 19.2632 6.80095 13.8407 5.24282 13.0701L0.714697 10.5557C0.332197 10.3363 0.247822 9.82443 0.472822 9.45318C0.692197 9.09318 1.1422 8.93568 1.5247 9.13256Z"
    fill="#FFC41C"
  />
  <path
    d="M15.3509 3.9013C15.4859 3.92943 15.6153 3.9688 15.7447 4.03068L15.4578 5.1613C15.1709 6.3088 15.1372 7.51255 15.3341 8.68255C15.5028 9.6613 15.6716 10.9213 15.6491 12.0407C15.6209 13.7282 14.4847 14.4651 13.4666 15.3819C12.6341 16.1357 11.8466 16.5519 11.1041 16.7263C12.1053 16.7432 13.2022 16.3551 14.3834 15.2807C15.4016 14.3638 16.5322 13.6269 16.5659 11.9394C16.5884 10.8144 16.4197 9.55443 16.2509 8.5813C16.0484 7.4113 16.0878 6.20755 16.3747 5.06005L16.6616 3.92943C16.2284 3.71005 15.7503 3.7213 15.3509 3.9013Z"
    fill="#F2C34E"
  />
  <path
    d="M15.3397 8.12567C15.5085 9.10442 15.6772 10.3644 15.6547 11.4838C15.6266 13.1713 14.4903 13.9082 13.4722 14.825C11.7172 16.4169 10.1535 16.5069 8.80908 15.995C10.3391 16.9232 12.2178 17.255 14.3891 15.2807C15.4072 14.3638 16.5378 13.6269 16.5716 11.9394C16.5941 10.8144 16.4253 9.55442 16.2566 8.5813C16.0597 7.4113 15.1372 6.95567 15.3397 8.12567Z"
    fill="#F2C34E"
  />
  <path
    d="M3.53285 2.53444L8.5391 7.69256C8.6066 7.76006 8.81472 7.97381 9.02847 7.81631C9.24785 7.64756 9.09035 7.40006 9.05097 7.30444L8.8316 6.93881L4.45535 2.43881C4.14597 2.11819 3.60597 2.10131 3.24597 2.34319C3.35285 2.38819 3.44847 2.45006 3.53285 2.53444Z"
    fill="#F2C34E"
  />
  <path
    d="M1.26033 5.70693L6.75033 9.63881C6.85158 9.71193 7.1272 9.90881 7.32408 9.67818C7.49845 9.49256 7.35783 9.27881 7.2622 9.16631L2.27845 5.59443C1.94658 5.36381 1.47408 5.39756 1.14783 5.64506C1.1872 5.66756 1.22658 5.68443 1.26033 5.70693Z"
    fill="#F2C34E"
  />
  <path
    d="M7.31845 1.30256L10.4403 6.32006C10.8847 7.06256 11.5822 7.68694 12.201 7.97944C12.5328 8.13694 12.8141 8.03569 12.9772 7.79381C12.3978 7.47881 11.7791 6.90506 11.3628 6.21881L8.24095 1.20131C8.04408 0.869437 7.5322 0.554437 6.99783 0.869437C6.96408 0.886312 6.94158 0.908812 6.91345 0.931312C7.08783 1.02694 7.23408 1.16194 7.31845 1.30256Z"
    fill="#F2C34E"
  />
  <path
    d="M5.3947 11.7932C5.53533 11.8663 5.85595 12.0407 6.03032 11.7538C6.09783 11.6413 6.08095 11.5457 6.04157 11.4613L1.57532 9.17758C1.22095 8.99758 0.8272 9.07633 0.551575 9.3182L5.3947 11.7932Z"
    fill="#F2C34E"
  />
  <path
    d="M11.1828 17.0132C9.15784 17.0132 7.50972 15.4494 6.36222 14.3638C5.86722 13.8913 5.43409 13.4863 5.11909 13.3288L0.579721 10.8088C0.343471 10.6738 0.174721 10.4544 0.107221 10.1844C0.0284707 9.89193 0.0790957 9.57694 0.230971 9.31256C0.529096 8.80631 1.1366 8.62068 1.64847 8.87943L5.83347 11.0169C5.87847 11.0394 5.98534 11.0901 6.01909 11.0901C6.00222 11.0732 5.95722 11.0282 5.87284 10.9607L1.0016 7.23131C0.523471 6.84881 0.427846 6.14006 0.776596 5.64506C0.950971 5.39756 1.2266 5.21756 1.5416 5.16693C1.84535 5.11068 2.14347 5.17818 2.37972 5.34693L7.33534 8.89631C7.43659 8.97506 7.47597 8.98068 7.48722 8.98068C7.48159 8.97506 7.47034 8.93006 7.39722 8.85131L2.79597 4.00256C2.34597 3.49631 2.40785 2.71443 2.94222 2.21943C3.42035 1.78631 4.2191 1.79756 4.65222 2.24193L9.16909 6.94443C9.24784 7.02318 9.28159 7.03443 9.29847 7.04006C9.29284 7.01193 9.25347 6.93318 9.24222 6.90506L6.42972 2.24193C6.27784 2.01131 6.22722 1.67381 6.30034 1.37006C6.37347 1.06068 6.56472 0.807559 6.84597 0.638809C7.48159 0.261934 8.17347 0.560059 8.47722 1.06631L11.5935 6.08381C11.9872 6.74193 12.6341 7.34943 13.236 7.64193C13.3203 7.68131 13.4497 7.71506 13.551 7.65881C13.6522 7.60256 13.7253 7.47318 13.7478 7.29318C13.8378 6.59568 13.9841 5.56068 14.2766 4.69443C14.4341 4.21068 14.7997 3.82256 15.2778 3.62568C15.7616 3.42881 16.3128 3.45131 16.791 3.68756C16.9091 3.74943 16.971 3.87881 16.9372 4.00818L16.6503 5.13881C16.3747 6.24131 16.3353 7.38881 16.5322 8.54193C16.7628 9.86381 16.8697 11.0113 16.8528 11.9563C16.8247 13.5482 15.8853 14.3638 14.9741 15.1569C14.8447 15.2694 14.7097 15.3876 14.5803 15.5057C13.3653 16.5969 12.2235 17.0132 11.1828 17.0132ZM1.17035 9.32943C0.990346 9.32943 0.821596 9.42506 0.720346 9.59944V9.60506C0.641596 9.73444 0.619096 9.89756 0.652846 10.0438C0.675346 10.1282 0.731596 10.2463 0.855346 10.3194L5.37784 12.8338C5.76034 13.0194 6.21597 13.4526 6.74472 13.9588C8.53909 15.6576 10.9916 17.9863 14.1978 15.0782C14.3328 14.9544 14.4678 14.8419 14.6028 14.7238C15.4916 13.9476 16.2622 13.2838 16.2903 11.9394C16.3072 11.0338 16.2003 9.92006 15.981 8.63193C15.7672 7.40006 15.8122 6.17381 16.1047 4.99256L16.3297 4.09818C16.0541 4.01381 15.7616 4.02506 15.4916 4.13756C15.1653 4.27256 14.9178 4.53693 14.811 4.86318C14.5353 5.69006 14.3891 6.68006 14.3047 7.35506C14.2597 7.70943 14.0853 7.99631 13.8266 8.14256C13.5847 8.27756 13.2866 8.27756 12.9997 8.14256C12.291 7.80506 11.571 7.12443 11.121 6.37068L7.99909 1.35318C7.90909 1.20693 7.56597 0.858184 7.13847 1.11693C6.98659 1.20693 6.89097 1.33631 6.85159 1.49381C6.80659 1.67381 6.85159 1.84818 6.90784 1.93818L9.72034 6.60131C9.96784 7.09068 9.80472 7.34381 9.63034 7.47881C9.47847 7.59131 9.16909 7.72631 8.77534 7.33818L4.25285 2.63006C4.02785 2.40506 3.57785 2.40506 3.33035 2.63006C2.98722 2.95068 2.99847 3.38381 3.21222 3.62006L7.80222 8.45756C8.14534 8.81756 8.07784 9.15506 7.89784 9.35193C7.81909 9.44193 7.50972 9.72881 7.00347 9.34631L2.05347 5.80256C1.94097 5.72381 1.79472 5.69006 1.63722 5.71818C1.4741 5.74631 1.32785 5.83631 1.23785 5.96568C1.05785 6.21881 1.10847 6.59568 1.34472 6.78693L6.21034 10.5107C6.66034 10.8651 6.60972 11.1801 6.48597 11.3769C6.35659 11.5907 6.09222 11.7876 5.58034 11.5176L1.38972 9.37443C1.32222 9.34631 1.2491 9.32943 1.17035 9.32943Z"
    fill="#04212F"
  />
  <path
    d="M3.93785 15.9726C2.29535 15.9726 0.77097 15.0388 0.0284694 13.5594C-0.0390306 13.4244 0.0172194 13.2557 0.157844 13.1826C0.298469 13.1151 0.46722 13.1713 0.53472 13.3063C1.19847 14.6226 2.5766 15.4494 4.05035 15.4044C4.20785 15.4101 4.33722 15.5226 4.33722 15.6801C4.34285 15.8376 4.2191 15.9669 4.0616 15.9669C4.02222 15.9726 3.98285 15.9726 3.93785 15.9726Z"
    fill="#04212F"
  />
  <path
    d="M3.9097 14.5776C3.89845 14.5776 3.89282 14.5776 3.88157 14.5776C2.80157 14.4707 1.8397 13.8407 1.31657 12.8901C1.24345 12.7551 1.28845 12.5807 1.42907 12.5076C1.56407 12.4345 1.73845 12.4795 1.81157 12.6201C2.2447 13.4076 3.04345 13.9307 3.93782 14.0207C4.0897 14.0376 4.20782 14.1726 4.19095 14.3301C4.17407 14.4707 4.05032 14.5776 3.9097 14.5776Z"
    fill="#04212F"
  />
  <path
    d="M13.3653 4.34007C13.2247 4.34007 13.1009 4.23319 13.0841 4.08694C12.9266 2.62445 11.9197 1.37007 10.5247 0.891946C10.3784 0.841321 10.2997 0.683821 10.3503 0.537571C10.4009 0.391321 10.5584 0.312571 10.7047 0.363196C12.3022 0.908821 13.4553 2.34882 13.6409 4.03069C13.6578 4.18257 13.5453 4.32319 13.3934 4.34007C13.3878 4.34007 13.3766 4.34007 13.3653 4.34007Z"
    fill="#04212F"
  />
  <path
    d="M11.9985 4.62131C11.8635 4.62131 11.7397 4.52006 11.7228 4.37944C11.5878 3.49069 11.0253 2.72006 10.2153 2.32631C10.0747 2.25881 10.0185 2.09006 10.086 1.94944C10.1535 1.80881 10.3222 1.75256 10.4628 1.82006C11.436 2.29819 12.1166 3.22069 12.2797 4.29506C12.3022 4.44694 12.1953 4.59319 12.0435 4.61569C12.0266 4.61569 12.0153 4.62131 11.9985 4.62131Z"
    fill="#04212F"
  />
</svg>
