<!--
  ~ Licensed to the Apache Software Foundation (ASF) under one
  ~ or more contributor license agreements.  See the NOTICE file
  ~ distributed with this work for additional information
  ~ regarding copyright ownership.  The ASF licenses this file
  ~ to you under the Apache License, Version 2.0 (the
  ~ "License"); you may not use this file except in compliance
  ~ with the License.  You may obtain a copy of the License at
  ~
  ~   http://www.apache.org/licenses/LICENSE-2.0
  ~
  ~ Unless required by applicable law or agreed to in writing,
  ~ software distributed under the License is distributed on an
  ~ "AS IS" BASIS, WITHOUT WARRANTIES OR CONDITIONS OF ANY
  ~ KIND, either express or implied.  See the License for the
  ~ specific language governing permissions and limitations
  ~ under the License.
-->
<svg width="70" height="70" viewBox="0 0 70 70" fill="none" xmlns="http://www.w3.org/2000/svg">
  <path
    fill-rule="evenodd"
    clip-rule="evenodd"
    d="M21.3258 45.7698L32.1297 50.1523L23.6195 68.4316C23.5533 68.5736 23.4229 68.6611 23.2662 68.6682C23.1097 68.6754 22.9717 68.6002 22.893 68.4647L19.7222 63.0082L13.5055 64.0945C13.3511 64.1214 13.2047 64.0644 13.1094 63.94C13.0141 63.8156 12.9969 63.6594 13.063 63.5174L21.3258 45.7698Z"
    fill="#FE646F"
  />
  <path
    fill-rule="evenodd"
    clip-rule="evenodd"
    d="M30.0274 49.2994L32.1297 50.1523L27.8633 59.3161L27.6939 59.6799L27.5245 60.0438L27.3551 60.4076L27.1857 60.7714L27.0163 61.1352L26.8469 61.499L26.6775 61.8628L26.5081 62.2266L26.3387 62.5904L26.1693 62.9542L25.9999 63.318L25.8305 63.6818L25.6611 64.0456L25.4917 64.4095L25.3224 64.7733L25.153 65.1371L24.9836 65.5009L24.8142 65.8647L24.6448 66.2285L24.4754 66.5923L24.306 66.9561L24.1366 67.3199L23.9672 67.6837L23.7978 68.0475L23.6284 68.4114L23.6195 68.4305L23.6164 68.4372C23.5492 68.5754 23.4205 68.6602 23.2662 68.6672C23.1097 68.6743 22.9717 68.5991 22.893 68.4636L21.9001 66.755L28.4855 52.6102L30.0274 49.2994Z"
    fill="#FD4755"
  />
  <path
    fill-rule="evenodd"
    clip-rule="evenodd"
    d="M48.833 45.7698L38.0291 50.1523L46.5392 68.4316C46.6054 68.5736 46.736 68.6611 46.8925 68.6682C47.0491 68.6754 47.187 68.6002 47.2658 68.4645L50.4364 63.0081L56.6532 64.0943C56.8075 64.1213 56.9539 64.0642 57.0492 63.9398C57.1445 63.8154 57.1618 63.6593 57.0956 63.5172L48.833 45.7698Z"
    fill="#FE646F"
  />
  <path
    fill-rule="evenodd"
    clip-rule="evenodd"
    d="M48.833 45.7698L46.7307 46.6226L54.7066 63.7543L56.6532 64.0945C56.8076 64.1214 56.954 64.0644 57.0493 63.94C57.1446 63.8156 57.1618 63.6594 57.0956 63.5174L48.833 45.7698Z"
    fill="#FD4755"
  />
  <path
    fill-rule="evenodd"
    clip-rule="evenodd"
    d="M38.5679 2.53724L42.155 5.22226C43.1361 5.95657 44.1687 6.33241 45.3922 6.4005L49.8659 6.64933C52.5448 6.79835 54.7204 8.62395 55.3324 11.2362L56.3543 15.5988C56.6338 16.7919 57.1833 17.7436 58.0767 18.5821L61.3439 21.6486C63.3002 23.4846 63.7933 26.2816 62.583 28.6761L60.5616 32.675C60.0088 33.7686 59.818 34.8509 59.9634 36.0675L60.4953 40.5166C60.8137 43.1806 59.3936 45.6401 56.9273 46.6964L52.8084 48.4604C51.6818 48.9429 50.8401 49.6491 50.1693 50.6748L47.7169 54.4247C46.2485 56.6701 43.5796 57.6415 41.0113 56.8653L36.7222 55.5691C35.5492 55.2146 34.4503 55.2146 33.2773 55.5691L28.9882 56.8653C26.4199 57.6415 23.7511 56.6701 22.2827 54.4247L19.8302 50.6748C19.1594 49.6491 18.3177 48.9429 17.1911 48.4605L13.0726 46.6963C10.6063 45.6401 9.18623 43.1804 9.50464 40.5165L10.0365 36.0674C10.1818 34.8506 9.99109 33.7684 9.4382 32.6748L7.41681 28.6759C6.20644 26.2816 6.69959 23.4846 8.65589 21.6485L11.9231 18.582C12.8165 17.7434 13.366 16.7918 13.6454 15.5987L14.6674 11.2361C15.2794 8.62382 17.455 6.79821 20.1338 6.64919L24.6076 6.40036C25.8312 6.33228 26.8638 5.95644 27.8448 5.22212L31.4319 2.5371C33.5799 0.929424 36.4201 0.929424 38.5679 2.53724Z"
    fill="#FFE177"
  />
  <path
    fill-rule="evenodd"
    clip-rule="evenodd"
    d="M38.5679 2.53724L42.1549 5.22225C43.136 5.95657 44.1687 6.33241 45.3922 6.4005L49.8659 6.64932C52.5448 6.79835 54.7204 8.62382 55.3323 11.2361L56.3543 15.5987C56.6337 16.7918 57.1832 17.7435 58.0767 18.5821L61.3438 21.6486C63.3001 23.4846 63.7933 26.2816 62.5829 28.6759L60.5615 32.6748C60.0086 33.7686 59.8179 34.8507 59.9632 36.0674L60.4951 40.5165C60.8135 43.1804 59.3935 45.64 56.9271 46.6963L52.8082 48.4602C51.6818 48.9427 50.84 49.649 50.1693 50.6747L47.7168 54.4246C46.3593 56.5003 43.9762 57.487 41.5949 57.0113C43.1034 56.7043 44.4604 55.8055 45.3635 54.4246L47.8159 50.6747C48.4867 49.649 49.3284 48.9427 50.4549 48.4602L54.5738 46.6963C57.0401 45.6401 58.4602 43.1804 58.1417 40.5165L57.6099 36.0674C57.4644 34.8506 57.6553 33.7684 58.2082 32.6748L60.2296 28.6759C61.4399 26.2816 60.9468 23.4846 58.9905 21.6486L55.7233 18.5821C54.8299 17.7435 54.2804 16.7918 54.0009 15.5987L52.979 11.2361C52.367 8.62382 50.1914 6.79821 47.5125 6.64932L43.0388 6.4005C41.8152 6.33241 40.7826 5.95657 39.8016 5.22225L36.2145 2.53724C35.4799 1.98735 34.6644 1.62573 33.8233 1.45196C35.4415 1.11755 37.1545 1.47931 38.5679 2.53724ZM33.8232 55.4287C33.6427 55.4668 33.461 55.5136 33.2774 55.5691L28.9882 56.8653C27.9994 57.1642 26.9957 57.2037 26.0514 57.0115C26.2461 56.9725 26.4408 56.9241 26.6349 56.8653L30.924 55.5691C31.9136 55.2699 32.8503 55.2232 33.8232 55.4287Z"
    fill="#FFD064"
  />
  <path
    d="M47.9327 42.1706C55.0791 35.0243 55.0791 23.4378 47.9327 16.2914C40.7864 9.14507 29.1998 9.14507 22.0535 16.2914C14.9072 23.4378 14.9072 35.0243 22.0535 42.1706C29.1998 49.317 40.7864 49.317 47.9327 42.1706Z"
    fill="#FFD064"
  />
  <path
    fill-rule="evenodd"
    clip-rule="evenodd"
    d="M35 10.9282C35.3954 10.9282 35.7875 10.9422 36.1766 10.9669C26.6171 11.5737 19.0512 19.5177 19.0512 29.2304C19.0512 38.9429 26.6172 46.887 36.1766 47.4938C35.7875 47.5185 35.3954 47.5325 35 47.5325C24.892 47.5325 16.6979 39.3384 16.6979 29.2305C16.6979 19.1223 24.892 10.9282 35 10.9282Z"
    fill="#FFC338"
  />
  <path
    fill-rule="evenodd"
    clip-rule="evenodd"
    d="M32.7119 30.7671L41.1832 22.2112C42.1861 21.1984 43.822 21.1955 44.8318 22.1999C45.8415 23.2039 45.8446 24.8353 44.843 25.8462C41.4078 29.3132 37.9959 32.8031 34.5448 36.2543C33.536 37.2631 31.8993 37.2631 30.8905 36.2543L25.1648 30.5288C24.156 29.5199 24.156 27.8833 25.1648 26.8744C26.1737 25.8656 27.8103 25.8656 28.8193 26.8744L32.7119 30.7671Z"
    fill="#ECEFF1"
  />
</svg>
