<!--
  ~ Licensed to the Apache Software Foundation (ASF) under one
  ~ or more contributor license agreements.  See the NOTICE file
  ~ distributed with this work for additional information
  ~ regarding copyright ownership.  The ASF licenses this file
  ~ to you under the Apache License, Version 2.0 (the
  ~ "License"); you may not use this file except in compliance
  ~ with the License.  You may obtain a copy of the License at
  ~
  ~   http://www.apache.org/licenses/LICENSE-2.0
  ~
  ~ Unless required by applicable law or agreed to in writing,
  ~ software distributed under the License is distributed on an
  ~ "AS IS" BASIS, WITHOUT WARRANTIES OR CONDITIONS OF ANY
  ~ KIND, either express or implied.  See the License for the
  ~ specific language governing permissions and limitations
  ~ under the License.
-->
<svg width="63" height="63" viewBox="0 0 63 63" fill="none" xmlns="http://www.w3.org/2000/svg">
  <g clip-path="url(#clip0_69_376)">
    <path
      d="M51.6549 59.1972V62.3662C51.6549 62.7161 51.371 63 51.0211 63H13.8803L12.3565 62.6669C12.0067 62.6669 11.7227 62.3829 11.7227 62.0331L11.3451 59.1972L31.5 57.9984L51.6549 59.1972Z"
      fill="#F9F8F9"
    />
    <path
      d="M39.7394 0C41.0879 4.58087 36.0507 8.73976 31.5 8.73976C26.9493 8.73976 21.8796 3.96596 23.2605 0C25.7869 1.55408 28.6428 2.33239 31.5 2.33239C34.3571 2.33239 37.2131 1.55408 39.7394 0Z"
      fill="#FF5F7A"
    />
    <path
      d="M43.5423 0C45.8563 6.76547 38.1511 12.6775 31.5 12.6775C24.8489 12.6775 17.9366 6.33866 19.4578 0H23.2606C23.2606 4.55071 26.9493 8.23944 31.5 8.23944C36.0507 8.23944 39.7395 4.55071 39.7395 0H43.5423Z"
      fill="#F9F8F9"
    />
    <path
      d="M61.7149 21.0663L51.9786 25.3588L51.6549 26.3662V59.1972H12.0894L12.1217 25.6987L1.40921 21.4327C1.12146 21.3034 0.971884 20.9827 1.05808 20.6797L4.55883 8.27582C5.29784 5.69624 7.34122 3.69723 9.93601 3.01399L19.2451 0.697183C19.2451 1.59845 19.7444 2.6242 19.7444 2.6242C20.942 8.01317 25.7501 12.0423 31.5 12.0423C38.1511 12.0423 43.5423 6.65113 43.5423 0L53.8073 2.70127C56.4021 3.38451 58.4455 5.38352 59.1845 7.9631L61.8914 17.4206L62.066 20.3134C62.1522 20.6163 62.0027 20.937 61.7149 21.0663Z"
      fill="#FF7E92"
    />
    <path
      d="M46.9649 31.1831C46.9649 35.0544 45.5223 38.7621 42.9022 41.6219L42.8274 41.703L42.8173 41.7119C39.8967 44.8504 35.7782 46.6479 31.5001 46.6479C22.9729 46.6479 16.0353 39.7103 16.0353 31.1831C16.0353 26.3827 18.213 21.9347 22.0108 18.9786C24.7488 16.8465 28.0294 15.7183 31.5001 15.7183C40.0273 15.7183 46.9649 22.6559 46.9649 31.1831Z"
      fill="#FF5F7A"
    />
    <path
      d="M13.8803 59.1972V63H11.9789C11.629 63 11.3451 62.716 11.3451 62.3662V59.1972L12.6127 58.5485L13.8803 59.1972Z"
      fill="#E8E8E8"
    />
    <path
      d="M11.3451 14.2606H10.3944C9.86964 14.2606 9.44373 14.6865 9.44373 15.2113V23.7461H11.3451L12.6127 19.8624L11.3451 14.2606Z"
      fill="#EF4B72"
    />
    <path
      d="M40.0801 36.3445C38.2072 39.1678 35.0008 41.0337 31.3667 41.0337C29.2403 41.0337 27.2601 40.394 25.6074 39.2974L31.4768 33.428C33.8818 35.2312 36.8583 36.3112 40.0801 36.3445Z"
      fill="#75CFF9"
    />
    <path
      d="M29.4491 31.2763L23.2802 37.4451C22.1275 35.7081 21.4553 33.6269 21.4553 31.3919C21.4553 27.5722 23.4164 24.2022 26.3836 22.2338C26.4189 25.62 27.5539 28.7483 29.4491 31.2763Z"
      fill="#B2E5FB"
    />
    <path
      d="M41.5217 31.5623C41.5217 32.0615 41.4844 32.5525 41.4164 33.0324C40.9296 33.1017 40.4387 33.1377 39.9464 33.1377C34.2106 33.1377 29.5454 28.4725 29.5454 22.7368C29.5454 22.2348 29.5801 21.7466 29.6481 21.2681C30.1293 21.1988 30.6202 21.1614 31.1209 21.1614C36.8552 21.1614 41.5217 25.8279 41.5217 31.5623Z"
      fill="#91DAFA"
    />
    <path
      d="M36.5704 50.5141H26.4296C25.9045 50.5141 25.4789 50.0884 25.4789 49.5634C25.4789 49.0383 25.9045 48.6127 26.4296 48.6127H36.5704C37.0955 48.6127 37.5211 49.0383 37.5211 49.5634C37.5211 50.0884 37.0955 50.5141 36.5704 50.5141Z"
      fill="#FF5F7A"
    />
    <path
      d="M39.1057 54.3169H23.8944C23.3694 54.3169 22.9437 53.8912 22.9437 53.3662C22.9437 52.8411 23.3694 52.4155 23.8944 52.4155H39.1057C39.6307 52.4155 40.0564 52.8411 40.0564 53.3662C40.0564 53.8912 39.6307 54.3169 39.1057 54.3169Z"
      fill="#FF5F7A"
    />
    <path
      d="M62.4981 21.5202L53.5563 25.5165L51.7845 25.9172L51.9869 22.3086L53.5564 21.1613L61.891 17.4208L62.8494 20.7673C62.9354 21.0701 62.7858 21.3909 62.4981 21.5202Z"
      fill="#F9F8F9"
    />
    <path
      d="M11.0646 22.1602L10.9567 26.0763L9.44381 25.5165L2.64932 22.4799L0.940458 21.0553C0.652711 20.926 0.503134 20.6053 0.589331 20.3024L1.10918 17.4207L9.44381 21.1612L11.0646 22.1602Z"
      fill="#F9F8F9"
    />
    <path d="M11.3451 22.0145L11.9601 24.3502L11.3451 26.3662L9.44373 25.5169V21.1614L11.3451 22.0145Z" fill="#E8E8E8" />
    <path
      d="M44.8099 31.1831C44.8099 23.844 38.8391 17.8732 31.5 17.8732C28.4253 17.8732 25.5907 18.9213 23.3348 20.6788C20.205 23.1152 18.1902 26.9189 18.1902 31.1831C18.1902 38.5225 24.1606 44.493 31.5 44.493C35.3766 44.493 38.8722 42.8266 41.3057 40.1727C41.3099 40.169 41.3132 40.166 41.3132 40.166C43.4837 37.7967 44.8099 34.6419 44.8099 31.1831ZM30.1286 21.9672C30.1424 21.8526 30.2337 21.7614 30.3482 21.7474C30.7259 21.7011 31.11 21.676 31.5 21.676C36.7422 21.676 41.0071 25.9409 41.0071 31.1831C41.0071 31.5724 40.9821 31.9558 40.936 32.3329C40.922 32.4474 40.8306 32.5385 40.7162 32.5526C40.3351 32.5991 39.9514 32.6232 39.567 32.6232C34.3248 32.6232 30.0599 28.3584 30.0599 23.1162C30.06 22.7242 30.0831 22.3429 30.1286 21.9672ZM26.4845 38.8876L31.4468 33.9253C31.5352 33.8369 31.6737 33.8273 31.7749 33.9006C33.8132 35.3775 36.285 36.2905 38.9597 36.4112C39.1617 36.4203 39.2739 36.651 39.1538 36.8138C37.4214 39.1628 34.6362 40.6901 31.5 40.6901C29.6803 40.6901 27.979 40.175 26.5324 39.2844C26.3922 39.198 26.368 39.0041 26.4845 38.8876ZM25.8693 23.5292C26.0321 23.4091 26.2628 23.5214 26.2719 23.7234C26.3926 26.398 27.3057 28.8698 28.7826 30.9081C28.8558 31.0093 28.8462 31.148 28.7578 31.2362L23.7955 36.1985C23.679 36.315 23.4851 36.2908 23.3988 36.1506C22.5083 34.704 21.993 33.0027 21.993 31.183C21.993 28.0469 23.5203 25.2617 25.8693 23.5292Z"
      fill="#F9F8F9"
    />
    <path d="M13.8803 16.7958V59.1972H11.3451V14.2606C12.7453 14.2606 13.8803 15.3956 13.8803 16.7958Z" fill="#FF5F7A" />
    <path
      d="M19.7455 2.62395L11.6011 4.72944C9.00633 5.41268 6.96295 7.41169 6.22394 9.99127L3.75705 18.6097L1.81381 18.9184L1.10876 17.4206L3.81548 7.9631C4.5545 5.38352 6.59788 3.38451 9.19267 2.70127L19.4577 0C19.4577 0.901268 19.5566 1.77972 19.7455 2.62395Z"
      fill="#FF5F7A"
    />
    <path
      d="M3.75719 18.6097L2.64931 22.4797L0.501981 21.5202C0.214235 21.3909 0.0646573 21.0702 0.150854 20.7672L1.10916 17.4207L3.75719 18.6097Z"
      fill="#E8E8E8"
    />
    <path
      d="M53.5563 15.2113V21.1614L52.6056 23.0448L51.6549 22.0145V15.2113C51.6549 14.6865 52.0808 14.2606 52.6056 14.2606C53.1304 14.2606 53.5563 14.6865 53.5563 15.2113Z"
      fill="#FF5F7A"
    />
    <path d="M53.5563 21.1614V25.5169L51.6549 26.3662V22.0145L53.5563 21.1614Z" fill="#E8E8E8" />
  </g>
  <defs>
    <clipPath id="clip0_69_376">
      <rect width="63" height="63" fill="white" />
    </clipPath>
  </defs>
</svg>
