<!--
  ~ Licensed to the Apache Software Foundation (ASF) under one
  ~ or more contributor license agreements.  See the NOTICE file
  ~ distributed with this work for additional information
  ~ regarding copyright ownership.  The ASF licenses this file
  ~ to you under the Apache License, Version 2.0 (the
  ~ "License"); you may not use this file except in compliance
  ~ with the License.  You may obtain a copy of the License at
  ~
  ~   http://www.apache.org/licenses/LICENSE-2.0
  ~
  ~ Unless required by applicable law or agreed to in writing,
  ~ software distributed under the License is distributed on an
  ~ "AS IS" BASIS, WITHOUT WARRANTIES OR CONDITIONS OF ANY
  ~ KIND, either express or implied.  See the License for the
  ~ specific language governing permissions and limitations
  ~ under the License.
-->
<svg width="83" height="83" viewBox="0 0 83 83" fill="none" xmlns="http://www.w3.org/2000/svg">
  <g clip-path="url(#clip0_69_290)">
    <path
      d="M60.5294 63.9455H52.6272V19.0545H60.5294C61.2109 19.0545 61.7632 18.5022 61.7632 17.8207C61.7632 17.1392 61.2109 16.5869 60.5294 16.5869H52.6272V10.2829C52.6272 9.60144 52.0749 9.04913 51.3932 9.04913C50.7115 9.04913 50.1594 9.60144 50.1594 10.2829V16.5867H11.604V10.2829C11.604 9.60144 11.0515 9.04913 10.3701 9.04913C9.68879 9.04913 9.13632 9.60144 9.13632 10.2829V16.5867H1.23381C0.552307 16.5867 0 17.139 0 17.8205C0 18.5021 0.552469 19.0544 1.23381 19.0544H9.13616V63.9454H1.23381C0.552307 63.9454 0 64.4977 0 65.1793C0 65.861 0.552469 66.4133 1.23381 66.4133H9.13616V72.7171C9.13616 73.3986 9.68863 73.9509 10.37 73.9509C11.0513 73.9509 11.6038 73.3986 11.6038 72.7171V66.4133H50.1591V72.7171C50.1591 73.3986 50.7114 73.9509 51.3929 73.9509C52.0744 73.9509 52.6269 73.3986 52.6269 72.7171V66.4133H60.529C61.2105 66.4133 61.7629 65.861 61.7629 65.1793C61.7629 64.4977 61.2109 63.9455 60.5294 63.9455ZM11.604 63.9455V19.0545H50.1592V63.9455H11.604Z"
      fill="#B3DAFE"
    />
    <path
      d="M50.125 27.5103L33.3934 17.8416C31.8499 16.9498 29.9319 16.9492 28.3878 17.8397L11.6488 27.4957C10.1048 28.3863 9.14133 30.047 9.14069 31.8295V51.1538C9.14004 52.9362 10.0947 54.5976 11.6381 55.4897L28.3696 65.1583C29.1421 65.6044 30.0081 65.8276 30.8742 65.8276C31.7389 65.8276 32.6037 65.605 33.3752 65.1602L50.1143 55.5043C51.6584 54.6135 52.6218 52.9529 52.6225 51.1705V31.8464C52.6231 30.0638 51.6685 28.4024 50.125 27.5103ZM42.2505 36.4056V46.6031C42.2502 47.507 41.7616 48.349 40.9788 48.8004L32.1458 53.8957C31.3628 54.3475 30.3903 54.3469 29.608 53.8947L20.7788 48.7927C19.9962 48.3404 19.5123 47.4981 19.5128 46.5943V36.3968C19.5131 35.4931 20.0017 34.6511 20.7845 34.1996L29.6175 29.1043C30.0087 28.8787 30.4472 28.7658 30.8857 28.7658C31.3247 28.7658 31.7639 28.8792 32.1554 29.1053L40.9846 34.2074C41.767 34.6595 42.2509 35.5018 42.2505 36.4056Z"
      fill="#01C0FA"
    />
    <path
      d="M50.125 27.5103L33.3934 17.8416C32.0351 17.0569 30.3871 16.9628 28.9587 17.5584C29.1545 17.6401 29.3465 17.734 29.5326 17.8416L46.2642 27.5103C47.8077 28.4022 48.7623 30.0639 48.7615 31.8464V51.1705C48.7609 52.9529 47.7976 54.6137 46.2534 55.5043L29.5143 65.1602C29.329 65.2671 29.1382 65.3603 28.9435 65.4415C29.5598 65.6984 30.2169 65.8276 30.874 65.8276C31.7387 65.8276 32.6036 65.6051 33.3751 65.1602L50.1142 55.5043C51.6582 54.6136 52.6217 52.9529 52.6223 51.1705V31.8464C52.6231 30.0639 51.6685 28.4024 50.125 27.5103Z"
      fill="#0290CF"
    />
    <path
      d="M81.0521 20.2446C83.6494 22.8419 83.6494 27.0528 81.0521 29.6501L79.0769 31.6253L69.6713 22.2197L71.6465 20.2446C74.2438 17.6474 78.4547 17.6474 81.0521 20.2446Z"
      fill="#FE7AB6"
    />
    <path
      d="M81.0521 20.2446C80.7974 19.9899 80.5269 19.7611 80.2443 19.5564C81.5123 21.5413 80.8133 24.7261 78.4707 27.0685L76.4955 29.0437L79.077 31.6251L81.0521 29.65C83.6493 27.0528 83.6493 22.8419 81.0521 20.2446Z"
      fill="#FE3D97"
    />
    <path
      d="M66.6028 25.2885L45.0017 46.8895L40.9881 58.154C40.5108 59.4934 41.8035 60.786 43.1428 60.3088L54.4073 56.2951L76.0084 34.694L66.6028 25.2885Z"
      fill="#FFDFCF"
    />
    <path
      d="M73.1966 31.9338L51.5955 53.5349L41.3949 58.6124C41.1989 58.71 41.012 58.7642 40.8368 58.7877C40.8757 59.8623 41.9667 60.7093 43.0912 60.3088L54.3557 56.2951L75.9568 34.694L73.1966 31.9338Z"
      fill="#FFCEBF"
    />
    <path
      d="M45.0017 46.8893C48.8187 46.2075 50.3863 47.7751 49.7045 51.5921C53.5215 50.9103 55.0891 52.4779 54.4073 56.2949L76.0084 34.6939L66.6028 25.2883L45.0017 46.8893Z"
      fill="#FE9738"
    />
    <path
      d="M54.4174 56.2332L75.9567 34.6939L73.1966 31.9338L53.2505 51.8799C54.4144 52.5559 54.803 54.0074 54.4174 56.2332Z"
      fill="#FE7701"
    />
    <path
      d="M42.3851 54.233L40.9881 58.1538C40.5108 59.4932 41.8035 60.7858 43.1428 60.3086L47.0636 58.9115L42.3851 54.233Z"
      fill="#596C76"
    />
    <path
      d="M40.8879 58.7786C40.9146 59.6504 41.6341 60.3739 42.5043 60.4079C42.6952 60.4094 42.8925 60.3794 43.0911 60.3086L47.05 58.8979L44.9798 56.8278L41.3948 58.6123C41.2176 58.7006 41.0484 58.752 40.8879 58.7786Z"
      fill="#465A61"
    />
    <path
      d="M66.6028 25.2885L45.0017 46.8895C48.8187 46.2077 50.3863 47.7753 49.7045 51.5923L71.3056 29.9912L66.6028 25.2885Z"
      fill="#FDB97E"
    />
    <path
      d="M80.5471 30.2311L71.0657 20.7497C69.8228 19.5068 67.8078 19.5068 66.5649 20.7497C65.322 21.9926 65.322 24.0076 66.5649 25.2505L76.0463 34.7319C77.2892 35.9748 79.3042 35.9748 80.5471 34.7319C81.79 33.489 81.79 31.4739 80.5471 30.2311Z"
      fill="#D8ECFE"
    />
    <path
      d="M80.5471 30.2311L77.8638 27.5479C78.8224 28.5066 78.592 30.2911 77.3491 31.534C76.1063 32.7769 74.3216 33.0073 73.363 32.0487L76.0463 34.732C77.2892 35.9748 79.3042 35.9748 80.5471 34.732C81.79 33.4891 81.79 31.4739 80.5471 30.2311Z"
      fill="#B3DAFE"
    />
  </g>
  <defs>
    <clipPath id="clip0_69_290">
      <rect width="83" height="83" fill="white" />
    </clipPath>
  </defs>
</svg>
