<!--
  ~ Licensed to the Apache Software Foundation (ASF) under one
  ~ or more contributor license agreements.  See the NOTICE file
  ~ distributed with this work for additional information
  ~ regarding copyright ownership.  The ASF licenses this file
  ~ to you under the Apache License, Version 2.0 (the
  ~ "License"); you may not use this file except in compliance
  ~ with the License.  You may obtain a copy of the License at
  ~
  ~   http://www.apache.org/licenses/LICENSE-2.0
  ~
  ~ Unless required by applicable law or agreed to in writing,
  ~ software distributed under the License is distributed on an
  ~ "AS IS" BASIS, WITHOUT WARRANTIES OR CONDITIONS OF ANY
  ~ KIND, either express or implied.  See the License for the
  ~ specific language governing permissions and limitations
  ~ under the License.
-->
<svg
  t="1720472979590"
  class="icon"
  viewBox="0 0 1024 1024"
  version="1.1"
  xmlns="http://www.w3.org/2000/svg"
  p-id="3688"
  width="23"
  height="23"
>
  <path
    d="M848.805886 805.572222c70.998007-81.260745 109.779266-184.217628 109.779266-293.14448
                                0-119.204939-46.421262-231.277434-130.713041-315.569212C744.876861 113.862257 634.94103
                                67.61598 517.788843 66.213028c-1.924839-0.599657-10.290367-0.592494-12.227486 0.01535C388.878868
                                67.945485 279.434224 114.159016 196.73471 196.85853 113.863281 279.730982 67.630307 389.460106
                                66.095347 506.415818c-0.428765 1.64957-0.436952 8.601912-0.021489 10.226922 1.082658 117.628024
                                47.364751 228.058113 130.660852 311.354214 84.291778 84.291778 196.36325 130.713041 315.569212
                                130.713041 119.204939 0 231.277434-46.421262 315.569212-130.713041 6.139837-6.139837
                                12.054547-12.444427 17.789155-18.871813 0.50756-0.453325 1.001817-0.928139 1.471514-1.440815C847.750857
                                807.012014 848.295256 806.299793 848.805886 805.572222zM107.447151 532.043499l187.501418
                                0c1.322112 65.678862 9.253758 127.264499 22.505573 182.112688-61.690014 16.687054-100.819197
                                38.371936-121.076566 51.906184C144.30971 701.336206 111.676475 620.35687 107.447151
                                532.043499zM195.881272 259.408121c20.090571 13.556761 59.242266 35.461653 121.340579
                                52.260248-12.998035 54.127781-20.827351 114.778116-22.243607 179.432649L107.525945
                                491.101018C112.076588 403.731134 144.437623 323.612399 195.881272 259.408121zM917.081898
                                491.099994 729.628576 491.099994c-1.415232-64.630996-9.240455-125.260865-22.229281-179.37432
                                61.95505-16.693194 101.235682-38.444591 121.56673-52.020794C880.270505 323.860039 912.537396
                                403.866211 917.081898 491.099994zM688.677908 491.099994 532.167319 491.099994 532.167319
                                335.061149c52.209082-1.094938 97.103572-6.453992 135.272893-14.033621C680.000272 373.163955 687.286212 430.896844 688.677908 491.099994zM532.167319 294.115598 532.167319 109.918435c36.84107 10.398838 72.779583 49.205679 100.926644 110.015649 8.810666 19.035542 16.645099 39.641859 23.464411 61.521169C621.531626 288.227494 580.261687 293.062616 532.167319 294.115598zM491.223814 110.273523l0 183.805236c-47.504944-1.12666-88.378863-6.001691-123.120109-12.802584 6.807033-21.812795 14.623046-42.35976 23.409153-61.344137C419.351903 159.792333 454.809463 121.175827 491.223814 110.273523zM491.223814 335.040682l0 156.059312L335.928912 491.099994c1.391696-60.213383 8.679683-117.955482 21.243837-170.099073C395.008472 328.536548 439.487499 333.887416 491.223814 335.040682zM335.893096 532.043499l155.330718 0 0 158.667719c-51.609425 1.194198-96.019891 6.563486-133.821845 14.103206C344.576873 651.927913 337.193719 593.243349 335.893096 532.043499zM491.223814 731.672118l0 182.909843c-36.415374-10.902304-71.871911-49.51881-99.709933-109.659539-8.679683-18.752086-16.409738-39.034015-23.157419-60.551074C402.9964 737.645157 443.773106 732.820268 491.223814 731.672118zM532.167319 914.937049 532.167319 731.608673c47.904033 1.025353 89.103364 5.862521 124.116809 12.656251-6.755868 21.555945-14.497179 41.87369-23.190165 60.656475C604.946902 865.73137 569.008388 904.538211 532.167319 914.937049zM532.167319 690.660052 532.167319 532.043499l156.546406 0c-1.298576 61.096497-8.66024 119.68487-21.445428 172.502819C629.154233 697.013761 584.319096 691.710988 532.167319 690.660052zM729.659275 532.043499l187.501418 0c-4.221138 88.138386-36.732599 168.973436-88.620363 233.635131-20.469194-13.668301-59.635215-35.298947-121.30374-51.868321C720.43724 659.049101 728.33921 597.585237 729.659275 532.043499zM801.518906 228.742704c-18.329461 11.570523-52.309366 29.355585-104.858186 43.493583-19.295462-63.056128-46.110177-115.004267-78.06189-150.97655C689.00025 140.410913 751.833297 178.097234 801.518906 228.742704zM406.007991 121.259738c-31.905664 35.920094-58.690704 87.768973-77.979002 150.702304-52.40351-14.241352-86.370113-32.099069-104.581893-43.587728C273.076422 177.914062 335.777463 140.364865 406.007991 121.259738zM223.917816 796.963147c18.284435-11.535731 52.098565-29.230742 104.332207-43.335994 19.271926 62.60485 45.976124 114.186645 77.757968 149.968593C335.99952 884.550994 273.472442 847.181899 223.917816 796.963147zM618.59883 903.595746c31.801287-35.803437 58.517765-87.426165 77.792761-150.08218 51.984978 14.023388 85.972047 31.631418 104.533798 43.208081C751.3329 847.061149 688.718841 884.521319 618.59883 903.595746z"
    fill="#272636"
    p-id="3689"
  ></path>
</svg>
