<!--
  ~ Licensed to the Apache Software Foundation (ASF) under one
  ~ or more contributor license agreements.  See the NOTICE file
  ~ distributed with this work for additional information
  ~ regarding copyright ownership.  The ASF licenses this file
  ~ to you under the Apache License, Version 2.0 (the
  ~ "License"); you may not use this file except in compliance
  ~ with the License.  You may obtain a copy of the License at
  ~
  ~   http://www.apache.org/licenses/LICENSE-2.0
  ~
  ~ Unless required by applicable law or agreed to in writing,
  ~ software distributed under the License is distributed on an
  ~ "AS IS" BASIS, WITHOUT WARRANTIES OR CONDITIONS OF ANY
  ~ KIND, either express or implied.  See the License for the
  ~ specific language governing permissions and limitations
  ~ under the License.
-->
<svg width="53" height="51" viewBox="0 0 53 51" fill="none" xmlns="http://www.w3.org/2000/svg">
<rect width="53" height="51" rx="12" fill="white"/>
<path d="M10.5457 9.64371L7.40261 38.088C7.18024 40.1003 8.62618 41.9535 10.6322 42.2272C12.6382 42.5009 14.4447 41.0914 14.6671 39.0791L15.5923 30.7061C15.6884 29.8363 16.4692 29.2271 17.3363 29.3453C17.9196 29.4249 18.4907 29.1735 18.8193 28.6925L19.0397 28.3697C20.3441 26.4597 23.363 27.6512 23.1063 29.9747L22.6783 33.8475C22.337 36.9365 26.1433 38.7502 28.2174 36.487L32.2265 32.1123C32.6026 31.7019 33.1566 31.5038 33.7149 31.5799C34.6727 31.7106 35.3631 32.5955 35.2569 33.5563L34.335 41.899C34.1209 43.8371 35.5134 45.6219 37.4454 45.8854C39.3774 46.149 41.1171 44.7916 41.3313 42.8535L44.5041 14.1402C44.7183 12.2021 43.3257 10.4174 41.3938 10.1538C39.4618 9.89019 37.722 11.2476 37.5079 13.1857L36.6549 20.9053C36.5489 21.8646 35.6877 22.5364 34.7315 22.406C34.1717 22.3296 33.6164 22.5294 33.241 22.9424L32.7735 23.4567C30.7601 25.6714 27.0433 23.909 27.3761 20.8975L27.4603 20.1356C27.8314 16.7768 23.5818 14.923 21.5007 17.5358L19.8583 19.5979C19.5104 20.0347 18.9583 20.254 18.3985 20.1776C17.5047 20.0557 16.8604 19.2299 16.9595 18.3333L17.8102 10.6348C18.0326 8.62246 16.5866 6.76925 14.5806 6.49556C12.5746 6.22187 10.7681 7.63135 10.5457 9.64371Z" fill="#B421CC"/>
</svg>
