<?xml version="1.0" encoding="utf-8"?>
<!-- Generator: Adobe Illustrator 26.0.2, SVG Export Plug-In . SVG Version: 6.00 Build 0)  -->
<svg version="1.1" id="Layer_1" xmlns="http://www.w3.org/2000/svg" xmlns:xlink="http://www.w3.org/1999/xlink" x="0px" y="0px"
	 viewBox="0 0 512 319.2" style="enable-background:new 0 0 512 319.2;" xml:space="preserve">
<style type="text/css">
	.st0{fill:#FF6A00;}
</style>
<g>
	<rect x="170.8" y="139.6" class="st0" width="170.6" height="38.4"/>
	<path class="st0" d="M426.8,0H313.9l27.2,38.5l82.3,25.7c14.9,4.7,25,18.6,24.8,34.3v122.8l0,0c0.1,15.6-10,29.5-24.8,34.3
		l-82.3,25.2l-27.2,38.5h112.9c47,0,85.2-38,85.2-85c0-0.2,0-0.4,0-0.6v-148C512,38.5,473.9,0.2,426.8,0z"/>
	<path class="st0" d="M85.6,0h112.5l-26.9,38.5L89,64.2c-14.9,4.7-25,18.6-24.9,34.3v122.8l0,0c-0.1,15.6,10,29.5,24.9,34.3
		l82.3,25.2l27.2,38.5H85.6C38.3,319.2,0,280.9,0,233.6v-148C0,38.3,38.3,0,85.6,0z"/>
</g>
</svg>
