<svg xmlns="http://www.w3.org/2000/svg" viewBox="0 0 396.53 299.12"><title>Huawei logo</title><path d="M539.79,595.81a1.46,1.46,0,0,0,1.61.11c17.44-8.72,90.1-45.64,120.13-75,0,0,19.05-15.29,20-39.94,2.15-34.12-32.19-65.77-32.19-65.77s-63.51,77-110.12,178.69a2,2,0,0,0,.54,1.94m167-79.44S603.19,572,549.59,608.19a1.59,1.59,0,0,0-.65,1.72s.54,1,1.29,1c19.16,0,91.71.11,93.65-.22a70.13,70.13,0,0,0,21-4.84s25.83-8.18,39.18-37.57c0,0,11.95-23.9,2.69-51.88M552.28,620a2.07,2.07,0,0,0-1.4,1,1.72,1.72,0,0,0,.43,1.61c11.63,8.4,47,33.15,64,37.89,0,0,31.54,10.76,58.88-36.28l-122-4.2Zm-28.85-34a1.4,1.4,0,0,0,1.72-.65c11.73-16.9,64.37-95.16,75.13-142.73,0,0,5.81-23,.22-38.75,0,0-8-29.82-40.26-37.68,0,0-9.26-2.37-19.16-3.77,0,0-36.17,46.5-18.51,222.18a1.31,1.31,0,0,0,.86,1.4M483.06,362.55c-5.27.43-19.59,3.77-19.59,3.77C431.18,374.6,423.54,404,423.54,404c-5.92,18.41.11,38.75.11,38.75,10.76,47.79,63.72,126.48,75.13,142.95.75.86,1.4.54,1.4.54a1.61,1.61,0,0,0,1.18-1.51C519,409,483.06,362.55,483.06,362.55M475,610.12c.65-1-.43-1.83-.43-1.83-53.5-36.17-157.27-91.71-157.27-91.71a72.12,72.12,0,0,0,65,94.4c1.83.32,72.44,0,91.39-.11a2,2,0,0,0,1.29-.75M473.16,621a1.66,1.66,0,0,0-1.61-1.08l-121.85,4.2c13.24,23.57,35.52,41.87,58.67,36.28,16-4,52.21-29.28,64.16-37.89,1-.75.65-1.4.65-1.51m11.3-25.19a1.3,1.3,0,0,0,.32-1.51A900.92,900.92,0,0,0,374.45,415.18s-34.66,32.94-32.19,66a58.13,58.13,0,0,0,20.13,39.72c30.25,29.49,103.44,66.74,120.45,75.24a1.5,1.5,0,0,0,1.61-.32" transform="translate(-313.74 -362.44)" style="fill:#ce0e2d"/></svg>