<?xml version="1.0" standalone="no"?><!DOCTYPE svg PUBLIC "-//W3C//DTD SVG 1.1//EN" "http://www.w3.org/Graphics/SVG/1.1/DTD/svg11.dtd"><svg t="1736479945195" class="icon" viewBox="0 0 1446 1024" version="1.1" xmlns="http://www.w3.org/2000/svg" p-id="7192" xmlns:xlink="http://www.w3.org/1999/xlink" width="180.75" height="128"><path d="M994.674225 954.138598c0-1.00088-1.00088-1.50132-2.001759-1.000879-12.510996 14.012316-31.52771 25.021992-55.048382 25.021992-35.531229 0-58.551461-24.521552-58.551462-62.55498 0-38.533868 22.019353-62.55498 57.050142-62.55498 20.518033 0 41.536507 9.508357 54.547943 23.020232 1.00088 1.00088 2.001759 0 2.001759-1.000879V856.05239c-14.512755-13.011436-35.030789-21.018473-56.549702-21.018473-22.019353 0-41.036067 8.007037-54.047503 22.519792s-20.017594 34.530349-20.017593 58.551462c0 48.542664 30.52683 81.071254 75.566416 81.071254 21.518913 0 42.537386-8.007037 57.050141-21.518914v-21.518913z m-965.84889-115.101163v17.014955h53.046623v136.620076h18.015834V856.05239h53.547063v-17.014955zM1401.531815 891.583618c-9.508357-10.509237-25.522432-14.012316-36.532108-14.012315-15.513635 0-29.025511 5.504838-38.533868 16.014075-10.008797 10.509237-15.013195 25.522432-15.013195 42.537386 0 41.036067 27.023751 59.051901 54.047503 59.051901 15.513635 0 28.525071-5.504838 36.532108-15.513635v13.011436h18.015834v-154.135471H1401.531815v53.046623z m-0.50044 45.039586c0 21.018473-12.010556 42.036947-35.531228 42.036947-17.515394 0-36.532108-13.011436-36.532109-41.536507 0-21.018473 11.009676-43.538266 35.030789-43.538266 27.524191 0.50044 37.032548 23.520672 37.032548 43.037826z m-382.336037-97.085329h18.516274v153.635031h-18.516274z m-534.970189 125.10996c0-1.00088-1.00088-1.50132-2.001759-1.00088-12.010556 11.009676-29.525951 15.013195-37.032548 15.013196-24.521552 0-40.535627-16.514515-40.535627-42.036947s16.014075-42.036947 40.535627-42.036947c7.506598 0 24.521552 2.001759 37.032548 13.011436 1.00088 0.50044 1.50132 0 1.501319-1.000879v-17.014955c-7.506598-4.503959-23.520672-12.010556-40.035187-12.010556-34.029909 0-57.050142 23.520672-57.050142 59.051901s23.020233 59.051901 57.050142 59.051901c14.012316 0 28.024631-4.003519 40.035187-12.010556l0.50044-19.016714z m-240.711563-3.503079c0-1.00088-1.50132-1.50132-2.001759-0.50044-8.007037 10.509237-28.024631 19.517154-39.534748 19.517154-11.510116 0-22.519793-3.503079-28.024631-10.008797-7.006158-7.506598-11.009676-17.515394-11.009676-28.024631h86.075652v-1.501319c0-24.521552-4.003519-38.033428-15.013195-49.043105-9.007917-9.007917-21.018473-14.012316-36.031668-14.012315-32.02815 0-53.046623 23.020233-53.046623 58.551461 1.00088 37.032548 22.519793 59.051901 56.549702 59.051901 16.514515 0 30.02639-5.504838 42.537386-16.514514l-0.50044-17.515395z m-12.010556-35.030789H162.442772v-0.500439c1.00088-9.508357 5.004398-18.015834 12.510996-24.521553 6.005278-5.004398 14.012316-7.506598 22.019353-7.506597 20.017594 0 33.029029 12.510996 34.029909 32.528589z m1040.914867 11.510117c0 30.52683-17.515394 41.536507-33.02903 41.536506-14.512755 0-30.52683-10.008797-30.52683-29.02551v-69.561138H1191.347082v69.561138c0 27.023751 19.016714 46.040465 47.041345 46.040465 15.513635 0 27.023751-5.004398 35.030789-15.013195v12.010556h16.514515v-112.598964h-17.515395l-0.500439 57.050142zM320.581761 877.571303c-14.012316 0-26.022872 4.503959-34.029909 13.511876v-10.509237h-17.515394v112.598964h17.515394v-64.556739c0-10.509237 3.503079-19.517154 9.007917-25.522432 6.505718-6.005278 14.012316-9.007917 24.021113-8.507478 14.012316 0.50044 28.024631 9.508357 28.024631 29.525951v69.060698H365.621347v-70.061578c0-14.012316-4.503959-25.522432-13.011436-33.529469-7.506598-8.007037-19.016714-12.010556-32.02815-12.010556z m278.744991 83.573453c0-1.00088-1.50132-1.50132-2.001759-0.50044-8.007037 10.509237-28.024631 19.517154-39.534748 19.517154s-22.519793-3.503079-28.024631-10.008797c-7.006158-7.506598-11.009676-17.515394-11.009676-28.024631h86.075652v-1.501319c0-24.521552-4.003519-38.033428-15.013195-49.043105-9.007917-9.007917-21.018473-14.012316-36.031668-14.012315-32.02815 0-53.046623 23.020233-53.046623 58.551461 1.00088 37.032548 22.519793 59.051901 56.549701 59.051901 16.514515 0 30.02639-5.504838 42.537387-16.514514l-0.50044-17.515395z m-12.010556-35.030789h-68.560258v-0.500439c1.00088-9.508357 5.004398-18.015834 12.510996-24.521553 6.005278-5.004398 14.012316-7.506598 22.019353-7.506597 19.517154 0 32.52859 12.510996 34.029909 32.528589z m89.078291-48.542664c-14.012316 0-26.022872 4.503959-34.029909 13.511876v-10.509237h-17.515394v112.598964h17.515394v-64.556739c0-10.509237 3.503079-19.517154 9.007917-25.522432 6.505718-6.005278 14.012316-9.007917 24.021113-8.507478 14.012316 0.50044 28.024631 9.508357 28.024631 29.525951v69.060698h17.515394v-70.061578c0-14.012316-4.503959-25.522432-13.011436-33.529469-7.006158-8.007037-18.015834-12.010556-31.52771-12.010556z m103.090607 117.102922c10.509237-0.50044 23.020233-5.004398 23.020233-5.004398v-17.014955c0-1.00088-1.00088-1.50132-1.50132-1.000879-4.503959 1.50132-14.012316 4.503959-19.016713 5.004398-2.001759 0.50044-3.503079 0.50044-4.503959-0.50044-1.00088-1.00088-1.00088-1.50132-1.00088-3.503079v-75.566415h32.52859v-16.514515h-32.52859v-30.52683h-18.516274v30.02639h-18.516274v16.514515h18.516274v77.568175c0 6.505718 2.001759 12.010556 6.005278 15.513635 4.003519 3.002639 9.508357 5.004398 15.513635 5.004398z m337.296452-117.102922c-32.52859 0-54.547943 23.520672-54.547942 59.051901 0 35.030789 22.019353 59.051901 54.547942 59.051901s54.547943-23.520672 54.547943-59.051901c0-35.030789-22.019353-59.051901-54.547943-59.051901z m-38.033428 59.051901c0-25.021992 15.013195-41.536507 37.532988-41.536507s37.532988 17.014955 37.532988 42.036947-15.013195 42.036947-37.532988 42.036946c-22.019353-0.50044-37.532988-17.515394-37.532988-42.537386z" p-id="7193"></path><path d="M1145.807057 347.605513c-40.535627-41.536507-97.085329-67.559378-160.140749-67.559379-54.047503 0-101.088848 19.016714-142.124914 52.045744-18.015834 14.512755-36.532108 31.52771-60.052781 54.547942-12.010556 11.009676-350.307888 340.299091-350.307888 340.299091 18.015834 2.502199 42.036947 3.002639 64.0563 3.503079h426.374743c32.52859 0 54.047503 0 77.067735-1.501319 52.546183-4.003519 102.089727-23.020233 142.124915-62.55498 88.577852-87.576972 90.079171-229.701886 3.002639-318.780178m-65.057179 255.724758c-17.515394 17.014955-48.042225 36.532108-98.586649 38.533867-23.520672 1.00088-50.544424 1.00088-63.555859 1.00088h-271.738833c98.586648-96.084449 185.162741-180.158342 194.671097-189.166259 9.007917-8.507477 29.025511-28.024631 46.540906-43.538266 38.533868-34.029909 72.563777-41.536507 96.584889-41.036067 38.033428 0.50044 72.563777 16.014075 97.585768 41.036067 53.547063 53.547063 52.546183 140.123155-1.501319 193.169778" fill="#00A1FF" p-id="7194"></path><path d="M599.326752 326.587039c-40.035187-29.525951-84.574333-46.540905-135.118757-46.540905-63.05542 0-119.605122 26.022872-160.140748 67.559379-87.076532 89.078291-86.075652 231.203206 3.503078 318.780178 36.031668 35.531229 79.069495 54.047503 125.10996 61.05366l87.576972-84.574333c-14.512755 0-34.029909-0.50044-52.045743-1.00088-50.544424-1.50132-81.571694-21.018473-98.586648-38.533867-54.047503-53.046623-55.548822-139.622715-2.5022-193.670218 24.521552-25.021992 59.552341-40.535627 97.585769-41.036067 24.021112 0 56.049262 6.505718 93.08181 37.532988 17.515394 14.512755 56.049262 48.542664 73.064217 64.056299 1.00088 1.00088 2.001759 1.00088 3.002639 0l60.052781-59.051901c1.00088-1.00088 1.00088-2.502199 0-3.002639-29.525951-27.023751-70.061578-63.05542-94.58313-81.571694" fill="#00C4D6" p-id="7195"></path><path d="M1009.186981 229.50171c-41.536507-117.102922-153.635031-201.176816-284.249829-201.176815-151.132832 0-275.742352 110.597205-298.262145 254.723878 12.510996-2.001759 24.521552-3.002639 37.532988-3.002639 18.015834 0 35.030789 2.001759 50.544424 6.005278h1.00088c20.518033-97.085329 106.593686-169.649106 208.683413-169.649105 85.575213 0 160.140749 51.545303 193.670218 124.10908 0.50044 1.00088 1.50132 1.50132 2.502199 1.501319 25.522432-7.006158 55.548822-11.009676 85.074773-8.507477 3.002639 0 4.003519-1.50132 3.503079-4.003519" fill="#006EFF" p-id="7196"></path></svg>