<?xml version="1.0" encoding="UTF-8"?>
<svg id="_图层_2" data-name="图层 2" xmlns="http://www.w3.org/2000/svg" viewBox="0 0 351.54 75">
  <defs>
    <style>
      .cls-1 {
        fill-rule: evenodd;
      }

      .cls-1, .cls-2 {
        fill: #1c2633;
      }

      .cls-3 {
        fill: #00dcff;
      }

      .cls-4 {
        fill: #006aff;
      }
    </style>
  </defs>
  <g id="_图层_4" data-name="图层 4">
    <g>
      <g>
        <path class="cls-1" d="M223.94,17.38h-5.57c-.52,0-.94.42-.94.94v44.58h-14.57V10.34c0-.52-.42-.94-.94-.94h-5.62c-.52,0-.94.42-.94.94v52.55h-14.58V18.31c0-.52-.42-.94-.94-.94h-5.58c-.52,0-.94.42-.94.94v50.72c0,.72.59,1.31,1.31,1.31h48.92c.72,0,1.31-.59,1.31-1.31V18.31c0-.52-.42-.94-.94-.94Z"/>
        <g>
          <rect class="cls-2" x="278.35" y="9.41" width="7.5" height="60.94" rx=".94" ry=".94"/>
          <path class="cls-1" d="M263.77,9.41h-27.89c-.52,0-.94.42-.94.94v5.58c0,.52.42.94.94.94h21.04c.18,0,.33.15.33.33v8.02c0,.18-.15.33-.33.33h-20.21c-.49,0-.9.38-.94.87l-1.44,21.18c-.02.36.25.67.61.7.01,0,.03,0,.04,0h21.93c.18,0,.33.15.33.33v11.49c0,1.45-1.17,2.63-2.62,2.63h-16.13c-.52,0-.94.42-.94.94v5.72c0,.52.42.94.94.94h18.33c4.35,0,7.87-3.53,7.87-7.88v-20.69c0-.52-.42-.94-.94-.94h-21.32c-.36,0-.66-.29-.66-.66,0-.02,0-.04,0-.05l.55-6.53c.03-.34.31-.6.65-.6h20.77c.52,0,.94-.42.94-.94V10.34c0-.52-.42-.94-.94-.94Z"/>
        </g>
        <g>
          <path class="cls-1" d="M163.38,62.52c-8.92-.57-23.95-12.42-23.65-30.08V10.34c0-.52-.42-.94-.94-.94h-5.79c-.52,0-.94.42-.94.94v22.1c.31,17.66-14.8,29.51-23.72,30.08-.37.02-.66.32-.66.69v6.43c0,.4.32.72.71.7,6.67-.41,14.25-4.09,19.96-9.74,2.54-2.51,5.33-5.99,7.5-10.55,2.17,4.56,4.95,8.03,7.5,10.55,5.72,5.65,13.29,9.33,19.96,9.74.39.02.71-.3.71-.7v-6.43c0-.37-.29-.67-.66-.69Z"/>
          <path class="cls-1" d="M151.52,38.96h7.07c.35,0,.64-.27.69-.63,1.37-11.03,1.76-17.99,1.87-21.06.01-.4-.3-.73-.69-.73h-7.02c-.37,0-.68.3-.69.68-.11,3.03-.51,9.99-1.9,20.93-.05.43.27.81.68.81Z"/>
          <path class="cls-1" d="M112.82,39.3h7.3c.43,0,.76-.39.71-.82-1.44-11.11-1.85-18.17-1.97-21.25-.01-.39-.33-.69-.71-.69h-7.25c-.4,0-.73.34-.71.75.11,3.11.51,10.18,1.93,21.38.05.36.35.64.71.64Z"/>
        </g>
        <g>
          <path class="cls-1" d="M297.59,16.47h3.47v.77c0,.2.15.37.34.37h6.48c.19,0,.34-.17.34-.37v-.77h5.5v.77c0,.2.15.37.34.37h6.48c.19,0,.34-.17.34-.37v-.77h3.63c.19,0,.34-.15.34-.34v-4.84c0-.19-.15-.34-.34-.34h-3.63v-1.18c0-.2-.15-.37-.34-.37h-6.48c-.19,0-.34.17-.34.37v1.18h-5.5v-1.18c0-.2-.15-.37-.34-.37h-6.48c-.19,0-.34.17-.34.37v1.18h-3.47c-.19,0-.34.15-.34.34v4.84c0,.19.15.34.34.34Z"/>
          <path class="cls-1" d="M297.21,27.85c.95-.09,1.85-.29,2.69-.59v8.81c0,.37.3.67.67.67h15.07s.06-.01.09-.02v3.17c0,.18.15.33.33.33h5.72c1.52,0,2.74-1.23,2.74-2.75v-17.22c0-.37-.3-.67-.67-.67h-17.59c.08-.42.15-.86.19-1.31.02-.2-.14-.37-.34-.37h-5.64c-.17,0-.31.13-.34.3-.38,2.93-2.01,3.27-2.98,3.35-.17.01-.32.17-.32.34v5.6c0,.2.17.36.37.34ZM311.03,32.36c0,.19-.15.34-.34.34h-5.16c-.19,0-.34-.15-.34-.34v-2.31c0-.19.15-.34.34-.34h5.16c.19,0,.34.15.34.34v2.31ZM317.88,24.36c.18,0,.33.15.33.33v9.66c0,.18-.15.33-.33.33h-1.56v-8.36c0-.37-.3-.67-.67-.67h-12.92c.48-.39.93-.82,1.33-1.3h13.82Z"/>
          <path class="cls-1" d="M325.67,33.44l.07,5.96c0,.2.17.37.37.36,4.86-.1,8.74-.99,11.93-2.65,3.43,1.88,7.62,2.9,12.47,2.89.19,0,.35-.17.35-.37v-5.84c0-.2-.15-.35-.34-.35-2.32,0-4.61-.31-6.72-1,4.17-5.01,4.48-11.07,4.45-14.23h2.8c.19,0,.34-.15.34-.34v-5.26c0-.19-.15-.34-.34-.34h-14.07c.18-.81.3-1.65.32-2.52,0-.19-.15-.35-.34-.35h-5.83c-.18,0-.32.14-.33.32-.14,2.83-2.16,5.06-4.82,5.42-.17.02-.3.16-.3.33v5.84c0,.2.16.35.36.34,3.01-.2,5.69-1.47,7.68-3.46h8c.03,2.54-.2,7.09-3.33,10.41-.11.12-.24.22-.35.33-1.7-1.71-3-3.97-3.7-6.89-.04-.16-.17-.27-.33-.27h-5.81c-.22,0-.38.2-.35.42.68,3.91,2.17,7.29,4.37,10.03-1.76.5-3.78.78-6.19.83-.19,0-.35.16-.35.36Z"/>
          <path class="cls-1" d="M351.21,56.18h-22.8v-2.58h20.03c.18,0,.33-.15.33-.33v-4.22c0-.18-.15-.33-.33-.33h-20.03v-2.64h20.86c.18,0,.33-.15.33-.33v-4.22c0-.18-.15-.33-.33-.33h-50.15c-.18,0-.33.15-.33.33v4.22c0,.18.15.33.33.33h20.86v2.64h-20.03c-.18,0-.33.15-.33.33v4.22c0,.18.15.33.33.33h20.03v2.58h-22.8c-.18,0-.33.15-.33.33v4.22c0,.18.15.33.33.33h22.8v3.38c0,.37-.28.67-.65.67h-5.85c-.36,0-.66.29-.66.66v3.91c0,.36.29.66.66.66h9.7c2.9,0,5.22-2.35,5.22-5.25v-4.02h22.8c.18,0,.33-.15.33-.33v-4.22c0-.18-.15-.33-.33-.33Z"/>
        </g>
      </g>
      <g>
        <path class="cls-3" d="M34.82,28.93l-14.97,46.07h32.16l-14.97-46.07c-.35-1.08-1.88-1.08-2.23,0Z"/>
        <path class="cls-3" d="M12.83,42.36c-.35-1.08-1.88-1.08-2.23,0L0,75h9.42l7.01-21.57-3.59-11.06Z"/>
        <path class="cls-4" d="M29.52,20c-.35-1.08-1.88-1.08-2.23,0l-17.87,55h10.43l13.77-42.37-4.1-12.63Z"/>
        <path class="cls-3" d="M71.73,36.43c-.35-1.08-1.88-1.08-2.23,0l-3.55,10.94,8.98,27.63h9.34l-12.53-38.57Z"/>
        <path class="cls-4" d="M50.82.81c-.35-1.08-1.88-1.08-2.23,0l-10.34,31.82,13.77,42.37h22.9L50.82.81Z"/>
      </g>
    </g>
  </g>
</svg>