<svg width="280" height="70" viewBox="0 0 280 70" fill="none" xmlns="http://www.w3.org/2000/svg">
<rect y="9" width="53" height="51" rx="12" fill="#B421CC"/>
<path d="M10.5457 18.6437L7.40261 47.088C7.18024 49.1003 8.62618 50.9535 10.6322 51.2272C12.6382 51.5009 14.4447 50.0914 14.6671 48.0791L15.5923 39.7061C15.6884 38.8363 16.4692 38.2271 17.3363 38.3453C17.9196 38.4249 18.4907 38.1735 18.8193 37.6925L19.0397 37.3697C20.3441 35.4597 23.363 36.6512 23.1063 38.9747L22.6783 42.8475C22.337 45.9365 26.1433 47.7502 28.2174 45.487L32.2265 41.1123C32.6026 40.7019 33.1566 40.5038 33.7149 40.5799C34.6727 40.7106 35.3631 41.5955 35.2569 42.5563L34.335 50.899C34.1209 52.8371 35.5134 54.6219 37.4454 54.8854C39.3774 55.149 41.1171 53.7916 41.3313 51.8535L44.5041 23.1402C44.7183 21.2021 43.3257 19.4174 41.3938 19.1538C39.4618 18.8902 37.722 20.2476 37.5079 22.1857L36.6549 29.9053C36.5489 30.8646 35.6877 31.5364 34.7315 31.406C34.1717 31.3296 33.6164 31.5294 33.241 31.9424L32.7735 32.4567C30.7601 34.6714 27.0433 32.909 27.3761 29.8975L27.4603 29.1356C27.8314 25.7768 23.5818 23.923 21.5007 26.5358L19.8583 28.5979C19.5104 29.0347 18.9583 29.254 18.3985 29.1776C17.5047 29.0557 16.8604 28.2299 16.9595 27.3333L17.8102 19.6348C18.0326 17.6225 16.5866 15.7692 14.5806 15.4956C12.5746 15.2219 10.7681 16.6313 10.5457 18.6437Z" fill="white"/>
<path d="M68.3262 52H61.8799V19.791H68.3262V32.6836H81.1963V19.791H87.6426V52H81.1963V39.1299H68.3262V52ZM102.197 46.1152C102.437 46.1901 102.676 46.2425 102.916 46.2725C103.156 46.2874 103.395 46.2949 103.635 46.2949C104.234 46.2949 104.81 46.2126 105.364 46.0479C105.918 45.8831 106.435 45.651 106.914 45.3516C107.408 45.0371 107.842 44.6628 108.217 44.2285C108.606 43.7793 108.921 43.2852 109.16 42.7461L113.652 47.2607C113.083 48.0693 112.424 48.7956 111.676 49.4395C110.942 50.0833 110.141 50.6299 109.272 51.0791C108.419 51.5283 107.513 51.8652 106.555 52.0898C105.611 52.3294 104.638 52.4492 103.635 52.4492C101.943 52.4492 100.348 52.1348 98.8506 51.5059C97.3682 50.877 96.0654 50.001 94.9424 48.8779C93.8343 47.7549 92.9583 46.4222 92.3145 44.8799C91.6706 43.3226 91.3486 41.6156 91.3486 39.7588C91.3486 37.8571 91.6706 36.1201 92.3145 34.5479C92.9583 32.9756 93.8343 31.6354 94.9424 30.5273C96.0654 29.4193 97.3682 28.5583 98.8506 27.9443C100.348 27.3304 101.943 27.0234 103.635 27.0234C104.638 27.0234 105.619 27.1432 106.577 27.3828C107.535 27.6224 108.441 27.9668 109.295 28.416C110.163 28.8652 110.972 29.4193 111.721 30.0781C112.469 30.722 113.128 31.4482 113.697 32.2568L102.197 46.1152ZM105.342 33.4697C105.057 33.3649 104.773 33.2975 104.488 33.2676C104.219 33.2376 103.934 33.2227 103.635 33.2227C102.796 33.2227 102.003 33.3799 101.254 33.6943C100.52 33.9938 99.8763 34.4281 99.3223 34.9971C98.7832 35.5661 98.3564 36.2549 98.042 37.0635C97.7275 37.8571 97.5703 38.7555 97.5703 39.7588C97.5703 39.9834 97.5778 40.238 97.5928 40.5225C97.6227 40.807 97.6602 41.099 97.7051 41.3984C97.765 41.6829 97.8324 41.96 97.9072 42.2295C97.9821 42.499 98.0794 42.7386 98.1992 42.9482L105.342 33.4697ZM122.929 52H116.797V27.9443H118.279L120.301 30.7969C121.289 29.8984 122.412 29.2096 123.67 28.7305C124.928 28.2363 126.23 27.9893 127.578 27.9893H132.991V34.0986H127.578C126.934 34.0986 126.328 34.2184 125.759 34.458C125.19 34.6976 124.696 35.027 124.276 35.4463C123.857 35.8656 123.528 36.3597 123.288 36.9287C123.049 37.4977 122.929 38.1042 122.929 38.748V52ZM147.905 52C146.423 52 145.03 51.723 143.728 51.1689C142.425 50.5999 141.279 49.8288 140.291 48.8555C139.318 47.8672 138.547 46.7217 137.978 45.4189C137.424 44.1162 137.146 42.7236 137.146 41.2412V34.0986H134.159V27.9893H137.146V18.376H143.256V27.9893H152.555V34.0986H143.256V41.2412C143.256 41.8851 143.376 42.4915 143.615 43.0605C143.855 43.6146 144.184 44.1012 144.604 44.5205C145.023 44.9398 145.517 45.2767 146.086 45.5312C146.655 45.7708 147.261 45.8906 147.905 45.8906H152.555V52H147.905ZM174.791 52H154.733L164.863 34.0986H154.733V27.9893H174.791L164.661 45.8906H174.791V52ZM204.619 42.3418C204.619 43.6745 204.365 44.9248 203.855 46.0928C203.346 47.2607 202.65 48.2865 201.767 49.1699C200.898 50.0384 199.88 50.7272 198.712 51.2363C197.544 51.7454 196.294 52 194.961 52H178.856V19.791H194.961C196.294 19.791 197.544 20.0456 198.712 20.5547C199.88 21.0638 200.898 21.7601 201.767 22.6436C202.65 23.512 203.346 24.5303 203.855 25.6982C204.365 26.8662 204.619 28.1165 204.619 29.4492C204.619 30.0482 204.537 30.6621 204.372 31.291C204.207 31.9199 203.975 32.5264 203.676 33.1104C203.376 33.6943 203.017 34.2259 202.598 34.7051C202.178 35.1842 201.714 35.5811 201.205 35.8955C201.729 36.18 202.201 36.5693 202.62 37.0635C203.039 37.5426 203.399 38.0742 203.698 38.6582C203.998 39.2422 204.222 39.8561 204.372 40.5C204.537 41.1289 204.619 41.7428 204.619 42.3418ZM185.303 45.5537H194.961C195.41 45.5537 195.829 45.4714 196.219 45.3066C196.608 45.1419 196.945 44.9173 197.229 44.6328C197.529 44.3333 197.761 43.9889 197.926 43.5996C198.09 43.2103 198.173 42.791 198.173 42.3418C198.173 41.8926 198.09 41.4733 197.926 41.084C197.761 40.6947 197.529 40.3577 197.229 40.0732C196.945 39.7738 196.608 39.5417 196.219 39.377C195.829 39.2122 195.41 39.1299 194.961 39.1299H185.303V45.5537ZM185.303 32.6836H194.961C195.41 32.6836 195.829 32.6012 196.219 32.4365C196.608 32.2718 196.945 32.0472 197.229 31.7627C197.529 31.4632 197.761 31.1188 197.926 30.7295C198.09 30.3252 198.173 29.8984 198.173 29.4492C198.173 29 198.09 28.5807 197.926 28.1914C197.761 27.8021 197.529 27.4652 197.229 27.1807C196.945 26.8812 196.608 26.6491 196.219 26.4844C195.829 26.3197 195.41 26.2373 194.961 26.2373H185.303V32.6836ZM218.41 46.1152C218.65 46.1901 218.889 46.2425 219.129 46.2725C219.368 46.2874 219.608 46.2949 219.848 46.2949C220.447 46.2949 221.023 46.2126 221.577 46.0479C222.131 45.8831 222.648 45.651 223.127 45.3516C223.621 45.0371 224.055 44.6628 224.43 44.2285C224.819 43.7793 225.133 43.2852 225.373 42.7461L229.865 47.2607C229.296 48.0693 228.637 48.7956 227.889 49.4395C227.155 50.0833 226.354 50.6299 225.485 51.0791C224.632 51.5283 223.726 51.8652 222.768 52.0898C221.824 52.3294 220.851 52.4492 219.848 52.4492C218.156 52.4492 216.561 52.1348 215.063 51.5059C213.581 50.877 212.278 50.001 211.155 48.8779C210.047 47.7549 209.171 46.4222 208.527 44.8799C207.883 43.3226 207.562 41.6156 207.562 39.7588C207.562 37.8571 207.883 36.1201 208.527 34.5479C209.171 32.9756 210.047 31.6354 211.155 30.5273C212.278 29.4193 213.581 28.5583 215.063 27.9443C216.561 27.3304 218.156 27.0234 219.848 27.0234C220.851 27.0234 221.832 27.1432 222.79 27.3828C223.748 27.6224 224.654 27.9668 225.508 28.416C226.376 28.8652 227.185 29.4193 227.934 30.0781C228.682 30.722 229.341 31.4482 229.91 32.2568L218.41 46.1152ZM221.555 33.4697C221.27 33.3649 220.986 33.2975 220.701 33.2676C220.432 33.2376 220.147 33.2227 219.848 33.2227C219.009 33.2227 218.215 33.3799 217.467 33.6943C216.733 33.9938 216.089 34.4281 215.535 34.9971C214.996 35.5661 214.569 36.2549 214.255 37.0635C213.94 37.8571 213.783 38.7555 213.783 39.7588C213.783 39.9834 213.791 40.238 213.806 40.5225C213.836 40.807 213.873 41.099 213.918 41.3984C213.978 41.6829 214.045 41.96 214.12 42.2295C214.195 42.499 214.292 42.7386 214.412 42.9482L221.555 33.4697ZM256.122 52H254.64L252.259 48.6982C251.675 49.2223 251.053 49.7165 250.395 50.1807C249.751 50.6299 249.069 51.0267 248.351 51.3711C247.632 51.7005 246.891 51.9626 246.127 52.1572C245.378 52.3519 244.615 52.4492 243.836 52.4492C242.144 52.4492 240.549 52.1647 239.052 51.5957C237.569 51.0267 236.267 50.2031 235.144 49.125C234.035 48.0319 233.16 46.6992 232.516 45.127C231.872 43.5547 231.55 41.7653 231.55 39.7588C231.55 37.887 231.872 36.1725 232.516 34.6152C233.16 33.043 234.035 31.6953 235.144 30.5723C236.267 29.4492 237.569 28.5807 239.052 27.9668C240.549 27.3379 242.144 27.0234 243.836 27.0234C244.615 27.0234 245.386 27.1208 246.149 27.3154C246.913 27.5101 247.654 27.7796 248.373 28.124C249.092 28.4684 249.773 28.8727 250.417 29.3369C251.076 29.8011 251.69 30.3027 252.259 30.8418L254.64 27.9893H256.122V52ZM249.945 39.7588C249.945 38.9202 249.781 38.1117 249.451 37.333C249.137 36.5394 248.702 35.8431 248.148 35.2441C247.594 34.6302 246.943 34.1436 246.194 33.7842C245.461 33.4098 244.674 33.2227 243.836 33.2227C242.997 33.2227 242.204 33.3649 241.455 33.6494C240.721 33.9339 240.077 34.3532 239.523 34.9072C238.984 35.4613 238.558 36.1501 238.243 36.9736C237.929 37.7822 237.771 38.7106 237.771 39.7588C237.771 40.807 237.929 41.7428 238.243 42.5664C238.558 43.375 238.984 44.0563 239.523 44.6104C240.077 45.1644 240.721 45.5837 241.455 45.8682C242.204 46.1527 242.997 46.2949 243.836 46.2949C244.674 46.2949 245.461 46.1152 246.194 45.7559C246.943 45.3815 247.594 44.8949 248.148 44.2959C248.702 43.682 249.137 42.9857 249.451 42.207C249.781 41.4134 249.945 40.5973 249.945 39.7588ZM272.878 52C271.396 52 270.003 51.723 268.7 51.1689C267.397 50.5999 266.252 49.8288 265.264 48.8555C264.29 47.8672 263.519 46.7217 262.95 45.4189C262.396 44.1162 262.119 42.7236 262.119 41.2412V34.0986H259.132V27.9893H262.119V18.376H268.229V27.9893H277.527V34.0986H268.229V41.2412C268.229 41.8851 268.348 42.4915 268.588 43.0605C268.827 43.6146 269.157 44.1012 269.576 44.5205C269.995 44.9398 270.49 45.2767 271.059 45.5312C271.628 45.7708 272.234 45.8906 272.878 45.8906H277.527V52H272.878Z" fill="#B421CC"/>
<path d="M217.773 16.2021V14.8008C217.773 14.6087 217.736 14.4281 217.661 14.2588C217.59 14.0863 217.49 13.9365 217.363 13.8096C217.236 13.6826 217.087 13.5833 216.914 13.5117C216.745 13.4368 216.564 13.3994 216.372 13.3994C216.18 13.3994 215.998 13.4368 215.825 13.5117C215.656 13.5833 215.508 13.6826 215.381 13.8096C215.254 13.9365 215.153 14.0863 215.078 14.2588C215.007 14.4281 214.971 14.6087 214.971 14.8008V16.2021H217.773ZM219.175 19H217.773V17.5986H214.971V19H213.574V14.8008C213.574 14.4134 213.647 14.0505 213.794 13.7119C213.94 13.3701 214.139 13.0723 214.39 12.8184C214.644 12.5645 214.94 12.3643 215.278 12.2178C215.62 12.0713 215.985 11.998 216.372 11.998C216.759 11.998 217.122 12.0713 217.461 12.2178C217.803 12.3643 218.101 12.5645 218.354 12.8184C218.608 13.0723 218.809 13.3701 218.955 13.7119C219.102 14.0505 219.175 14.4134 219.175 14.8008V19ZM221.792 13.3994V16.2021H223.193C223.385 16.2021 223.566 16.1663 223.735 16.0947C223.905 16.0199 224.053 15.9189 224.18 15.792C224.307 15.665 224.406 15.5169 224.478 15.3477C224.552 15.1751 224.59 14.9928 224.59 14.8008C224.59 14.6087 224.552 14.4281 224.478 14.2588C224.406 14.0863 224.307 13.9365 224.18 13.8096C224.053 13.6826 223.905 13.5833 223.735 13.5117C223.566 13.4368 223.385 13.3994 223.193 13.3994H221.792ZM221.792 19H220.391V11.998H223.193C223.451 11.998 223.698 12.0322 223.936 12.1006C224.173 12.1657 224.395 12.2601 224.6 12.3838C224.808 12.5042 224.997 12.6507 225.166 12.8232C225.339 12.9925 225.485 13.1813 225.605 13.3896C225.729 13.598 225.824 13.821 225.889 14.0586C225.957 14.2962 225.991 14.5436 225.991 14.8008C225.991 15.1849 225.918 15.5479 225.771 15.8896C225.625 16.2282 225.425 16.5244 225.171 16.7783C224.917 17.0322 224.619 17.2324 224.277 17.3789C223.939 17.5254 223.577 17.5986 223.193 17.5986H221.792V19ZM230.938 16.2021V14.8008C230.938 14.6087 230.9 14.4281 230.825 14.2588C230.754 14.0863 230.654 13.9365 230.527 13.8096C230.4 13.6826 230.251 13.5833 230.078 13.5117C229.909 13.4368 229.728 13.3994 229.536 13.3994C229.344 13.3994 229.162 13.4368 228.989 13.5117C228.82 13.5833 228.672 13.6826 228.545 13.8096C228.418 13.9365 228.317 14.0863 228.242 14.2588C228.171 14.4281 228.135 14.6087 228.135 14.8008V16.2021H230.938ZM232.339 19H230.938V17.5986H228.135V19H226.738V14.8008C226.738 14.4134 226.812 14.0505 226.958 13.7119C227.104 13.3701 227.303 13.0723 227.554 12.8184C227.808 12.5645 228.104 12.3643 228.442 12.2178C228.784 12.0713 229.149 11.998 229.536 11.998C229.924 11.998 230.286 12.0713 230.625 12.2178C230.967 12.3643 231.265 12.5645 231.519 12.8184C231.772 13.0723 231.973 13.3701 232.119 13.7119C232.266 14.0505 232.339 14.4134 232.339 14.8008V19ZM239.146 18.2822C238.82 18.5622 238.455 18.777 238.052 18.9268C237.648 19.0765 237.23 19.1514 236.797 19.1514C236.465 19.1514 236.144 19.1074 235.835 19.0195C235.529 18.9349 235.241 18.8145 234.971 18.6582C234.704 18.4987 234.46 18.3083 234.238 18.0869C234.017 17.8656 233.826 17.6214 233.667 17.3545C233.511 17.0843 233.389 16.7962 233.301 16.4902C233.216 16.181 233.174 15.8604 233.174 15.5283C233.174 15.1963 233.216 14.8757 233.301 14.5664C233.389 14.2572 233.511 13.9691 233.667 13.7021C233.826 13.432 234.017 13.1862 234.238 12.9648C234.46 12.7435 234.704 12.5547 234.971 12.3984C235.241 12.2389 235.529 12.1169 235.835 12.0322C236.144 11.9443 236.465 11.9004 236.797 11.9004C237.23 11.9004 237.648 11.9753 238.052 12.125C238.455 12.2715 238.82 12.4863 239.146 12.7695L238.403 13.9902C238.198 13.7689 237.956 13.5996 237.676 13.4824C237.396 13.362 237.103 13.3018 236.797 13.3018C236.488 13.3018 236.198 13.3604 235.928 13.4775C235.658 13.5947 235.422 13.7542 235.22 13.9561C235.018 14.1546 234.858 14.3906 234.741 14.6641C234.624 14.9342 234.565 15.2223 234.565 15.5283C234.565 15.8343 234.624 16.1224 234.741 16.3926C234.858 16.6595 235.018 16.8939 235.22 17.0957C235.422 17.2975 235.658 17.457 235.928 17.5742C236.198 17.6914 236.488 17.75 236.797 17.75C237.103 17.75 237.396 17.6914 237.676 17.5742C237.956 17.4538 238.198 17.2829 238.403 17.0615L239.146 18.2822ZM241.362 19H239.961V11.998H241.362V14.8008H244.16V11.998H245.562V19H244.16V16.2021H241.362V19ZM251.665 19H246.865V11.998H251.665V13.3994H248.267V14.8008H250.566V16.2021H248.267V17.5986H251.665V19Z" fill="black"/>
</svg>
