<svg width="206" height="53" viewBox="0 0 206 53" fill="none" xmlns="http://www.w3.org/2000/svg">
<g clip-path="url(#clip0_501_2)">
<path d="M59.0087 36H54.5243V13.5938H59.0087V22.5625H67.9618V13.5938H72.4462V36H67.9618V27.0469H59.0087V36ZM82.5712 31.9062C82.7378 31.9583 82.9045 31.9948 83.0712 32.0156C83.2378 32.026 83.4045 32.0312 83.5712 32.0312C83.9878 32.0312 84.3889 31.974 84.7743 31.8594C85.1597 31.7448 85.5191 31.5833 85.8524 31.375C86.1962 31.1562 86.4983 30.8958 86.7587 30.5938C87.0295 30.2812 87.2483 29.9375 87.4149 29.5625L90.5399 32.7031C90.1441 33.2656 89.6858 33.7708 89.1649 34.2188C88.6545 34.6667 88.0972 35.0469 87.493 35.3594C86.8993 35.6719 86.2691 35.9062 85.6024 36.0625C84.9462 36.2292 84.2691 36.3125 83.5712 36.3125C82.3941 36.3125 81.2847 36.0938 80.243 35.6562C79.2118 35.2188 78.3055 34.6094 77.5243 33.8281C76.7535 33.0469 76.1441 32.1198 75.6962 31.0469C75.2483 29.9635 75.0243 28.776 75.0243 27.4844C75.0243 26.1615 75.2483 24.9531 75.6962 23.8594C76.1441 22.7656 76.7535 21.8333 77.5243 21.0625C78.3055 20.2917 79.2118 19.6927 80.243 19.2656C81.2847 18.8385 82.3941 18.625 83.5712 18.625C84.2691 18.625 84.9514 18.7083 85.618 18.875C86.2847 19.0417 86.9149 19.2812 87.5087 19.5938C88.1128 19.9062 88.6753 20.2917 89.1962 20.75C89.717 21.1979 90.1753 21.7031 90.5712 22.2656L82.5712 31.9062ZM84.7587 23.1094C84.5608 23.0365 84.3628 22.9896 84.1649 22.9688C83.9774 22.9479 83.7795 22.9375 83.5712 22.9375C82.9878 22.9375 82.4358 23.0469 81.9149 23.2656C81.4045 23.474 80.9566 23.776 80.5712 24.1719C80.1962 24.5677 79.8993 25.0469 79.6805 25.6094C79.4618 26.1615 79.3524 26.7865 79.3524 27.4844C79.3524 27.6406 79.3576 27.8177 79.368 28.0156C79.3889 28.2135 79.4149 28.4167 79.4462 28.625C79.4878 28.8229 79.5347 29.0156 79.5868 29.2031C79.6389 29.3906 79.7066 29.5573 79.7899 29.7031L84.7587 23.1094ZM96.993 36H92.7274V19.2656H93.7587L95.1649 21.25C95.8524 20.625 96.6337 20.1458 97.5087 19.8125C98.3837 19.4688 99.2899 19.2969 100.227 19.2969H103.993V23.5469H100.227C99.7795 23.5469 99.3576 23.6302 98.9618 23.7969C98.566 23.9635 98.2222 24.1927 97.9305 24.4844C97.6389 24.776 97.4097 25.1198 97.243 25.5156C97.0764 25.9115 96.993 26.3333 96.993 26.7812V36ZM114.368 36C113.337 36 112.368 35.8073 111.462 35.4219C110.556 35.026 109.759 34.4896 109.071 33.8125C108.394 33.125 107.858 32.3281 107.462 31.4219C107.076 30.5156 106.884 29.5469 106.884 28.5156V23.5469H104.806V19.2969H106.884V12.6094H111.134V19.2969H117.602V23.5469H111.134V28.5156C111.134 28.9635 111.217 29.3854 111.384 29.7812C111.55 30.1667 111.78 30.5052 112.071 30.7969C112.363 31.0885 112.707 31.3229 113.102 31.5C113.498 31.6667 113.92 31.75 114.368 31.75H117.602V36H114.368ZM133.071 36H119.118L126.165 23.5469H119.118V19.2969H133.071L126.024 31.75H133.071V36ZM153.821 29.2812C153.821 30.2083 153.644 31.0781 153.29 31.8906C152.936 32.7031 152.451 33.4167 151.837 34.0312C151.233 34.6354 150.524 35.1146 149.712 35.4688C148.899 35.8229 148.03 36 147.102 36H135.899V13.5938H147.102C148.03 13.5938 148.899 13.7708 149.712 14.125C150.524 14.4792 151.233 14.9635 151.837 15.5781C152.451 16.1823 152.936 16.8906 153.29 17.7031C153.644 18.5156 153.821 19.3854 153.821 20.3125C153.821 20.7292 153.764 21.1562 153.649 21.5938C153.535 22.0312 153.373 22.4531 153.165 22.8594C152.957 23.2656 152.707 23.6354 152.415 23.9688C152.123 24.3021 151.8 24.5781 151.446 24.7969C151.811 24.9948 152.139 25.2656 152.431 25.6094C152.722 25.9427 152.972 26.3125 153.181 26.7188C153.389 27.125 153.545 27.5521 153.649 28C153.764 28.4375 153.821 28.8646 153.821 29.2812ZM140.384 31.5156H147.102C147.415 31.5156 147.707 31.4583 147.977 31.3438C148.248 31.2292 148.483 31.0729 148.681 30.875C148.889 30.6667 149.05 30.4271 149.165 30.1562C149.28 29.8854 149.337 29.5938 149.337 29.2812C149.337 28.9688 149.28 28.6771 149.165 28.4062C149.05 28.1354 148.889 27.901 148.681 27.7031C148.483 27.4948 148.248 27.3333 147.977 27.2188C147.707 27.1042 147.415 27.0469 147.102 27.0469H140.384V31.5156ZM140.384 22.5625H147.102C147.415 22.5625 147.707 22.5052 147.977 22.3906C148.248 22.276 148.483 22.1198 148.681 21.9219C148.889 21.7135 149.05 21.474 149.165 21.2031C149.28 20.9219 149.337 20.625 149.337 20.3125C149.337 20 149.28 19.7083 149.165 19.4375C149.05 19.1667 148.889 18.9323 148.681 18.7344C148.483 18.526 148.248 18.3646 147.977 18.25C147.707 18.1354 147.415 18.0781 147.102 18.0781H140.384V22.5625ZM163.415 31.9062C163.582 31.9583 163.748 31.9948 163.915 32.0156C164.082 32.026 164.248 32.0312 164.415 32.0312C164.832 32.0312 165.233 31.974 165.618 31.8594C166.003 31.7448 166.363 31.5833 166.696 31.375C167.04 31.1562 167.342 30.8958 167.602 30.5938C167.873 30.2812 168.092 29.9375 168.259 29.5625L171.384 32.7031C170.988 33.2656 170.53 33.7708 170.009 34.2188C169.498 34.6667 168.941 35.0469 168.337 35.3594C167.743 35.6719 167.113 35.9062 166.446 36.0625C165.79 36.2292 165.113 36.3125 164.415 36.3125C163.238 36.3125 162.128 36.0938 161.087 35.6562C160.056 35.2188 159.149 34.6094 158.368 33.8281C157.597 33.0469 156.988 32.1198 156.54 31.0469C156.092 29.9635 155.868 28.776 155.868 27.4844C155.868 26.1615 156.092 24.9531 156.54 23.8594C156.988 22.7656 157.597 21.8333 158.368 21.0625C159.149 20.2917 160.056 19.6927 161.087 19.2656C162.128 18.8385 163.238 18.625 164.415 18.625C165.113 18.625 165.795 18.7083 166.462 18.875C167.128 19.0417 167.759 19.2812 168.352 19.5938C168.957 19.9062 169.519 20.2917 170.04 20.75C170.561 21.1979 171.019 21.7031 171.415 22.2656L163.415 31.9062ZM165.602 23.1094C165.405 23.0365 165.207 22.9896 165.009 22.9688C164.821 22.9479 164.623 22.9375 164.415 22.9375C163.832 22.9375 163.28 23.0469 162.759 23.2656C162.248 23.474 161.8 23.776 161.415 24.1719C161.04 24.5677 160.743 25.0469 160.524 25.6094C160.306 26.1615 160.196 26.7865 160.196 27.4844C160.196 27.6406 160.201 27.8177 160.212 28.0156C160.233 28.2135 160.259 28.4167 160.29 28.625C160.332 28.8229 160.378 29.0156 160.431 29.2031C160.483 29.3906 160.55 29.5573 160.634 29.7031L165.602 23.1094ZM189.649 36H188.618L186.962 33.7031C186.556 34.0677 186.123 34.4115 185.665 34.7344C185.217 35.0469 184.743 35.3229 184.243 35.5625C183.743 35.7917 183.227 35.974 182.696 36.1094C182.175 36.2448 181.644 36.3125 181.102 36.3125C179.925 36.3125 178.816 36.1146 177.774 35.7188C176.743 35.3229 175.837 34.75 175.056 34C174.285 33.2396 173.675 32.3125 173.227 31.2188C172.78 30.125 172.556 28.8802 172.556 27.4844C172.556 26.1823 172.78 24.9896 173.227 23.9062C173.675 22.8125 174.285 21.875 175.056 21.0938C175.837 20.3125 176.743 19.7083 177.774 19.2812C178.816 18.8438 179.925 18.625 181.102 18.625C181.644 18.625 182.181 18.6927 182.712 18.8281C183.243 18.9635 183.759 19.151 184.259 19.3906C184.759 19.6302 185.233 19.9115 185.681 20.2344C186.139 20.5573 186.566 20.9062 186.962 21.2812L188.618 19.2969H189.649V36ZM185.352 27.4844C185.352 26.901 185.238 26.3385 185.009 25.7969C184.79 25.2448 184.488 24.7604 184.102 24.3438C183.717 23.9167 183.264 23.5781 182.743 23.3281C182.233 23.0677 181.686 22.9375 181.102 22.9375C180.519 22.9375 179.967 23.0365 179.446 23.2344C178.936 23.4323 178.488 23.724 178.102 24.1094C177.727 24.4948 177.431 24.974 177.212 25.5469C176.993 26.1094 176.884 26.7552 176.884 27.4844C176.884 28.2135 176.993 28.8646 177.212 29.4375C177.431 30 177.727 30.474 178.102 30.8594C178.488 31.2448 178.936 31.5365 179.446 31.7344C179.967 31.9323 180.519 32.0312 181.102 32.0312C181.686 32.0312 182.233 31.9062 182.743 31.6562C183.264 31.3958 183.717 31.0573 184.102 30.6406C184.488 30.2135 184.79 29.7292 185.009 29.1875C185.238 28.6354 185.352 28.0677 185.352 27.4844ZM201.306 36C200.274 36 199.306 35.8073 198.399 35.4219C197.493 35.026 196.696 34.4896 196.009 33.8125C195.332 33.125 194.795 32.3281 194.399 31.4219C194.014 30.5156 193.821 29.5469 193.821 28.5156V23.5469H191.743V19.2969H193.821V12.6094H198.071V19.2969H204.54V23.5469H198.071V28.5156C198.071 28.9635 198.155 29.3854 198.321 29.7812C198.488 30.1667 198.717 30.5052 199.009 30.7969C199.3 31.0885 199.644 31.3229 200.04 31.5C200.436 31.6667 200.858 31.75 201.306 31.75H204.54V36H201.306Z" fill="white"/>
<path fill-rule="evenodd" clip-rule="evenodd" d="M24.8453 0C11.1261 0 0 10.745 0 24.001C0 33.826 6.11788 42.271 14.8744 45.982C14.804 44.308 14.862 42.293 15.304 40.47C15.7823 38.522 17.7077 27.5 17.7077 27.5C17.7077 27.5 17.7077 25.861 17.7077 23.595C17.7077 20.039 20.1176 21.819 22.7739 21.819L26.397 23C33.1256 23 43.995 23 43.995 23C43.995 23 34.1018 15.5 27.4322 15.5C19.8971 15.5 19.1508 15.5 19.1508 15.5C19.1508 17.594 13.9749 18 13.9749 18L11.9045 15.5L9.31658 14.5C9.31658 7.684 13.9956 8.069 25.7987 8.069C35.285 8.069 49.6884 14.5 43.995 23C43.995 23 34.3875 23 26.397 23C23.718 23 29.3327 31.09 28.4673 29.5C28.4673 29.5 28.9849 33 22.7739 37C22.248 38.85 18.7481 45.575 17.805 47.015C20.04 47.653 22.4012 48 24.8453 48C38.5655 48 49.6884 37.255 49.6884 24.001C49.6884 10.745 38.5655 0 24.8453 0Z" fill="white"/>
</g>
<defs>
<clipPath id="clip0_501_2">
<rect width="206" height="53" fill="white"/>
</clipPath>
</defs>
</svg>
