<?xml version="1.0" encoding="utf-8"?>
<!-- Generator: Adobe Illustrator 19.0.0, SVG Export Plug-In . SVG Version: 6.00 Build 0)  -->
<svg version="1.1" id="图层_1" xmlns="http://www.w3.org/2000/svg" xmlns:xlink="http://www.w3.org/1999/xlink" x="0px" y="0px"
	 viewBox="0 0 400 400" style="enable-background:new 0 0 400 400;" xml:space="preserve">
<style type="text/css">
	.st0{fill:url(#SVGID_1_);}
	.st1{fill:url(#SVGID_2_);}
	.st2{fill:url(#SVGID_3_);}
</style>
<g>
	<linearGradient id="SVGID_1_" gradientUnits="userSpaceOnUse" x1="215.0983" y1="173.3861" x2="271.3071" y2="173.3861">
		<stop  offset="3.215440e-02" style="stop-color:#F0776F"/>
		<stop  offset="1" style="stop-color:#F0606F"/>
	</linearGradient>
	<path class="st0" d="M258.7,213.4c-0.3,0-0.6,0-1-0.1c-4.3-0.5-7.4-4.4-6.9-8.7l4.7-38.9c0.3-2.5-1.2-4.9-3.5-5.7l-31.7-11.3
		c-4.1-1.5-6.2-5.9-4.8-10c1.5-4.1,5.9-6.2,10-4.8l31.7,11.3c9.4,3.3,15.1,12.5,13.9,22.4l-4.7,38.9
		C266,210.4,262.6,213.4,258.7,213.4z"/>
	<linearGradient id="SVGID_2_" gradientUnits="userSpaceOnUse" x1="127.4784" y1="201.0843" x2="263.3311" y2="201.0843">
		<stop  offset="0" style="stop-color:#6EB4E0"/>
		<stop  offset="1" style="stop-color:#1588E0"/>
	</linearGradient>
	<path class="st1" d="M197.9,275.7c-3.5,0-7-0.9-10.3-2.7l-41-22.8c-5.9-3.3-9.9-9.2-10.7-15.9l-8.3-67.6
		c-1.2-9.9,4.7-19.3,14.1-22.6l50.7-17.3c4.1-1.4,8.6,0.8,10,4.9c1.4,4.1-0.8,8.6-4.9,10l-50.7,17.3c-2.4,0.8-3.9,3.2-3.6,5.8
		l8.3,67.6c0.2,1.7,1.2,3.2,2.7,4.1l41,22.8c1.6,0.9,3.6,0.9,5.2,0l44.4-24.3c1.5-0.8,2.6-2.4,2.8-4.1c0.5-4.3,4.4-7.4,8.7-6.9
		c4.3,0.5,7.4,4.4,6.9,8.7c-0.8,6.7-4.9,12.7-10.8,16l-44.4,24.3C204.9,274.8,201.4,275.7,197.9,275.7z"/>
	<linearGradient id="SVGID_3_" gradientUnits="userSpaceOnUse" x1="163.5466" y1="194.4135" x2="233.869" y2="194.4135">
		<stop  offset="3.215440e-02" style="stop-color:#F0776F"/>
		<stop  offset="1" style="stop-color:#F0606F"/>
	</linearGradient>
	<path class="st2" d="M233,214.7l-25.4-45.9l-0.1-0.1c-1.8-3.1-5.2-5.1-8.8-5.1c-3.6,0-7,2-8.8,5.1l-25.4,46
		c-1.9,3.5-0.7,7.8,2.8,9.7c3.5,1.9,7.8,0.7,9.7-2.8l4.9-8.9h33.6l4.9,8.9c1.3,2.4,3.7,3.7,6.3,3.7c1.2,0,2.4-0.3,3.4-0.9
		C233.6,222.5,234.9,218.1,233,214.7z M189.8,198.4l8.9-16.1l8.9,16.1H189.8z"/>
</g>
</svg>
